<?xml version="1.0" ?><!DOCTYPE svg  PUBLIC '-//W3C//DTD SVG 1.0//EN'  'http://www.w3.org/TR/2001/REC-SVG-20010904/DTD/svg10.dtd'><svg height="110px" style="enable-background:new 0 0 110 110;" version="1.0" viewBox="0 0 110 110" width="110px" xml:space="preserve" xmlns="http://www.w3.org/2000/svg" xmlns:xlink="http://www.w3.org/1999/xlink"><g id="Artboard"/><g id="Multicolor"><circle cx="55" cy="54.848" r="55" style="fill:#25B7D3;"/><g><path d="M87,73.575c0,1.607-1.302,2.909-2.909,2.909H25.909c-1.607,0-2.909-1.302-2.909-2.909V32.848    c0-1.607,1.302-2.909,2.909-2.909h58.182c1.607,0,2.909,1.302,2.909,2.909V73.575z" style="fill:#3E3E3F;"/><rect height="7.455" style="fill:#E2E4E5;" width="17.455" x="46.273" y="76.485"/><path d="M69.545,85.394c0,0.803-0.651,1.455-1.455,1.455H41.909c-0.803,0-1.455-0.651-1.455-1.455    s0.651-1.455,1.455-1.455h26.182C68.894,83.939,69.545,84.59,69.545,85.394z" style="fill:#F0F1F1;"/><path d="M87,73.575v-8.727H23v8.727c0,1.607,1.303,2.909,2.909,2.909h58.182    C85.697,76.485,87,75.182,87,73.575z" style="fill:#FFFFFF;"/><path d="M55,74.757c-2.156,0-3.909-1.753-3.909-3.909c0-2.156,1.754-3.909,3.909-3.909    s3.909,1.753,3.909,3.909C58.909,73.004,57.156,74.757,55,74.757z M55,68.939c-1.053,0-1.909,0.856-1.909,1.909    c0,1.052,0.856,1.909,1.909,1.909s1.909-0.856,1.909-1.909C56.909,69.796,56.053,68.939,55,68.939z" style="fill:#CFD3D4;"/><path d="M23,32.848v32h19.724l34.909-34.909H25.909C24.303,29.939,23,31.242,23,32.848z" style="fill:#5B5C5F;"/><circle cx="55" cy="38.848" r="16" style="fill:#FFFFFF;"/><path d="M64.9,40.154c-0.204-0.492-0.685-0.814-1.218-0.814h-3.409v-9.228c0-0.728-0.59-1.318-1.318-1.318    h-7.909c-0.728,0-1.318,0.59-1.318,1.318v9.228h-3.409c-0.533,0-1.014,0.321-1.218,0.814c-0.204,0.493-0.091,1.059,0.286,1.437    l8.656,7.925c0.515,0.515,1.349,0.515,1.864,0l8.708-7.925C64.991,41.214,65.104,40.647,64.9,40.154z" style="fill:#17B198;"/></g></g></svg>