STARTFONT 2.1
COMMENT 
COMMENT Copyright (C) 2012-2015 Uwe Waldmann
COMMENT 
COMMENT Permission is hereby granted, free of charge, to any person obtaining
COMMENT a copy of this font software and associated files (the "Software"),
COMMENT to deal in the Software without restriction, including without
COMMENT limitation the rights to use, copy, modify, merge, publish,
COMMENT distribute, embed, sublicense, and/or sell copies of the Software,
COMMENT and to permit persons to whom the Software is furnished to do so,
COMMENT subject to the following conditions:
COMMENT 
COMMENT (1) The above copyright notice, this permission notice, and the
COMMENT     disclaimer below shall be included in all copies or substantial
COMMENT     portions of the Software.
COMMENT 
COMMENT (2) If the design of any glyphs in the fonts that are contained in the
COMMENT     Software or generated during the installation process is modified
COMMENT     or if additional glyphs are added to the fonts, the fonts
COMMENT     must be renamed. The new names may not contain the word "UW",
COMMENT     irrespective of capitalisation; the new names may contain the word
COMMENT     "ttyp0", irrespective of capitalisation, only if preceded by a
COMMENT     foundry name different from "UW".
COMMENT 
COMMENT THE SOFTWARE IS PROVIDED "AS IS", WITHOUT WARRANTY OF ANY KIND, EXPRESS
COMMENT OR IMPLIED, INCLUDING BUT NOT LIMITED TO THE WARRANTIES OF
COMMENT MERCHANTABILITY, FITNESS FOR A PARTICULAR PURPOSE AND NONINFRINGEMENT.
COMMENT IN NO EVENT SHALL THE AUTHORS OR COPYRIGHT HOLDERS BE LIABLE FOR ANY
COMMENT CLAIM, DAMAGES OR OTHER LIABILITY, WHETHER IN AN ACTION OF CONTRACT,
COMMENT TORT OR OTHERWISE, ARISING FROM, OUT OF OR IN CONNECTION WITH THE
COMMENT SOFTWARE OR THE USE OR OTHER DEALINGS IN THE SOFTWARE.
COMMENT 
FONT -UW-Ttyp0-Bold-R-Normal--17-160-75-75-C-90-MICROSOFT-CP1251
SIZE 17 75 75
FONTBOUNDINGBOX 9 17 0 -3
STARTPROPERTIES 19
FONTNAME_REGISTRY ""
FOUNDRY "UW"
FAMILY_NAME "Ttyp0"
WEIGHT_NAME "Bold"
SLANT "R"
SETWIDTH_NAME "Normal"
ADD_STYLE_NAME ""
PIXEL_SIZE 17
POINT_SIZE 160
RESOLUTION_X 75
RESOLUTION_Y 75
SPACING "C"
AVERAGE_WIDTH 90
CHARSET_REGISTRY "MICROSOFT"
CHARSET_ENCODING "CP1251"
DEFAULT_CHAR 0
FONT_DESCENT 3
FONT_ASCENT 14
COPYRIGHT "Copyright (C) 2012-2015 Uwe Waldmann"
ENDPROPERTIES
CHARS 254
STARTCHAR DDefaultChar
ENCODING 0
SWIDTH 1080 0
DWIDTH 9 0
BBX 9 17 0 -3
BITMAP
0000
0000
0000
6b00
6b00
0000
6300
6300
0000
6300
6300
0000
6b00
6b00
0000
0000
0000
ENDCHAR
STARTCHAR DDiamondB
ENCODING 1
SWIDTH 1080 0
DWIDTH 9 0
BBX 9 17 0 -3
BITMAP
0000
0000
0000
0000
0000
0800
1c00
3e00
7f00
7f00
3e00
1c00
0800
0000
0000
0000
0000
ENDCHAR
STARTCHAR GGrey
ENCODING 2
SWIDTH 1080 0
DWIDTH 9 0
BBX 9 17 0 -3
BITMAP
aa80
5500
aa80
5500
aa80
5500
aa80
5500
aa80
5500
aa80
5500
aa80
5500
aa80
5500
aa80
ENDCHAR
STARTCHAR CtlHT
ENCODING 3
SWIDTH 1080 0
DWIDTH 9 0
BBX 9 17 0 -3
BITMAP
0000
0000
0000
6c00
6c00
7c00
6c00
6c00
0000
3f00
0c00
0c00
0c00
0c00
0000
0000
0000
ENDCHAR
STARTCHAR CtlFF
ENCODING 4
SWIDTH 1080 0
DWIDTH 9 0
BBX 9 17 0 -3
BITMAP
0000
0000
0000
7c00
6000
7800
6000
6000
0000
1f00
1800
1e00
1800
1800
0000
0000
0000
ENDCHAR
STARTCHAR CtlCR
ENCODING 5
SWIDTH 1080 0
DWIDTH 9 0
BBX 9 17 0 -3
BITMAP
0000
0000
0000
3800
6c00
6000
6c00
3800
0000
1e00
1b00
1e00
1b00
1b00
0000
0000
0000
ENDCHAR
STARTCHAR CtlLF
ENCODING 6
SWIDTH 1080 0
DWIDTH 9 0
BBX 9 17 0 -3
BITMAP
0000
0000
0000
6000
6000
6000
6000
7c00
0000
1f00
1800
1e00
1800
1800
0000
0000
0000
ENDCHAR
STARTCHAR SDegree
ENCODING 7
SWIDTH 1080 0
DWIDTH 9 0
BBX 9 17 0 -3
BITMAP
0000
0000
0000
1c00
3600
2200
3600
1c00
0000
0000
0000
0000
0000
0000
0000
0000
0000
ENDCHAR
STARTCHAR MPlusMinus
ENCODING 8
SWIDTH 1080 0
DWIDTH 9 0
BBX 9 17 0 -3
BITMAP
0000
0000
0000
0000
0c00
0c00
0c00
7f80
7f80
0c00
0c00
0c00
7f80
7f80
0000
0000
0000
ENDCHAR
STARTCHAR CtlNL
ENCODING 9
SWIDTH 1080 0
DWIDTH 9 0
BBX 9 17 0 -3
BITMAP
0000
0000
0000
6400
7400
7c00
5c00
4c00
0000
1800
1800
1800
1800
1f00
0000
0000
0000
ENDCHAR
STARTCHAR CtlVT
ENCODING 10
SWIDTH 1080 0
DWIDTH 9 0
BBX 9 17 0 -3
BITMAP
0000
0000
0000
6600
6400
3400
3800
1800
0000
3f00
0c00
0c00
0c00
0c00
0000
0000
0000
ENDCHAR
STARTCHAR GLineNW
ENCODING 11
SWIDTH 1080 0
DWIDTH 9 0
BBX 9 17 0 -3
BITMAP
0c00
0c00
0c00
0c00
0c00
0c00
0c00
0c00
fc00
fc00
0000
0000
0000
0000
0000
0000
0000
ENDCHAR
STARTCHAR GLineSW
ENCODING 12
SWIDTH 1080 0
DWIDTH 9 0
BBX 9 17 0 -3
BITMAP
0000
0000
0000
0000
0000
0000
0000
0000
fc00
fc00
0c00
0c00
0c00
0c00
0c00
0c00
0c00
ENDCHAR
STARTCHAR GLineSE
ENCODING 13
SWIDTH 1080 0
DWIDTH 9 0
BBX 9 17 0 -3
BITMAP
0000
0000
0000
0000
0000
0000
0000
0000
0f80
0f80
0c00
0c00
0c00
0c00
0c00
0c00
0c00
ENDCHAR
STARTCHAR GLineNE
ENCODING 14
SWIDTH 1080 0
DWIDTH 9 0
BBX 9 17 0 -3
BITMAP
0c00
0c00
0c00
0c00
0c00
0c00
0c00
0c00
0f80
0f80
0000
0000
0000
0000
0000
0000
0000
ENDCHAR
STARTCHAR GLineNSWE
ENCODING 15
SWIDTH 1080 0
DWIDTH 9 0
BBX 9 17 0 -3
BITMAP
0c00
0c00
0c00
0c00
0c00
0c00
0c00
0c00
ff80
ff80
0c00
0c00
0c00
0c00
0c00
0c00
0c00
ENDCHAR
STARTCHAR GLineWEHhigh
ENCODING 16
SWIDTH 1080 0
DWIDTH 9 0
BBX 9 17 0 -3
BITMAP
0000
ff80
ff80
0000
0000
0000
0000
0000
0000
0000
0000
0000
0000
0000
0000
0000
0000
ENDCHAR
STARTCHAR GLineWEHigh
ENCODING 17
SWIDTH 1080 0
DWIDTH 9 0
BBX 9 17 0 -3
BITMAP
0000
0000
0000
0000
0000
ff80
ff80
0000
0000
0000
0000
0000
0000
0000
0000
0000
0000
ENDCHAR
STARTCHAR GLineWE
ENCODING 18
SWIDTH 1080 0
DWIDTH 9 0
BBX 9 17 0 -3
BITMAP
0000
0000
0000
0000
0000
0000
0000
0000
ff80
ff80
0000
0000
0000
0000
0000
0000
0000
ENDCHAR
STARTCHAR GLineWELow
ENCODING 19
SWIDTH 1080 0
DWIDTH 9 0
BBX 9 17 0 -3
BITMAP
0000
0000
0000
0000
0000
0000
0000
0000
0000
0000
0000
ff80
ff80
0000
0000
0000
0000
ENDCHAR
STARTCHAR GLineWELlow
ENCODING 20
SWIDTH 1080 0
DWIDTH 9 0
BBX 9 17 0 -3
BITMAP
0000
0000
0000
0000
0000
0000
0000
0000
0000
0000
0000
0000
0000
0000
ff80
ff80
0000
ENDCHAR
STARTCHAR GLineNSE
ENCODING 21
SWIDTH 1080 0
DWIDTH 9 0
BBX 9 17 0 -3
BITMAP
0c00
0c00
0c00
0c00
0c00
0c00
0c00
0c00
0f80
0f80
0c00
0c00
0c00
0c00
0c00
0c00
0c00
ENDCHAR
STARTCHAR GLineNSW
ENCODING 22
SWIDTH 1080 0
DWIDTH 9 0
BBX 9 17 0 -3
BITMAP
0c00
0c00
0c00
0c00
0c00
0c00
0c00
0c00
fc00
fc00
0c00
0c00
0c00
0c00
0c00
0c00
0c00
ENDCHAR
STARTCHAR GLineNWE
ENCODING 23
SWIDTH 1080 0
DWIDTH 9 0
BBX 9 17 0 -3
BITMAP
0c00
0c00
0c00
0c00
0c00
0c00
0c00
0c00
ff80
ff80
0000
0000
0000
0000
0000
0000
0000
ENDCHAR
STARTCHAR GLineSWE
ENCODING 24
SWIDTH 1080 0
DWIDTH 9 0
BBX 9 17 0 -3
BITMAP
0000
0000
0000
0000
0000
0000
0000
0000
ff80
ff80
0c00
0c00
0c00
0c00
0c00
0c00
0c00
ENDCHAR
STARTCHAR GLineNS
ENCODING 25
SWIDTH 1080 0
DWIDTH 9 0
BBX 9 17 0 -3
BITMAP
0c00
0c00
0c00
0c00
0c00
0c00
0c00
0c00
0c00
0c00
0c00
0c00
0c00
0c00
0c00
0c00
0c00
ENDCHAR
STARTCHAR MLessEq
ENCODING 26
SWIDTH 1080 0
DWIDTH 9 0
BBX 9 17 0 -3
BITMAP
0000
0000
0000
0000
0300
0f00
1c00
3000
1c00
0f00
0300
0000
3f00
3f00
0000
0000
0000
ENDCHAR
STARTCHAR MGreaterEq
ENCODING 27
SWIDTH 1080 0
DWIDTH 9 0
BBX 9 17 0 -3
BITMAP
0000
0000
0000
0000
3000
3c00
0e00
0300
0e00
3c00
3000
0000
3f00
3f00
0000
0000
0000
ENDCHAR
STARTCHAR GkSmlPi
ENCODING 28
SWIDTH 1080 0
DWIDTH 9 0
BBX 9 17 0 -3
BITMAP
0000
0000
0000
0000
0000
0000
3f00
7f00
1200
1200
1200
3300
3300
6300
0000
0000
0000
ENDCHAR
STARTCHAR MEqualNot
ENCODING 29
SWIDTH 1080 0
DWIDTH 9 0
BBX 9 17 0 -3
BITMAP
0000
0000
0000
0000
0000
0300
0600
7f00
7f00
0800
7f00
7f00
3000
6000
0000
0000
0000
ENDCHAR
STARTCHAR CurrPound
ENCODING 30
SWIDTH 1080 0
DWIDTH 9 0
BBX 9 17 0 -3
BITMAP
0000
0000
0000
1e00
3300
3300
3000
3000
7c00
3000
3000
2100
7f00
7f00
0000
0000
0000
ENDCHAR
STARTCHAR PMiddleDot
ENCODING 31
SWIDTH 1080 0
DWIDTH 9 0
BBX 9 17 0 -3
BITMAP
0000
0000
0000
0000
0000
0000
0000
0000
0c00
0c00
0c00
0000
0000
0000
0000
0000
0000
ENDCHAR
STARTCHAR Space
ENCODING 32
SWIDTH 1080 0
DWIDTH 9 0
BBX 9 17 0 -3
BITMAP
0000
0000
0000
0000
0000
0000
0000
0000
0000
0000
0000
0000
0000
0000
0000
0000
0000
ENDCHAR
STARTCHAR PExclam
ENCODING 33
SWIDTH 1080 0
DWIDTH 9 0
BBX 9 17 0 -3
BITMAP
0000
0000
0000
0c00
0c00
0c00
0c00
0c00
0c00
0c00
0c00
0000
0c00
0c00
0000
0000
0000
ENDCHAR
STARTCHAR PQuote2Ascii
ENCODING 34
SWIDTH 1080 0
DWIDTH 9 0
BBX 9 17 0 -3
BITMAP
0000
0000
3600
3600
3600
2400
0000
0000
0000
0000
0000
0000
0000
0000
0000
0000
0000
ENDCHAR
STARTCHAR SNumberSign
ENCODING 35
SWIDTH 1080 0
DWIDTH 9 0
BBX 9 17 0 -3
BITMAP
0000
0000
0000
0000
2200
3600
7f00
7700
3600
3600
7700
7f00
3600
2200
0000
0000
0000
ENDCHAR
STARTCHAR CurrDollar
ENCODING 36
SWIDTH 1080 0
DWIDTH 9 0
BBX 9 17 0 -3
BITMAP
0000
0000
0800
0800
3f00
6b00
6900
6800
3c00
1e00
0b00
4b00
6b00
7e00
0800
0800
0000
ENDCHAR
STARTCHAR SPercent
ENCODING 37
SWIDTH 1080 0
DWIDTH 9 0
BBX 9 17 0 -3
BITMAP
0000
0000
0000
3080
6980
6b00
6a00
3600
0c00
1b00
1680
3680
6680
4300
0000
0000
0000
ENDCHAR
STARTCHAR SAmpersand
ENCODING 38
SWIDTH 1080 0
DWIDTH 9 0
BBX 9 17 0 -3
BITMAP
0000
0000
0000
1800
3400
3400
3400
1800
3800
6d00
6d00
6600
6700
3d80
0000
0000
0000
ENDCHAR
STARTCHAR PApostropheAscii
ENCODING 39
SWIDTH 1080 0
DWIDTH 9 0
BBX 9 17 0 -3
BITMAP
0000
0000
0c00
0c00
0c00
1800
1000
0000
0000
0000
0000
0000
0000
0000
0000
0000
0000
ENDCHAR
STARTCHAR PParenL
ENCODING 40
SWIDTH 1080 0
DWIDTH 9 0
BBX 9 17 0 -3
BITMAP
0000
0000
0600
0c00
1800
1800
3000
3000
3000
3000
3000
1800
1800
0c00
0600
0000
0000
ENDCHAR
STARTCHAR PParenR
ENCODING 41
SWIDTH 1080 0
DWIDTH 9 0
BBX 9 17 0 -3
BITMAP
0000
0000
3000
1800
0c00
0c00
0600
0600
0600
0600
0600
0c00
0c00
1800
3000
0000
0000
ENDCHAR
STARTCHAR SAsterisk
ENCODING 42
SWIDTH 1080 0
DWIDTH 9 0
BBX 9 17 0 -3
BITMAP
0000
0000
0000
0000
0000
0000
2200
3600
1c00
7f00
1c00
3600
2200
0000
0000
0000
0000
ENDCHAR
STARTCHAR MPlus
ENCODING 43
SWIDTH 1080 0
DWIDTH 9 0
BBX 9 17 0 -3
BITMAP
0000
0000
0000
0000
0000
0c00
0c00
0c00
7f80
7f80
0c00
0c00
0c00
0000
0000
0000
0000
ENDCHAR
STARTCHAR PComma
ENCODING 44
SWIDTH 1080 0
DWIDTH 9 0
BBX 9 17 0 -3
BITMAP
0000
0000
0000
0000
0000
0000
0000
0000
0000
0000
0000
0c00
0c00
0c00
1800
1000
0000
ENDCHAR
STARTCHAR PHyphenMinus
ENCODING 45
SWIDTH 1080 0
DWIDTH 9 0
BBX 9 17 0 -3
BITMAP
0000
0000
0000
0000
0000
0000
0000
0000
7f00
7f00
0000
0000
0000
0000
0000
0000
0000
ENDCHAR
STARTCHAR PFullStop
ENCODING 46
SWIDTH 1080 0
DWIDTH 9 0
BBX 9 17 0 -3
BITMAP
0000
0000
0000
0000
0000
0000
0000
0000
0000
0000
0000
0c00
0c00
0c00
0000
0000
0000
ENDCHAR
STARTCHAR PSolidus
ENCODING 47
SWIDTH 1080 0
DWIDTH 9 0
BBX 9 17 0 -3
BITMAP
0000
0000
0300
0300
0600
0600
0c00
0c00
1800
1800
3000
3000
6000
6000
4000
0000
0000
ENDCHAR
STARTCHAR Digit0
ENCODING 48
SWIDTH 1080 0
DWIDTH 9 0
BBX 9 17 0 -3
BITMAP
0000
0000
0000
1c00
3600
6300
6300
6300
6300
6300
6300
6300
3600
1c00
0000
0000
0000
ENDCHAR
STARTCHAR Digit1
ENCODING 49
SWIDTH 1080 0
DWIDTH 9 0
BBX 9 17 0 -3
BITMAP
0000
0000
0000
0600
0e00
1e00
3600
0600
0600
0600
0600
0600
0600
0600
0000
0000
0000
ENDCHAR
STARTCHAR Digit2
ENCODING 50
SWIDTH 1080 0
DWIDTH 9 0
BBX 9 17 0 -3
BITMAP
0000
0000
0000
3e00
6700
6300
0300
0600
0c00
1800
3000
2000
7f00
7f00
0000
0000
0000
ENDCHAR
STARTCHAR Digit3
ENCODING 51
SWIDTH 1080 0
DWIDTH 9 0
BBX 9 17 0 -3
BITMAP
0000
0000
0000
3e00
6300
0300
0300
0600
1e00
0300
0300
0300
6300
3e00
0000
0000
0000
ENDCHAR
STARTCHAR Digit4
ENCODING 52
SWIDTH 1080 0
DWIDTH 9 0
BBX 9 17 0 -3
BITMAP
0000
0000
0000
0600
0e00
0e00
1600
3600
2600
6600
7f00
0600
0600
0600
0000
0000
0000
ENDCHAR
STARTCHAR Digit5
ENCODING 53
SWIDTH 1080 0
DWIDTH 9 0
BBX 9 17 0 -3
BITMAP
0000
0000
0000
3e00
3e00
2000
2000
3c00
2600
0300
0300
4300
6600
3c00
0000
0000
0000
ENDCHAR
STARTCHAR Digit6
ENCODING 54
SWIDTH 1080 0
DWIDTH 9 0
BBX 9 17 0 -3
BITMAP
0000
0000
0000
1e00
3000
6000
6000
6e00
7300
6300
6300
6300
6300
3e00
0000
0000
0000
ENDCHAR
STARTCHAR Digit7
ENCODING 55
SWIDTH 1080 0
DWIDTH 9 0
BBX 9 17 0 -3
BITMAP
0000
0000
0000
7f00
7f00
4100
0200
0600
0400
0c00
0c00
1800
1800
1800
0000
0000
0000
ENDCHAR
STARTCHAR Digit8
ENCODING 56
SWIDTH 1080 0
DWIDTH 9 0
BBX 9 17 0 -3
BITMAP
0000
0000
0000
3e00
6300
6300
6300
3600
1c00
3600
6300
6300
6300
3e00
0000
0000
0000
ENDCHAR
STARTCHAR Digit9
ENCODING 57
SWIDTH 1080 0
DWIDTH 9 0
BBX 9 17 0 -3
BITMAP
0000
0000
0000
3e00
6300
6300
6300
6300
6700
3b00
0300
0300
0600
3c00
0000
0000
0000
ENDCHAR
STARTCHAR PColon
ENCODING 58
SWIDTH 1080 0
DWIDTH 9 0
BBX 9 17 0 -3
BITMAP
0000
0000
0000
0000
0000
0000
0000
0c00
0c00
0c00
0000
0c00
0c00
0c00
0000
0000
0000
ENDCHAR
STARTCHAR PSemicolon
ENCODING 59
SWIDTH 1080 0
DWIDTH 9 0
BBX 9 17 0 -3
BITMAP
0000
0000
0000
0000
0000
0000
0000
0c00
0c00
0c00
0000
0c00
0c00
0c00
1800
1000
0000
ENDCHAR
STARTCHAR MLess
ENCODING 60
SWIDTH 1080 0
DWIDTH 9 0
BBX 9 17 0 -3
BITMAP
0000
0000
0000
0000
0300
0600
0c00
1800
3000
3000
1800
0c00
0600
0300
0000
0000
0000
ENDCHAR
STARTCHAR MEqual
ENCODING 61
SWIDTH 1080 0
DWIDTH 9 0
BBX 9 17 0 -3
BITMAP
0000
0000
0000
0000
0000
0000
0000
7f00
7f00
0000
7f00
7f00
0000
0000
0000
0000
0000
ENDCHAR
STARTCHAR MGreater
ENCODING 62
SWIDTH 1080 0
DWIDTH 9 0
BBX 9 17 0 -3
BITMAP
0000
0000
0000
0000
3000
1800
0c00
0600
0300
0300
0600
0c00
1800
3000
0000
0000
0000
ENDCHAR
STARTCHAR PQuestion
ENCODING 63
SWIDTH 1080 0
DWIDTH 9 0
BBX 9 17 0 -3
BITMAP
0000
0000
0000
3f00
6180
6180
0180
0300
0600
0c00
0c00
0000
0c00
0c00
0000
0000
0000
ENDCHAR
STARTCHAR SCommercialAt
ENCODING 64
SWIDTH 1080 0
DWIDTH 9 0
BBX 9 17 0 -3
BITMAP
0000
0000
0000
0e00
3b00
2100
6f00
5b00
5b00
5b00
6f00
2000
3b00
0e00
0000
0000
0000
ENDCHAR
STARTCHAR LtCapA
ENCODING 65
SWIDTH 1080 0
DWIDTH 9 0
BBX 9 17 0 -3
BITMAP
0000
0000
0000
0800
1800
1c00
1c00
2c00
2600
2600
7e00
4300
4300
c300
0000
0000
0000
ENDCHAR
STARTCHAR LtCapB
ENCODING 66
SWIDTH 1080 0
DWIDTH 9 0
BBX 9 17 0 -3
BITMAP
0000
0000
0000
7e00
6300
6300
6300
6200
7e00
6300
6300
6300
6300
7e00
0000
0000
0000
ENDCHAR
STARTCHAR LtCapC
ENCODING 67
SWIDTH 1080 0
DWIDTH 9 0
BBX 9 17 0 -3
BITMAP
0000
0000
0000
1f00
3300
6100
6000
6000
6000
6000
6000
6000
3300
1e00
0000
0000
0000
ENDCHAR
STARTCHAR LtCapD
ENCODING 68
SWIDTH 1080 0
DWIDTH 9 0
BBX 9 17 0 -3
BITMAP
0000
0000
0000
7c00
6600
6300
6300
6300
6300
6300
6300
6300
6600
7c00
0000
0000
0000
ENDCHAR
STARTCHAR LtCapE
ENCODING 69
SWIDTH 1080 0
DWIDTH 9 0
BBX 9 17 0 -3
BITMAP
0000
0000
0000
7f00
6300
6100
6000
6400
7c00
6400
6000
6100
6300
7f00
0000
0000
0000
ENDCHAR
STARTCHAR LtCapF
ENCODING 70
SWIDTH 1080 0
DWIDTH 9 0
BBX 9 17 0 -3
BITMAP
0000
0000
0000
3f80
3180
3080
3000
3200
3e00
3200
3000
3000
3000
3000
0000
0000
0000
ENDCHAR
STARTCHAR LtCapG
ENCODING 71
SWIDTH 1080 0
DWIDTH 9 0
BBX 9 17 0 -3
BITMAP
0000
0000
0000
1f00
3300
6100
6000
6000
6700
6300
6300
6300
3300
1f00
0000
0000
0000
ENDCHAR
STARTCHAR LtCapH
ENCODING 72
SWIDTH 1080 0
DWIDTH 9 0
BBX 9 17 0 -3
BITMAP
0000
0000
0000
6300
6300
6300
6300
6300
7f00
6300
6300
6300
6300
6300
0000
0000
0000
ENDCHAR
STARTCHAR LtCapI
ENCODING 73
SWIDTH 1080 0
DWIDTH 9 0
BBX 9 17 0 -3
BITMAP
0000
0000
0000
3f00
0c00
0c00
0c00
0c00
0c00
0c00
0c00
0c00
0c00
3f00
0000
0000
0000
ENDCHAR
STARTCHAR LtCapJ
ENCODING 74
SWIDTH 1080 0
DWIDTH 9 0
BBX 9 17 0 -3
BITMAP
0000
0000
0000
0f00
0600
0600
0600
0600
0600
0600
0600
6600
6600
3c00
0000
0000
0000
ENDCHAR
STARTCHAR LtCapK
ENCODING 75
SWIDTH 1080 0
DWIDTH 9 0
BBX 9 17 0 -3
BITMAP
0000
0000
0000
6300
6200
6600
6400
6800
7c00
7c00
6600
6600
6300
6300
0000
0000
0000
ENDCHAR
STARTCHAR LtCapL
ENCODING 76
SWIDTH 1080 0
DWIDTH 9 0
BBX 9 17 0 -3
BITMAP
0000
0000
0000
6000
6000
6000
6000
6000
6000
6000
6000
6100
6300
7f00
0000
0000
0000
ENDCHAR
STARTCHAR LtCapM
ENCODING 77
SWIDTH 1080 0
DWIDTH 9 0
BBX 9 17 0 -3
BITMAP
0000
0000
0000
6300
6300
7700
7700
7f00
5b00
5b00
4300
4300
4300
4300
0000
0000
0000
ENDCHAR
STARTCHAR LtCapN
ENCODING 78
SWIDTH 1080 0
DWIDTH 9 0
BBX 9 17 0 -3
BITMAP
0000
0000
0000
6100
7100
7100
5900
5900
4d00
4d00
4700
4700
4300
4100
0000
0000
0000
ENDCHAR
STARTCHAR LtCapO
ENCODING 79
SWIDTH 1080 0
DWIDTH 9 0
BBX 9 17 0 -3
BITMAP
0000
0000
0000
3e00
6300
6300
6300
6300
6300
6300
6300
6300
6300
3e00
0000
0000
0000
ENDCHAR
STARTCHAR LtCapP
ENCODING 80
SWIDTH 1080 0
DWIDTH 9 0
BBX 9 17 0 -3
BITMAP
0000
0000
0000
7e00
6300
6300
6300
6300
7e00
6000
6000
6000
6000
6000
0000
0000
0000
ENDCHAR
STARTCHAR LtCapQ
ENCODING 81
SWIDTH 1080 0
DWIDTH 9 0
BBX 9 17 0 -3
BITMAP
0000
0000
0000
3e00
6300
6300
6300
6300
6300
6300
6300
7b00
6b00
3e00
0600
0380
0000
ENDCHAR
STARTCHAR LtCapR
ENCODING 82
SWIDTH 1080 0
DWIDTH 9 0
BBX 9 17 0 -3
BITMAP
0000
0000
0000
7e00
6300
6300
6300
6300
7e00
6c00
6600
6600
6300
6300
0000
0000
0000
ENDCHAR
STARTCHAR LtCapS
ENCODING 83
SWIDTH 1080 0
DWIDTH 9 0
BBX 9 17 0 -3
BITMAP
0000
0000
0000
3f00
6300
6100
6000
3800
1e00
0600
0300
4300
6300
7e00
0000
0000
0000
ENDCHAR
STARTCHAR LtCapT
ENCODING 84
SWIDTH 1080 0
DWIDTH 9 0
BBX 9 17 0 -3
BITMAP
0000
0000
0000
7f80
6d80
4c80
0c00
0c00
0c00
0c00
0c00
0c00
0c00
0c00
0000
0000
0000
ENDCHAR
STARTCHAR LtCapU
ENCODING 85
SWIDTH 1080 0
DWIDTH 9 0
BBX 9 17 0 -3
BITMAP
0000
0000
0000
6300
6300
6300
6300
6300
6300
6300
6300
6300
6300
3e00
0000
0000
0000
ENDCHAR
STARTCHAR LtCapV
ENCODING 86
SWIDTH 1080 0
DWIDTH 9 0
BBX 9 17 0 -3
BITMAP
0000
0000
0000
6180
6100
6100
3300
3200
3200
1a00
1c00
1c00
0c00
0800
0000
0000
0000
ENDCHAR
STARTCHAR LtCapW
ENCODING 87
SWIDTH 1080 0
DWIDTH 9 0
BBX 9 17 0 -3
BITMAP
0000
0000
0000
6080
6080
6080
6480
6480
6e80
7f80
3700
3300
3300
3300
0000
0000
0000
ENDCHAR
STARTCHAR LtCapX
ENCODING 88
SWIDTH 1080 0
DWIDTH 9 0
BBX 9 17 0 -3
BITMAP
0000
0000
0000
6300
6300
3200
3400
1c00
0800
1c00
1600
2600
6300
6300
0000
0000
0000
ENDCHAR
STARTCHAR LtCapY
ENCODING 89
SWIDTH 1080 0
DWIDTH 9 0
BBX 9 17 0 -3
BITMAP
0000
0000
0000
6180
6100
3100
3200
1a00
1c00
0c00
0c00
0c00
0c00
0c00
0000
0000
0000
ENDCHAR
STARTCHAR LtCapZ
ENCODING 90
SWIDTH 1080 0
DWIDTH 9 0
BBX 9 17 0 -3
BITMAP
0000
0000
0000
7f00
6300
4600
0600
0c00
1800
1800
3000
3100
6300
7f00
0000
0000
0000
ENDCHAR
STARTCHAR PSquareBrackL
ENCODING 91
SWIDTH 1080 0
DWIDTH 9 0
BBX 9 17 0 -3
BITMAP
0000
0000
3e00
3e00
3000
3000
3000
3000
3000
3000
3000
3000
3000
3e00
3e00
0000
0000
ENDCHAR
STARTCHAR PRevSolidus
ENCODING 92
SWIDTH 1080 0
DWIDTH 9 0
BBX 9 17 0 -3
BITMAP
0000
0000
4000
6000
6000
3000
3000
1800
1800
0c00
0c00
0600
0600
0300
0300
0000
0000
ENDCHAR
STARTCHAR PSquareBrackR
ENCODING 93
SWIDTH 1080 0
DWIDTH 9 0
BBX 9 17 0 -3
BITMAP
0000
0000
3e00
3e00
0600
0600
0600
0600
0600
0600
0600
0600
0600
3e00
3e00
0000
0000
ENDCHAR
STARTCHAR AccCircumAscii
ENCODING 94
SWIDTH 1080 0
DWIDTH 9 0
BBX 9 17 0 -3
BITMAP
0000
0000
0800
1c00
3600
6300
4100
0000
0000
0000
0000
0000
0000
0000
0000
0000
0000
ENDCHAR
STARTCHAR OLowline
ENCODING 95
SWIDTH 1080 0
DWIDTH 9 0
BBX 9 17 0 -3
BITMAP
0000
0000
0000
0000
0000
0000
0000
0000
0000
0000
0000
0000
0000
7f00
7f00
0000
0000
ENDCHAR
STARTCHAR AccGraveAscii
ENCODING 96
SWIDTH 1080 0
DWIDTH 9 0
BBX 9 17 0 -3
BITMAP
0000
0000
0c00
0c00
0c00
0600
0200
0000
0000
0000
0000
0000
0000
0000
0000
0000
0000
ENDCHAR
STARTCHAR LtSmlA
ENCODING 97
SWIDTH 1080 0
DWIDTH 9 0
BBX 9 17 0 -3
BITMAP
0000
0000
0000
0000
0000
0000
3e00
3300
0300
3f00
6300
6300
6700
3b00
0000
0000
0000
ENDCHAR
STARTCHAR LtSmlB
ENCODING 98
SWIDTH 1080 0
DWIDTH 9 0
BBX 9 17 0 -3
BITMAP
0000
0000
0000
6000
6000
6000
6e00
7300
6300
6300
6300
6300
7300
6e00
0000
0000
0000
ENDCHAR
STARTCHAR LtSmlC
ENCODING 99
SWIDTH 1080 0
DWIDTH 9 0
BBX 9 17 0 -3
BITMAP
0000
0000
0000
0000
0000
0000
1e00
3300
6000
6000
6000
6000
3300
1e00
0000
0000
0000
ENDCHAR
STARTCHAR LtSmlD
ENCODING 100
SWIDTH 1080 0
DWIDTH 9 0
BBX 9 17 0 -3
BITMAP
0000
0000
0000
0300
0300
0300
3b00
6700
6300
6300
6300
6300
6700
3b00
0000
0000
0000
ENDCHAR
STARTCHAR LtSmlE
ENCODING 101
SWIDTH 1080 0
DWIDTH 9 0
BBX 9 17 0 -3
BITMAP
0000
0000
0000
0000
0000
0000
1e00
3300
6300
7f00
6000
6000
3300
1e00
0000
0000
0000
ENDCHAR
STARTCHAR LtSmlF
ENCODING 102
SWIDTH 1080 0
DWIDTH 9 0
BBX 9 17 0 -3
BITMAP
0000
0000
0000
0f00
1b00
1800
1800
7f00
1800
1800
1800
1800
1800
1800
0000
0000
0000
ENDCHAR
STARTCHAR LtSmlG
ENCODING 103
SWIDTH 1080 0
DWIDTH 9 0
BBX 9 17 0 -3
BITMAP
0000
0000
0000
0000
0000
0000
3d00
6700
6600
6600
3c00
6000
3e00
3f00
6100
6300
3e00
ENDCHAR
STARTCHAR LtSmlH
ENCODING 104
SWIDTH 1080 0
DWIDTH 9 0
BBX 9 17 0 -3
BITMAP
0000
0000
0000
6000
6000
6000
6e00
7300
6300
6300
6300
6300
6300
6300
0000
0000
0000
ENDCHAR
STARTCHAR LtSmlI
ENCODING 105
SWIDTH 1080 0
DWIDTH 9 0
BBX 9 17 0 -3
BITMAP
0000
0000
0c00
0c00
0000
0000
1c00
0c00
0c00
0c00
0c00
0c00
0c00
3f00
0000
0000
0000
ENDCHAR
STARTCHAR LtSmlJ
ENCODING 106
SWIDTH 1080 0
DWIDTH 9 0
BBX 9 17 0 -3
BITMAP
0000
0000
0600
0600
0000
0000
1e00
0600
0600
0600
0600
0600
0600
0600
6600
6600
3c00
ENDCHAR
STARTCHAR LtSmlK
ENCODING 107
SWIDTH 1080 0
DWIDTH 9 0
BBX 9 17 0 -3
BITMAP
0000
0000
0000
6000
6000
6000
6300
6200
6400
6c00
7c00
6600
6300
6300
0000
0000
0000
ENDCHAR
STARTCHAR LtSmlL
ENCODING 108
SWIDTH 1080 0
DWIDTH 9 0
BBX 9 17 0 -3
BITMAP
0000
0000
0000
1c00
0c00
0c00
0c00
0c00
0c00
0c00
0c00
0c00
0c00
3f00
0000
0000
0000
ENDCHAR
STARTCHAR LtSmlM
ENCODING 109
SWIDTH 1080 0
DWIDTH 9 0
BBX 9 17 0 -3
BITMAP
0000
0000
0000
0000
0000
0000
5600
7f00
6b00
6b00
6b00
6b00
6b00
6b00
0000
0000
0000
ENDCHAR
STARTCHAR LtSmlN
ENCODING 110
SWIDTH 1080 0
DWIDTH 9 0
BBX 9 17 0 -3
BITMAP
0000
0000
0000
0000
0000
0000
6e00
7300
6300
6300
6300
6300
6300
6300
0000
0000
0000
ENDCHAR
STARTCHAR LtSmlO
ENCODING 111
SWIDTH 1080 0
DWIDTH 9 0
BBX 9 17 0 -3
BITMAP
0000
0000
0000
0000
0000
0000
3e00
6300
6300
6300
6300
6300
6300
3e00
0000
0000
0000
ENDCHAR
STARTCHAR LtSmlP
ENCODING 112
SWIDTH 1080 0
DWIDTH 9 0
BBX 9 17 0 -3
BITMAP
0000
0000
0000
0000
0000
0000
6e00
7300
6300
6300
6300
6300
7300
6e00
6000
6000
6000
ENDCHAR
STARTCHAR LtSmlQ
ENCODING 113
SWIDTH 1080 0
DWIDTH 9 0
BBX 9 17 0 -3
BITMAP
0000
0000
0000
0000
0000
0000
3b00
6700
6300
6300
6300
6300
6700
3b00
0300
0300
0300
ENDCHAR
STARTCHAR LtSmlR
ENCODING 114
SWIDTH 1080 0
DWIDTH 9 0
BBX 9 17 0 -3
BITMAP
0000
0000
0000
0000
0000
0000
7700
3b00
3100
3000
3000
3000
3000
3000
0000
0000
0000
ENDCHAR
STARTCHAR LtSmlS
ENCODING 115
SWIDTH 1080 0
DWIDTH 9 0
BBX 9 17 0 -3
BITMAP
0000
0000
0000
0000
0000
0000
3e00
6300
7000
3c00
0e00
0300
6300
3e00
0000
0000
0000
ENDCHAR
STARTCHAR LtSmlT
ENCODING 116
SWIDTH 1080 0
DWIDTH 9 0
BBX 9 17 0 -3
BITMAP
0000
0000
0000
0000
1800
1800
7e00
1800
1800
1800
1800
1800
1b00
0e00
0000
0000
0000
ENDCHAR
STARTCHAR LtSmlU
ENCODING 117
SWIDTH 1080 0
DWIDTH 9 0
BBX 9 17 0 -3
BITMAP
0000
0000
0000
0000
0000
0000
6300
6300
6300
6300
6300
6300
6700
3b00
0000
0000
0000
ENDCHAR
STARTCHAR LtSmlV
ENCODING 118
SWIDTH 1080 0
DWIDTH 9 0
BBX 9 17 0 -3
BITMAP
0000
0000
0000
0000
0000
0000
6180
6100
3200
3200
1a00
1c00
0c00
0800
0000
0000
0000
ENDCHAR
STARTCHAR LtSmlW
ENCODING 119
SWIDTH 1080 0
DWIDTH 9 0
BBX 9 17 0 -3
BITMAP
0000
0000
0000
0000
0000
0000
6080
6080
6480
6480
6e80
3f00
3300
3300
0000
0000
0000
ENDCHAR
STARTCHAR LtSmlX
ENCODING 120
SWIDTH 1080 0
DWIDTH 9 0
BBX 9 17 0 -3
BITMAP
0000
0000
0000
0000
0000
0000
6300
7300
3400
1800
0c00
1600
6700
6300
0000
0000
0000
ENDCHAR
STARTCHAR LtSmlY
ENCODING 121
SWIDTH 1080 0
DWIDTH 9 0
BBX 9 17 0 -3
BITMAP
0000
0000
0000
0000
0000
0000
6300
6300
3200
3200
1a00
1c00
0c00
0c00
0800
6800
7000
ENDCHAR
STARTCHAR LtSmlZ
ENCODING 122
SWIDTH 1080 0
DWIDTH 9 0
BBX 9 17 0 -3
BITMAP
0000
0000
0000
0000
0000
0000
7f00
6700
4600
0c00
1800
3100
7300
7f00
0000
0000
0000
ENDCHAR
STARTCHAR PCurlyBrackL
ENCODING 123
SWIDTH 1080 0
DWIDTH 9 0
BBX 9 17 0 -3
BITMAP
0000
0000
0700
0c00
0c00
0c00
0c00
1800
3000
1800
0c00
0c00
0c00
0c00
0700
0000
0000
ENDCHAR
STARTCHAR OVertBar
ENCODING 124
SWIDTH 1080 0
DWIDTH 9 0
BBX 9 17 0 -3
BITMAP
0000
0000
0c00
0c00
0c00
0c00
0c00
0c00
0c00
0c00
0c00
0c00
0c00
0c00
0c00
0000
0000
ENDCHAR
STARTCHAR PCurlyBrackR
ENCODING 125
SWIDTH 1080 0
DWIDTH 9 0
BBX 9 17 0 -3
BITMAP
0000
0000
3800
0c00
0c00
0c00
0c00
0600
0300
0600
0c00
0c00
0c00
0c00
3800
0000
0000
ENDCHAR
STARTCHAR AccTildeAscii
ENCODING 126
SWIDTH 1080 0
DWIDTH 9 0
BBX 9 17 0 -3
BITMAP
0000
0000
3100
7900
4f00
4600
0000
0000
0000
0000
0000
0000
0000
0000
0000
0000
0000
ENDCHAR
STARTCHAR CyCapDje
ENCODING 128
SWIDTH 1080 0
DWIDTH 9 0
BBX 9 17 0 -3
BITMAP
0000
0000
0000
ff00
db00
9900
1800
1e00
1b00
1b00
1b00
1b00
1b00
1b00
0300
0b00
0e00
ENDCHAR
STARTCHAR CyCapGheAcute
ENCODING 129
SWIDTH 1080 0
DWIDTH 9 0
BBX 9 17 0 -3
BITMAP
0700
0c00
0000
3f80
3180
3080
3000
3000
3000
3000
3000
3000
3000
3000
0000
0000
0000
ENDCHAR
STARTCHAR PQuoteL9
ENCODING 130
SWIDTH 1080 0
DWIDTH 9 0
BBX 9 17 0 -3
BITMAP
0000
0000
0000
0000
0000
0000
0000
0000
0000
0000
0000
0000
1800
1c00
0c00
1800
0000
ENDCHAR
STARTCHAR CySmlGheAcute
ENCODING 131
SWIDTH 1080 0
DWIDTH 9 0
BBX 9 17 0 -3
BITMAP
0000
0000
0c00
1800
1000
0000
7f00
6300
6100
6000
6000
6000
6000
6000
0000
0000
0000
ENDCHAR
STARTCHAR PQuote2L9
ENCODING 132
SWIDTH 1080 0
DWIDTH 9 0
BBX 9 17 0 -3
BITMAP
0000
0000
0000
0000
0000
0000
0000
0000
0000
0000
0000
0000
6600
7700
3300
6600
0000
ENDCHAR
STARTCHAR PHorizEllips
ENCODING 133
SWIDTH 1080 0
DWIDTH 9 0
BBX 9 17 0 -3
BITMAP
0000
0000
0000
0000
0000
0000
0000
0000
0000
0000
0000
6d80
6d80
6d80
0000
0000
0000
ENDCHAR
STARTCHAR SDagger
ENCODING 134
SWIDTH 1080 0
DWIDTH 9 0
BBX 9 17 0 -3
BITMAP
0000
0000
0800
1c00
1c00
2a00
7f00
7f00
2a00
0800
1c00
0800
0800
0800
0800
0000
0000
ENDCHAR
STARTCHAR SDagger2
ENCODING 135
SWIDTH 1080 0
DWIDTH 9 0
BBX 9 17 0 -3
BITMAP
0000
0000
0800
1c00
2a00
7f00
7f00
2a00
0800
0800
2a00
7f00
7f00
2a00
1c00
0800
0000
ENDCHAR
STARTCHAR CurrEuro
ENCODING 136
SWIDTH 1080 0
DWIDTH 9 0
BBX 9 17 0 -3
BITMAP
0000
0000
0000
0f00
1980
3000
3000
7f00
3000
7e00
3000
3000
1980
0f00
0000
0000
0000
ENDCHAR
STARTCHAR SPermill
ENCODING 137
SWIDTH 1080 0
DWIDTH 9 0
BBX 9 17 0 -3
BITMAP
0000
0000
3000
6800
6800
6880
3380
0e00
3800
6000
1b00
3680
3680
3680
1b00
0000
0000
ENDCHAR
STARTCHAR CyCapLje
ENCODING 138
SWIDTH 1080 0
DWIDTH 9 0
BBX 9 17 0 -3
BITMAP
0000
0000
0000
7800
5800
5800
5800
5800
5e00
5b00
5b00
5b00
db00
9e00
0000
0000
0000
ENDCHAR
STARTCHAR PQuoteAngleL
ENCODING 139
SWIDTH 1080 0
DWIDTH 9 0
BBX 9 17 0 -3
BITMAP
0000
0000
0000
0000
0000
0000
0000
0600
0c00
1800
0c00
0600
0000
0000
0000
0000
0000
ENDCHAR
STARTCHAR CyCapNje
ENCODING 140
SWIDTH 1080 0
DWIDTH 9 0
BBX 9 17 0 -3
BITMAP
0000
0000
0000
6c00
6c00
6c00
6c00
6c00
7f00
6d80
6d80
6d80
6d80
6f00
0000
0000
0000
ENDCHAR
STARTCHAR CyCapKaAcute
ENCODING 141
SWIDTH 1080 0
DWIDTH 9 0
BBX 9 17 0 -3
BITMAP
0700
0c00
0000
6300
6200
6600
6400
6800
7c00
7c00
6600
6600
6300
6300
0000
0000
0000
ENDCHAR
STARTCHAR CyCapTshe
ENCODING 142
SWIDTH 1080 0
DWIDTH 9 0
BBX 9 17 0 -3
BITMAP
0000
0000
0000
ff00
db00
9900
1800
1e00
1b00
1b00
1b00
1b00
1b00
1b00
0000
0000
0000
ENDCHAR
STARTCHAR CyCapDzhe
ENCODING 143
SWIDTH 1080 0
DWIDTH 9 0
BBX 9 17 0 -3
BITMAP
0000
0000
0000
6300
6300
6300
6300
6300
6300
6300
6300
6300
6300
7f00
0c00
0c00
0c00
ENDCHAR
STARTCHAR CySmlDje
ENCODING 144
SWIDTH 1080 0
DWIDTH 9 0
BBX 9 17 0 -3
BITMAP
0000
0000
0000
6000
fc00
6000
6c00
7600
6300
6300
6300
6300
6300
6600
0600
0c00
1800
ENDCHAR
STARTCHAR PQuoteL
ENCODING 145
SWIDTH 1080 0
DWIDTH 9 0
BBX 9 17 0 -3
BITMAP
0000
0000
0c00
1800
1c00
0c00
0000
0000
0000
0000
0000
0000
0000
0000
0000
0000
0000
ENDCHAR
STARTCHAR PQuoteR
ENCODING 146
SWIDTH 1080 0
DWIDTH 9 0
BBX 9 17 0 -3
BITMAP
0000
0000
1800
1c00
0c00
1800
0000
0000
0000
0000
0000
0000
0000
0000
0000
0000
0000
ENDCHAR
STARTCHAR PQuote2L
ENCODING 147
SWIDTH 1080 0
DWIDTH 9 0
BBX 9 17 0 -3
BITMAP
0000
0000
3300
6600
7700
3300
0000
0000
0000
0000
0000
0000
0000
0000
0000
0000
0000
ENDCHAR
STARTCHAR PQuote2R
ENCODING 148
SWIDTH 1080 0
DWIDTH 9 0
BBX 9 17 0 -3
BITMAP
0000
0000
6600
7700
3300
6600
0000
0000
0000
0000
0000
0000
0000
0000
0000
0000
0000
ENDCHAR
STARTCHAR DBulletB
ENCODING 149
SWIDTH 1080 0
DWIDTH 9 0
BBX 9 17 0 -3
BITMAP
0000
0000
0000
0000
0000
0000
0c00
1e00
3f00
3f00
1e00
0c00
0000
0000
0000
0000
0000
ENDCHAR
STARTCHAR PDashEn
ENCODING 150
SWIDTH 1080 0
DWIDTH 9 0
BBX 9 17 0 -3
BITMAP
0000
0000
0000
0000
0000
0000
0000
0000
7f80
7f80
0000
0000
0000
0000
0000
0000
0000
ENDCHAR
STARTCHAR PDashEm
ENCODING 151
SWIDTH 1080 0
DWIDTH 9 0
BBX 9 17 0 -3
BITMAP
0000
0000
0000
0000
0000
0000
0000
0000
ff80
ff80
0000
0000
0000
0000
0000
0000
0000
ENDCHAR
STARTCHAR STrademark
ENCODING 153
SWIDTH 1080 0
DWIDTH 9 0
BBX 9 17 0 -3
BITMAP
0000
0000
7d80
3780
3780
3580
3580
3580
0000
0000
0000
0000
0000
0000
0000
0000
0000
ENDCHAR
STARTCHAR CySmlLje
ENCODING 154
SWIDTH 1080 0
DWIDTH 9 0
BBX 9 17 0 -3
BITMAP
0000
0000
0000
0000
0000
0000
7800
5800
5800
5e00
5b00
5b00
db00
9e00
0000
0000
0000
ENDCHAR
STARTCHAR PQuoteAngleR
ENCODING 155
SWIDTH 1080 0
DWIDTH 9 0
BBX 9 17 0 -3
BITMAP
0000
0000
0000
0000
0000
0000
0000
1800
0c00
0600
0c00
1800
0000
0000
0000
0000
0000
ENDCHAR
STARTCHAR CySmlNje
ENCODING 156
SWIDTH 1080 0
DWIDTH 9 0
BBX 9 17 0 -3
BITMAP
0000
0000
0000
0000
0000
0000
6c00
6c00
6c00
7e00
6d00
6d00
6f00
6e00
0000
0000
0000
ENDCHAR
STARTCHAR CySmlKaAcute
ENCODING 157
SWIDTH 1080 0
DWIDTH 9 0
BBX 9 17 0 -3
BITMAP
0000
0000
0600
0c00
0800
0000
6300
6200
6400
6c00
7c00
6600
6300
6300
0000
0000
0000
ENDCHAR
STARTCHAR CySmlTshe
ENCODING 158
SWIDTH 1080 0
DWIDTH 9 0
BBX 9 17 0 -3
BITMAP
0000
0000
0000
6000
fc00
6000
6e00
7300
6300
6300
6300
6300
6300
6300
0000
0000
0000
ENDCHAR
STARTCHAR CySmlDzhe
ENCODING 159
SWIDTH 1080 0
DWIDTH 9 0
BBX 9 17 0 -3
BITMAP
0000
0000
0000
0000
0000
0000
6300
6300
6300
6300
6300
6300
6300
7f00
0c00
0c00
0c00
ENDCHAR
STARTCHAR SpaceNoBreak
ENCODING 160
SWIDTH 1080 0
DWIDTH 9 0
BBX 9 17 0 -3
BITMAP
0000
0000
0000
0000
0000
0000
0000
0000
0000
0000
0000
4100
4100
7f00
7f00
0000
0000
ENDCHAR
STARTCHAR CyCapUBreve
ENCODING 161
SWIDTH 1080 0
DWIDTH 9 0
BBX 9 17 0 -3
BITMAP
1b00
1f00
0000
6180
6100
3100
3300
1a00
1a00
0e00
0c00
4400
6c00
3800
0000
0000
0000
ENDCHAR
STARTCHAR CySmlUBreve
ENCODING 162
SWIDTH 1080 0
DWIDTH 9 0
BBX 9 17 0 -3
BITMAP
0000
0000
0000
3600
3e00
0000
6300
6300
3200
3200
1a00
1c00
0c00
0c00
0800
6800
7000
ENDCHAR
STARTCHAR CyCapJe
ENCODING 163
SWIDTH 1080 0
DWIDTH 9 0
BBX 9 17 0 -3
BITMAP
0000
0000
0000
0f00
0600
0600
0600
0600
0600
0600
0600
6600
6600
3c00
0000
0000
0000
ENDCHAR
STARTCHAR CurrGeneral
ENCODING 164
SWIDTH 1080 0
DWIDTH 9 0
BBX 9 17 0 -3
BITMAP
0000
0000
0000
0000
0000
0000
6300
3e00
3600
3600
3e00
6300
0000
0000
0000
0000
0000
ENDCHAR
STARTCHAR CyCapGheUpturn
ENCODING 165
SWIDTH 1080 0
DWIDTH 9 0
BBX 9 17 0 -3
BITMAP
0000
0180
0180
3f80
3000
3000
3000
3000
3000
3000
3000
3000
3000
3000
0000
0000
0000
ENDCHAR
STARTCHAR OVertBarBroken
ENCODING 166
SWIDTH 1080 0
DWIDTH 9 0
BBX 9 17 0 -3
BITMAP
0000
0000
0c00
0c00
0c00
0c00
0c00
0000
0000
0000
0c00
0c00
0c00
0c00
0c00
0000
0000
ENDCHAR
STARTCHAR SParagraph
ENCODING 167
SWIDTH 1080 0
DWIDTH 9 0
BBX 9 17 0 -3
BITMAP
0000
0000
0000
1e00
3600
3000
1800
1c00
3600
3600
3600
3600
1c00
0c00
0600
3600
3c00
ENDCHAR
STARTCHAR CyCapIeDrss
ENCODING 168
SWIDTH 1080 0
DWIDTH 9 0
BBX 9 17 0 -3
BITMAP
3600
3600
0000
7f00
6300
6100
6000
6400
7c00
6400
6000
6100
6300
7f00
0000
0000
0000
ENDCHAR
STARTCHAR SCopyright
ENCODING 169
SWIDTH 1080 0
DWIDTH 9 0
BBX 9 17 0 -3
BITMAP
0000
0000
0000
1c00
7700
4100
dd80
b680
b080
b080
b680
dd80
4100
7700
1c00
0000
0000
ENDCHAR
STARTCHAR CyCapIeUkr
ENCODING 170
SWIDTH 1080 0
DWIDTH 9 0
BBX 9 17 0 -3
BITMAP
0000
0000
0000
1e00
3300
6000
6000
6400
7c00
6400
6000
6000
3300
1e00
0000
0000
0000
ENDCHAR
STARTCHAR PQuoteAngle2L
ENCODING 171
SWIDTH 1080 0
DWIDTH 9 0
BBX 9 17 0 -3
BITMAP
0000
0000
0000
0000
0000
0000
0000
1b00
3600
6c00
3600
1b00
0000
0000
0000
0000
0000
ENDCHAR
STARTCHAR MNot
ENCODING 172
SWIDTH 1080 0
DWIDTH 9 0
BBX 9 17 0 -3
BITMAP
0000
0000
0000
0000
0000
0000
0000
0000
7f00
7f00
0300
0300
0300
0000
0000
0000
0000
ENDCHAR
STARTCHAR PHyphenSoft
ENCODING 173
SWIDTH 1080 0
DWIDTH 9 0
BBX 9 17 0 -3
BITMAP
0000
0000
0000
0000
0000
0000
0000
0000
3e00
3e00
0000
0000
0000
0000
0000
0000
0000
ENDCHAR
STARTCHAR SRegistered
ENCODING 174
SWIDTH 1080 0
DWIDTH 9 0
BBX 9 17 0 -3
BITMAP
0000
0000
0000
1c00
7700
4100
fd80
b680
b680
bc80
b680
b780
4100
7700
1c00
0000
0000
ENDCHAR
STARTCHAR CyCapIUkrDrss
ENCODING 175
SWIDTH 1080 0
DWIDTH 9 0
BBX 9 17 0 -3
BITMAP
3600
3600
0000
3f00
0c00
0c00
0c00
0c00
0c00
0c00
0c00
0c00
0c00
3f00
0000
0000
0000
ENDCHAR
STARTCHAR SDegree
ENCODING 176
SWIDTH 1080 0
DWIDTH 9 0
BBX 9 17 0 -3
BITMAP
0000
0000
0000
1c00
3600
2200
3600
1c00
0000
0000
0000
0000
0000
0000
0000
0000
0000
ENDCHAR
STARTCHAR MPlusMinus
ENCODING 177
SWIDTH 1080 0
DWIDTH 9 0
BBX 9 17 0 -3
BITMAP
0000
0000
0000
0000
0c00
0c00
0c00
7f80
7f80
0c00
0c00
0c00
7f80
7f80
0000
0000
0000
ENDCHAR
STARTCHAR CyCapIUkr
ENCODING 178
SWIDTH 1080 0
DWIDTH 9 0
BBX 9 17 0 -3
BITMAP
0000
0000
0000
3f00
0c00
0c00
0c00
0c00
0c00
0c00
0c00
0c00
0c00
3f00
0000
0000
0000
ENDCHAR
STARTCHAR CySmlIUkr
ENCODING 179
SWIDTH 1080 0
DWIDTH 9 0
BBX 9 17 0 -3
BITMAP
0000
0000
0c00
0c00
0000
0000
1c00
0c00
0c00
0c00
0c00
0c00
0c00
3f00
0000
0000
0000
ENDCHAR
STARTCHAR CySmlGheUpturn
ENCODING 180
SWIDTH 1080 0
DWIDTH 9 0
BBX 9 17 0 -3
BITMAP
0000
0000
0000
0000
0300
0300
7f00
6000
6000
6000
6000
6000
6000
6000
0000
0000
0000
ENDCHAR
STARTCHAR SMicro
ENCODING 181
SWIDTH 1080 0
DWIDTH 9 0
BBX 9 17 0 -3
BITMAP
0000
0000
0000
0000
0000
0000
6300
6300
6300
6300
6300
6300
7700
6d00
6000
6000
6000
ENDCHAR
STARTCHAR SPilcrow
ENCODING 182
SWIDTH 1080 0
DWIDTH 9 0
BBX 9 17 0 -3
BITMAP
0000
0000
0000
3f00
6b00
6b00
6b00
6b00
3b00
0b00
0b00
0b00
0b00
0b00
0000
0000
0000
ENDCHAR
STARTCHAR PMiddleDot
ENCODING 183
SWIDTH 1080 0
DWIDTH 9 0
BBX 9 17 0 -3
BITMAP
0000
0000
0000
0000
0000
0000
0000
0000
0c00
0c00
0c00
0000
0000
0000
0000
0000
0000
ENDCHAR
STARTCHAR CySmlIeDrss
ENCODING 184
SWIDTH 1080 0
DWIDTH 9 0
BBX 9 17 0 -3
BITMAP
0000
0000
0000
3600
3600
0000
1e00
3300
6300
7f00
6000
6000
3300
1e00
0000
0000
0000
ENDCHAR
STARTCHAR SNumberAcronym
ENCODING 185
SWIDTH 1080 0
DWIDTH 9 0
BBX 9 17 0 -3
BITMAP
0000
0000
0000
4b00
4f80
6d80
6f80
6b00
7800
5f80
5f80
5800
4800
4800
0000
0000
0000
ENDCHAR
STARTCHAR CySmlIeUkr
ENCODING 186
SWIDTH 1080 0
DWIDTH 9 0
BBX 9 17 0 -3
BITMAP
0000
0000
0000
0000
0000
0000
1e00
3300
6000
7c00
6000
6000
3300
1e00
0000
0000
0000
ENDCHAR
STARTCHAR PQuoteAngle2R
ENCODING 187
SWIDTH 1080 0
DWIDTH 9 0
BBX 9 17 0 -3
BITMAP
0000
0000
0000
0000
0000
0000
0000
6c00
3600
1b00
3600
6c00
0000
0000
0000
0000
0000
ENDCHAR
STARTCHAR CySmlJe
ENCODING 188
SWIDTH 1080 0
DWIDTH 9 0
BBX 9 17 0 -3
BITMAP
0000
0000
0600
0600
0000
0000
1e00
0600
0600
0600
0600
0600
0600
0600
6600
6600
3c00
ENDCHAR
STARTCHAR CyCapDze
ENCODING 189
SWIDTH 1080 0
DWIDTH 9 0
BBX 9 17 0 -3
BITMAP
0000
0000
0000
3f00
6300
6100
6000
3800
1e00
0600
0300
4300
6300
7e00
0000
0000
0000
ENDCHAR
STARTCHAR CySmlDze
ENCODING 190
SWIDTH 1080 0
DWIDTH 9 0
BBX 9 17 0 -3
BITMAP
0000
0000
0000
0000
0000
0000
3e00
6300
7000
3c00
0e00
0300
6300
3e00
0000
0000
0000
ENDCHAR
STARTCHAR CySmlIUkrDrss
ENCODING 191
SWIDTH 1080 0
DWIDTH 9 0
BBX 9 17 0 -3
BITMAP
0000
0000
0000
3600
3600
0000
1c00
0c00
0c00
0c00
0c00
0c00
0c00
3f00
0000
0000
0000
ENDCHAR
STARTCHAR CyCapA
ENCODING 192
SWIDTH 1080 0
DWIDTH 9 0
BBX 9 17 0 -3
BITMAP
0000
0000
0000
0800
1800
1c00
1c00
2c00
2600
2600
7e00
4300
4300
c300
0000
0000
0000
ENDCHAR
STARTCHAR CyCapBe
ENCODING 193
SWIDTH 1080 0
DWIDTH 9 0
BBX 9 17 0 -3
BITMAP
0000
0000
0000
7e00
6600
6200
6000
6000
7e00
6300
6300
6300
6300
7e00
0000
0000
0000
ENDCHAR
STARTCHAR CyCapVe
ENCODING 194
SWIDTH 1080 0
DWIDTH 9 0
BBX 9 17 0 -3
BITMAP
0000
0000
0000
7e00
6300
6300
6300
6200
7e00
6300
6300
6300
6300
7e00
0000
0000
0000
ENDCHAR
STARTCHAR CyCapGhe
ENCODING 195
SWIDTH 1080 0
DWIDTH 9 0
BBX 9 17 0 -3
BITMAP
0000
0000
0000
3f80
3180
3080
3000
3000
3000
3000
3000
3000
3000
3000
0000
0000
0000
ENDCHAR
STARTCHAR CyCapDe
ENCODING 196
SWIDTH 1080 0
DWIDTH 9 0
BBX 9 17 0 -3
BITMAP
0000
0000
0000
3e00
2600
2600
2600
2600
2600
2600
2600
2600
6600
7f00
6300
6300
6300
ENDCHAR
STARTCHAR CyCapIe
ENCODING 197
SWIDTH 1080 0
DWIDTH 9 0
BBX 9 17 0 -3
BITMAP
0000
0000
0000
7f00
6300
6100
6000
6400
7c00
6400
6000
6100
6300
7f00
0000
0000
0000
ENDCHAR
STARTCHAR CyCapZhe
ENCODING 198
SWIDTH 1080 0
DWIDTH 9 0
BBX 9 17 0 -3
BITMAP
0000
0000
0000
6b00
6b00
6b00
2a00
1c00
3e00
2a00
6b00
6b00
6b00
6b00
0000
0000
0000
ENDCHAR
STARTCHAR CyCapZe
ENCODING 199
SWIDTH 1080 0
DWIDTH 9 0
BBX 9 17 0 -3
BITMAP
0000
0000
0000
3c00
6600
0300
0300
0600
1c00
0600
0300
0300
6600
3c00
0000
0000
0000
ENDCHAR
STARTCHAR CyCapI
ENCODING 200
SWIDTH 1080 0
DWIDTH 9 0
BBX 9 17 0 -3
BITMAP
0000
0000
0000
6300
6300
6700
6700
6b00
6b00
6b00
7300
7300
6300
6300
0000
0000
0000
ENDCHAR
STARTCHAR CyCapIBreve
ENCODING 201
SWIDTH 1080 0
DWIDTH 9 0
BBX 9 17 0 -3
BITMAP
3600
3e00
0000
6300
6300
6700
6700
6b00
6b00
6b00
7300
7300
6300
6300
0000
0000
0000
ENDCHAR
STARTCHAR CyCapKa
ENCODING 202
SWIDTH 1080 0
DWIDTH 9 0
BBX 9 17 0 -3
BITMAP
0000
0000
0000
6300
6200
6600
6400
6800
7c00
7c00
6600
6600
6300
6300
0000
0000
0000
ENDCHAR
STARTCHAR CyCapEl
ENCODING 203
SWIDTH 1080 0
DWIDTH 9 0
BBX 9 17 0 -3
BITMAP
0000
0000
0000
1f00
1300
1300
1300
1300
1300
1300
1300
1300
7300
6300
0000
0000
0000
ENDCHAR
STARTCHAR CyCapEm
ENCODING 204
SWIDTH 1080 0
DWIDTH 9 0
BBX 9 17 0 -3
BITMAP
0000
0000
0000
6300
6300
7700
7700
7f00
5b00
5b00
4300
4300
4300
4300
0000
0000
0000
ENDCHAR
STARTCHAR CyCapEn
ENCODING 205
SWIDTH 1080 0
DWIDTH 9 0
BBX 9 17 0 -3
BITMAP
0000
0000
0000
6300
6300
6300
6300
6300
7f00
6300
6300
6300
6300
6300
0000
0000
0000
ENDCHAR
STARTCHAR CyCapO
ENCODING 206
SWIDTH 1080 0
DWIDTH 9 0
BBX 9 17 0 -3
BITMAP
0000
0000
0000
3e00
6300
6300
6300
6300
6300
6300
6300
6300
6300
3e00
0000
0000
0000
ENDCHAR
STARTCHAR CyCapPe
ENCODING 207
SWIDTH 1080 0
DWIDTH 9 0
BBX 9 17 0 -3
BITMAP
0000
0000
0000
7f00
6300
6300
6300
6300
6300
6300
6300
6300
6300
6300
0000
0000
0000
ENDCHAR
STARTCHAR CyCapEr
ENCODING 208
SWIDTH 1080 0
DWIDTH 9 0
BBX 9 17 0 -3
BITMAP
0000
0000
0000
7e00
6300
6300
6300
6300
7e00
6000
6000
6000
6000
6000
0000
0000
0000
ENDCHAR
STARTCHAR CyCapEs
ENCODING 209
SWIDTH 1080 0
DWIDTH 9 0
BBX 9 17 0 -3
BITMAP
0000
0000
0000
1f00
3300
6100
6000
6000
6000
6000
6000
6000
3300
1e00
0000
0000
0000
ENDCHAR
STARTCHAR CyCapTe
ENCODING 210
SWIDTH 1080 0
DWIDTH 9 0
BBX 9 17 0 -3
BITMAP
0000
0000
0000
7f80
6d80
4c80
0c00
0c00
0c00
0c00
0c00
0c00
0c00
0c00
0000
0000
0000
ENDCHAR
STARTCHAR CyCapU
ENCODING 211
SWIDTH 1080 0
DWIDTH 9 0
BBX 9 17 0 -3
BITMAP
0000
0000
0000
6180
6100
3100
3300
1a00
1a00
0e00
0c00
4400
6c00
3800
0000
0000
0000
ENDCHAR
STARTCHAR CyCapEf
ENCODING 212
SWIDTH 1080 0
DWIDTH 9 0
BBX 9 17 0 -3
BITMAP
0000
0000
0800
0800
3e00
6b00
6b00
6b00
6b00
6b00
6b00
6b00
3e00
0800
0800
0000
0000
ENDCHAR
STARTCHAR CyCapHa
ENCODING 213
SWIDTH 1080 0
DWIDTH 9 0
BBX 9 17 0 -3
BITMAP
0000
0000
0000
6300
6300
3200
3400
1c00
0800
1c00
1600
2600
6300
6300
0000
0000
0000
ENDCHAR
STARTCHAR CyCapTse
ENCODING 214
SWIDTH 1080 0
DWIDTH 9 0
BBX 9 17 0 -3
BITMAP
0000
0000
0000
6300
6300
6300
6300
6300
6300
6300
6300
6300
6300
7f80
0180
0180
0180
ENDCHAR
STARTCHAR CyCapChe
ENCODING 215
SWIDTH 1080 0
DWIDTH 9 0
BBX 9 17 0 -3
BITMAP
0000
0000
0000
6300
6300
6300
6300
6300
3f00
0300
0300
0300
0300
0300
0000
0000
0000
ENDCHAR
STARTCHAR CyCapSha
ENCODING 216
SWIDTH 1080 0
DWIDTH 9 0
BBX 9 17 0 -3
BITMAP
0000
0000
0000
6b00
6b00
6b00
6b00
6b00
6b00
6b00
6b00
6b00
6b00
7f00
0000
0000
0000
ENDCHAR
STARTCHAR CyCapShcha
ENCODING 217
SWIDTH 1080 0
DWIDTH 9 0
BBX 9 17 0 -3
BITMAP
0000
0000
0000
6b00
6b00
6b00
6b00
6b00
6b00
6b00
6b00
6b00
6b00
7f80
0180
0180
0180
ENDCHAR
STARTCHAR CyCapHardsign
ENCODING 218
SWIDTH 1080 0
DWIDTH 9 0
BBX 9 17 0 -3
BITMAP
0000
0000
0000
7800
7800
5800
1800
1800
1e00
1b00
1b00
1b00
1b00
1e00
0000
0000
0000
ENDCHAR
STARTCHAR CyCapYeru
ENCODING 219
SWIDTH 1080 0
DWIDTH 9 0
BBX 9 17 0 -3
BITMAP
0000
0000
0000
6300
6300
6300
6300
6300
7300
6b00
6f00
6f00
7b00
7300
0000
0000
0000
ENDCHAR
STARTCHAR CyCapSoftsign
ENCODING 220
SWIDTH 1080 0
DWIDTH 9 0
BBX 9 17 0 -3
BITMAP
0000
0000
0000
6000
6000
6000
6000
6000
7e00
6300
6300
6300
6300
7e00
0000
0000
0000
ENDCHAR
STARTCHAR CyCapE
ENCODING 221
SWIDTH 1080 0
DWIDTH 9 0
BBX 9 17 0 -3
BITMAP
0000
0000
0000
3c00
6600
0300
0300
1300
1f00
1300
0300
0300
6600
3c00
0000
0000
0000
ENDCHAR
STARTCHAR CyCapYu
ENCODING 222
SWIDTH 1080 0
DWIDTH 9 0
BBX 9 17 0 -3
BITMAP
0000
0000
0000
6600
6f00
6b00
6b00
7b00
7b00
7b00
6b00
6b00
6f00
6600
0000
0000
0000
ENDCHAR
STARTCHAR CyCapYa
ENCODING 223
SWIDTH 1080 0
DWIDTH 9 0
BBX 9 17 0 -3
BITMAP
0000
0000
0000
3f00
6300
6300
6300
6300
3f00
1b00
3300
3300
6300
6300
0000
0000
0000
ENDCHAR
STARTCHAR CySmlA
ENCODING 224
SWIDTH 1080 0
DWIDTH 9 0
BBX 9 17 0 -3
BITMAP
0000
0000
0000
0000
0000
0000
3e00
3300
0300
3f00
6300
6300
6700
3b00
0000
0000
0000
ENDCHAR
STARTCHAR CySmlBe
ENCODING 225
SWIDTH 1080 0
DWIDTH 9 0
BBX 9 17 0 -3
BITMAP
0000
0000
0000
0600
1c00
3000
2000
6e00
7300
6300
6300
6300
6300
3e00
0000
0000
0000
ENDCHAR
STARTCHAR CySmlVe
ENCODING 226
SWIDTH 1080 0
DWIDTH 9 0
BBX 9 17 0 -3
BITMAP
0000
0000
0000
0000
0000
0000
7e00
6300
6200
7e00
6300
6300
6300
7e00
0000
0000
0000
ENDCHAR
STARTCHAR CySmlGhe
ENCODING 227
SWIDTH 1080 0
DWIDTH 9 0
BBX 9 17 0 -3
BITMAP
0000
0000
0000
0000
0000
0000
7f00
6300
6100
6000
6000
6000
6000
6000
0000
0000
0000
ENDCHAR
STARTCHAR CySmlDe
ENCODING 228
SWIDTH 1080 0
DWIDTH 9 0
BBX 9 17 0 -3
BITMAP
0000
0000
0000
0000
0000
0000
3e00
2600
2600
2600
2600
2600
6600
7f00
6300
6300
6300
ENDCHAR
STARTCHAR CySmlIe
ENCODING 229
SWIDTH 1080 0
DWIDTH 9 0
BBX 9 17 0 -3
BITMAP
0000
0000
0000
0000
0000
0000
1e00
3300
6300
7f00
6000
6000
3300
1e00
0000
0000
0000
ENDCHAR
STARTCHAR CySmlZhe
ENCODING 230
SWIDTH 1080 0
DWIDTH 9 0
BBX 9 17 0 -3
BITMAP
0000
0000
0000
0000
0000
0000
6b00
6b00
2a00
1c00
6b00
6b00
6b00
6b00
0000
0000
0000
ENDCHAR
STARTCHAR CySmlZe
ENCODING 231
SWIDTH 1080 0
DWIDTH 9 0
BBX 9 17 0 -3
BITMAP
0000
0000
0000
0000
0000
0000
3e00
6300
0300
0e00
0300
0300
6300
3e00
0000
0000
0000
ENDCHAR
STARTCHAR CySmlI
ENCODING 232
SWIDTH 1080 0
DWIDTH 9 0
BBX 9 17 0 -3
BITMAP
0000
0000
0000
0000
0000
0000
6300
6700
6700
6b00
6b00
7300
7300
6300
0000
0000
0000
ENDCHAR
STARTCHAR CySmlIBreve
ENCODING 233
SWIDTH 1080 0
DWIDTH 9 0
BBX 9 17 0 -3
BITMAP
0000
0000
0000
3600
3e00
0000
6300
6700
6700
6b00
6b00
7300
7300
6300
0000
0000
0000
ENDCHAR
STARTCHAR CySmlKa
ENCODING 234
SWIDTH 1080 0
DWIDTH 9 0
BBX 9 17 0 -3
BITMAP
0000
0000
0000
0000
0000
0000
6300
6200
6400
6c00
7c00
6600
6300
6300
0000
0000
0000
ENDCHAR
STARTCHAR CySmlEl
ENCODING 235
SWIDTH 1080 0
DWIDTH 9 0
BBX 9 17 0 -3
BITMAP
0000
0000
0000
0000
0000
0000
1f00
1300
1300
1300
1300
1300
7300
6300
0000
0000
0000
ENDCHAR
STARTCHAR CySmlEm
ENCODING 236
SWIDTH 1080 0
DWIDTH 9 0
BBX 9 17 0 -3
BITMAP
0000
0000
0000
0000
0000
0000
6300
6300
7700
7700
5b00
5b00
4300
4300
0000
0000
0000
ENDCHAR
STARTCHAR CySmlEn
ENCODING 237
SWIDTH 1080 0
DWIDTH 9 0
BBX 9 17 0 -3
BITMAP
0000
0000
0000
0000
0000
0000
6300
6300
6300
7f00
6300
6300
6300
6300
0000
0000
0000
ENDCHAR
STARTCHAR CySmlO
ENCODING 238
SWIDTH 1080 0
DWIDTH 9 0
BBX 9 17 0 -3
BITMAP
0000
0000
0000
0000
0000
0000
3e00
6300
6300
6300
6300
6300
6300
3e00
0000
0000
0000
ENDCHAR
STARTCHAR CySmlPe
ENCODING 239
SWIDTH 1080 0
DWIDTH 9 0
BBX 9 17 0 -3
BITMAP
0000
0000
0000
0000
0000
0000
7f00
6300
6300
6300
6300
6300
6300
6300
0000
0000
0000
ENDCHAR
STARTCHAR CySmlEr
ENCODING 240
SWIDTH 1080 0
DWIDTH 9 0
BBX 9 17 0 -3
BITMAP
0000
0000
0000
0000
0000
0000
6e00
7300
6300
6300
6300
6300
7300
6e00
6000
6000
6000
ENDCHAR
STARTCHAR CySmlEs
ENCODING 241
SWIDTH 1080 0
DWIDTH 9 0
BBX 9 17 0 -3
BITMAP
0000
0000
0000
0000
0000
0000
1e00
3300
6000
6000
6000
6000
3300
1e00
0000
0000
0000
ENDCHAR
STARTCHAR CySmlTe
ENCODING 242
SWIDTH 1080 0
DWIDTH 9 0
BBX 9 17 0 -3
BITMAP
0000
0000
0000
0000
0000
0000
7f80
6d80
4c80
0c00
0c00
0c00
0c00
0c00
0000
0000
0000
ENDCHAR
STARTCHAR CySmlU
ENCODING 243
SWIDTH 1080 0
DWIDTH 9 0
BBX 9 17 0 -3
BITMAP
0000
0000
0000
0000
0000
0000
6300
6300
3200
3200
1a00
1c00
0c00
0c00
0800
6800
7000
ENDCHAR
STARTCHAR CySmlEf
ENCODING 244
SWIDTH 1080 0
DWIDTH 9 0
BBX 9 17 0 -3
BITMAP
0000
0000
0000
1400
0800
0800
3e00
6b00
6b00
6b00
6b00
6b00
6b00
3e00
0800
0800
1400
ENDCHAR
STARTCHAR CySmlHa
ENCODING 245
SWIDTH 1080 0
DWIDTH 9 0
BBX 9 17 0 -3
BITMAP
0000
0000
0000
0000
0000
0000
6300
7300
3400
1800
0c00
1600
6700
6300
0000
0000
0000
ENDCHAR
STARTCHAR CySmlTse
ENCODING 246
SWIDTH 1080 0
DWIDTH 9 0
BBX 9 17 0 -3
BITMAP
0000
0000
0000
0000
0000
0000
6300
6300
6300
6300
6300
6300
6300
7f80
0180
0180
0180
ENDCHAR
STARTCHAR CySmlChe
ENCODING 247
SWIDTH 1080 0
DWIDTH 9 0
BBX 9 17 0 -3
BITMAP
0000
0000
0000
0000
0000
0000
6300
6300
6300
3f00
0300
0300
0300
0300
0000
0000
0000
ENDCHAR
STARTCHAR CySmlSha
ENCODING 248
SWIDTH 1080 0
DWIDTH 9 0
BBX 9 17 0 -3
BITMAP
0000
0000
0000
0000
0000
0000
6b00
6b00
6b00
6b00
6b00
6b00
6b00
7f00
0000
0000
0000
ENDCHAR
STARTCHAR CySmlShcha
ENCODING 249
SWIDTH 1080 0
DWIDTH 9 0
BBX 9 17 0 -3
BITMAP
0000
0000
0000
0000
0000
0000
6b00
6b00
6b00
6b00
6b00
6b00
6b00
7f80
0180
0180
0180
ENDCHAR
STARTCHAR CySmlHardsign
ENCODING 250
SWIDTH 1080 0
DWIDTH 9 0
BBX 9 17 0 -3
BITMAP
0000
0000
0000
0000
0000
0000
7c00
6c00
4c00
0f00
0d80
0d80
0d80
0f00
0000
0000
0000
ENDCHAR
STARTCHAR CySmlYeru
ENCODING 251
SWIDTH 1080 0
DWIDTH 9 0
BBX 9 17 0 -3
BITMAP
0000
0000
0000
0000
0000
0000
6300
6300
6300
7300
6b00
6f00
6b00
7300
0000
0000
0000
ENDCHAR
STARTCHAR CySmlSoftsign
ENCODING 252
SWIDTH 1080 0
DWIDTH 9 0
BBX 9 17 0 -3
BITMAP
0000
0000
0000
0000
0000
0000
6000
6000
6000
7e00
6300
6300
6300
7e00
0000
0000
0000
ENDCHAR
STARTCHAR CySmlE
ENCODING 253
SWIDTH 1080 0
DWIDTH 9 0
BBX 9 17 0 -3
BITMAP
0000
0000
0000
0000
0000
0000
3c00
6600
0300
1f00
0300
0300
6600
3c00
0000
0000
0000
ENDCHAR
STARTCHAR CySmlYu
ENCODING 254
SWIDTH 1080 0
DWIDTH 9 0
BBX 9 17 0 -3
BITMAP
0000
0000
0000
0000
0000
0000
6600
6b00
6b00
7b00
6b00
6b00
6b00
6600
0000
0000
0000
ENDCHAR
STARTCHAR CySmlYa
ENCODING 255
SWIDTH 1080 0
DWIDTH 9 0
BBX 9 17 0 -3
BITMAP
0000
0000
0000
0000
0000
0000
3f00
6300
6300
3f00
1b00
3300
3300
6300
0000
0000
0000
ENDCHAR
ENDFONT
