STARTFONT 2.1
COMMENT 
COMMENT Copyright (C) 2012-2015 Uwe Waldmann
COMMENT 
COMMENT Permission is hereby granted, free of charge, to any person obtaining
COMMENT a copy of this font software and associated files (the "Software"),
COMMENT to deal in the Software without restriction, including without
COMMENT limitation the rights to use, copy, modify, merge, publish,
COMMENT distribute, embed, sublicense, and/or sell copies of the Software,
COMMENT and to permit persons to whom the Software is furnished to do so,
COMMENT subject to the following conditions:
COMMENT 
COMMENT (1) The above copyright notice, this permission notice, and the
COMMENT     disclaimer below shall be included in all copies or substantial
COMMENT     portions of the Software.
COMMENT 
COMMENT (2) If the design of any glyphs in the fonts that are contained in the
COMMENT     Software or generated during the installation process is modified
COMMENT     or if additional glyphs are added to the fonts, the fonts
COMMENT     must be renamed. The new names may not contain the word "UW",
COMMENT     irrespective of capitalisation; the new names may contain the word
COMMENT     "ttyp0", irrespective of capitalisation, only if preceded by a
COMMENT     foundry name different from "UW".
COMMENT 
COMMENT THE SOFTWARE IS PROVIDED "AS IS", WITHOUT WARRANTY OF ANY KIND, EXPRESS
COMMENT OR IMPLIED, INCLUDING BUT NOT LIMITED TO THE WARRANTIES OF
COMMENT MERCHANTABILITY, FITNESS FOR A PARTICULAR PURPOSE AND NONINFRINGEMENT.
COMMENT IN NO EVENT SHALL THE AUTHORS OR COPYRIGHT HOLDERS BE LIABLE FOR ANY
COMMENT CLAIM, DAMAGES OR OTHER LIABILITY, WHETHER IN AN ACTION OF CONTRACT,
COMMENT TORT OR OTHERWISE, ARISING FROM, OUT OF OR IN CONNECTION WITH THE
COMMENT SOFTWARE OR THE USE OR OTHER DEALINGS IN THE SOFTWARE.
COMMENT 
FONT -UW-Ttyp0-Bold-R-Normal--15-140-75-75-C-80-ISO8859-1
SIZE 15 75 75
FONTBOUNDINGBOX 8 15 0 -3
STARTPROPERTIES 19
FONTNAME_REGISTRY ""
FOUNDRY "UW"
FAMILY_NAME "Ttyp0"
WEIGHT_NAME "Bold"
SLANT "R"
SETWIDTH_NAME "Normal"
ADD_STYLE_NAME ""
PIXEL_SIZE 15
POINT_SIZE 140
RESOLUTION_X 75
RESOLUTION_Y 75
SPACING "C"
AVERAGE_WIDTH 80
CHARSET_REGISTRY "ISO8859"
CHARSET_ENCODING "1"
DEFAULT_CHAR 0
FONT_DESCENT 3
FONT_ASCENT 12
COPYRIGHT "Copyright (C) 2012-2015 Uwe Waldmann"
ENDPROPERTIES
CHARS 250
STARTCHAR DDefaultChar
ENCODING 0
SWIDTH 960 0
DWIDTH 8 0
BBX 8 15 0 -3
BITMAP
00
00
d6
d6
00
c6
06
c0
c6
00
d6
d6
00
00
00
ENDCHAR
STARTCHAR DDiamondB
ENCODING 1
SWIDTH 960 0
DWIDTH 8 0
BBX 8 15 0 -3
BITMAP
00
00
00
10
38
7c
fe
fe
7c
38
10
00
00
00
00
ENDCHAR
STARTCHAR GGrey
ENCODING 2
SWIDTH 960 0
DWIDTH 8 0
BBX 8 15 0 -3
BITMAP
55
aa
55
aa
55
aa
55
aa
55
aa
55
aa
55
aa
55
ENDCHAR
STARTCHAR CtlHT
ENCODING 3
SWIDTH 960 0
DWIDTH 8 0
BBX 8 15 0 -3
BITMAP
00
00
d8
d8
f8
d8
d8
00
7e
18
18
18
18
00
00
ENDCHAR
STARTCHAR CtlFF
ENCODING 4
SWIDTH 960 0
DWIDTH 8 0
BBX 8 15 0 -3
BITMAP
00
00
f8
c0
f0
c0
c0
00
3e
30
3c
30
30
00
00
ENDCHAR
STARTCHAR CtlCR
ENCODING 5
SWIDTH 960 0
DWIDTH 8 0
BBX 8 15 0 -3
BITMAP
00
00
70
d8
c0
d8
70
00
3c
36
3c
36
36
00
00
ENDCHAR
STARTCHAR CtlLF
ENCODING 6
SWIDTH 960 0
DWIDTH 8 0
BBX 8 15 0 -3
BITMAP
00
00
c0
c0
c0
c0
f8
00
3e
30
3c
30
30
00
00
ENDCHAR
STARTCHAR SDegree
ENCODING 7
SWIDTH 960 0
DWIDTH 8 0
BBX 8 15 0 -3
BITMAP
00
00
38
6c
44
6c
38
00
00
00
00
00
00
00
00
ENDCHAR
STARTCHAR MPlusMinus
ENCODING 8
SWIDTH 960 0
DWIDTH 8 0
BBX 8 15 0 -3
BITMAP
00
00
18
18
18
ff
ff
18
18
18
ff
ff
00
00
00
ENDCHAR
STARTCHAR CtlNL
ENCODING 9
SWIDTH 960 0
DWIDTH 8 0
BBX 8 15 0 -3
BITMAP
00
00
c8
e8
f8
b8
98
00
30
30
30
30
3e
00
00
ENDCHAR
STARTCHAR CtlVT
ENCODING 10
SWIDTH 960 0
DWIDTH 8 0
BBX 8 15 0 -3
BITMAP
00
00
cc
c8
68
70
30
00
7e
18
18
18
18
00
00
ENDCHAR
STARTCHAR GLineNW
ENCODING 11
SWIDTH 960 0
DWIDTH 8 0
BBX 8 15 0 -3
BITMAP
18
18
18
18
18
18
f8
f8
00
00
00
00
00
00
00
ENDCHAR
STARTCHAR GLineSW
ENCODING 12
SWIDTH 960 0
DWIDTH 8 0
BBX 8 15 0 -3
BITMAP
00
00
00
00
00
00
f8
f8
18
18
18
18
18
18
18
ENDCHAR
STARTCHAR GLineSE
ENCODING 13
SWIDTH 960 0
DWIDTH 8 0
BBX 8 15 0 -3
BITMAP
00
00
00
00
00
00
1f
1f
18
18
18
18
18
18
18
ENDCHAR
STARTCHAR GLineNE
ENCODING 14
SWIDTH 960 0
DWIDTH 8 0
BBX 8 15 0 -3
BITMAP
18
18
18
18
18
18
1f
1f
00
00
00
00
00
00
00
ENDCHAR
STARTCHAR GLineNSWE
ENCODING 15
SWIDTH 960 0
DWIDTH 8 0
BBX 8 15 0 -3
BITMAP
18
18
18
18
18
18
ff
ff
18
18
18
18
18
18
18
ENDCHAR
STARTCHAR GLineWEHhigh
ENCODING 16
SWIDTH 960 0
DWIDTH 8 0
BBX 8 15 0 -3
BITMAP
ff
ff
00
00
00
00
00
00
00
00
00
00
00
00
00
ENDCHAR
STARTCHAR GLineWEHigh
ENCODING 17
SWIDTH 960 0
DWIDTH 8 0
BBX 8 15 0 -3
BITMAP
00
00
00
ff
ff
00
00
00
00
00
00
00
00
00
00
ENDCHAR
STARTCHAR GLineWE
ENCODING 18
SWIDTH 960 0
DWIDTH 8 0
BBX 8 15 0 -3
BITMAP
00
00
00
00
00
00
ff
ff
00
00
00
00
00
00
00
ENDCHAR
STARTCHAR GLineWELow
ENCODING 19
SWIDTH 960 0
DWIDTH 8 0
BBX 8 15 0 -3
BITMAP
00
00
00
00
00
00
00
00
00
ff
ff
00
00
00
00
ENDCHAR
STARTCHAR GLineWELlow
ENCODING 20
SWIDTH 960 0
DWIDTH 8 0
BBX 8 15 0 -3
BITMAP
00
00
00
00
00
00
00
00
00
00
00
00
ff
ff
00
ENDCHAR
STARTCHAR GLineNSE
ENCODING 21
SWIDTH 960 0
DWIDTH 8 0
BBX 8 15 0 -3
BITMAP
18
18
18
18
18
18
1f
1f
18
18
18
18
18
18
18
ENDCHAR
STARTCHAR GLineNSW
ENCODING 22
SWIDTH 960 0
DWIDTH 8 0
BBX 8 15 0 -3
BITMAP
18
18
18
18
18
18
f8
f8
18
18
18
18
18
18
18
ENDCHAR
STARTCHAR GLineNWE
ENCODING 23
SWIDTH 960 0
DWIDTH 8 0
BBX 8 15 0 -3
BITMAP
18
18
18
18
18
18
ff
ff
00
00
00
00
00
00
00
ENDCHAR
STARTCHAR GLineSWE
ENCODING 24
SWIDTH 960 0
DWIDTH 8 0
BBX 8 15 0 -3
BITMAP
00
00
00
00
00
00
ff
ff
18
18
18
18
18
18
18
ENDCHAR
STARTCHAR GLineNS
ENCODING 25
SWIDTH 960 0
DWIDTH 8 0
BBX 8 15 0 -3
BITMAP
18
18
18
18
18
18
18
18
18
18
18
18
18
18
18
ENDCHAR
STARTCHAR MLessEq
ENCODING 26
SWIDTH 960 0
DWIDTH 8 0
BBX 8 15 0 -3
BITMAP
00
00
02
0e
38
60
60
38
0e
02
00
7e
7e
00
00
ENDCHAR
STARTCHAR MGreaterEq
ENCODING 27
SWIDTH 960 0
DWIDTH 8 0
BBX 8 15 0 -3
BITMAP
00
00
40
70
1c
06
06
1c
70
40
00
7e
7e
00
00
ENDCHAR
STARTCHAR GkSmlPi
ENCODING 28
SWIDTH 960 0
DWIDTH 8 0
BBX 8 15 0 -3
BITMAP
00
00
00
00
00
7e
fe
24
24
66
66
46
00
00
00
ENDCHAR
STARTCHAR MEqualNot
ENCODING 29
SWIDTH 960 0
DWIDTH 8 0
BBX 8 15 0 -3
BITMAP
00
00
00
06
04
7e
7e
18
7e
7e
20
60
00
00
00
ENDCHAR
STARTCHAR CurrPound
ENCODING 30
SWIDTH 960 0
DWIDTH 8 0
BBX 8 15 0 -3
BITMAP
00
00
3c
66
66
60
f8
60
60
42
fe
fe
00
00
00
ENDCHAR
STARTCHAR PMiddleDot
ENCODING 31
SWIDTH 960 0
DWIDTH 8 0
BBX 8 15 0 -3
BITMAP
00
00
00
00
00
00
18
18
18
00
00
00
00
00
00
ENDCHAR
STARTCHAR Space
ENCODING 32
SWIDTH 960 0
DWIDTH 8 0
BBX 8 15 0 -3
BITMAP
00
00
00
00
00
00
00
00
00
00
00
00
00
00
00
ENDCHAR
STARTCHAR PExclam
ENCODING 33
SWIDTH 960 0
DWIDTH 8 0
BBX 8 15 0 -3
BITMAP
00
00
18
18
18
18
18
18
18
00
18
18
00
00
00
ENDCHAR
STARTCHAR PQuote2Ascii
ENCODING 34
SWIDTH 960 0
DWIDTH 8 0
BBX 8 15 0 -3
BITMAP
00
6c
6c
6c
6c
00
00
00
00
00
00
00
00
00
00
ENDCHAR
STARTCHAR SNumberSign
ENCODING 35
SWIDTH 960 0
DWIDTH 8 0
BBX 8 15 0 -3
BITMAP
00
00
00
6c
6c
fe
6c
6c
6c
fe
6c
6c
00
00
00
ENDCHAR
STARTCHAR CurrDollar
ENCODING 36
SWIDTH 960 0
DWIDTH 8 0
BBX 8 15 0 -3
BITMAP
00
10
10
7c
d6
d0
d0
7c
16
16
d6
7c
10
10
00
ENDCHAR
STARTCHAR SPercent
ENCODING 37
SWIDTH 960 0
DWIDTH 8 0
BBX 8 15 0 -3
BITMAP
00
00
46
e6
ac
f8
58
34
3e
6a
ce
c4
00
00
00
ENDCHAR
STARTCHAR SAmpersand
ENCODING 38
SWIDTH 960 0
DWIDTH 8 0
BBX 8 15 0 -3
BITMAP
00
00
30
68
68
68
30
72
da
cc
cc
76
00
00
00
ENDCHAR
STARTCHAR PApostropheAscii
ENCODING 39
SWIDTH 960 0
DWIDTH 8 0
BBX 8 15 0 -3
BITMAP
00
18
18
18
30
20
00
00
00
00
00
00
00
00
00
ENDCHAR
STARTCHAR PParenL
ENCODING 40
SWIDTH 960 0
DWIDTH 8 0
BBX 8 15 0 -3
BITMAP
00
0c
18
10
30
30
30
30
30
30
10
18
0c
00
00
ENDCHAR
STARTCHAR PParenR
ENCODING 41
SWIDTH 960 0
DWIDTH 8 0
BBX 8 15 0 -3
BITMAP
00
30
18
08
0c
0c
0c
0c
0c
0c
08
18
30
00
00
ENDCHAR
STARTCHAR SAsterisk
ENCODING 42
SWIDTH 960 0
DWIDTH 8 0
BBX 8 15 0 -3
BITMAP
00
00
00
00
44
6c
38
fe
38
6c
44
00
00
00
00
ENDCHAR
STARTCHAR MPlus
ENCODING 43
SWIDTH 960 0
DWIDTH 8 0
BBX 8 15 0 -3
BITMAP
00
00
00
18
18
18
ff
ff
18
18
18
00
00
00
00
ENDCHAR
STARTCHAR PComma
ENCODING 44
SWIDTH 960 0
DWIDTH 8 0
BBX 8 15 0 -3
BITMAP
00
00
00
00
00
00
00
00
00
18
18
18
30
20
00
ENDCHAR
STARTCHAR PHyphenMinus
ENCODING 45
SWIDTH 960 0
DWIDTH 8 0
BBX 8 15 0 -3
BITMAP
00
00
00
00
00
00
7e
7e
00
00
00
00
00
00
00
ENDCHAR
STARTCHAR PFullStop
ENCODING 46
SWIDTH 960 0
DWIDTH 8 0
BBX 8 15 0 -3
BITMAP
00
00
00
00
00
00
00
00
00
18
18
18
00
00
00
ENDCHAR
STARTCHAR PSolidus
ENCODING 47
SWIDTH 960 0
DWIDTH 8 0
BBX 8 15 0 -3
BITMAP
00
06
06
0c
0c
18
18
30
30
60
60
c0
c0
00
00
ENDCHAR
STARTCHAR Digit0
ENCODING 48
SWIDTH 960 0
DWIDTH 8 0
BBX 8 15 0 -3
BITMAP
00
00
38
6c
c6
c6
c6
c6
c6
c6
6c
38
00
00
00
ENDCHAR
STARTCHAR Digit1
ENCODING 49
SWIDTH 960 0
DWIDTH 8 0
BBX 8 15 0 -3
BITMAP
00
00
18
38
78
58
18
18
18
18
18
18
00
00
00
ENDCHAR
STARTCHAR Digit2
ENCODING 50
SWIDTH 960 0
DWIDTH 8 0
BBX 8 15 0 -3
BITMAP
00
00
7c
c6
c6
06
0c
18
30
42
fe
fe
00
00
00
ENDCHAR
STARTCHAR Digit3
ENCODING 51
SWIDTH 960 0
DWIDTH 8 0
BBX 8 15 0 -3
BITMAP
00
00
7c
c6
c6
04
1c
04
06
c6
c6
7c
00
00
00
ENDCHAR
STARTCHAR Digit4
ENCODING 52
SWIDTH 960 0
DWIDTH 8 0
BBX 8 15 0 -3
BITMAP
00
00
0c
1c
3c
2c
6c
cc
fe
0c
0c
0c
00
00
00
ENDCHAR
STARTCHAR Digit5
ENCODING 53
SWIDTH 960 0
DWIDTH 8 0
BBX 8 15 0 -3
BITMAP
00
00
7c
7c
40
78
4c
06
06
c6
cc
78
00
00
00
ENDCHAR
STARTCHAR Digit6
ENCODING 54
SWIDTH 960 0
DWIDTH 8 0
BBX 8 15 0 -3
BITMAP
00
00
3c
60
c0
c0
dc
e6
c6
c6
c6
7c
00
00
00
ENDCHAR
STARTCHAR Digit7
ENCODING 55
SWIDTH 960 0
DWIDTH 8 0
BBX 8 15 0 -3
BITMAP
00
00
fe
fe
84
0c
18
18
30
30
30
30
00
00
00
ENDCHAR
STARTCHAR Digit8
ENCODING 56
SWIDTH 960 0
DWIDTH 8 0
BBX 8 15 0 -3
BITMAP
00
00
7c
c6
c6
6c
38
6c
c6
c6
c6
7c
00
00
00
ENDCHAR
STARTCHAR Digit9
ENCODING 57
SWIDTH 960 0
DWIDTH 8 0
BBX 8 15 0 -3
BITMAP
00
00
7c
c6
c6
c6
ce
76
06
06
0c
78
00
00
00
ENDCHAR
STARTCHAR PColon
ENCODING 58
SWIDTH 960 0
DWIDTH 8 0
BBX 8 15 0 -3
BITMAP
00
00
00
00
00
18
18
18
00
18
18
18
00
00
00
ENDCHAR
STARTCHAR PSemicolon
ENCODING 59
SWIDTH 960 0
DWIDTH 8 0
BBX 8 15 0 -3
BITMAP
00
00
00
00
00
18
18
18
00
18
18
18
30
20
00
ENDCHAR
STARTCHAR MLess
ENCODING 60
SWIDTH 960 0
DWIDTH 8 0
BBX 8 15 0 -3
BITMAP
00
00
06
0c
18
30
60
60
30
18
0c
06
00
00
00
ENDCHAR
STARTCHAR MEqual
ENCODING 61
SWIDTH 960 0
DWIDTH 8 0
BBX 8 15 0 -3
BITMAP
00
00
00
00
00
7e
7e
00
7e
7e
00
00
00
00
00
ENDCHAR
STARTCHAR MGreater
ENCODING 62
SWIDTH 960 0
DWIDTH 8 0
BBX 8 15 0 -3
BITMAP
00
00
60
30
18
0c
06
06
0c
18
30
60
00
00
00
ENDCHAR
STARTCHAR PQuestion
ENCODING 63
SWIDTH 960 0
DWIDTH 8 0
BBX 8 15 0 -3
BITMAP
00
00
7c
c6
c6
06
0c
18
30
00
30
30
00
00
00
ENDCHAR
STARTCHAR SCommercialAt
ENCODING 64
SWIDTH 960 0
DWIDTH 8 0
BBX 8 15 0 -3
BITMAP
00
00
1c
36
6a
5e
52
52
5e
6c
32
1e
00
00
00
ENDCHAR
STARTCHAR LtCapA
ENCODING 65
SWIDTH 960 0
DWIDTH 8 0
BBX 8 15 0 -3
BITMAP
00
00
10
30
38
38
58
4c
7c
cc
86
86
00
00
00
ENDCHAR
STARTCHAR LtCapB
ENCODING 66
SWIDTH 960 0
DWIDTH 8 0
BBX 8 15 0 -3
BITMAP
00
00
fc
c6
c6
c6
fc
c6
c6
c6
c6
fc
00
00
00
ENDCHAR
STARTCHAR LtCapC
ENCODING 67
SWIDTH 960 0
DWIDTH 8 0
BBX 8 15 0 -3
BITMAP
00
00
3c
66
c0
c0
c0
c0
c0
c0
66
3c
00
00
00
ENDCHAR
STARTCHAR LtCapD
ENCODING 68
SWIDTH 960 0
DWIDTH 8 0
BBX 8 15 0 -3
BITMAP
00
00
f8
cc
c6
c6
c6
c6
c6
c6
cc
f8
00
00
00
ENDCHAR
STARTCHAR LtCapE
ENCODING 69
SWIDTH 960 0
DWIDTH 8 0
BBX 8 15 0 -3
BITMAP
00
00
fe
c2
c2
c8
f8
c8
c0
c2
c2
fe
00
00
00
ENDCHAR
STARTCHAR LtCapF
ENCODING 70
SWIDTH 960 0
DWIDTH 8 0
BBX 8 15 0 -3
BITMAP
00
00
fe
c2
c2
c8
f8
c8
c0
c0
c0
c0
00
00
00
ENDCHAR
STARTCHAR LtCapG
ENCODING 71
SWIDTH 960 0
DWIDTH 8 0
BBX 8 15 0 -3
BITMAP
00
00
3c
66
c0
c0
c0
ce
c6
c6
66
3e
00
00
00
ENDCHAR
STARTCHAR LtCapH
ENCODING 72
SWIDTH 960 0
DWIDTH 8 0
BBX 8 15 0 -3
BITMAP
00
00
c6
c6
c6
c6
fe
c6
c6
c6
c6
c6
00
00
00
ENDCHAR
STARTCHAR LtCapI
ENCODING 73
SWIDTH 960 0
DWIDTH 8 0
BBX 8 15 0 -3
BITMAP
00
00
7e
18
18
18
18
18
18
18
18
7e
00
00
00
ENDCHAR
STARTCHAR LtCapJ
ENCODING 74
SWIDTH 960 0
DWIDTH 8 0
BBX 8 15 0 -3
BITMAP
00
00
1e
0c
0c
0c
0c
0c
0c
cc
cc
78
00
00
00
ENDCHAR
STARTCHAR LtCapK
ENCODING 75
SWIDTH 960 0
DWIDTH 8 0
BBX 8 15 0 -3
BITMAP
00
00
c6
c4
cc
c8
d8
f8
cc
cc
c6
c6
00
00
00
ENDCHAR
STARTCHAR LtCapL
ENCODING 76
SWIDTH 960 0
DWIDTH 8 0
BBX 8 15 0 -3
BITMAP
00
00
c0
c0
c0
c0
c0
c0
c0
c2
c2
fe
00
00
00
ENDCHAR
STARTCHAR LtCapM
ENCODING 77
SWIDTH 960 0
DWIDTH 8 0
BBX 8 15 0 -3
BITMAP
00
00
c6
c6
ee
ee
fe
b6
b6
86
86
86
00
00
00
ENDCHAR
STARTCHAR LtCapN
ENCODING 78
SWIDTH 960 0
DWIDTH 8 0
BBX 8 15 0 -3
BITMAP
00
00
c2
e2
e2
b2
b2
9a
9a
8e
8e
86
00
00
00
ENDCHAR
STARTCHAR LtCapO
ENCODING 79
SWIDTH 960 0
DWIDTH 8 0
BBX 8 15 0 -3
BITMAP
00
00
7c
c6
c6
c6
c6
c6
c6
c6
c6
7c
00
00
00
ENDCHAR
STARTCHAR LtCapP
ENCODING 80
SWIDTH 960 0
DWIDTH 8 0
BBX 8 15 0 -3
BITMAP
00
00
fc
c6
c6
c6
c6
fc
c0
c0
c0
c0
00
00
00
ENDCHAR
STARTCHAR LtCapQ
ENCODING 81
SWIDTH 960 0
DWIDTH 8 0
BBX 8 15 0 -3
BITMAP
00
00
7c
c6
c6
c6
c6
c6
c6
f6
de
7c
06
02
00
ENDCHAR
STARTCHAR LtCapR
ENCODING 82
SWIDTH 960 0
DWIDTH 8 0
BBX 8 15 0 -3
BITMAP
00
00
fc
c6
c6
c6
fc
d8
cc
cc
c6
c6
00
00
00
ENDCHAR
STARTCHAR LtCapS
ENCODING 83
SWIDTH 960 0
DWIDTH 8 0
BBX 8 15 0 -3
BITMAP
00
00
7c
c6
c0
e0
78
1c
06
06
c6
7c
00
00
00
ENDCHAR
STARTCHAR LtCapT
ENCODING 84
SWIDTH 960 0
DWIDTH 8 0
BBX 8 15 0 -3
BITMAP
00
00
ff
99
18
18
18
18
18
18
18
18
00
00
00
ENDCHAR
STARTCHAR LtCapU
ENCODING 85
SWIDTH 960 0
DWIDTH 8 0
BBX 8 15 0 -3
BITMAP
00
00
c6
c6
c6
c6
c6
c6
c6
c6
c6
7c
00
00
00
ENDCHAR
STARTCHAR LtCapV
ENCODING 86
SWIDTH 960 0
DWIDTH 8 0
BBX 8 15 0 -3
BITMAP
00
00
c2
c2
66
64
64
34
38
38
18
10
00
00
00
ENDCHAR
STARTCHAR LtCapW
ENCODING 87
SWIDTH 960 0
DWIDTH 8 0
BBX 8 15 0 -3
BITMAP
00
00
c2
c2
c2
da
da
da
fe
6c
6c
6c
00
00
00
ENDCHAR
STARTCHAR LtCapX
ENCODING 88
SWIDTH 960 0
DWIDTH 8 0
BBX 8 15 0 -3
BITMAP
00
00
c6
c6
64
68
38
38
2c
4c
c6
c6
00
00
00
ENDCHAR
STARTCHAR LtCapY
ENCODING 89
SWIDTH 960 0
DWIDTH 8 0
BBX 8 15 0 -3
BITMAP
00
00
c3
62
64
34
38
18
18
18
18
18
00
00
00
ENDCHAR
STARTCHAR LtCapZ
ENCODING 90
SWIDTH 960 0
DWIDTH 8 0
BBX 8 15 0 -3
BITMAP
00
00
fe
86
8c
1c
18
30
70
62
c2
fe
00
00
00
ENDCHAR
STARTCHAR PSquareBrackL
ENCODING 91
SWIDTH 960 0
DWIDTH 8 0
BBX 8 15 0 -3
BITMAP
00
7c
60
60
60
60
60
60
60
60
60
60
7c
00
00
ENDCHAR
STARTCHAR PRevSolidus
ENCODING 92
SWIDTH 960 0
DWIDTH 8 0
BBX 8 15 0 -3
BITMAP
00
c0
c0
60
60
30
30
18
18
0c
0c
06
06
00
00
ENDCHAR
STARTCHAR PSquareBrackR
ENCODING 93
SWIDTH 960 0
DWIDTH 8 0
BBX 8 15 0 -3
BITMAP
00
7c
0c
0c
0c
0c
0c
0c
0c
0c
0c
0c
7c
00
00
ENDCHAR
STARTCHAR AccCircumAscii
ENCODING 94
SWIDTH 960 0
DWIDTH 8 0
BBX 8 15 0 -3
BITMAP
00
10
38
6c
c6
82
00
00
00
00
00
00
00
00
00
ENDCHAR
STARTCHAR OLowline
ENCODING 95
SWIDTH 960 0
DWIDTH 8 0
BBX 8 15 0 -3
BITMAP
00
00
00
00
00
00
00
00
00
00
00
7e
7e
00
00
ENDCHAR
STARTCHAR AccGraveAscii
ENCODING 96
SWIDTH 960 0
DWIDTH 8 0
BBX 8 15 0 -3
BITMAP
00
30
30
30
18
08
00
00
00
00
00
00
00
00
00
ENDCHAR
STARTCHAR LtSmlA
ENCODING 97
SWIDTH 960 0
DWIDTH 8 0
BBX 8 15 0 -3
BITMAP
00
00
00
00
00
7c
66
06
7e
c6
ce
76
00
00
00
ENDCHAR
STARTCHAR LtSmlB
ENCODING 98
SWIDTH 960 0
DWIDTH 8 0
BBX 8 15 0 -3
BITMAP
00
00
c0
c0
c0
dc
e6
c6
c6
c6
e6
dc
00
00
00
ENDCHAR
STARTCHAR LtSmlC
ENCODING 99
SWIDTH 960 0
DWIDTH 8 0
BBX 8 15 0 -3
BITMAP
00
00
00
00
00
3c
66
c0
c0
c0
66
3c
00
00
00
ENDCHAR
STARTCHAR LtSmlD
ENCODING 100
SWIDTH 960 0
DWIDTH 8 0
BBX 8 15 0 -3
BITMAP
00
00
06
06
06
76
ce
c6
c6
c6
ce
76
00
00
00
ENDCHAR
STARTCHAR LtSmlE
ENCODING 101
SWIDTH 960 0
DWIDTH 8 0
BBX 8 15 0 -3
BITMAP
00
00
00
00
00
3c
66
c6
fe
c0
66
3c
00
00
00
ENDCHAR
STARTCHAR LtSmlF
ENCODING 102
SWIDTH 960 0
DWIDTH 8 0
BBX 8 15 0 -3
BITMAP
00
00
1e
32
30
30
fc
30
30
30
30
30
00
00
00
ENDCHAR
STARTCHAR LtSmlG
ENCODING 103
SWIDTH 960 0
DWIDTH 8 0
BBX 8 15 0 -3
BITMAP
00
00
00
00
00
7a
cc
cc
cc
78
c0
7c
c6
c6
7c
ENDCHAR
STARTCHAR LtSmlH
ENCODING 104
SWIDTH 960 0
DWIDTH 8 0
BBX 8 15 0 -3
BITMAP
00
00
c0
c0
c0
dc
e6
c6
c6
c6
c6
c6
00
00
00
ENDCHAR
STARTCHAR LtSmlI
ENCODING 105
SWIDTH 960 0
DWIDTH 8 0
BBX 8 15 0 -3
BITMAP
00
00
18
18
00
38
18
18
18
18
18
7e
00
00
00
ENDCHAR
STARTCHAR LtSmlJ
ENCODING 106
SWIDTH 960 0
DWIDTH 8 0
BBX 8 15 0 -3
BITMAP
00
00
0c
0c
00
3c
0c
0c
0c
0c
0c
0c
cc
cc
78
ENDCHAR
STARTCHAR LtSmlK
ENCODING 107
SWIDTH 960 0
DWIDTH 8 0
BBX 8 15 0 -3
BITMAP
00
00
c0
c0
c0
c6
cc
d0
f8
cc
c6
c6
00
00
00
ENDCHAR
STARTCHAR LtSmlL
ENCODING 108
SWIDTH 960 0
DWIDTH 8 0
BBX 8 15 0 -3
BITMAP
00
00
38
18
18
18
18
18
18
18
18
7e
00
00
00
ENDCHAR
STARTCHAR LtSmlM
ENCODING 109
SWIDTH 960 0
DWIDTH 8 0
BBX 8 15 0 -3
BITMAP
00
00
00
00
00
ac
fe
d6
d6
d6
d6
d6
00
00
00
ENDCHAR
STARTCHAR LtSmlN
ENCODING 110
SWIDTH 960 0
DWIDTH 8 0
BBX 8 15 0 -3
BITMAP
00
00
00
00
00
dc
e6
c6
c6
c6
c6
c6
00
00
00
ENDCHAR
STARTCHAR LtSmlO
ENCODING 111
SWIDTH 960 0
DWIDTH 8 0
BBX 8 15 0 -3
BITMAP
00
00
00
00
00
7c
c6
c6
c6
c6
c6
7c
00
00
00
ENDCHAR
STARTCHAR LtSmlP
ENCODING 112
SWIDTH 960 0
DWIDTH 8 0
BBX 8 15 0 -3
BITMAP
00
00
00
00
00
dc
e6
c6
c6
c6
e6
dc
c0
c0
c0
ENDCHAR
STARTCHAR LtSmlQ
ENCODING 113
SWIDTH 960 0
DWIDTH 8 0
BBX 8 15 0 -3
BITMAP
00
00
00
00
00
76
ce
c6
c6
c6
ce
76
06
06
06
ENDCHAR
STARTCHAR LtSmlR
ENCODING 114
SWIDTH 960 0
DWIDTH 8 0
BBX 8 15 0 -3
BITMAP
00
00
00
00
00
ee
76
60
60
60
60
60
00
00
00
ENDCHAR
STARTCHAR LtSmlS
ENCODING 115
SWIDTH 960 0
DWIDTH 8 0
BBX 8 15 0 -3
BITMAP
00
00
00
00
00
7c
c6
c0
7c
06
c6
7c
00
00
00
ENDCHAR
STARTCHAR LtSmlT
ENCODING 116
SWIDTH 960 0
DWIDTH 8 0
BBX 8 15 0 -3
BITMAP
00
00
00
30
30
fc
30
30
30
30
36
1c
00
00
00
ENDCHAR
STARTCHAR LtSmlU
ENCODING 117
SWIDTH 960 0
DWIDTH 8 0
BBX 8 15 0 -3
BITMAP
00
00
00
00
00
c6
c6
c6
c6
c6
ce
76
00
00
00
ENDCHAR
STARTCHAR LtSmlV
ENCODING 118
SWIDTH 960 0
DWIDTH 8 0
BBX 8 15 0 -3
BITMAP
00
00
00
00
00
c2
c6
64
64
38
38
10
00
00
00
ENDCHAR
STARTCHAR LtSmlW
ENCODING 119
SWIDTH 960 0
DWIDTH 8 0
BBX 8 15 0 -3
BITMAP
00
00
00
00
00
c2
da
da
da
7c
6c
6c
00
00
00
ENDCHAR
STARTCHAR LtSmlX
ENCODING 120
SWIDTH 960 0
DWIDTH 8 0
BBX 8 15 0 -3
BITMAP
00
00
00
00
00
c6
e6
68
38
2c
ce
c6
00
00
00
ENDCHAR
STARTCHAR LtSmlY
ENCODING 121
SWIDTH 960 0
DWIDTH 8 0
BBX 8 15 0 -3
BITMAP
00
00
00
00
00
c2
c6
64
64
3c
38
18
10
d0
e0
ENDCHAR
STARTCHAR LtSmlZ
ENCODING 122
SWIDTH 960 0
DWIDTH 8 0
BBX 8 15 0 -3
BITMAP
00
00
00
00
00
fe
8e
0c
38
60
e2
fe
00
00
00
ENDCHAR
STARTCHAR PCurlyBrackL
ENCODING 123
SWIDTH 960 0
DWIDTH 8 0
BBX 8 15 0 -3
BITMAP
00
0e
18
18
18
18
70
70
18
18
18
18
0e
00
00
ENDCHAR
STARTCHAR OVertBar
ENCODING 124
SWIDTH 960 0
DWIDTH 8 0
BBX 8 15 0 -3
BITMAP
00
18
18
18
18
18
18
18
18
18
18
18
18
00
00
ENDCHAR
STARTCHAR PCurlyBrackR
ENCODING 125
SWIDTH 960 0
DWIDTH 8 0
BBX 8 15 0 -3
BITMAP
00
70
18
18
18
18
0e
0e
18
18
18
18
70
00
00
ENDCHAR
STARTCHAR AccTildeAscii
ENCODING 126
SWIDTH 960 0
DWIDTH 8 0
BBX 8 15 0 -3
BITMAP
00
32
7a
5e
4c
00
00
00
00
00
00
00
00
00
00
ENDCHAR
STARTCHAR CurrEuro
ENCODING 128
SWIDTH 960 0
DWIDTH 8 0
BBX 8 15 0 -3
BITMAP
00
00
00
1e
32
60
fc
60
f8
60
32
1e
00
00
00
ENDCHAR
STARTCHAR PQuoteL9
ENCODING 130
SWIDTH 960 0
DWIDTH 8 0
BBX 8 15 0 -3
BITMAP
00
00
00
00
00
00
00
00
00
00
30
38
18
30
00
ENDCHAR
STARTCHAR LtSmlFLhook
ENCODING 131
SWIDTH 960 0
DWIDTH 8 0
BBX 8 15 0 -3
BITMAP
00
00
1e
32
30
30
fc
30
30
30
30
30
30
b0
e0
ENDCHAR
STARTCHAR PQuote2L9
ENCODING 132
SWIDTH 960 0
DWIDTH 8 0
BBX 8 15 0 -3
BITMAP
00
00
00
00
00
00
00
00
00
00
cc
ee
66
cc
00
ENDCHAR
STARTCHAR PHorizEllips
ENCODING 133
SWIDTH 960 0
DWIDTH 8 0
BBX 8 15 0 -3
BITMAP
00
00
00
00
00
00
00
00
00
da
db
da
00
00
00
ENDCHAR
STARTCHAR SDagger
ENCODING 134
SWIDTH 960 0
DWIDTH 8 0
BBX 8 15 0 -3
BITMAP
00
10
38
38
54
fe
fe
54
10
38
10
10
10
00
00
ENDCHAR
STARTCHAR SDagger2
ENCODING 135
SWIDTH 960 0
DWIDTH 8 0
BBX 8 15 0 -3
BITMAP
00
10
38
54
fe
fe
54
10
54
fe
fe
54
38
10
00
ENDCHAR
STARTCHAR AccCircum
ENCODING 136
SWIDTH 960 0
DWIDTH 8 0
BBX 8 15 0 -3
BITMAP
00
10
38
6c
44
00
00
00
00
00
00
00
00
00
00
ENDCHAR
STARTCHAR SPermill
ENCODING 137
SWIDTH 960 0
DWIDTH 8 0
BBX 8 15 0 -3
BITMAP
00
40
e2
a6
ec
58
30
60
d4
be
2a
3e
14
00
00
ENDCHAR
STARTCHAR LtCapSCaron
ENCODING 138
SWIDTH 960 0
DWIDTH 8 0
BBX 8 15 0 -3
BITMAP
6c
38
00
7c
c6
c0
70
3c
0e
06
c6
7c
00
00
00
ENDCHAR
STARTCHAR PQuoteAngleL
ENCODING 139
SWIDTH 960 0
DWIDTH 8 0
BBX 8 15 0 -3
BITMAP
00
00
00
00
00
0c
18
30
18
0c
00
00
00
00
00
ENDCHAR
STARTCHAR LtCapOE
ENCODING 140
SWIDTH 960 0
DWIDTH 8 0
BBX 8 15 0 -3
BITMAP
00
00
7e
da
d8
d8
de
d8
d8
d8
da
7e
00
00
00
ENDCHAR
STARTCHAR LtCapZCaron
ENCODING 142
SWIDTH 960 0
DWIDTH 8 0
BBX 8 15 0 -3
BITMAP
6c
38
00
fe
86
8c
18
30
60
c2
c2
fe
00
00
00
ENDCHAR
STARTCHAR PQuoteL
ENCODING 145
SWIDTH 960 0
DWIDTH 8 0
BBX 8 15 0 -3
BITMAP
00
18
30
38
18
00
00
00
00
00
00
00
00
00
00
ENDCHAR
STARTCHAR PQuoteR
ENCODING 146
SWIDTH 960 0
DWIDTH 8 0
BBX 8 15 0 -3
BITMAP
00
30
38
18
30
00
00
00
00
00
00
00
00
00
00
ENDCHAR
STARTCHAR PQuote2L
ENCODING 147
SWIDTH 960 0
DWIDTH 8 0
BBX 8 15 0 -3
BITMAP
00
66
cc
ee
66
00
00
00
00
00
00
00
00
00
00
ENDCHAR
STARTCHAR PQuote2R
ENCODING 148
SWIDTH 960 0
DWIDTH 8 0
BBX 8 15 0 -3
BITMAP
00
cc
ee
66
cc
00
00
00
00
00
00
00
00
00
00
ENDCHAR
STARTCHAR DBulletB
ENCODING 149
SWIDTH 960 0
DWIDTH 8 0
BBX 8 15 0 -3
BITMAP
00
00
00
00
18
3c
7e
7e
3c
18
00
00
00
00
00
ENDCHAR
STARTCHAR PDashEn
ENCODING 150
SWIDTH 960 0
DWIDTH 8 0
BBX 8 15 0 -3
BITMAP
00
00
00
00
00
00
fe
fe
00
00
00
00
00
00
00
ENDCHAR
STARTCHAR PDashEm
ENCODING 151
SWIDTH 960 0
DWIDTH 8 0
BBX 8 15 0 -3
BITMAP
00
00
00
00
00
00
ff
ff
00
00
00
00
00
00
00
ENDCHAR
STARTCHAR AccTilde
ENCODING 152
SWIDTH 960 0
DWIDTH 8 0
BBX 8 15 0 -3
BITMAP
00
32
7e
4c
00
00
00
00
00
00
00
00
00
00
00
ENDCHAR
STARTCHAR STrademark
ENCODING 153
SWIDTH 960 0
DWIDTH 8 0
BBX 8 15 0 -3
BITMAP
00
f6
5e
56
56
56
56
00
00
00
00
00
00
00
00
ENDCHAR
STARTCHAR LtSmlSCaron
ENCODING 154
SWIDTH 960 0
DWIDTH 8 0
BBX 8 15 0 -3
BITMAP
00
6c
38
10
00
7c
c6
c0
7c
06
c6
7c
00
00
00
ENDCHAR
STARTCHAR PQuoteAngleR
ENCODING 155
SWIDTH 960 0
DWIDTH 8 0
BBX 8 15 0 -3
BITMAP
00
00
00
00
00
30
18
0c
18
30
00
00
00
00
00
ENDCHAR
STARTCHAR LtSmlOE
ENCODING 156
SWIDTH 960 0
DWIDTH 8 0
BBX 8 15 0 -3
BITMAP
00
00
00
00
00
76
de
da
de
d8
de
76
00
00
00
ENDCHAR
STARTCHAR LtSmlZCaron
ENCODING 158
SWIDTH 960 0
DWIDTH 8 0
BBX 8 15 0 -3
BITMAP
00
6c
38
10
00
fe
8e
0c
38
60
e2
fe
00
00
00
ENDCHAR
STARTCHAR LtCapYDrss
ENCODING 159
SWIDTH 960 0
DWIDTH 8 0
BBX 8 15 0 -3
BITMAP
36
36
00
c3
62
64
34
38
18
18
18
18
00
00
00
ENDCHAR
STARTCHAR SpaceNoBreak
ENCODING 160
SWIDTH 960 0
DWIDTH 8 0
BBX 8 15 0 -3
BITMAP
00
00
00
00
00
00
00
00
00
42
42
7e
7e
00
00
ENDCHAR
STARTCHAR PExclamInv
ENCODING 161
SWIDTH 960 0
DWIDTH 8 0
BBX 8 15 0 -3
BITMAP
00
00
00
00
00
18
18
00
18
18
18
18
18
18
18
ENDCHAR
STARTCHAR CurrCent
ENCODING 162
SWIDTH 960 0
DWIDTH 8 0
BBX 8 15 0 -3
BITMAP
00
00
00
00
04
3c
6e
c8
d8
d0
76
3c
20
00
00
ENDCHAR
STARTCHAR CurrPound
ENCODING 163
SWIDTH 960 0
DWIDTH 8 0
BBX 8 15 0 -3
BITMAP
00
00
3c
66
66
60
f8
60
60
42
fe
fe
00
00
00
ENDCHAR
STARTCHAR CurrGeneral
ENCODING 164
SWIDTH 960 0
DWIDTH 8 0
BBX 8 15 0 -3
BITMAP
00
00
00
00
66
7e
24
24
7e
66
00
00
00
00
00
ENDCHAR
STARTCHAR CurrYen
ENCODING 165
SWIDTH 960 0
DWIDTH 8 0
BBX 8 15 0 -3
BITMAP
00
00
c3
66
66
3c
7e
18
7e
18
18
18
00
00
00
ENDCHAR
STARTCHAR OVertBarBroken
ENCODING 166
SWIDTH 960 0
DWIDTH 8 0
BBX 8 15 0 -3
BITMAP
00
18
18
18
18
18
00
00
18
18
18
18
18
00
00
ENDCHAR
STARTCHAR SParagraph
ENCODING 167
SWIDTH 960 0
DWIDTH 8 0
BBX 8 15 0 -3
BITMAP
00
00
38
6c
60
30
38
6c
6c
6c
38
18
0c
6c
38
ENDCHAR
STARTCHAR AccDrss
ENCODING 168
SWIDTH 960 0
DWIDTH 8 0
BBX 8 15 0 -3
BITMAP
00
6c
6c
00
00
00
00
00
00
00
00
00
00
00
00
ENDCHAR
STARTCHAR SCopyright
ENCODING 169
SWIDTH 960 0
DWIDTH 8 0
BBX 8 15 0 -3
BITMAP
00
00
3c
62
dd
b5
b1
b1
b5
dd
62
3c
00
00
00
ENDCHAR
STARTCHAR OrdFem
ENCODING 170
SWIDTH 960 0
DWIDTH 8 0
BBX 8 15 0 -3
BITMAP
00
00
3c
06
3e
66
3e
00
7e
7e
00
00
00
00
00
ENDCHAR
STARTCHAR PQuoteAngle2L
ENCODING 171
SWIDTH 960 0
DWIDTH 8 0
BBX 8 15 0 -3
BITMAP
00
00
00
00
00
36
6c
d8
6c
36
00
00
00
00
00
ENDCHAR
STARTCHAR MNot
ENCODING 172
SWIDTH 960 0
DWIDTH 8 0
BBX 8 15 0 -3
BITMAP
00
00
00
00
00
00
7e
7e
06
06
06
00
00
00
00
ENDCHAR
STARTCHAR PHyphenSoft
ENCODING 173
SWIDTH 960 0
DWIDTH 8 0
BBX 8 15 0 -3
BITMAP
00
00
00
00
00
00
3c
3c
00
00
00
00
00
00
00
ENDCHAR
STARTCHAR SRegistered
ENCODING 174
SWIDTH 960 0
DWIDTH 8 0
BBX 8 15 0 -3
BITMAP
00
00
3c
66
fb
ad
ad
b9
ad
e7
62
3c
00
00
00
ENDCHAR
STARTCHAR AccMacronLong
ENCODING 175
SWIDTH 960 0
DWIDTH 8 0
BBX 8 15 0 -3
BITMAP
00
7e
7e
00
00
00
00
00
00
00
00
00
00
00
00
ENDCHAR
STARTCHAR SDegree
ENCODING 176
SWIDTH 960 0
DWIDTH 8 0
BBX 8 15 0 -3
BITMAP
00
00
38
6c
44
6c
38
00
00
00
00
00
00
00
00
ENDCHAR
STARTCHAR MPlusMinus
ENCODING 177
SWIDTH 960 0
DWIDTH 8 0
BBX 8 15 0 -3
BITMAP
00
00
18
18
18
ff
ff
18
18
18
ff
ff
00
00
00
ENDCHAR
STARTCHAR Sup2
ENCODING 178
SWIDTH 960 0
DWIDTH 8 0
BBX 8 15 0 -3
BITMAP
00
3c
66
46
0c
30
7e
7e
00
00
00
00
00
00
00
ENDCHAR
STARTCHAR Sup3
ENCODING 179
SWIDTH 960 0
DWIDTH 8 0
BBX 8 15 0 -3
BITMAP
00
3c
66
06
1c
06
66
3c
00
00
00
00
00
00
00
ENDCHAR
STARTCHAR AccAcute
ENCODING 180
SWIDTH 960 0
DWIDTH 8 0
BBX 8 15 0 -3
BITMAP
00
0c
18
30
20
00
00
00
00
00
00
00
00
00
00
ENDCHAR
STARTCHAR SMicro
ENCODING 181
SWIDTH 960 0
DWIDTH 8 0
BBX 8 15 0 -3
BITMAP
00
00
00
00
00
c6
c6
c6
c6
c6
ee
d6
c0
c0
c0
ENDCHAR
STARTCHAR SPilcrow
ENCODING 182
SWIDTH 960 0
DWIDTH 8 0
BBX 8 15 0 -3
BITMAP
00
00
7e
fe
96
96
f6
76
16
16
16
16
00
00
00
ENDCHAR
STARTCHAR PMiddleDot
ENCODING 183
SWIDTH 960 0
DWIDTH 8 0
BBX 8 15 0 -3
BITMAP
00
00
00
00
00
00
18
18
18
00
00
00
00
00
00
ENDCHAR
STARTCHAR AccCedilla
ENCODING 184
SWIDTH 960 0
DWIDTH 8 0
BBX 8 15 0 -3
BITMAP
00
00
00
00
00
00
00
00
00
00
00
18
0c
0c
38
ENDCHAR
STARTCHAR Sup1
ENCODING 185
SWIDTH 960 0
DWIDTH 8 0
BBX 8 15 0 -3
BITMAP
00
18
38
58
18
18
18
18
00
00
00
00
00
00
00
ENDCHAR
STARTCHAR OrdMasc
ENCODING 186
SWIDTH 960 0
DWIDTH 8 0
BBX 8 15 0 -3
BITMAP
00
00
3c
66
66
66
3c
00
7e
7e
00
00
00
00
00
ENDCHAR
STARTCHAR PQuoteAngle2R
ENCODING 187
SWIDTH 960 0
DWIDTH 8 0
BBX 8 15 0 -3
BITMAP
00
00
00
00
00
d8
6c
36
6c
d8
00
00
00
00
00
ENDCHAR
STARTCHAR Frac14
ENCODING 188
SWIDTH 960 0
DWIDTH 8 0
BBX 8 15 0 -3
BITMAP
00
60
e0
60
60
66
6c
38
6c
dc
2c
2c
3e
0c
00
ENDCHAR
STARTCHAR Frac12
ENCODING 189
SWIDTH 960 0
DWIDTH 8 0
BBX 8 15 0 -3
BITMAP
00
60
e0
60
60
66
6c
38
7c
d6
0c
10
3e
3e
00
ENDCHAR
STARTCHAR Frac34
ENCODING 190
SWIDTH 960 0
DWIDTH 8 0
BBX 8 15 0 -3
BITMAP
00
70
98
30
18
d6
7c
38
6c
dc
2c
2c
3e
0c
00
ENDCHAR
STARTCHAR PQuestionInv
ENCODING 191
SWIDTH 960 0
DWIDTH 8 0
BBX 8 15 0 -3
BITMAP
00
00
00
00
00
18
18
00
18
30
60
c0
c6
c6
7c
ENDCHAR
STARTCHAR LtCapAGrave
ENCODING 192
SWIDTH 960 0
DWIDTH 8 0
BBX 8 15 0 -3
BITMAP
60
30
10
30
38
38
58
4c
7c
cc
86
86
00
00
00
ENDCHAR
STARTCHAR LtCapAAcute
ENCODING 193
SWIDTH 960 0
DWIDTH 8 0
BBX 8 15 0 -3
BITMAP
0c
18
10
30
38
38
58
4c
7c
cc
86
86
00
00
00
ENDCHAR
STARTCHAR LtCapACircum
ENCODING 194
SWIDTH 960 0
DWIDTH 8 0
BBX 8 15 0 -3
BITMAP
38
6c
00
30
38
38
58
4c
7c
cc
86
86
00
00
00
ENDCHAR
STARTCHAR LtCapATilde
ENCODING 195
SWIDTH 960 0
DWIDTH 8 0
BBX 8 15 0 -3
BITMAP
36
5c
00
30
38
38
58
4c
7c
cc
86
86
00
00
00
ENDCHAR
STARTCHAR LtCapADrss
ENCODING 196
SWIDTH 960 0
DWIDTH 8 0
BBX 8 15 0 -3
BITMAP
6c
6c
00
30
38
38
58
4c
7c
cc
86
86
00
00
00
ENDCHAR
STARTCHAR LtCapARing
ENCODING 197
SWIDTH 960 0
DWIDTH 8 0
BBX 8 15 0 -3
BITMAP
38
6c
38
10
38
38
58
4c
7c
cc
86
86
00
00
00
ENDCHAR
STARTCHAR LtCapAE
ENCODING 198
SWIDTH 960 0
DWIDTH 8 0
BBX 8 15 0 -3
BITMAP
00
00
1e
3a
38
38
5e
58
78
d8
9a
9e
00
00
00
ENDCHAR
STARTCHAR LtCapCCedilla
ENCODING 199
SWIDTH 960 0
DWIDTH 8 0
BBX 8 15 0 -3
BITMAP
00
00
3c
66
c0
c0
c0
c0
c0
c0
66
3c
10
18
30
ENDCHAR
STARTCHAR LtCapEGrave
ENCODING 200
SWIDTH 960 0
DWIDTH 8 0
BBX 8 15 0 -3
BITMAP
60
30
10
fe
c2
c2
c8
f8
c8
c2
c2
fe
00
00
00
ENDCHAR
STARTCHAR LtCapEAcute
ENCODING 201
SWIDTH 960 0
DWIDTH 8 0
BBX 8 15 0 -3
BITMAP
0c
18
10
fe
c2
c2
c8
f8
c8
c2
c2
fe
00
00
00
ENDCHAR
STARTCHAR LtCapECircum
ENCODING 202
SWIDTH 960 0
DWIDTH 8 0
BBX 8 15 0 -3
BITMAP
38
6c
00
fe
c2
c2
c8
f8
c8
c2
c2
fe
00
00
00
ENDCHAR
STARTCHAR LtCapEDrss
ENCODING 203
SWIDTH 960 0
DWIDTH 8 0
BBX 8 15 0 -3
BITMAP
6c
6c
00
fe
c2
c2
c8
f8
c8
c2
c2
fe
00
00
00
ENDCHAR
STARTCHAR LtCapIGrave
ENCODING 204
SWIDTH 960 0
DWIDTH 8 0
BBX 8 15 0 -3
BITMAP
30
18
08
7e
18
18
18
18
18
18
18
7e
00
00
00
ENDCHAR
STARTCHAR LtCapIAcute
ENCODING 205
SWIDTH 960 0
DWIDTH 8 0
BBX 8 15 0 -3
BITMAP
0c
18
10
7e
18
18
18
18
18
18
18
7e
00
00
00
ENDCHAR
STARTCHAR LtCapICircum
ENCODING 206
SWIDTH 960 0
DWIDTH 8 0
BBX 8 15 0 -3
BITMAP
1c
36
00
7e
18
18
18
18
18
18
18
7e
00
00
00
ENDCHAR
STARTCHAR LtCapIDrss
ENCODING 207
SWIDTH 960 0
DWIDTH 8 0
BBX 8 15 0 -3
BITMAP
36
36
00
7e
18
18
18
18
18
18
18
7e
00
00
00
ENDCHAR
STARTCHAR LtCapEth
ENCODING 208
SWIDTH 960 0
DWIDTH 8 0
BBX 8 15 0 -3
BITMAP
00
00
f8
cc
c6
c6
f6
e6
c6
c6
cc
f8
00
00
00
ENDCHAR
STARTCHAR LtCapNTilde
ENCODING 209
SWIDTH 960 0
DWIDTH 8 0
BBX 8 15 0 -3
BITMAP
36
5c
00
c2
e2
e2
b2
ba
9a
8e
8e
86
00
00
00
ENDCHAR
STARTCHAR LtCapOGrave
ENCODING 210
SWIDTH 960 0
DWIDTH 8 0
BBX 8 15 0 -3
BITMAP
60
30
10
7c
c6
c6
c6
c6
c6
c6
c6
7c
00
00
00
ENDCHAR
STARTCHAR LtCapOAcute
ENCODING 211
SWIDTH 960 0
DWIDTH 8 0
BBX 8 15 0 -3
BITMAP
0c
18
10
7c
c6
c6
c6
c6
c6
c6
c6
7c
00
00
00
ENDCHAR
STARTCHAR LtCapOCircum
ENCODING 212
SWIDTH 960 0
DWIDTH 8 0
BBX 8 15 0 -3
BITMAP
38
6c
00
7c
c6
c6
c6
c6
c6
c6
c6
7c
00
00
00
ENDCHAR
STARTCHAR LtCapOTilde
ENCODING 213
SWIDTH 960 0
DWIDTH 8 0
BBX 8 15 0 -3
BITMAP
36
5c
00
7c
c6
c6
c6
c6
c6
c6
c6
7c
00
00
00
ENDCHAR
STARTCHAR LtCapODrss
ENCODING 214
SWIDTH 960 0
DWIDTH 8 0
BBX 8 15 0 -3
BITMAP
6c
6c
00
7c
c6
c6
c6
c6
c6
c6
c6
7c
00
00
00
ENDCHAR
STARTCHAR MMultiply
ENCODING 215
SWIDTH 960 0
DWIDTH 8 0
BBX 8 15 0 -3
BITMAP
00
00
00
00
42
66
3c
18
3c
66
42
00
00
00
00
ENDCHAR
STARTCHAR LtCapOStroke
ENCODING 216
SWIDTH 960 0
DWIDTH 8 0
BBX 8 15 0 -3
BITMAP
00
02
7c
c6
ce
ce
d6
d6
e6
e6
c6
7c
80
00
00
ENDCHAR
STARTCHAR LtCapUGrave
ENCODING 217
SWIDTH 960 0
DWIDTH 8 0
BBX 8 15 0 -3
BITMAP
60
30
10
c6
c6
c6
c6
c6
c6
c6
c6
7c
00
00
00
ENDCHAR
STARTCHAR LtCapUAcute
ENCODING 218
SWIDTH 960 0
DWIDTH 8 0
BBX 8 15 0 -3
BITMAP
0c
18
10
c6
c6
c6
c6
c6
c6
c6
c6
7c
00
00
00
ENDCHAR
STARTCHAR LtCapUCircum
ENCODING 219
SWIDTH 960 0
DWIDTH 8 0
BBX 8 15 0 -3
BITMAP
38
6c
00
c6
c6
c6
c6
c6
c6
c6
c6
7c
00
00
00
ENDCHAR
STARTCHAR LtCapUDrss
ENCODING 220
SWIDTH 960 0
DWIDTH 8 0
BBX 8 15 0 -3
BITMAP
6c
6c
00
c6
c6
c6
c6
c6
c6
c6
c6
7c
00
00
00
ENDCHAR
STARTCHAR LtCapYAcute
ENCODING 221
SWIDTH 960 0
DWIDTH 8 0
BBX 8 15 0 -3
BITMAP
0c
18
10
c3
62
64
34
38
18
18
18
18
00
00
00
ENDCHAR
STARTCHAR LtCapThorn
ENCODING 222
SWIDTH 960 0
DWIDTH 8 0
BBX 8 15 0 -3
BITMAP
00
00
c0
c0
fc
c6
c6
c6
c6
fc
c0
c0
00
00
00
ENDCHAR
STARTCHAR LtSmlSz
ENCODING 223
SWIDTH 960 0
DWIDTH 8 0
BBX 8 15 0 -3
BITMAP
00
00
78
cc
cc
d8
dc
c6
c6
c6
d6
dc
00
00
00
ENDCHAR
STARTCHAR LtSmlAGrave
ENCODING 224
SWIDTH 960 0
DWIDTH 8 0
BBX 8 15 0 -3
BITMAP
00
30
18
08
00
7c
66
06
7e
c6
ce
76
00
00
00
ENDCHAR
STARTCHAR LtSmlAAcute
ENCODING 225
SWIDTH 960 0
DWIDTH 8 0
BBX 8 15 0 -3
BITMAP
00
0c
18
10
00
7c
66
06
7e
c6
ce
76
00
00
00
ENDCHAR
STARTCHAR LtSmlACircum
ENCODING 226
SWIDTH 960 0
DWIDTH 8 0
BBX 8 15 0 -3
BITMAP
00
18
3c
24
00
7c
66
06
7e
c6
ce
76
00
00
00
ENDCHAR
STARTCHAR LtSmlATilde
ENCODING 227
SWIDTH 960 0
DWIDTH 8 0
BBX 8 15 0 -3
BITMAP
00
24
7c
48
00
7c
66
06
7e
c6
ce
76
00
00
00
ENDCHAR
STARTCHAR LtSmlADrss
ENCODING 228
SWIDTH 960 0
DWIDTH 8 0
BBX 8 15 0 -3
BITMAP
00
00
6c
6c
00
7c
66
06
7e
c6
ce
76
00
00
00
ENDCHAR
STARTCHAR LtSmlARing
ENCODING 229
SWIDTH 960 0
DWIDTH 8 0
BBX 8 15 0 -3
BITMAP
00
38
6c
38
00
7c
66
06
7e
c6
ce
76
00
00
00
ENDCHAR
STARTCHAR LtSmlAE
ENCODING 230
SWIDTH 960 0
DWIDTH 8 0
BBX 8 15 0 -3
BITMAP
00
00
00
00
00
6e
da
1a
7e
d8
da
ee
00
00
00
ENDCHAR
STARTCHAR LtSmlCCedilla
ENCODING 231
SWIDTH 960 0
DWIDTH 8 0
BBX 8 15 0 -3
BITMAP
00
00
00
00
00
3c
66
c0
c0
c0
66
3c
10
18
30
ENDCHAR
STARTCHAR LtSmlEGrave
ENCODING 232
SWIDTH 960 0
DWIDTH 8 0
BBX 8 15 0 -3
BITMAP
00
30
18
08
00
3c
66
c6
fe
c0
66
3c
00
00
00
ENDCHAR
STARTCHAR LtSmlEAcute
ENCODING 233
SWIDTH 960 0
DWIDTH 8 0
BBX 8 15 0 -3
BITMAP
00
0c
18
10
00
3c
66
c6
fe
c0
66
3c
00
00
00
ENDCHAR
STARTCHAR LtSmlECircum
ENCODING 234
SWIDTH 960 0
DWIDTH 8 0
BBX 8 15 0 -3
BITMAP
00
18
3c
24
00
3c
66
c6
fe
c0
66
3c
00
00
00
ENDCHAR
STARTCHAR LtSmlEDrss
ENCODING 235
SWIDTH 960 0
DWIDTH 8 0
BBX 8 15 0 -3
BITMAP
00
00
6c
6c
00
3c
66
c6
fe
c0
66
3c
00
00
00
ENDCHAR
STARTCHAR LtSmlIGrave
ENCODING 236
SWIDTH 960 0
DWIDTH 8 0
BBX 8 15 0 -3
BITMAP
00
30
18
08
00
38
18
18
18
18
18
7e
00
00
00
ENDCHAR
STARTCHAR LtSmlIAcute
ENCODING 237
SWIDTH 960 0
DWIDTH 8 0
BBX 8 15 0 -3
BITMAP
00
0c
18
10
00
38
18
18
18
18
18
7e
00
00
00
ENDCHAR
STARTCHAR LtSmlICircum
ENCODING 238
SWIDTH 960 0
DWIDTH 8 0
BBX 8 15 0 -3
BITMAP
00
18
3c
24
00
38
18
18
18
18
18
7e
00
00
00
ENDCHAR
STARTCHAR LtSmlIDrss
ENCODING 239
SWIDTH 960 0
DWIDTH 8 0
BBX 8 15 0 -3
BITMAP
00
00
6c
6c
00
38
18
18
18
18
18
7e
00
00
00
ENDCHAR
STARTCHAR LtSmlEth
ENCODING 240
SWIDTH 960 0
DWIDTH 8 0
BBX 8 15 0 -3
BITMAP
00
00
d8
70
d8
3c
6c
c6
c6
c6
6c
38
00
00
00
ENDCHAR
STARTCHAR LtSmlNTilde
ENCODING 241
SWIDTH 960 0
DWIDTH 8 0
BBX 8 15 0 -3
BITMAP
00
24
7c
48
00
dc
e6
c6
c6
c6
c6
c6
00
00
00
ENDCHAR
STARTCHAR LtSmlOGrave
ENCODING 242
SWIDTH 960 0
DWIDTH 8 0
BBX 8 15 0 -3
BITMAP
00
60
30
10
00
7c
c6
c6
c6
c6
c6
7c
00
00
00
ENDCHAR
STARTCHAR LtSmlOAcute
ENCODING 243
SWIDTH 960 0
DWIDTH 8 0
BBX 8 15 0 -3
BITMAP
00
0c
18
10
00
7c
c6
c6
c6
c6
c6
7c
00
00
00
ENDCHAR
STARTCHAR LtSmlOCircum
ENCODING 244
SWIDTH 960 0
DWIDTH 8 0
BBX 8 15 0 -3
BITMAP
00
10
38
6c
00
7c
c6
c6
c6
c6
c6
7c
00
00
00
ENDCHAR
STARTCHAR LtSmlOTilde
ENCODING 245
SWIDTH 960 0
DWIDTH 8 0
BBX 8 15 0 -3
BITMAP
00
24
7c
48
00
7c
c6
c6
c6
c6
c6
7c
00
00
00
ENDCHAR
STARTCHAR LtSmlODrss
ENCODING 246
SWIDTH 960 0
DWIDTH 8 0
BBX 8 15 0 -3
BITMAP
00
00
6c
6c
00
7c
c6
c6
c6
c6
c6
7c
00
00
00
ENDCHAR
STARTCHAR MDivision
ENCODING 247
SWIDTH 960 0
DWIDTH 8 0
BBX 8 15 0 -3
BITMAP
00
00
00
18
18
00
7e
7e
00
18
18
00
00
00
00
ENDCHAR
STARTCHAR LtSmlOStroke
ENCODING 248
SWIDTH 960 0
DWIDTH 8 0
BBX 8 15 0 -3
BITMAP
00
00
00
00
04
7c
ce
d6
d6
d6
e6
7c
40
00
00
ENDCHAR
STARTCHAR LtSmlUGrave
ENCODING 249
SWIDTH 960 0
DWIDTH 8 0
BBX 8 15 0 -3
BITMAP
00
60
30
10
00
c6
c6
c6
c6
c6
ce
76
00
00
00
ENDCHAR
STARTCHAR LtSmlUAcute
ENCODING 250
SWIDTH 960 0
DWIDTH 8 0
BBX 8 15 0 -3
BITMAP
00
0c
18
10
00
c6
c6
c6
c6
c6
ce
76
00
00
00
ENDCHAR
STARTCHAR LtSmlUCircum
ENCODING 251
SWIDTH 960 0
DWIDTH 8 0
BBX 8 15 0 -3
BITMAP
00
10
38
6c
00
c6
c6
c6
c6
c6
ce
76
00
00
00
ENDCHAR
STARTCHAR LtSmlUDrss
ENCODING 252
SWIDTH 960 0
DWIDTH 8 0
BBX 8 15 0 -3
BITMAP
00
00
6c
6c
00
c6
c6
c6
c6
c6
ce
76
00
00
00
ENDCHAR
STARTCHAR LtSmlYAcute
ENCODING 253
SWIDTH 960 0
DWIDTH 8 0
BBX 8 15 0 -3
BITMAP
00
0c
18
10
00
c2
c6
64
64
3c
38
18
10
d0
e0
ENDCHAR
STARTCHAR LtSmlThorn
ENCODING 254
SWIDTH 960 0
DWIDTH 8 0
BBX 8 15 0 -3
BITMAP
00
00
c0
c0
c0
dc
e6
c6
c6
c6
e6
dc
c0
c0
c0
ENDCHAR
STARTCHAR LtSmlYDrss
ENCODING 255
SWIDTH 960 0
DWIDTH 8 0
BBX 8 15 0 -3
BITMAP
00
00
6c
6c
00
c2
c6
64
64
3c
38
18
10
d0
e0
ENDCHAR
ENDFONT
