STARTFONT 2.1
COMMENT 
COMMENT Copyright (C) 2012-2015 Uwe Waldmann
COMMENT 
COMMENT Permission is hereby granted, free of charge, to any person obtaining
COMMENT a copy of this font software and associated files (the "Software"),
COMMENT to deal in the Software without restriction, including without
COMMENT limitation the rights to use, copy, modify, merge, publish,
COMMENT distribute, embed, sublicense, and/or sell copies of the Software,
COMMENT and to permit persons to whom the Software is furnished to do so,
COMMENT subject to the following conditions:
COMMENT 
COMMENT (1) The above copyright notice, this permission notice, and the
COMMENT     disclaimer below shall be included in all copies or substantial
COMMENT     portions of the Software.
COMMENT 
COMMENT (2) If the design of any glyphs in the fonts that are contained in the
COMMENT     Software or generated during the installation process is modified
COMMENT     or if additional glyphs are added to the fonts, the fonts
COMMENT     must be renamed. The new names may not contain the word "UW",
COMMENT     irrespective of capitalisation; the new names may contain the word
COMMENT     "ttyp0", irrespective of capitalisation, only if preceded by a
COMMENT     foundry name different from "UW".
COMMENT 
COMMENT THE SOFTWARE IS PROVIDED "AS IS", WITHOUT WARRANTY OF ANY KIND, EXPRESS
COMMENT OR IMPLIED, INCLUDING BUT NOT LIMITED TO THE WARRANTIES OF
COMMENT MERCHANTABILITY, FITNESS FOR A PARTICULAR PURPOSE AND NONINFRINGEMENT.
COMMENT IN NO EVENT SHALL THE AUTHORS OR COPYRIGHT HOLDERS BE LIABLE FOR ANY
COMMENT CLAIM, DAMAGES OR OTHER LIABILITY, WHETHER IN AN ACTION OF CONTRACT,
COMMENT TORT OR OTHERWISE, ARISING FROM, OUT OF OR IN CONNECTION WITH THE
COMMENT SOFTWARE OR THE USE OR OTHER DEALINGS IN THE SOFTWARE.
COMMENT 
FONT -UW-Ttyp0-Medium-R-Normal--12-110-75-75-C-60-MICROSOFT-CP1251
SIZE 12 75 75
FONTBOUNDINGBOX 6 12 0 -3
STARTPROPERTIES 19
FONTNAME_REGISTRY ""
FOUNDRY "UW"
FAMILY_NAME "Ttyp0"
WEIGHT_NAME "Medium"
SLANT "R"
SETWIDTH_NAME "Normal"
ADD_STYLE_NAME ""
PIXEL_SIZE 12
POINT_SIZE 110
RESOLUTION_X 75
RESOLUTION_Y 75
SPACING "C"
AVERAGE_WIDTH 60
CHARSET_REGISTRY "MICROSOFT"
CHARSET_ENCODING "CP1251"
DEFAULT_CHAR 0
FONT_DESCENT 3
FONT_ASCENT 9
COPYRIGHT "Copyright (C) 2012-2015 Uwe Waldmann"
ENDPROPERTIES
CHARS 254
STARTCHAR DDefaultChar
ENCODING 0
SWIDTH 840 0
DWIDTH 6 0
BBX 6 12 0 -3
BITMAP
00
68
08
40
48
48
08
40
58
00
00
00
ENDCHAR
STARTCHAR DDiamondB
ENCODING 1
SWIDTH 840 0
DWIDTH 6 0
BBX 6 12 0 -3
BITMAP
00
00
00
10
38
7c
7c
38
10
00
00
00
ENDCHAR
STARTCHAR GGrey
ENCODING 2
SWIDTH 840 0
DWIDTH 6 0
BBX 6 12 0 -3
BITMAP
54
a8
54
a8
54
a8
54
a8
54
a8
54
a8
ENDCHAR
STARTCHAR CtlHT
ENCODING 3
SWIDTH 840 0
DWIDTH 6 0
BBX 6 12 0 -3
BITMAP
00
50
50
70
50
00
1c
08
08
08
00
00
ENDCHAR
STARTCHAR CtlFF
ENCODING 4
SWIDTH 840 0
DWIDTH 6 0
BBX 6 12 0 -3
BITMAP
00
70
40
60
40
00
1c
10
18
10
00
00
ENDCHAR
STARTCHAR CtlCR
ENCODING 5
SWIDTH 840 0
DWIDTH 6 0
BBX 6 12 0 -3
BITMAP
00
30
40
40
30
00
18
14
18
14
00
00
ENDCHAR
STARTCHAR CtlLF
ENCODING 6
SWIDTH 840 0
DWIDTH 6 0
BBX 6 12 0 -3
BITMAP
00
40
40
40
70
00
1c
10
18
10
00
00
ENDCHAR
STARTCHAR SDegree
ENCODING 7
SWIDTH 840 0
DWIDTH 6 0
BBX 6 12 0 -3
BITMAP
00
30
48
48
30
00
00
00
00
00
00
00
ENDCHAR
STARTCHAR MPlusMinus
ENCODING 8
SWIDTH 840 0
DWIDTH 6 0
BBX 6 12 0 -3
BITMAP
00
00
10
10
7c
10
10
00
7c
00
00
00
ENDCHAR
STARTCHAR CtlNL
ENCODING 9
SWIDTH 840 0
DWIDTH 6 0
BBX 6 12 0 -3
BITMAP
00
48
68
58
48
00
10
10
10
1c
00
00
ENDCHAR
STARTCHAR CtlVT
ENCODING 10
SWIDTH 840 0
DWIDTH 6 0
BBX 6 12 0 -3
BITMAP
00
50
50
20
20
00
1c
08
08
08
00
00
ENDCHAR
STARTCHAR GLineNW
ENCODING 11
SWIDTH 840 0
DWIDTH 6 0
BBX 6 12 0 -3
BITMAP
10
10
10
10
10
f0
00
00
00
00
00
00
ENDCHAR
STARTCHAR GLineSW
ENCODING 12
SWIDTH 840 0
DWIDTH 6 0
BBX 6 12 0 -3
BITMAP
00
00
00
00
00
f0
10
10
10
10
10
10
ENDCHAR
STARTCHAR GLineSE
ENCODING 13
SWIDTH 840 0
DWIDTH 6 0
BBX 6 12 0 -3
BITMAP
00
00
00
00
00
1c
10
10
10
10
10
10
ENDCHAR
STARTCHAR GLineNE
ENCODING 14
SWIDTH 840 0
DWIDTH 6 0
BBX 6 12 0 -3
BITMAP
10
10
10
10
10
1c
00
00
00
00
00
00
ENDCHAR
STARTCHAR GLineNSWE
ENCODING 15
SWIDTH 840 0
DWIDTH 6 0
BBX 6 12 0 -3
BITMAP
10
10
10
10
10
fc
10
10
10
10
10
10
ENDCHAR
STARTCHAR GLineWEHhigh
ENCODING 16
SWIDTH 840 0
DWIDTH 6 0
BBX 6 12 0 -3
BITMAP
00
fc
00
00
00
00
00
00
00
00
00
00
ENDCHAR
STARTCHAR GLineWEHigh
ENCODING 17
SWIDTH 840 0
DWIDTH 6 0
BBX 6 12 0 -3
BITMAP
00
00
00
fc
00
00
00
00
00
00
00
00
ENDCHAR
STARTCHAR GLineWE
ENCODING 18
SWIDTH 840 0
DWIDTH 6 0
BBX 6 12 0 -3
BITMAP
00
00
00
00
00
fc
00
00
00
00
00
00
ENDCHAR
STARTCHAR GLineWELow
ENCODING 19
SWIDTH 840 0
DWIDTH 6 0
BBX 6 12 0 -3
BITMAP
00
00
00
00
00
00
00
fc
00
00
00
00
ENDCHAR
STARTCHAR GLineWELlow
ENCODING 20
SWIDTH 840 0
DWIDTH 6 0
BBX 6 12 0 -3
BITMAP
00
00
00
00
00
00
00
00
00
fc
00
00
ENDCHAR
STARTCHAR GLineNSE
ENCODING 21
SWIDTH 840 0
DWIDTH 6 0
BBX 6 12 0 -3
BITMAP
10
10
10
10
10
1c
10
10
10
10
10
10
ENDCHAR
STARTCHAR GLineNSW
ENCODING 22
SWIDTH 840 0
DWIDTH 6 0
BBX 6 12 0 -3
BITMAP
10
10
10
10
10
f0
10
10
10
10
10
10
ENDCHAR
STARTCHAR GLineNWE
ENCODING 23
SWIDTH 840 0
DWIDTH 6 0
BBX 6 12 0 -3
BITMAP
10
10
10
10
10
fc
00
00
00
00
00
00
ENDCHAR
STARTCHAR GLineSWE
ENCODING 24
SWIDTH 840 0
DWIDTH 6 0
BBX 6 12 0 -3
BITMAP
00
00
00
00
00
fc
10
10
10
10
10
10
ENDCHAR
STARTCHAR GLineNS
ENCODING 25
SWIDTH 840 0
DWIDTH 6 0
BBX 6 12 0 -3
BITMAP
10
10
10
10
10
10
10
10
10
10
10
10
ENDCHAR
STARTCHAR MLessEq
ENCODING 26
SWIDTH 840 0
DWIDTH 6 0
BBX 6 12 0 -3
BITMAP
00
00
08
30
40
30
08
00
78
00
00
00
ENDCHAR
STARTCHAR MGreaterEq
ENCODING 27
SWIDTH 840 0
DWIDTH 6 0
BBX 6 12 0 -3
BITMAP
00
00
40
30
08
30
40
00
78
00
00
00
ENDCHAR
STARTCHAR GkSmlPi
ENCODING 28
SWIDTH 840 0
DWIDTH 6 0
BBX 6 12 0 -3
BITMAP
00
00
00
78
48
48
48
48
48
00
00
00
ENDCHAR
STARTCHAR MEqualNot
ENCODING 29
SWIDTH 840 0
DWIDTH 6 0
BBX 6 12 0 -3
BITMAP
00
00
04
08
7c
10
7c
20
40
00
00
00
ENDCHAR
STARTCHAR CurrPound
ENCODING 30
SWIDTH 840 0
DWIDTH 6 0
BBX 6 12 0 -3
BITMAP
00
18
24
20
70
20
20
44
7c
00
00
00
ENDCHAR
STARTCHAR PMiddleDot
ENCODING 31
SWIDTH 840 0
DWIDTH 6 0
BBX 6 12 0 -3
BITMAP
00
00
00
00
00
30
30
00
00
00
00
00
ENDCHAR
STARTCHAR Space
ENCODING 32
SWIDTH 840 0
DWIDTH 6 0
BBX 6 12 0 -3
BITMAP
00
00
00
00
00
00
00
00
00
00
00
00
ENDCHAR
STARTCHAR PExclam
ENCODING 33
SWIDTH 840 0
DWIDTH 6 0
BBX 6 12 0 -3
BITMAP
00
10
10
10
10
10
00
10
10
00
00
00
ENDCHAR
STARTCHAR PQuote2Ascii
ENCODING 34
SWIDTH 840 0
DWIDTH 6 0
BBX 6 12 0 -3
BITMAP
00
28
28
28
00
00
00
00
00
00
00
00
ENDCHAR
STARTCHAR SNumberSign
ENCODING 35
SWIDTH 840 0
DWIDTH 6 0
BBX 6 12 0 -3
BITMAP
00
00
28
28
7c
28
7c
28
28
00
00
00
ENDCHAR
STARTCHAR CurrDollar
ENCODING 36
SWIDTH 840 0
DWIDTH 6 0
BBX 6 12 0 -3
BITMAP
00
10
38
54
50
38
14
54
38
10
00
00
ENDCHAR
STARTCHAR SPercent
ENCODING 37
SWIDTH 840 0
DWIDTH 6 0
BBX 6 12 0 -3
BITMAP
00
24
54
28
10
10
28
54
48
00
00
00
ENDCHAR
STARTCHAR SAmpersand
ENCODING 38
SWIDTH 840 0
DWIDTH 6 0
BBX 6 12 0 -3
BITMAP
00
20
50
50
20
54
48
48
34
00
00
00
ENDCHAR
STARTCHAR PApostropheAscii
ENCODING 39
SWIDTH 840 0
DWIDTH 6 0
BBX 6 12 0 -3
BITMAP
00
18
10
20
00
00
00
00
00
00
00
00
ENDCHAR
STARTCHAR PParenL
ENCODING 40
SWIDTH 840 0
DWIDTH 6 0
BBX 6 12 0 -3
BITMAP
08
10
10
20
20
20
20
10
10
08
00
00
ENDCHAR
STARTCHAR PParenR
ENCODING 41
SWIDTH 840 0
DWIDTH 6 0
BBX 6 12 0 -3
BITMAP
20
10
10
08
08
08
08
10
10
20
00
00
ENDCHAR
STARTCHAR SAsterisk
ENCODING 42
SWIDTH 840 0
DWIDTH 6 0
BBX 6 12 0 -3
BITMAP
00
00
00
28
10
7c
10
28
00
00
00
00
ENDCHAR
STARTCHAR MPlus
ENCODING 43
SWIDTH 840 0
DWIDTH 6 0
BBX 6 12 0 -3
BITMAP
00
00
00
10
10
7c
10
10
00
00
00
00
ENDCHAR
STARTCHAR PComma
ENCODING 44
SWIDTH 840 0
DWIDTH 6 0
BBX 6 12 0 -3
BITMAP
00
00
00
00
00
00
00
30
30
20
40
00
ENDCHAR
STARTCHAR PHyphenMinus
ENCODING 45
SWIDTH 840 0
DWIDTH 6 0
BBX 6 12 0 -3
BITMAP
00
00
00
00
00
78
00
00
00
00
00
00
ENDCHAR
STARTCHAR PFullStop
ENCODING 46
SWIDTH 840 0
DWIDTH 6 0
BBX 6 12 0 -3
BITMAP
00
00
00
00
00
00
00
30
30
00
00
00
ENDCHAR
STARTCHAR PSolidus
ENCODING 47
SWIDTH 840 0
DWIDTH 6 0
BBX 6 12 0 -3
BITMAP
04
04
08
08
10
10
20
20
40
40
00
00
ENDCHAR
STARTCHAR Digit0
ENCODING 48
SWIDTH 840 0
DWIDTH 6 0
BBX 6 12 0 -3
BITMAP
00
30
58
48
48
48
48
48
30
00
00
00
ENDCHAR
STARTCHAR Digit1
ENCODING 49
SWIDTH 840 0
DWIDTH 6 0
BBX 6 12 0 -3
BITMAP
00
10
30
50
10
10
10
10
10
00
00
00
ENDCHAR
STARTCHAR Digit2
ENCODING 50
SWIDTH 840 0
DWIDTH 6 0
BBX 6 12 0 -3
BITMAP
00
70
48
08
08
10
20
40
78
00
00
00
ENDCHAR
STARTCHAR Digit3
ENCODING 51
SWIDTH 840 0
DWIDTH 6 0
BBX 6 12 0 -3
BITMAP
00
70
08
08
30
08
08
08
70
00
00
00
ENDCHAR
STARTCHAR Digit4
ENCODING 52
SWIDTH 840 0
DWIDTH 6 0
BBX 6 12 0 -3
BITMAP
00
10
30
30
50
50
78
10
10
00
00
00
ENDCHAR
STARTCHAR Digit5
ENCODING 53
SWIDTH 840 0
DWIDTH 6 0
BBX 6 12 0 -3
BITMAP
00
78
40
40
70
08
08
08
70
00
00
00
ENDCHAR
STARTCHAR Digit6
ENCODING 54
SWIDTH 840 0
DWIDTH 6 0
BBX 6 12 0 -3
BITMAP
00
30
40
40
70
48
48
48
30
00
00
00
ENDCHAR
STARTCHAR Digit7
ENCODING 55
SWIDTH 840 0
DWIDTH 6 0
BBX 6 12 0 -3
BITMAP
00
78
08
08
10
10
20
20
20
00
00
00
ENDCHAR
STARTCHAR Digit8
ENCODING 56
SWIDTH 840 0
DWIDTH 6 0
BBX 6 12 0 -3
BITMAP
00
30
48
48
30
48
48
48
30
00
00
00
ENDCHAR
STARTCHAR Digit9
ENCODING 57
SWIDTH 840 0
DWIDTH 6 0
BBX 6 12 0 -3
BITMAP
00
30
48
48
48
38
08
08
30
00
00
00
ENDCHAR
STARTCHAR PColon
ENCODING 58
SWIDTH 840 0
DWIDTH 6 0
BBX 6 12 0 -3
BITMAP
00
00
00
00
30
30
00
30
30
00
00
00
ENDCHAR
STARTCHAR PSemicolon
ENCODING 59
SWIDTH 840 0
DWIDTH 6 0
BBX 6 12 0 -3
BITMAP
00
00
00
00
30
30
00
30
30
20
40
00
ENDCHAR
STARTCHAR MLess
ENCODING 60
SWIDTH 840 0
DWIDTH 6 0
BBX 6 12 0 -3
BITMAP
00
00
08
10
20
40
20
10
08
00
00
00
ENDCHAR
STARTCHAR MEqual
ENCODING 61
SWIDTH 840 0
DWIDTH 6 0
BBX 6 12 0 -3
BITMAP
00
00
00
00
7c
00
7c
00
00
00
00
00
ENDCHAR
STARTCHAR MGreater
ENCODING 62
SWIDTH 840 0
DWIDTH 6 0
BBX 6 12 0 -3
BITMAP
00
00
40
20
10
08
10
20
40
00
00
00
ENDCHAR
STARTCHAR PQuestion
ENCODING 63
SWIDTH 840 0
DWIDTH 6 0
BBX 6 12 0 -3
BITMAP
00
38
44
04
08
10
00
10
10
00
00
00
ENDCHAR
STARTCHAR SCommercialAt
ENCODING 64
SWIDTH 840 0
DWIDTH 6 0
BBX 6 12 0 -3
BITMAP
00
18
24
4c
54
54
4c
20
1c
00
00
00
ENDCHAR
STARTCHAR LtCapA
ENCODING 65
SWIDTH 840 0
DWIDTH 6 0
BBX 6 12 0 -3
BITMAP
00
30
30
48
48
78
48
48
48
00
00
00
ENDCHAR
STARTCHAR LtCapB
ENCODING 66
SWIDTH 840 0
DWIDTH 6 0
BBX 6 12 0 -3
BITMAP
00
70
48
48
70
48
48
48
70
00
00
00
ENDCHAR
STARTCHAR LtCapC
ENCODING 67
SWIDTH 840 0
DWIDTH 6 0
BBX 6 12 0 -3
BITMAP
00
30
48
40
40
40
40
48
30
00
00
00
ENDCHAR
STARTCHAR LtCapD
ENCODING 68
SWIDTH 840 0
DWIDTH 6 0
BBX 6 12 0 -3
BITMAP
00
60
50
48
48
48
48
50
60
00
00
00
ENDCHAR
STARTCHAR LtCapE
ENCODING 69
SWIDTH 840 0
DWIDTH 6 0
BBX 6 12 0 -3
BITMAP
00
78
40
40
70
40
40
40
78
00
00
00
ENDCHAR
STARTCHAR LtCapF
ENCODING 70
SWIDTH 840 0
DWIDTH 6 0
BBX 6 12 0 -3
BITMAP
00
3c
20
20
38
20
20
20
20
00
00
00
ENDCHAR
STARTCHAR LtCapG
ENCODING 71
SWIDTH 840 0
DWIDTH 6 0
BBX 6 12 0 -3
BITMAP
00
30
48
40
40
58
48
48
38
00
00
00
ENDCHAR
STARTCHAR LtCapH
ENCODING 72
SWIDTH 840 0
DWIDTH 6 0
BBX 6 12 0 -3
BITMAP
00
48
48
48
78
48
48
48
48
00
00
00
ENDCHAR
STARTCHAR LtCapI
ENCODING 73
SWIDTH 840 0
DWIDTH 6 0
BBX 6 12 0 -3
BITMAP
00
38
10
10
10
10
10
10
38
00
00
00
ENDCHAR
STARTCHAR LtCapJ
ENCODING 74
SWIDTH 840 0
DWIDTH 6 0
BBX 6 12 0 -3
BITMAP
00
18
08
08
08
08
48
48
30
00
00
00
ENDCHAR
STARTCHAR LtCapK
ENCODING 75
SWIDTH 840 0
DWIDTH 6 0
BBX 6 12 0 -3
BITMAP
00
48
48
50
60
50
50
48
48
00
00
00
ENDCHAR
STARTCHAR LtCapL
ENCODING 76
SWIDTH 840 0
DWIDTH 6 0
BBX 6 12 0 -3
BITMAP
00
40
40
40
40
40
40
40
78
00
00
00
ENDCHAR
STARTCHAR LtCapM
ENCODING 77
SWIDTH 840 0
DWIDTH 6 0
BBX 6 12 0 -3
BITMAP
00
44
6c
6c
54
54
44
44
44
00
00
00
ENDCHAR
STARTCHAR LtCapN
ENCODING 78
SWIDTH 840 0
DWIDTH 6 0
BBX 6 12 0 -3
BITMAP
00
48
48
68
68
58
58
48
48
00
00
00
ENDCHAR
STARTCHAR LtCapO
ENCODING 79
SWIDTH 840 0
DWIDTH 6 0
BBX 6 12 0 -3
BITMAP
00
30
48
48
48
48
48
48
30
00
00
00
ENDCHAR
STARTCHAR LtCapP
ENCODING 80
SWIDTH 840 0
DWIDTH 6 0
BBX 6 12 0 -3
BITMAP
00
70
48
48
48
70
40
40
40
00
00
00
ENDCHAR
STARTCHAR LtCapQ
ENCODING 81
SWIDTH 840 0
DWIDTH 6 0
BBX 6 12 0 -3
BITMAP
00
30
48
48
48
48
68
58
30
08
00
00
ENDCHAR
STARTCHAR LtCapR
ENCODING 82
SWIDTH 840 0
DWIDTH 6 0
BBX 6 12 0 -3
BITMAP
00
70
48
48
70
50
50
48
48
00
00
00
ENDCHAR
STARTCHAR LtCapS
ENCODING 83
SWIDTH 840 0
DWIDTH 6 0
BBX 6 12 0 -3
BITMAP
00
30
48
40
20
10
08
48
30
00
00
00
ENDCHAR
STARTCHAR LtCapT
ENCODING 84
SWIDTH 840 0
DWIDTH 6 0
BBX 6 12 0 -3
BITMAP
00
7c
10
10
10
10
10
10
10
00
00
00
ENDCHAR
STARTCHAR LtCapU
ENCODING 85
SWIDTH 840 0
DWIDTH 6 0
BBX 6 12 0 -3
BITMAP
00
48
48
48
48
48
48
48
30
00
00
00
ENDCHAR
STARTCHAR LtCapV
ENCODING 86
SWIDTH 840 0
DWIDTH 6 0
BBX 6 12 0 -3
BITMAP
00
44
44
44
44
28
28
10
10
00
00
00
ENDCHAR
STARTCHAR LtCapW
ENCODING 87
SWIDTH 840 0
DWIDTH 6 0
BBX 6 12 0 -3
BITMAP
00
44
44
44
54
54
7c
28
28
00
00
00
ENDCHAR
STARTCHAR LtCapX
ENCODING 88
SWIDTH 840 0
DWIDTH 6 0
BBX 6 12 0 -3
BITMAP
00
48
48
48
30
30
48
48
48
00
00
00
ENDCHAR
STARTCHAR LtCapY
ENCODING 89
SWIDTH 840 0
DWIDTH 6 0
BBX 6 12 0 -3
BITMAP
00
44
44
28
28
10
10
10
10
00
00
00
ENDCHAR
STARTCHAR LtCapZ
ENCODING 90
SWIDTH 840 0
DWIDTH 6 0
BBX 6 12 0 -3
BITMAP
00
78
08
10
10
20
20
40
78
00
00
00
ENDCHAR
STARTCHAR PSquareBrackL
ENCODING 91
SWIDTH 840 0
DWIDTH 6 0
BBX 6 12 0 -3
BITMAP
38
20
20
20
20
20
20
20
20
38
00
00
ENDCHAR
STARTCHAR PRevSolidus
ENCODING 92
SWIDTH 840 0
DWIDTH 6 0
BBX 6 12 0 -3
BITMAP
40
40
20
20
10
10
08
08
04
04
00
00
ENDCHAR
STARTCHAR PSquareBrackR
ENCODING 93
SWIDTH 840 0
DWIDTH 6 0
BBX 6 12 0 -3
BITMAP
38
08
08
08
08
08
08
08
08
38
00
00
ENDCHAR
STARTCHAR AccCircumAscii
ENCODING 94
SWIDTH 840 0
DWIDTH 6 0
BBX 6 12 0 -3
BITMAP
00
10
28
44
00
00
00
00
00
00
00
00
ENDCHAR
STARTCHAR OLowline
ENCODING 95
SWIDTH 840 0
DWIDTH 6 0
BBX 6 12 0 -3
BITMAP
00
00
00
00
00
00
00
00
78
00
00
00
ENDCHAR
STARTCHAR AccGraveAscii
ENCODING 96
SWIDTH 840 0
DWIDTH 6 0
BBX 6 12 0 -3
BITMAP
00
30
10
08
00
00
00
00
00
00
00
00
ENDCHAR
STARTCHAR LtSmlA
ENCODING 97
SWIDTH 840 0
DWIDTH 6 0
BBX 6 12 0 -3
BITMAP
00
00
00
30
08
38
48
48
38
00
00
00
ENDCHAR
STARTCHAR LtSmlB
ENCODING 98
SWIDTH 840 0
DWIDTH 6 0
BBX 6 12 0 -3
BITMAP
00
40
40
70
48
48
48
48
70
00
00
00
ENDCHAR
STARTCHAR LtSmlC
ENCODING 99
SWIDTH 840 0
DWIDTH 6 0
BBX 6 12 0 -3
BITMAP
00
00
00
30
48
40
40
40
38
00
00
00
ENDCHAR
STARTCHAR LtSmlD
ENCODING 100
SWIDTH 840 0
DWIDTH 6 0
BBX 6 12 0 -3
BITMAP
00
08
08
38
48
48
48
48
38
00
00
00
ENDCHAR
STARTCHAR LtSmlE
ENCODING 101
SWIDTH 840 0
DWIDTH 6 0
BBX 6 12 0 -3
BITMAP
00
00
00
30
48
78
40
40
38
00
00
00
ENDCHAR
STARTCHAR LtSmlF
ENCODING 102
SWIDTH 840 0
DWIDTH 6 0
BBX 6 12 0 -3
BITMAP
00
18
20
20
78
20
20
20
20
00
00
00
ENDCHAR
STARTCHAR LtSmlG
ENCODING 103
SWIDTH 840 0
DWIDTH 6 0
BBX 6 12 0 -3
BITMAP
00
00
00
38
48
48
48
78
08
48
70
00
ENDCHAR
STARTCHAR LtSmlH
ENCODING 104
SWIDTH 840 0
DWIDTH 6 0
BBX 6 12 0 -3
BITMAP
00
40
40
58
68
48
48
48
48
00
00
00
ENDCHAR
STARTCHAR LtSmlI
ENCODING 105
SWIDTH 840 0
DWIDTH 6 0
BBX 6 12 0 -3
BITMAP
10
10
00
30
10
10
10
10
38
00
00
00
ENDCHAR
STARTCHAR LtSmlJ
ENCODING 106
SWIDTH 840 0
DWIDTH 6 0
BBX 6 12 0 -3
BITMAP
10
10
00
30
10
10
10
10
10
90
60
00
ENDCHAR
STARTCHAR LtSmlK
ENCODING 107
SWIDTH 840 0
DWIDTH 6 0
BBX 6 12 0 -3
BITMAP
00
40
40
48
50
60
50
48
48
00
00
00
ENDCHAR
STARTCHAR LtSmlL
ENCODING 108
SWIDTH 840 0
DWIDTH 6 0
BBX 6 12 0 -3
BITMAP
00
30
10
10
10
10
10
10
38
00
00
00
ENDCHAR
STARTCHAR LtSmlM
ENCODING 109
SWIDTH 840 0
DWIDTH 6 0
BBX 6 12 0 -3
BITMAP
00
00
00
7c
54
54
54
54
54
00
00
00
ENDCHAR
STARTCHAR LtSmlN
ENCODING 110
SWIDTH 840 0
DWIDTH 6 0
BBX 6 12 0 -3
BITMAP
00
00
00
58
68
48
48
48
48
00
00
00
ENDCHAR
STARTCHAR LtSmlO
ENCODING 111
SWIDTH 840 0
DWIDTH 6 0
BBX 6 12 0 -3
BITMAP
00
00
00
30
48
48
48
48
30
00
00
00
ENDCHAR
STARTCHAR LtSmlP
ENCODING 112
SWIDTH 840 0
DWIDTH 6 0
BBX 6 12 0 -3
BITMAP
00
00
00
70
48
48
48
48
70
40
40
00
ENDCHAR
STARTCHAR LtSmlQ
ENCODING 113
SWIDTH 840 0
DWIDTH 6 0
BBX 6 12 0 -3
BITMAP
00
00
00
38
48
48
48
48
38
08
08
00
ENDCHAR
STARTCHAR LtSmlR
ENCODING 114
SWIDTH 840 0
DWIDTH 6 0
BBX 6 12 0 -3
BITMAP
00
00
00
78
28
20
20
20
20
00
00
00
ENDCHAR
STARTCHAR LtSmlS
ENCODING 115
SWIDTH 840 0
DWIDTH 6 0
BBX 6 12 0 -3
BITMAP
00
00
00
38
40
60
18
08
70
00
00
00
ENDCHAR
STARTCHAR LtSmlT
ENCODING 116
SWIDTH 840 0
DWIDTH 6 0
BBX 6 12 0 -3
BITMAP
00
20
20
78
20
20
20
20
18
00
00
00
ENDCHAR
STARTCHAR LtSmlU
ENCODING 117
SWIDTH 840 0
DWIDTH 6 0
BBX 6 12 0 -3
BITMAP
00
00
00
48
48
48
48
48
38
00
00
00
ENDCHAR
STARTCHAR LtSmlV
ENCODING 118
SWIDTH 840 0
DWIDTH 6 0
BBX 6 12 0 -3
BITMAP
00
00
00
44
44
28
28
10
10
00
00
00
ENDCHAR
STARTCHAR LtSmlW
ENCODING 119
SWIDTH 840 0
DWIDTH 6 0
BBX 6 12 0 -3
BITMAP
00
00
00
44
44
54
54
38
28
00
00
00
ENDCHAR
STARTCHAR LtSmlX
ENCODING 120
SWIDTH 840 0
DWIDTH 6 0
BBX 6 12 0 -3
BITMAP
00
00
00
48
48
30
30
48
48
00
00
00
ENDCHAR
STARTCHAR LtSmlY
ENCODING 121
SWIDTH 840 0
DWIDTH 6 0
BBX 6 12 0 -3
BITMAP
00
00
00
48
48
48
28
30
10
20
60
00
ENDCHAR
STARTCHAR LtSmlZ
ENCODING 122
SWIDTH 840 0
DWIDTH 6 0
BBX 6 12 0 -3
BITMAP
00
00
00
78
08
10
20
40
78
00
00
00
ENDCHAR
STARTCHAR PCurlyBrackL
ENCODING 123
SWIDTH 840 0
DWIDTH 6 0
BBX 6 12 0 -3
BITMAP
0c
10
10
10
60
60
10
10
10
0c
00
00
ENDCHAR
STARTCHAR OVertBar
ENCODING 124
SWIDTH 840 0
DWIDTH 6 0
BBX 6 12 0 -3
BITMAP
10
10
10
10
10
10
10
10
10
10
00
00
ENDCHAR
STARTCHAR PCurlyBrackR
ENCODING 125
SWIDTH 840 0
DWIDTH 6 0
BBX 6 12 0 -3
BITMAP
60
10
10
10
0c
0c
10
10
10
60
00
00
ENDCHAR
STARTCHAR AccTildeAscii
ENCODING 126
SWIDTH 840 0
DWIDTH 6 0
BBX 6 12 0 -3
BITMAP
00
24
54
48
00
00
00
00
00
00
00
00
ENDCHAR
STARTCHAR CyCapDje
ENCODING 128
SWIDTH 840 0
DWIDTH 6 0
BBX 6 12 0 -3
BITMAP
00
f8
20
20
38
24
24
24
24
04
18
00
ENDCHAR
STARTCHAR CyCapGheAcute
ENCODING 129
SWIDTH 840 0
DWIDTH 6 0
BBX 6 12 0 -3
BITMAP
08
10
3c
20
20
20
20
20
20
00
00
00
ENDCHAR
STARTCHAR PQuoteL9
ENCODING 130
SWIDTH 840 0
DWIDTH 6 0
BBX 6 12 0 -3
BITMAP
00
00
00
00
00
00
00
00
30
10
20
00
ENDCHAR
STARTCHAR CySmlGheAcute
ENCODING 131
SWIDTH 840 0
DWIDTH 6 0
BBX 6 12 0 -3
BITMAP
10
20
00
78
40
40
40
40
40
00
00
00
ENDCHAR
STARTCHAR PQuote2L9
ENCODING 132
SWIDTH 840 0
DWIDTH 6 0
BBX 6 12 0 -3
BITMAP
00
00
00
00
00
00
00
00
6c
24
48
00
ENDCHAR
STARTCHAR PHorizEllips
ENCODING 133
SWIDTH 840 0
DWIDTH 6 0
BBX 6 12 0 -3
BITMAP
00
00
00
00
00
00
00
54
54
00
00
00
ENDCHAR
STARTCHAR SDagger
ENCODING 134
SWIDTH 840 0
DWIDTH 6 0
BBX 6 12 0 -3
BITMAP
10
10
7c
10
10
10
10
10
10
10
00
00
ENDCHAR
STARTCHAR SDagger2
ENCODING 135
SWIDTH 840 0
DWIDTH 6 0
BBX 6 12 0 -3
BITMAP
10
10
7c
10
10
10
10
7c
10
10
00
00
ENDCHAR
STARTCHAR CurrEuro
ENCODING 136
SWIDTH 840 0
DWIDTH 6 0
BBX 6 12 0 -3
BITMAP
00
00
1c
20
78
20
78
20
1c
00
00
00
ENDCHAR
STARTCHAR SPermill
ENCODING 137
SWIDTH 840 0
DWIDTH 6 0
BBX 6 12 0 -3
BITMAP
00
20
50
20
0c
30
40
28
54
28
00
00
ENDCHAR
STARTCHAR CyCapLje
ENCODING 138
SWIDTH 840 0
DWIDTH 6 0
BBX 6 12 0 -3
BITMAP
00
30
50
50
58
54
54
54
d8
00
00
00
ENDCHAR
STARTCHAR PQuoteAngleL
ENCODING 139
SWIDTH 840 0
DWIDTH 6 0
BBX 6 12 0 -3
BITMAP
00
00
00
00
10
20
20
10
00
00
00
00
ENDCHAR
STARTCHAR CyCapNje
ENCODING 140
SWIDTH 840 0
DWIDTH 6 0
BBX 6 12 0 -3
BITMAP
00
50
50
50
78
54
54
54
58
00
00
00
ENDCHAR
STARTCHAR CyCapKaAcute
ENCODING 141
SWIDTH 840 0
DWIDTH 6 0
BBX 6 12 0 -3
BITMAP
10
20
48
48
50
60
50
48
48
00
00
00
ENDCHAR
STARTCHAR CyCapTshe
ENCODING 142
SWIDTH 840 0
DWIDTH 6 0
BBX 6 12 0 -3
BITMAP
00
f8
20
20
38
24
24
24
24
00
00
00
ENDCHAR
STARTCHAR CyCapDzhe
ENCODING 143
SWIDTH 840 0
DWIDTH 6 0
BBX 6 12 0 -3
BITMAP
00
48
48
48
48
48
48
48
78
10
10
00
ENDCHAR
STARTCHAR CySmlDje
ENCODING 144
SWIDTH 840 0
DWIDTH 6 0
BBX 6 12 0 -3
BITMAP
00
40
f0
40
70
48
48
48
48
10
20
00
ENDCHAR
STARTCHAR PQuoteL
ENCODING 145
SWIDTH 840 0
DWIDTH 6 0
BBX 6 12 0 -3
BITMAP
00
10
20
30
00
00
00
00
00
00
00
00
ENDCHAR
STARTCHAR PQuoteR
ENCODING 146
SWIDTH 840 0
DWIDTH 6 0
BBX 6 12 0 -3
BITMAP
00
30
10
20
00
00
00
00
00
00
00
00
ENDCHAR
STARTCHAR PQuote2L
ENCODING 147
SWIDTH 840 0
DWIDTH 6 0
BBX 6 12 0 -3
BITMAP
00
24
48
6c
00
00
00
00
00
00
00
00
ENDCHAR
STARTCHAR PQuote2R
ENCODING 148
SWIDTH 840 0
DWIDTH 6 0
BBX 6 12 0 -3
BITMAP
00
6c
24
48
00
00
00
00
00
00
00
00
ENDCHAR
STARTCHAR DBulletB
ENCODING 149
SWIDTH 840 0
DWIDTH 6 0
BBX 6 12 0 -3
BITMAP
00
00
00
00
10
38
38
10
00
00
00
00
ENDCHAR
STARTCHAR PDashEn
ENCODING 150
SWIDTH 840 0
DWIDTH 6 0
BBX 6 12 0 -3
BITMAP
00
00
00
00
00
7c
00
00
00
00
00
00
ENDCHAR
STARTCHAR PDashEm
ENCODING 151
SWIDTH 840 0
DWIDTH 6 0
BBX 6 12 0 -3
BITMAP
00
00
00
00
00
fc
00
00
00
00
00
00
ENDCHAR
STARTCHAR STrademark
ENCODING 153
SWIDTH 840 0
DWIDTH 6 0
BBX 6 12 0 -3
BITMAP
00
7c
2c
2c
00
00
00
00
00
00
00
00
ENDCHAR
STARTCHAR CySmlLje
ENCODING 154
SWIDTH 840 0
DWIDTH 6 0
BBX 6 12 0 -3
BITMAP
00
00
00
30
50
58
54
54
d8
00
00
00
ENDCHAR
STARTCHAR PQuoteAngleR
ENCODING 155
SWIDTH 840 0
DWIDTH 6 0
BBX 6 12 0 -3
BITMAP
00
00
00
00
20
10
10
20
00
00
00
00
ENDCHAR
STARTCHAR CySmlNje
ENCODING 156
SWIDTH 840 0
DWIDTH 6 0
BBX 6 12 0 -3
BITMAP
00
00
00
50
50
78
54
54
58
00
00
00
ENDCHAR
STARTCHAR CySmlKaAcute
ENCODING 157
SWIDTH 840 0
DWIDTH 6 0
BBX 6 12 0 -3
BITMAP
10
20
00
48
48
50
70
48
48
00
00
00
ENDCHAR
STARTCHAR CySmlTshe
ENCODING 158
SWIDTH 840 0
DWIDTH 6 0
BBX 6 12 0 -3
BITMAP
00
40
f0
40
58
68
48
48
48
00
00
00
ENDCHAR
STARTCHAR CySmlDzhe
ENCODING 159
SWIDTH 840 0
DWIDTH 6 0
BBX 6 12 0 -3
BITMAP
00
00
00
48
48
48
48
48
78
10
10
00
ENDCHAR
STARTCHAR SpaceNoBreak
ENCODING 160
SWIDTH 840 0
DWIDTH 6 0
BBX 6 12 0 -3
BITMAP
00
00
00
00
00
00
44
44
7c
00
00
00
ENDCHAR
STARTCHAR CyCapUBreve
ENCODING 161
SWIDTH 840 0
DWIDTH 6 0
BBX 6 12 0 -3
BITMAP
28
10
44
44
28
10
10
20
60
00
00
00
ENDCHAR
STARTCHAR CySmlUBreve
ENCODING 162
SWIDTH 840 0
DWIDTH 6 0
BBX 6 12 0 -3
BITMAP
28
38
00
48
48
48
28
30
10
20
60
00
ENDCHAR
STARTCHAR CyCapJe
ENCODING 163
SWIDTH 840 0
DWIDTH 6 0
BBX 6 12 0 -3
BITMAP
00
18
08
08
08
08
48
48
30
00
00
00
ENDCHAR
STARTCHAR CurrGeneral
ENCODING 164
SWIDTH 840 0
DWIDTH 6 0
BBX 6 12 0 -3
BITMAP
00
00
00
44
38
28
38
44
00
00
00
00
ENDCHAR
STARTCHAR CyCapGheUpturn
ENCODING 165
SWIDTH 840 0
DWIDTH 6 0
BBX 6 12 0 -3
BITMAP
04
04
3c
20
20
20
20
20
20
00
00
00
ENDCHAR
STARTCHAR OVertBarBroken
ENCODING 166
SWIDTH 840 0
DWIDTH 6 0
BBX 6 12 0 -3
BITMAP
10
10
10
10
00
00
10
10
10
10
00
00
ENDCHAR
STARTCHAR SParagraph
ENCODING 167
SWIDTH 840 0
DWIDTH 6 0
BBX 6 12 0 -3
BITMAP
00
30
48
20
30
48
48
30
10
48
30
00
ENDCHAR
STARTCHAR CyCapIeDrss
ENCODING 168
SWIDTH 840 0
DWIDTH 6 0
BBX 6 12 0 -3
BITMAP
6c
00
78
40
40
70
40
40
78
00
00
00
ENDCHAR
STARTCHAR SCopyright
ENCODING 169
SWIDTH 840 0
DWIDTH 6 0
BBX 6 12 0 -3
BITMAP
00
30
48
b4
c4
c4
c4
b4
48
30
00
00
ENDCHAR
STARTCHAR CyCapIeUkr
ENCODING 170
SWIDTH 840 0
DWIDTH 6 0
BBX 6 12 0 -3
BITMAP
00
30
48
40
70
40
40
48
30
00
00
00
ENDCHAR
STARTCHAR PQuoteAngle2L
ENCODING 171
SWIDTH 840 0
DWIDTH 6 0
BBX 6 12 0 -3
BITMAP
00
00
00
00
24
48
48
24
00
00
00
00
ENDCHAR
STARTCHAR MNot
ENCODING 172
SWIDTH 840 0
DWIDTH 6 0
BBX 6 12 0 -3
BITMAP
00
00
00
00
00
78
08
08
00
00
00
00
ENDCHAR
STARTCHAR PHyphenSoft
ENCODING 173
SWIDTH 840 0
DWIDTH 6 0
BBX 6 12 0 -3
BITMAP
00
00
00
00
00
38
00
00
00
00
00
00
ENDCHAR
STARTCHAR SRegistered
ENCODING 174
SWIDTH 840 0
DWIDTH 6 0
BBX 6 12 0 -3
BITMAP
00
30
48
b4
ac
ac
b4
ac
48
30
00
00
ENDCHAR
STARTCHAR CyCapIUkrDrss
ENCODING 175
SWIDTH 840 0
DWIDTH 6 0
BBX 6 12 0 -3
BITMAP
6c
00
38
10
10
10
10
10
38
00
00
00
ENDCHAR
STARTCHAR SDegree
ENCODING 176
SWIDTH 840 0
DWIDTH 6 0
BBX 6 12 0 -3
BITMAP
00
30
48
48
30
00
00
00
00
00
00
00
ENDCHAR
STARTCHAR MPlusMinus
ENCODING 177
SWIDTH 840 0
DWIDTH 6 0
BBX 6 12 0 -3
BITMAP
00
00
10
10
7c
10
10
00
7c
00
00
00
ENDCHAR
STARTCHAR CyCapIUkr
ENCODING 178
SWIDTH 840 0
DWIDTH 6 0
BBX 6 12 0 -3
BITMAP
00
38
10
10
10
10
10
10
38
00
00
00
ENDCHAR
STARTCHAR CySmlIUkr
ENCODING 179
SWIDTH 840 0
DWIDTH 6 0
BBX 6 12 0 -3
BITMAP
10
10
00
30
10
10
10
10
38
00
00
00
ENDCHAR
STARTCHAR CySmlGheUpturn
ENCODING 180
SWIDTH 840 0
DWIDTH 6 0
BBX 6 12 0 -3
BITMAP
00
08
08
78
40
40
40
40
40
00
00
00
ENDCHAR
STARTCHAR SMicro
ENCODING 181
SWIDTH 840 0
DWIDTH 6 0
BBX 6 12 0 -3
BITMAP
00
00
00
48
48
48
48
58
68
40
40
00
ENDCHAR
STARTCHAR SPilcrow
ENCODING 182
SWIDTH 840 0
DWIDTH 6 0
BBX 6 12 0 -3
BITMAP
00
3c
54
54
34
14
14
14
14
00
00
00
ENDCHAR
STARTCHAR PMiddleDot
ENCODING 183
SWIDTH 840 0
DWIDTH 6 0
BBX 6 12 0 -3
BITMAP
00
00
00
00
00
30
30
00
00
00
00
00
ENDCHAR
STARTCHAR CySmlIeDrss
ENCODING 184
SWIDTH 840 0
DWIDTH 6 0
BBX 6 12 0 -3
BITMAP
28
28
00
30
48
78
40
40
38
00
00
00
ENDCHAR
STARTCHAR SNumberAcronym
ENCODING 185
SWIDTH 840 0
DWIDTH 6 0
BBX 6 12 0 -3
BITMAP
00
5c
5c
5c
70
7c
70
50
50
00
00
00
ENDCHAR
STARTCHAR CySmlIeUkr
ENCODING 186
SWIDTH 840 0
DWIDTH 6 0
BBX 6 12 0 -3
BITMAP
00
00
00
38
40
70
40
40
38
00
00
00
ENDCHAR
STARTCHAR PQuoteAngle2R
ENCODING 187
SWIDTH 840 0
DWIDTH 6 0
BBX 6 12 0 -3
BITMAP
00
00
00
00
48
24
24
48
00
00
00
00
ENDCHAR
STARTCHAR CySmlJe
ENCODING 188
SWIDTH 840 0
DWIDTH 6 0
BBX 6 12 0 -3
BITMAP
10
10
00
30
10
10
10
10
10
90
60
00
ENDCHAR
STARTCHAR CyCapDze
ENCODING 189
SWIDTH 840 0
DWIDTH 6 0
BBX 6 12 0 -3
BITMAP
00
30
48
40
20
10
08
48
30
00
00
00
ENDCHAR
STARTCHAR CySmlDze
ENCODING 190
SWIDTH 840 0
DWIDTH 6 0
BBX 6 12 0 -3
BITMAP
00
00
00
38
40
60
18
08
70
00
00
00
ENDCHAR
STARTCHAR CySmlIUkrDrss
ENCODING 191
SWIDTH 840 0
DWIDTH 6 0
BBX 6 12 0 -3
BITMAP
28
28
00
30
10
10
10
10
38
00
00
00
ENDCHAR
STARTCHAR CyCapA
ENCODING 192
SWIDTH 840 0
DWIDTH 6 0
BBX 6 12 0 -3
BITMAP
00
30
30
48
48
78
48
48
48
00
00
00
ENDCHAR
STARTCHAR CyCapBe
ENCODING 193
SWIDTH 840 0
DWIDTH 6 0
BBX 6 12 0 -3
BITMAP
00
70
40
40
70
48
48
48
70
00
00
00
ENDCHAR
STARTCHAR CyCapVe
ENCODING 194
SWIDTH 840 0
DWIDTH 6 0
BBX 6 12 0 -3
BITMAP
00
70
48
48
70
48
48
48
70
00
00
00
ENDCHAR
STARTCHAR CyCapGhe
ENCODING 195
SWIDTH 840 0
DWIDTH 6 0
BBX 6 12 0 -3
BITMAP
00
3c
20
20
20
20
20
20
20
00
00
00
ENDCHAR
STARTCHAR CyCapDe
ENCODING 196
SWIDTH 840 0
DWIDTH 6 0
BBX 6 12 0 -3
BITMAP
00
38
28
28
28
28
28
28
7c
44
44
00
ENDCHAR
STARTCHAR CyCapIe
ENCODING 197
SWIDTH 840 0
DWIDTH 6 0
BBX 6 12 0 -3
BITMAP
00
78
40
40
70
40
40
40
78
00
00
00
ENDCHAR
STARTCHAR CyCapZhe
ENCODING 198
SWIDTH 840 0
DWIDTH 6 0
BBX 6 12 0 -3
BITMAP
00
54
54
54
38
54
54
54
54
00
00
00
ENDCHAR
STARTCHAR CyCapZe
ENCODING 199
SWIDTH 840 0
DWIDTH 6 0
BBX 6 12 0 -3
BITMAP
00
30
48
08
30
08
08
48
30
00
00
00
ENDCHAR
STARTCHAR CyCapI
ENCODING 200
SWIDTH 840 0
DWIDTH 6 0
BBX 6 12 0 -3
BITMAP
00
48
48
58
58
68
68
48
48
00
00
00
ENDCHAR
STARTCHAR CyCapIBreve
ENCODING 201
SWIDTH 840 0
DWIDTH 6 0
BBX 6 12 0 -3
BITMAP
28
10
48
48
58
58
68
68
48
00
00
00
ENDCHAR
STARTCHAR CyCapKa
ENCODING 202
SWIDTH 840 0
DWIDTH 6 0
BBX 6 12 0 -3
BITMAP
00
48
48
50
60
50
50
48
48
00
00
00
ENDCHAR
STARTCHAR CyCapEl
ENCODING 203
SWIDTH 840 0
DWIDTH 6 0
BBX 6 12 0 -3
BITMAP
00
18
28
48
48
48
48
48
c8
00
00
00
ENDCHAR
STARTCHAR CyCapEm
ENCODING 204
SWIDTH 840 0
DWIDTH 6 0
BBX 6 12 0 -3
BITMAP
00
44
6c
6c
54
54
44
44
44
00
00
00
ENDCHAR
STARTCHAR CyCapEn
ENCODING 205
SWIDTH 840 0
DWIDTH 6 0
BBX 6 12 0 -3
BITMAP
00
48
48
48
78
48
48
48
48
00
00
00
ENDCHAR
STARTCHAR CyCapO
ENCODING 206
SWIDTH 840 0
DWIDTH 6 0
BBX 6 12 0 -3
BITMAP
00
30
48
48
48
48
48
48
30
00
00
00
ENDCHAR
STARTCHAR CyCapPe
ENCODING 207
SWIDTH 840 0
DWIDTH 6 0
BBX 6 12 0 -3
BITMAP
00
78
48
48
48
48
48
48
48
00
00
00
ENDCHAR
STARTCHAR CyCapEr
ENCODING 208
SWIDTH 840 0
DWIDTH 6 0
BBX 6 12 0 -3
BITMAP
00
70
48
48
48
70
40
40
40
00
00
00
ENDCHAR
STARTCHAR CyCapEs
ENCODING 209
SWIDTH 840 0
DWIDTH 6 0
BBX 6 12 0 -3
BITMAP
00
30
48
40
40
40
40
48
30
00
00
00
ENDCHAR
STARTCHAR CyCapTe
ENCODING 210
SWIDTH 840 0
DWIDTH 6 0
BBX 6 12 0 -3
BITMAP
00
7c
10
10
10
10
10
10
10
00
00
00
ENDCHAR
STARTCHAR CyCapU
ENCODING 211
SWIDTH 840 0
DWIDTH 6 0
BBX 6 12 0 -3
BITMAP
00
44
44
28
28
10
10
20
60
00
00
00
ENDCHAR
STARTCHAR CyCapEf
ENCODING 212
SWIDTH 840 0
DWIDTH 6 0
BBX 6 12 0 -3
BITMAP
00
10
38
54
54
54
54
38
10
00
00
00
ENDCHAR
STARTCHAR CyCapHa
ENCODING 213
SWIDTH 840 0
DWIDTH 6 0
BBX 6 12 0 -3
BITMAP
00
48
48
48
30
30
48
48
48
00
00
00
ENDCHAR
STARTCHAR CyCapTse
ENCODING 214
SWIDTH 840 0
DWIDTH 6 0
BBX 6 12 0 -3
BITMAP
00
48
48
48
48
48
48
48
7c
04
04
00
ENDCHAR
STARTCHAR CyCapChe
ENCODING 215
SWIDTH 840 0
DWIDTH 6 0
BBX 6 12 0 -3
BITMAP
00
48
48
48
48
38
08
08
08
00
00
00
ENDCHAR
STARTCHAR CyCapSha
ENCODING 216
SWIDTH 840 0
DWIDTH 6 0
BBX 6 12 0 -3
BITMAP
00
54
54
54
54
54
54
54
7c
00
00
00
ENDCHAR
STARTCHAR CyCapShcha
ENCODING 217
SWIDTH 840 0
DWIDTH 6 0
BBX 6 12 0 -3
BITMAP
00
54
54
54
54
54
54
54
7c
04
04
00
ENDCHAR
STARTCHAR CyCapHardsign
ENCODING 218
SWIDTH 840 0
DWIDTH 6 0
BBX 6 12 0 -3
BITMAP
00
70
10
10
18
14
14
14
18
00
00
00
ENDCHAR
STARTCHAR CyCapYeru
ENCODING 219
SWIDTH 840 0
DWIDTH 6 0
BBX 6 12 0 -3
BITMAP
00
44
44
44
64
54
54
54
64
00
00
00
ENDCHAR
STARTCHAR CyCapSoftsign
ENCODING 220
SWIDTH 840 0
DWIDTH 6 0
BBX 6 12 0 -3
BITMAP
00
40
40
40
70
48
48
48
70
00
00
00
ENDCHAR
STARTCHAR CyCapE
ENCODING 221
SWIDTH 840 0
DWIDTH 6 0
BBX 6 12 0 -3
BITMAP
00
30
48
08
38
08
08
48
30
00
00
00
ENDCHAR
STARTCHAR CyCapYu
ENCODING 222
SWIDTH 840 0
DWIDTH 6 0
BBX 6 12 0 -3
BITMAP
00
48
54
54
74
54
54
54
48
00
00
00
ENDCHAR
STARTCHAR CyCapYa
ENCODING 223
SWIDTH 840 0
DWIDTH 6 0
BBX 6 12 0 -3
BITMAP
00
38
48
48
38
28
28
48
48
00
00
00
ENDCHAR
STARTCHAR CySmlA
ENCODING 224
SWIDTH 840 0
DWIDTH 6 0
BBX 6 12 0 -3
BITMAP
00
00
00
30
08
38
48
48
38
00
00
00
ENDCHAR
STARTCHAR CySmlBe
ENCODING 225
SWIDTH 840 0
DWIDTH 6 0
BBX 6 12 0 -3
BITMAP
00
30
40
40
70
48
48
48
30
00
00
00
ENDCHAR
STARTCHAR CySmlVe
ENCODING 226
SWIDTH 840 0
DWIDTH 6 0
BBX 6 12 0 -3
BITMAP
00
00
00
70
48
70
48
48
70
00
00
00
ENDCHAR
STARTCHAR CySmlGhe
ENCODING 227
SWIDTH 840 0
DWIDTH 6 0
BBX 6 12 0 -3
BITMAP
00
00
00
78
40
40
40
40
40
00
00
00
ENDCHAR
STARTCHAR CySmlDe
ENCODING 228
SWIDTH 840 0
DWIDTH 6 0
BBX 6 12 0 -3
BITMAP
00
00
00
38
28
28
28
28
7c
44
44
00
ENDCHAR
STARTCHAR CySmlIe
ENCODING 229
SWIDTH 840 0
DWIDTH 6 0
BBX 6 12 0 -3
BITMAP
00
00
00
30
48
78
40
40
38
00
00
00
ENDCHAR
STARTCHAR CySmlZhe
ENCODING 230
SWIDTH 840 0
DWIDTH 6 0
BBX 6 12 0 -3
BITMAP
00
00
00
54
54
38
54
54
54
00
00
00
ENDCHAR
STARTCHAR CySmlZe
ENCODING 231
SWIDTH 840 0
DWIDTH 6 0
BBX 6 12 0 -3
BITMAP
00
00
00
30
48
10
08
48
30
00
00
00
ENDCHAR
STARTCHAR CySmlI
ENCODING 232
SWIDTH 840 0
DWIDTH 6 0
BBX 6 12 0 -3
BITMAP
00
00
00
48
48
48
58
68
48
00
00
00
ENDCHAR
STARTCHAR CySmlIBreve
ENCODING 233
SWIDTH 840 0
DWIDTH 6 0
BBX 6 12 0 -3
BITMAP
28
38
00
48
48
48
58
68
48
00
00
00
ENDCHAR
STARTCHAR CySmlKa
ENCODING 234
SWIDTH 840 0
DWIDTH 6 0
BBX 6 12 0 -3
BITMAP
00
00
00
48
48
50
70
48
48
00
00
00
ENDCHAR
STARTCHAR CySmlEl
ENCODING 235
SWIDTH 840 0
DWIDTH 6 0
BBX 6 12 0 -3
BITMAP
00
00
00
18
28
48
48
48
88
00
00
00
ENDCHAR
STARTCHAR CySmlEm
ENCODING 236
SWIDTH 840 0
DWIDTH 6 0
BBX 6 12 0 -3
BITMAP
00
00
00
44
44
6c
54
54
54
00
00
00
ENDCHAR
STARTCHAR CySmlEn
ENCODING 237
SWIDTH 840 0
DWIDTH 6 0
BBX 6 12 0 -3
BITMAP
00
00
00
48
48
78
48
48
48
00
00
00
ENDCHAR
STARTCHAR CySmlO
ENCODING 238
SWIDTH 840 0
DWIDTH 6 0
BBX 6 12 0 -3
BITMAP
00
00
00
30
48
48
48
48
30
00
00
00
ENDCHAR
STARTCHAR CySmlPe
ENCODING 239
SWIDTH 840 0
DWIDTH 6 0
BBX 6 12 0 -3
BITMAP
00
00
00
78
48
48
48
48
48
00
00
00
ENDCHAR
STARTCHAR CySmlEr
ENCODING 240
SWIDTH 840 0
DWIDTH 6 0
BBX 6 12 0 -3
BITMAP
00
00
00
70
48
48
48
48
70
40
40
00
ENDCHAR
STARTCHAR CySmlEs
ENCODING 241
SWIDTH 840 0
DWIDTH 6 0
BBX 6 12 0 -3
BITMAP
00
00
00
30
48
40
40
40
38
00
00
00
ENDCHAR
STARTCHAR CySmlTe
ENCODING 242
SWIDTH 840 0
DWIDTH 6 0
BBX 6 12 0 -3
BITMAP
00
00
00
7c
10
10
10
10
10
00
00
00
ENDCHAR
STARTCHAR CySmlU
ENCODING 243
SWIDTH 840 0
DWIDTH 6 0
BBX 6 12 0 -3
BITMAP
00
00
00
48
48
48
28
30
10
20
60
00
ENDCHAR
STARTCHAR CySmlEf
ENCODING 244
SWIDTH 840 0
DWIDTH 6 0
BBX 6 12 0 -3
BITMAP
00
10
10
38
54
54
54
54
38
10
10
00
ENDCHAR
STARTCHAR CySmlHa
ENCODING 245
SWIDTH 840 0
DWIDTH 6 0
BBX 6 12 0 -3
BITMAP
00
00
00
48
48
30
30
48
48
00
00
00
ENDCHAR
STARTCHAR CySmlTse
ENCODING 246
SWIDTH 840 0
DWIDTH 6 0
BBX 6 12 0 -3
BITMAP
00
00
00
48
48
48
48
48
7c
04
04
00
ENDCHAR
STARTCHAR CySmlChe
ENCODING 247
SWIDTH 840 0
DWIDTH 6 0
BBX 6 12 0 -3
BITMAP
00
00
00
48
48
48
38
08
08
00
00
00
ENDCHAR
STARTCHAR CySmlSha
ENCODING 248
SWIDTH 840 0
DWIDTH 6 0
BBX 6 12 0 -3
BITMAP
00
00
00
54
54
54
54
54
7c
00
00
00
ENDCHAR
STARTCHAR CySmlShcha
ENCODING 249
SWIDTH 840 0
DWIDTH 6 0
BBX 6 12 0 -3
BITMAP
00
00
00
54
54
54
54
54
7c
04
04
00
ENDCHAR
STARTCHAR CySmlHardsign
ENCODING 250
SWIDTH 840 0
DWIDTH 6 0
BBX 6 12 0 -3
BITMAP
00
00
00
70
50
18
14
14
18
00
00
00
ENDCHAR
STARTCHAR CySmlYeru
ENCODING 251
SWIDTH 840 0
DWIDTH 6 0
BBX 6 12 0 -3
BITMAP
00
00
00
44
44
64
54
54
64
00
00
00
ENDCHAR
STARTCHAR CySmlSoftsign
ENCODING 252
SWIDTH 840 0
DWIDTH 6 0
BBX 6 12 0 -3
BITMAP
00
00
00
40
40
70
48
48
70
00
00
00
ENDCHAR
STARTCHAR CySmlE
ENCODING 253
SWIDTH 840 0
DWIDTH 6 0
BBX 6 12 0 -3
BITMAP
00
00
00
70
08
38
08
08
70
00
00
00
ENDCHAR
STARTCHAR CySmlYu
ENCODING 254
SWIDTH 840 0
DWIDTH 6 0
BBX 6 12 0 -3
BITMAP
00
00
00
48
54
74
54
54
48
00
00
00
ENDCHAR
STARTCHAR CySmlYa
ENCODING 255
SWIDTH 840 0
DWIDTH 6 0
BBX 6 12 0 -3
BITMAP
00
00
00
38
48
38
28
48
48
00
00
00
ENDCHAR
ENDFONT
