STARTFONT 2.1
COMMENT 
COMMENT Copyright (C) 2012-2015 Uwe Waldmann
COMMENT 
COMMENT Permission is hereby granted, free of charge, to any person obtaining
COMMENT a copy of this font software and associated files (the "Software"),
COMMENT to deal in the Software without restriction, including without
COMMENT limitation the rights to use, copy, modify, merge, publish,
COMMENT distribute, embed, sublicense, and/or sell copies of the Software,
COMMENT and to permit persons to whom the Software is furnished to do so,
COMMENT subject to the following conditions:
COMMENT 
COMMENT (1) The above copyright notice, this permission notice, and the
COMMENT     disclaimer below shall be included in all copies or substantial
COMMENT     portions of the Software.
COMMENT 
COMMENT (2) If the design of any glyphs in the fonts that are contained in the
COMMENT     Software or generated during the installation process is modified
COMMENT     or if additional glyphs are added to the fonts, the fonts
COMMENT     must be renamed. The new names may not contain the word "UW",
COMMENT     irrespective of capitalisation; the new names may contain the word
COMMENT     "ttyp0", irrespective of capitalisation, only if preceded by a
COMMENT     foundry name different from "UW".
COMMENT 
COMMENT THE SOFTWARE IS PROVIDED "AS IS", WITHOUT WARRANTY OF ANY KIND, EXPRESS
COMMENT OR IMPLIED, INCLUDING BUT NOT LIMITED TO THE WARRANTIES OF
COMMENT MERCHANTABILITY, FITNESS FOR A PARTICULAR PURPOSE AND NONINFRINGEMENT.
COMMENT IN NO EVENT SHALL THE AUTHORS OR COPYRIGHT HOLDERS BE LIABLE FOR ANY
COMMENT CLAIM, DAMAGES OR OTHER LIABILITY, WHETHER IN AN ACTION OF CONTRACT,
COMMENT TORT OR OTHERWISE, ARISING FROM, OUT OF OR IN CONNECTION WITH THE
COMMENT SOFTWARE OR THE USE OR OTHER DEALINGS IN THE SOFTWARE.
COMMENT 
FONT -UW-Ttyp0-Bold-R-Normal--13-120-75-75-C-70-ISO8859-2
SIZE 13 75 75
FONTBOUNDINGBOX 7 13 0 -2
STARTPROPERTIES 19
FONTNAME_REGISTRY ""
FOUNDRY "UW"
FAMILY_NAME "Ttyp0"
WEIGHT_NAME "Bold"
SLANT "R"
SETWIDTH_NAME "Normal"
ADD_STYLE_NAME ""
PIXEL_SIZE 13
POINT_SIZE 120
RESOLUTION_X 75
RESOLUTION_Y 75
SPACING "C"
AVERAGE_WIDTH 70
CHARSET_REGISTRY "ISO8859"
CHARSET_ENCODING "2"
DEFAULT_CHAR 0
FONT_DESCENT 2
FONT_ASCENT 11
COPYRIGHT "Copyright (C) 2012-2015 Uwe Waldmann"
ENDPROPERTIES
CHARS 223
STARTCHAR DDefaultChar
ENCODING 0
SWIDTH 840 0
DWIDTH 7 0
BBX 7 13 0 -2
BITMAP
00
00
7e
00
66
00
66
00
66
00
7e
00
00
ENDCHAR
STARTCHAR DDiamondB
ENCODING 1
SWIDTH 840 0
DWIDTH 7 0
BBX 7 13 0 -2
BITMAP
00
00
00
10
38
7c
fe
7c
38
10
00
00
00
ENDCHAR
STARTCHAR GGrey
ENCODING 2
SWIDTH 840 0
DWIDTH 7 0
BBX 7 13 0 -2
BITMAP
54
aa
54
aa
54
aa
54
aa
54
aa
54
aa
54
ENDCHAR
STARTCHAR CtlHT
ENCODING 3
SWIDTH 840 0
DWIDTH 7 0
BBX 7 13 0 -2
BITMAP
00
6c
6c
7c
6c
6c
00
7e
18
18
18
18
00
ENDCHAR
STARTCHAR CtlFF
ENCODING 4
SWIDTH 840 0
DWIDTH 7 0
BBX 7 13 0 -2
BITMAP
00
7c
60
78
60
60
00
3e
30
3c
30
30
00
ENDCHAR
STARTCHAR CtlCR
ENCODING 5
SWIDTH 840 0
DWIDTH 7 0
BBX 7 13 0 -2
BITMAP
00
38
6c
60
6c
38
00
3c
36
3c
36
36
00
ENDCHAR
STARTCHAR CtlLF
ENCODING 6
SWIDTH 840 0
DWIDTH 7 0
BBX 7 13 0 -2
BITMAP
00
60
60
60
60
7c
00
3e
30
3c
30
30
00
ENDCHAR
STARTCHAR SDegree
ENCODING 7
SWIDTH 840 0
DWIDTH 7 0
BBX 7 13 0 -2
BITMAP
00
38
6c
6c
38
00
00
00
00
00
00
00
00
ENDCHAR
STARTCHAR MPlusMinus
ENCODING 8
SWIDTH 840 0
DWIDTH 7 0
BBX 7 13 0 -2
BITMAP
00
00
00
18
18
7e
7e
18
18
7e
7e
00
00
ENDCHAR
STARTCHAR CtlNL
ENCODING 9
SWIDTH 840 0
DWIDTH 7 0
BBX 7 13 0 -2
BITMAP
00
64
74
7c
5c
4c
00
30
30
30
30
3e
00
ENDCHAR
STARTCHAR CtlVT
ENCODING 10
SWIDTH 840 0
DWIDTH 7 0
BBX 7 13 0 -2
BITMAP
00
6c
68
38
30
10
00
7e
18
18
18
18
00
ENDCHAR
STARTCHAR GLineNW
ENCODING 11
SWIDTH 840 0
DWIDTH 7 0
BBX 7 13 0 -2
BITMAP
18
18
18
18
18
18
f8
f8
00
00
00
00
00
ENDCHAR
STARTCHAR GLineSW
ENCODING 12
SWIDTH 840 0
DWIDTH 7 0
BBX 7 13 0 -2
BITMAP
00
00
00
00
00
00
f8
f8
18
18
18
18
18
ENDCHAR
STARTCHAR GLineSE
ENCODING 13
SWIDTH 840 0
DWIDTH 7 0
BBX 7 13 0 -2
BITMAP
00
00
00
00
00
00
1e
1e
18
18
18
18
18
ENDCHAR
STARTCHAR GLineNE
ENCODING 14
SWIDTH 840 0
DWIDTH 7 0
BBX 7 13 0 -2
BITMAP
18
18
18
18
18
18
1e
1e
00
00
00
00
00
ENDCHAR
STARTCHAR GLineNSWE
ENCODING 15
SWIDTH 840 0
DWIDTH 7 0
BBX 7 13 0 -2
BITMAP
18
18
18
18
18
18
fe
fe
18
18
18
18
18
ENDCHAR
STARTCHAR GLineWEHhigh
ENCODING 16
SWIDTH 840 0
DWIDTH 7 0
BBX 7 13 0 -2
BITMAP
00
fe
fe
00
00
00
00
00
00
00
00
00
00
ENDCHAR
STARTCHAR GLineWEHigh
ENCODING 17
SWIDTH 840 0
DWIDTH 7 0
BBX 7 13 0 -2
BITMAP
00
00
00
fe
fe
00
00
00
00
00
00
00
00
ENDCHAR
STARTCHAR GLineWE
ENCODING 18
SWIDTH 840 0
DWIDTH 7 0
BBX 7 13 0 -2
BITMAP
00
00
00
00
00
00
fe
fe
00
00
00
00
00
ENDCHAR
STARTCHAR GLineWELow
ENCODING 19
SWIDTH 840 0
DWIDTH 7 0
BBX 7 13 0 -2
BITMAP
00
00
00
00
00
00
00
00
00
fe
fe
00
00
ENDCHAR
STARTCHAR GLineWELlow
ENCODING 20
SWIDTH 840 0
DWIDTH 7 0
BBX 7 13 0 -2
BITMAP
00
00
00
00
00
00
00
00
00
00
00
fe
fe
ENDCHAR
STARTCHAR GLineNSE
ENCODING 21
SWIDTH 840 0
DWIDTH 7 0
BBX 7 13 0 -2
BITMAP
18
18
18
18
18
18
1e
1e
18
18
18
18
18
ENDCHAR
STARTCHAR GLineNSW
ENCODING 22
SWIDTH 840 0
DWIDTH 7 0
BBX 7 13 0 -2
BITMAP
18
18
18
18
18
18
f8
f8
18
18
18
18
18
ENDCHAR
STARTCHAR GLineNWE
ENCODING 23
SWIDTH 840 0
DWIDTH 7 0
BBX 7 13 0 -2
BITMAP
18
18
18
18
18
18
fe
fe
00
00
00
00
00
ENDCHAR
STARTCHAR GLineSWE
ENCODING 24
SWIDTH 840 0
DWIDTH 7 0
BBX 7 13 0 -2
BITMAP
00
00
00
00
00
00
fe
fe
18
18
18
18
18
ENDCHAR
STARTCHAR GLineNS
ENCODING 25
SWIDTH 840 0
DWIDTH 7 0
BBX 7 13 0 -2
BITMAP
18
18
18
18
18
18
18
18
18
18
18
18
18
ENDCHAR
STARTCHAR MLessEq
ENCODING 26
SWIDTH 840 0
DWIDTH 7 0
BBX 7 13 0 -2
BITMAP
00
00
06
1c
30
60
30
1c
06
00
7e
7e
00
ENDCHAR
STARTCHAR MGreaterEq
ENCODING 27
SWIDTH 840 0
DWIDTH 7 0
BBX 7 13 0 -2
BITMAP
00
00
60
38
0c
06
0c
38
60
00
7e
7e
00
ENDCHAR
STARTCHAR GkSmlPi
ENCODING 28
SWIDTH 840 0
DWIDTH 7 0
BBX 7 13 0 -2
BITMAP
00
00
00
00
7e
7e
24
24
24
66
46
00
00
ENDCHAR
STARTCHAR MEqualNot
ENCODING 29
SWIDTH 840 0
DWIDTH 7 0
BBX 7 13 0 -2
BITMAP
00
00
04
0c
7e
7e
18
7e
7e
30
20
00
00
ENDCHAR
STARTCHAR CurrPound
ENCODING 30
SWIDTH 840 0
DWIDTH 7 0
BBX 7 13 0 -2
BITMAP
00
00
1c
36
36
30
78
30
22
7e
7e
00
00
ENDCHAR
STARTCHAR PMiddleDot
ENCODING 31
SWIDTH 840 0
DWIDTH 7 0
BBX 7 13 0 -2
BITMAP
00
00
00
00
00
00
18
18
00
00
00
00
00
ENDCHAR
STARTCHAR Space
ENCODING 32
SWIDTH 840 0
DWIDTH 7 0
BBX 7 13 0 -2
BITMAP
00
00
00
00
00
00
00
00
00
00
00
00
00
ENDCHAR
STARTCHAR PExclam
ENCODING 33
SWIDTH 840 0
DWIDTH 7 0
BBX 7 13 0 -2
BITMAP
00
18
18
18
18
18
18
18
00
18
18
00
00
ENDCHAR
STARTCHAR PQuote2Ascii
ENCODING 34
SWIDTH 840 0
DWIDTH 7 0
BBX 7 13 0 -2
BITMAP
00
6c
6c
6c
00
00
00
00
00
00
00
00
00
ENDCHAR
STARTCHAR SNumberSign
ENCODING 35
SWIDTH 840 0
DWIDTH 7 0
BBX 7 13 0 -2
BITMAP
00
00
24
24
7e
7e
24
7e
7e
24
24
00
00
ENDCHAR
STARTCHAR CurrDollar
ENCODING 36
SWIDTH 840 0
DWIDTH 7 0
BBX 7 13 0 -2
BITMAP
00
08
08
3e
6a
68
38
1c
16
56
7c
10
10
ENDCHAR
STARTCHAR SPercent
ENCODING 37
SWIDTH 840 0
DWIDTH 7 0
BBX 7 13 0 -2
BITMAP
00
00
22
76
54
78
34
1e
2a
6e
44
00
00
ENDCHAR
STARTCHAR SAmpersand
ENCODING 38
SWIDTH 840 0
DWIDTH 7 0
BBX 7 13 0 -2
BITMAP
00
00
18
34
34
18
3a
6a
6c
6c
36
00
00
ENDCHAR
STARTCHAR PApostropheAscii
ENCODING 39
SWIDTH 840 0
DWIDTH 7 0
BBX 7 13 0 -2
BITMAP
00
18
18
30
20
00
00
00
00
00
00
00
00
ENDCHAR
STARTCHAR PParenL
ENCODING 40
SWIDTH 840 0
DWIDTH 7 0
BBX 7 13 0 -2
BITMAP
0c
18
18
30
30
30
30
30
30
18
18
0c
00
ENDCHAR
STARTCHAR PParenR
ENCODING 41
SWIDTH 840 0
DWIDTH 7 0
BBX 7 13 0 -2
BITMAP
30
18
18
0c
0c
0c
0c
0c
0c
18
18
30
00
ENDCHAR
STARTCHAR SAsterisk
ENCODING 42
SWIDTH 840 0
DWIDTH 7 0
BBX 7 13 0 -2
BITMAP
00
00
00
08
6a
3e
18
7c
56
10
00
00
00
ENDCHAR
STARTCHAR MPlus
ENCODING 43
SWIDTH 840 0
DWIDTH 7 0
BBX 7 13 0 -2
BITMAP
00
00
00
00
18
18
7e
7e
18
18
00
00
00
ENDCHAR
STARTCHAR PComma
ENCODING 44
SWIDTH 840 0
DWIDTH 7 0
BBX 7 13 0 -2
BITMAP
00
00
00
00
00
00
00
00
00
18
18
30
20
ENDCHAR
STARTCHAR PHyphenMinus
ENCODING 45
SWIDTH 840 0
DWIDTH 7 0
BBX 7 13 0 -2
BITMAP
00
00
00
00
00
00
7e
7e
00
00
00
00
00
ENDCHAR
STARTCHAR PFullStop
ENCODING 46
SWIDTH 840 0
DWIDTH 7 0
BBX 7 13 0 -2
BITMAP
00
00
00
00
00
00
00
00
00
18
18
00
00
ENDCHAR
STARTCHAR PSolidus
ENCODING 47
SWIDTH 840 0
DWIDTH 7 0
BBX 7 13 0 -2
BITMAP
06
06
0c
0c
0c
18
18
30
30
30
60
60
00
ENDCHAR
STARTCHAR Digit0
ENCODING 48
SWIDTH 840 0
DWIDTH 7 0
BBX 7 13 0 -2
BITMAP
00
00
18
3c
66
66
66
66
66
3c
18
00
00
ENDCHAR
STARTCHAR Digit1
ENCODING 49
SWIDTH 840 0
DWIDTH 7 0
BBX 7 13 0 -2
BITMAP
00
00
0c
1c
3c
2c
0c
0c
0c
0c
0c
00
00
ENDCHAR
STARTCHAR Digit2
ENCODING 50
SWIDTH 840 0
DWIDTH 7 0
BBX 7 13 0 -2
BITMAP
00
00
3c
66
66
06
0c
18
22
7e
7e
00
00
ENDCHAR
STARTCHAR Digit3
ENCODING 51
SWIDTH 840 0
DWIDTH 7 0
BBX 7 13 0 -2
BITMAP
00
00
3c
66
66
06
1c
06
66
66
3c
00
00
ENDCHAR
STARTCHAR Digit4
ENCODING 52
SWIDTH 840 0
DWIDTH 7 0
BBX 7 13 0 -2
BITMAP
00
00
0c
1c
1c
2c
2c
4c
7e
0c
0c
00
00
ENDCHAR
STARTCHAR Digit5
ENCODING 53
SWIDTH 840 0
DWIDTH 7 0
BBX 7 13 0 -2
BITMAP
00
00
3c
3c
20
3c
26
06
66
66
3c
00
00
ENDCHAR
STARTCHAR Digit6
ENCODING 54
SWIDTH 840 0
DWIDTH 7 0
BBX 7 13 0 -2
BITMAP
00
00
1c
30
60
60
7c
66
66
66
3c
00
00
ENDCHAR
STARTCHAR Digit7
ENCODING 55
SWIDTH 840 0
DWIDTH 7 0
BBX 7 13 0 -2
BITMAP
00
00
7e
7e
44
0c
18
18
30
30
30
00
00
ENDCHAR
STARTCHAR Digit8
ENCODING 56
SWIDTH 840 0
DWIDTH 7 0
BBX 7 13 0 -2
BITMAP
00
00
3c
66
66
34
3c
2e
66
66
3c
00
00
ENDCHAR
STARTCHAR Digit9
ENCODING 57
SWIDTH 840 0
DWIDTH 7 0
BBX 7 13 0 -2
BITMAP
00
00
3c
66
66
66
3e
06
06
0c
38
00
00
ENDCHAR
STARTCHAR PColon
ENCODING 58
SWIDTH 840 0
DWIDTH 7 0
BBX 7 13 0 -2
BITMAP
00
00
00
00
00
18
18
00
00
18
18
00
00
ENDCHAR
STARTCHAR PSemicolon
ENCODING 59
SWIDTH 840 0
DWIDTH 7 0
BBX 7 13 0 -2
BITMAP
00
00
00
00
00
18
18
00
00
18
18
30
20
ENDCHAR
STARTCHAR MLess
ENCODING 60
SWIDTH 840 0
DWIDTH 7 0
BBX 7 13 0 -2
BITMAP
00
00
06
0c
18
30
60
30
18
0c
06
00
00
ENDCHAR
STARTCHAR MEqual
ENCODING 61
SWIDTH 840 0
DWIDTH 7 0
BBX 7 13 0 -2
BITMAP
00
00
00
00
7e
7e
00
7e
7e
00
00
00
00
ENDCHAR
STARTCHAR MGreater
ENCODING 62
SWIDTH 840 0
DWIDTH 7 0
BBX 7 13 0 -2
BITMAP
00
00
60
30
18
0c
06
0c
18
30
60
00
00
ENDCHAR
STARTCHAR PQuestion
ENCODING 63
SWIDTH 840 0
DWIDTH 7 0
BBX 7 13 0 -2
BITMAP
00
3c
66
66
06
0c
18
18
00
18
18
00
00
ENDCHAR
STARTCHAR SCommercialAt
ENCODING 64
SWIDTH 840 0
DWIDTH 7 0
BBX 7 13 0 -2
BITMAP
00
00
1c
36
6a
5e
52
5e
6e
30
1e
00
00
ENDCHAR
STARTCHAR LtCapA
ENCODING 65
SWIDTH 840 0
DWIDTH 7 0
BBX 7 13 0 -2
BITMAP
00
00
18
18
18
3c
2c
2c
7e
46
46
00
00
ENDCHAR
STARTCHAR LtCapB
ENCODING 66
SWIDTH 840 0
DWIDTH 7 0
BBX 7 13 0 -2
BITMAP
00
00
7c
66
66
64
7c
66
66
66
7c
00
00
ENDCHAR
STARTCHAR LtCapC
ENCODING 67
SWIDTH 840 0
DWIDTH 7 0
BBX 7 13 0 -2
BITMAP
00
00
1c
36
60
60
60
60
60
36
1c
00
00
ENDCHAR
STARTCHAR LtCapD
ENCODING 68
SWIDTH 840 0
DWIDTH 7 0
BBX 7 13 0 -2
BITMAP
00
00
78
64
66
66
66
66
66
64
78
00
00
ENDCHAR
STARTCHAR LtCapE
ENCODING 69
SWIDTH 840 0
DWIDTH 7 0
BBX 7 13 0 -2
BITMAP
00
00
7e
62
60
64
7c
64
60
62
7e
00
00
ENDCHAR
STARTCHAR LtCapF
ENCODING 70
SWIDTH 840 0
DWIDTH 7 0
BBX 7 13 0 -2
BITMAP
00
00
7e
62
60
64
7c
64
60
60
60
00
00
ENDCHAR
STARTCHAR LtCapG
ENCODING 71
SWIDTH 840 0
DWIDTH 7 0
BBX 7 13 0 -2
BITMAP
00
00
1c
36
60
60
6e
66
66
36
1e
00
00
ENDCHAR
STARTCHAR LtCapH
ENCODING 72
SWIDTH 840 0
DWIDTH 7 0
BBX 7 13 0 -2
BITMAP
00
00
66
66
66
66
7e
66
66
66
66
00
00
ENDCHAR
STARTCHAR LtCapI
ENCODING 73
SWIDTH 840 0
DWIDTH 7 0
BBX 7 13 0 -2
BITMAP
00
00
7e
18
18
18
18
18
18
18
7e
00
00
ENDCHAR
STARTCHAR LtCapJ
ENCODING 74
SWIDTH 840 0
DWIDTH 7 0
BBX 7 13 0 -2
BITMAP
00
00
1e
0c
0c
0c
0c
0c
6c
6c
38
00
00
ENDCHAR
STARTCHAR LtCapK
ENCODING 75
SWIDTH 840 0
DWIDTH 7 0
BBX 7 13 0 -2
BITMAP
00
00
66
64
68
78
78
6c
6c
66
66
00
00
ENDCHAR
STARTCHAR LtCapL
ENCODING 76
SWIDTH 840 0
DWIDTH 7 0
BBX 7 13 0 -2
BITMAP
00
00
60
60
60
60
60
60
60
62
7e
00
00
ENDCHAR
STARTCHAR LtCapM
ENCODING 77
SWIDTH 840 0
DWIDTH 7 0
BBX 7 13 0 -2
BITMAP
00
00
42
66
7e
7e
56
56
46
46
46
00
00
ENDCHAR
STARTCHAR LtCapN
ENCODING 78
SWIDTH 840 0
DWIDTH 7 0
BBX 7 13 0 -2
BITMAP
00
00
62
72
72
5a
5a
4e
4e
46
46
00
00
ENDCHAR
STARTCHAR LtCapO
ENCODING 79
SWIDTH 840 0
DWIDTH 7 0
BBX 7 13 0 -2
BITMAP
00
00
3c
66
66
66
66
66
66
66
3c
00
00
ENDCHAR
STARTCHAR LtCapP
ENCODING 80
SWIDTH 840 0
DWIDTH 7 0
BBX 7 13 0 -2
BITMAP
00
00
7c
66
66
66
7c
60
60
60
60
00
00
ENDCHAR
STARTCHAR LtCapQ
ENCODING 81
SWIDTH 840 0
DWIDTH 7 0
BBX 7 13 0 -2
BITMAP
00
00
3c
66
66
66
66
66
76
6e
3c
06
02
ENDCHAR
STARTCHAR LtCapR
ENCODING 82
SWIDTH 840 0
DWIDTH 7 0
BBX 7 13 0 -2
BITMAP
00
00
7c
66
66
66
7c
68
6c
66
66
00
00
ENDCHAR
STARTCHAR LtCapS
ENCODING 83
SWIDTH 840 0
DWIDTH 7 0
BBX 7 13 0 -2
BITMAP
00
00
3c
66
60
70
3c
0e
06
66
3c
00
00
ENDCHAR
STARTCHAR LtCapT
ENCODING 84
SWIDTH 840 0
DWIDTH 7 0
BBX 7 13 0 -2
BITMAP
00
00
7e
5a
18
18
18
18
18
18
18
00
00
ENDCHAR
STARTCHAR LtCapU
ENCODING 85
SWIDTH 840 0
DWIDTH 7 0
BBX 7 13 0 -2
BITMAP
00
00
66
66
66
66
66
66
66
66
3c
00
00
ENDCHAR
STARTCHAR LtCapV
ENCODING 86
SWIDTH 840 0
DWIDTH 7 0
BBX 7 13 0 -2
BITMAP
00
00
62
62
36
34
34
1c
18
18
08
00
00
ENDCHAR
STARTCHAR LtCapW
ENCODING 87
SWIDTH 840 0
DWIDTH 7 0
BBX 7 13 0 -2
BITMAP
00
00
62
62
62
6a
6a
7e
3c
34
34
00
00
ENDCHAR
STARTCHAR LtCapX
ENCODING 88
SWIDTH 840 0
DWIDTH 7 0
BBX 7 13 0 -2
BITMAP
00
00
66
66
34
38
18
1c
2c
66
66
00
00
ENDCHAR
STARTCHAR LtCapY
ENCODING 89
SWIDTH 840 0
DWIDTH 7 0
BBX 7 13 0 -2
BITMAP
00
00
66
66
34
38
18
18
18
18
18
00
00
ENDCHAR
STARTCHAR LtCapZ
ENCODING 90
SWIDTH 840 0
DWIDTH 7 0
BBX 7 13 0 -2
BITMAP
00
00
7e
46
0c
0c
18
30
30
62
7e
00
00
ENDCHAR
STARTCHAR PSquareBrackL
ENCODING 91
SWIDTH 840 0
DWIDTH 7 0
BBX 7 13 0 -2
BITMAP
7c
60
60
60
60
60
60
60
60
60
60
7c
00
ENDCHAR
STARTCHAR PRevSolidus
ENCODING 92
SWIDTH 840 0
DWIDTH 7 0
BBX 7 13 0 -2
BITMAP
60
60
30
30
30
18
18
0c
0c
0c
06
06
00
ENDCHAR
STARTCHAR PSquareBrackR
ENCODING 93
SWIDTH 840 0
DWIDTH 7 0
BBX 7 13 0 -2
BITMAP
7c
0c
0c
0c
0c
0c
0c
0c
0c
0c
0c
7c
00
ENDCHAR
STARTCHAR AccCircumAscii
ENCODING 94
SWIDTH 840 0
DWIDTH 7 0
BBX 7 13 0 -2
BITMAP
00
00
18
3c
66
00
00
00
00
00
00
00
00
ENDCHAR
STARTCHAR OLowline
ENCODING 95
SWIDTH 840 0
DWIDTH 7 0
BBX 7 13 0 -2
BITMAP
00
00
00
00
00
00
00
00
00
00
7e
7e
00
ENDCHAR
STARTCHAR AccGraveAscii
ENCODING 96
SWIDTH 840 0
DWIDTH 7 0
BBX 7 13 0 -2
BITMAP
00
30
30
18
08
00
00
00
00
00
00
00
00
ENDCHAR
STARTCHAR LtSmlA
ENCODING 97
SWIDTH 840 0
DWIDTH 7 0
BBX 7 13 0 -2
BITMAP
00
00
00
00
3c
36
06
3e
66
66
3e
00
00
ENDCHAR
STARTCHAR LtSmlB
ENCODING 98
SWIDTH 840 0
DWIDTH 7 0
BBX 7 13 0 -2
BITMAP
00
60
60
60
6c
76
66
66
66
76
6c
00
00
ENDCHAR
STARTCHAR LtSmlC
ENCODING 99
SWIDTH 840 0
DWIDTH 7 0
BBX 7 13 0 -2
BITMAP
00
00
00
00
3c
66
60
60
60
66
3c
00
00
ENDCHAR
STARTCHAR LtSmlD
ENCODING 100
SWIDTH 840 0
DWIDTH 7 0
BBX 7 13 0 -2
BITMAP
00
06
06
06
36
6e
66
66
66
6e
36
00
00
ENDCHAR
STARTCHAR LtSmlE
ENCODING 101
SWIDTH 840 0
DWIDTH 7 0
BBX 7 13 0 -2
BITMAP
00
00
00
00
3c
66
66
7e
60
66
3c
00
00
ENDCHAR
STARTCHAR LtSmlF
ENCODING 102
SWIDTH 840 0
DWIDTH 7 0
BBX 7 13 0 -2
BITMAP
00
0e
1a
18
18
7e
18
18
18
18
18
00
00
ENDCHAR
STARTCHAR LtSmlG
ENCODING 103
SWIDTH 840 0
DWIDTH 7 0
BBX 7 13 0 -2
BITMAP
00
00
00
00
3e
66
66
66
6e
36
06
66
3c
ENDCHAR
STARTCHAR LtSmlH
ENCODING 104
SWIDTH 840 0
DWIDTH 7 0
BBX 7 13 0 -2
BITMAP
00
60
60
60
6c
76
66
66
66
66
66
00
00
ENDCHAR
STARTCHAR LtSmlI
ENCODING 105
SWIDTH 840 0
DWIDTH 7 0
BBX 7 13 0 -2
BITMAP
00
18
18
00
38
18
18
18
18
18
7e
00
00
ENDCHAR
STARTCHAR LtSmlJ
ENCODING 106
SWIDTH 840 0
DWIDTH 7 0
BBX 7 13 0 -2
BITMAP
00
0c
0c
00
3c
0c
0c
0c
0c
0c
0c
6c
38
ENDCHAR
STARTCHAR LtSmlK
ENCODING 107
SWIDTH 840 0
DWIDTH 7 0
BBX 7 13 0 -2
BITMAP
00
60
60
60
66
64
68
78
6c
66
66
00
00
ENDCHAR
STARTCHAR LtSmlL
ENCODING 108
SWIDTH 840 0
DWIDTH 7 0
BBX 7 13 0 -2
BITMAP
00
38
18
18
18
18
18
18
18
18
7e
00
00
ENDCHAR
STARTCHAR LtSmlM
ENCODING 109
SWIDTH 840 0
DWIDTH 7 0
BBX 7 13 0 -2
BITMAP
00
00
00
00
6c
7e
7e
6a
6a
6a
6a
00
00
ENDCHAR
STARTCHAR LtSmlN
ENCODING 110
SWIDTH 840 0
DWIDTH 7 0
BBX 7 13 0 -2
BITMAP
00
00
00
00
6c
76
66
66
66
66
66
00
00
ENDCHAR
STARTCHAR LtSmlO
ENCODING 111
SWIDTH 840 0
DWIDTH 7 0
BBX 7 13 0 -2
BITMAP
00
00
00
00
3c
66
66
66
66
66
3c
00
00
ENDCHAR
STARTCHAR LtSmlP
ENCODING 112
SWIDTH 840 0
DWIDTH 7 0
BBX 7 13 0 -2
BITMAP
00
00
00
00
6c
76
66
66
66
76
6c
60
60
ENDCHAR
STARTCHAR LtSmlQ
ENCODING 113
SWIDTH 840 0
DWIDTH 7 0
BBX 7 13 0 -2
BITMAP
00
00
00
00
36
6e
66
66
66
6e
36
06
06
ENDCHAR
STARTCHAR LtSmlR
ENCODING 114
SWIDTH 840 0
DWIDTH 7 0
BBX 7 13 0 -2
BITMAP
00
00
00
00
76
3e
30
30
30
30
30
00
00
ENDCHAR
STARTCHAR LtSmlS
ENCODING 115
SWIDTH 840 0
DWIDTH 7 0
BBX 7 13 0 -2
BITMAP
00
00
00
00
3c
66
60
3c
06
66
3c
00
00
ENDCHAR
STARTCHAR LtSmlT
ENCODING 116
SWIDTH 840 0
DWIDTH 7 0
BBX 7 13 0 -2
BITMAP
00
00
30
30
7c
30
30
30
30
36
1c
00
00
ENDCHAR
STARTCHAR LtSmlU
ENCODING 117
SWIDTH 840 0
DWIDTH 7 0
BBX 7 13 0 -2
BITMAP
00
00
00
00
66
66
66
66
66
6e
36
00
00
ENDCHAR
STARTCHAR LtSmlV
ENCODING 118
SWIDTH 840 0
DWIDTH 7 0
BBX 7 13 0 -2
BITMAP
00
00
00
00
62
62
36
34
1c
18
08
00
00
ENDCHAR
STARTCHAR LtSmlW
ENCODING 119
SWIDTH 840 0
DWIDTH 7 0
BBX 7 13 0 -2
BITMAP
00
00
00
00
62
6a
6a
6a
7e
34
34
00
00
ENDCHAR
STARTCHAR LtSmlX
ENCODING 120
SWIDTH 840 0
DWIDTH 7 0
BBX 7 13 0 -2
BITMAP
00
00
00
00
66
64
38
18
1c
26
66
00
00
ENDCHAR
STARTCHAR LtSmlY
ENCODING 121
SWIDTH 840 0
DWIDTH 7 0
BBX 7 13 0 -2
BITMAP
00
00
00
00
62
62
34
34
1c
18
08
58
70
ENDCHAR
STARTCHAR LtSmlZ
ENCODING 122
SWIDTH 840 0
DWIDTH 7 0
BBX 7 13 0 -2
BITMAP
00
00
00
00
7e
4e
0c
18
30
72
7e
00
00
ENDCHAR
STARTCHAR PCurlyBrackL
ENCODING 123
SWIDTH 840 0
DWIDTH 7 0
BBX 7 13 0 -2
BITMAP
0e
18
18
18
18
70
70
18
18
18
18
0e
00
ENDCHAR
STARTCHAR OVertBar
ENCODING 124
SWIDTH 840 0
DWIDTH 7 0
BBX 7 13 0 -2
BITMAP
18
18
18
18
18
18
18
18
18
18
18
18
00
ENDCHAR
STARTCHAR PCurlyBrackR
ENCODING 125
SWIDTH 840 0
DWIDTH 7 0
BBX 7 13 0 -2
BITMAP
70
18
18
18
18
0e
0e
18
18
18
18
70
00
ENDCHAR
STARTCHAR AccTildeAscii
ENCODING 126
SWIDTH 840 0
DWIDTH 7 0
BBX 7 13 0 -2
BITMAP
00
32
7a
5e
4c
00
00
00
00
00
00
00
00
ENDCHAR
STARTCHAR SpaceNoBreak
ENCODING 160
SWIDTH 840 0
DWIDTH 7 0
BBX 7 13 0 -2
BITMAP
00
00
00
00
00
00
00
00
42
42
7e
7e
00
ENDCHAR
STARTCHAR LtCapAOgonek
ENCODING 161
SWIDTH 840 0
DWIDTH 7 0
BBX 7 13 0 -2
BITMAP
00
00
18
18
18
3c
2c
2c
7e
46
46
0c
06
ENDCHAR
STARTCHAR AccBreve
ENCODING 162
SWIDTH 840 0
DWIDTH 7 0
BBX 7 13 0 -2
BITMAP
00
6c
6c
38
00
00
00
00
00
00
00
00
00
ENDCHAR
STARTCHAR LtCapLStroke
ENCODING 163
SWIDTH 840 0
DWIDTH 7 0
BBX 7 13 0 -2
BITMAP
00
00
60
60
68
78
60
e0
60
62
7e
00
00
ENDCHAR
STARTCHAR CurrGeneral
ENCODING 164
SWIDTH 840 0
DWIDTH 7 0
BBX 7 13 0 -2
BITMAP
00
00
00
00
66
7e
24
24
7e
66
00
00
00
ENDCHAR
STARTCHAR LtCapLCaron
ENCODING 165
SWIDTH 840 0
DWIDTH 7 0
BBX 7 13 0 -2
BITMAP
00
06
66
62
64
60
60
60
60
62
7e
00
00
ENDCHAR
STARTCHAR LtCapSAcute
ENCODING 166
SWIDTH 840 0
DWIDTH 7 0
BBX 7 13 0 -2
BITMAP
0e
18
00
3c
66
60
38
1c
06
66
3c
00
00
ENDCHAR
STARTCHAR SParagraph
ENCODING 167
SWIDTH 840 0
DWIDTH 7 0
BBX 7 13 0 -2
BITMAP
00
00
38
6c
20
70
58
6c
34
1c
08
6c
38
ENDCHAR
STARTCHAR AccDrss
ENCODING 168
SWIDTH 840 0
DWIDTH 7 0
BBX 7 13 0 -2
BITMAP
00
6c
6c
00
00
00
00
00
00
00
00
00
00
ENDCHAR
STARTCHAR LtCapSCaron
ENCODING 169
SWIDTH 840 0
DWIDTH 7 0
BBX 7 13 0 -2
BITMAP
36
1c
00
3c
66
60
38
1c
06
66
3c
00
00
ENDCHAR
STARTCHAR LtCapSComma
ENCODING 170
SWIDTH 840 0
DWIDTH 7 0
BBX 7 13 0 -2
BITMAP
00
00
3c
66
60
70
3c
0e
06
66
3c
18
30
ENDCHAR
STARTCHAR LtCapTCaron
ENCODING 171
SWIDTH 840 0
DWIDTH 7 0
BBX 7 13 0 -2
BITMAP
36
1c
00
7e
5a
18
18
18
18
18
18
00
00
ENDCHAR
STARTCHAR LtCapZAcute
ENCODING 172
SWIDTH 840 0
DWIDTH 7 0
BBX 7 13 0 -2
BITMAP
0e
18
00
7e
46
0c
18
18
30
62
7e
00
00
ENDCHAR
STARTCHAR PHyphenSoft
ENCODING 173
SWIDTH 840 0
DWIDTH 7 0
BBX 7 13 0 -2
BITMAP
00
00
00
00
00
00
3c
3c
00
00
00
00
00
ENDCHAR
STARTCHAR LtCapZCaron
ENCODING 174
SWIDTH 840 0
DWIDTH 7 0
BBX 7 13 0 -2
BITMAP
36
1c
00
7e
46
0c
18
18
30
62
7e
00
00
ENDCHAR
STARTCHAR LtCapZDot
ENCODING 175
SWIDTH 840 0
DWIDTH 7 0
BBX 7 13 0 -2
BITMAP
18
18
00
7e
46
0c
18
18
30
62
7e
00
00
ENDCHAR
STARTCHAR SDegree
ENCODING 176
SWIDTH 840 0
DWIDTH 7 0
BBX 7 13 0 -2
BITMAP
00
38
6c
6c
38
00
00
00
00
00
00
00
00
ENDCHAR
STARTCHAR LtSmlAOgonek
ENCODING 177
SWIDTH 840 0
DWIDTH 7 0
BBX 7 13 0 -2
BITMAP
00
00
00
00
3c
36
06
3e
66
66
3e
0c
06
ENDCHAR
STARTCHAR AccOgonek
ENCODING 178
SWIDTH 840 0
DWIDTH 7 0
BBX 7 13 0 -2
BITMAP
00
00
00
00
00
00
00
00
00
18
30
3c
18
ENDCHAR
STARTCHAR LtSmlLStroke
ENCODING 179
SWIDTH 840 0
DWIDTH 7 0
BBX 7 13 0 -2
BITMAP
00
38
18
18
1c
1c
38
38
18
18
7e
00
00
ENDCHAR
STARTCHAR AccAcute
ENCODING 180
SWIDTH 840 0
DWIDTH 7 0
BBX 7 13 0 -2
BITMAP
00
0c
18
30
20
00
00
00
00
00
00
00
00
ENDCHAR
STARTCHAR LtSmlLCaron
ENCODING 181
SWIDTH 840 0
DWIDTH 7 0
BBX 7 13 0 -2
BITMAP
06
76
32
34
30
30
30
30
30
30
78
00
00
ENDCHAR
STARTCHAR LtSmlSAcute
ENCODING 182
SWIDTH 840 0
DWIDTH 7 0
BBX 7 13 0 -2
BITMAP
06
0c
08
00
3c
66
60
3c
06
66
3c
00
00
ENDCHAR
STARTCHAR AccCaron
ENCODING 183
SWIDTH 840 0
DWIDTH 7 0
BBX 7 13 0 -2
BITMAP
00
6c
38
10
00
00
00
00
00
00
00
00
00
ENDCHAR
STARTCHAR AccCedilla
ENCODING 184
SWIDTH 840 0
DWIDTH 7 0
BBX 7 13 0 -2
BITMAP
00
00
00
00
00
00
00
00
00
18
0c
0c
38
ENDCHAR
STARTCHAR LtSmlSCaron
ENCODING 185
SWIDTH 840 0
DWIDTH 7 0
BBX 7 13 0 -2
BITMAP
24
3c
18
00
3c
66
60
3c
06
66
3c
00
00
ENDCHAR
STARTCHAR LtSmlSComma
ENCODING 186
SWIDTH 840 0
DWIDTH 7 0
BBX 7 13 0 -2
BITMAP
00
00
00
00
3c
66
60
3c
06
66
3c
18
30
ENDCHAR
STARTCHAR LtSmlTCaron
ENCODING 187
SWIDTH 840 0
DWIDTH 7 0
BBX 7 13 0 -2
BITMAP
06
06
32
34
7c
30
30
30
30
36
1c
00
00
ENDCHAR
STARTCHAR LtSmlZAcute
ENCODING 188
SWIDTH 840 0
DWIDTH 7 0
BBX 7 13 0 -2
BITMAP
06
0c
08
00
7e
4e
0c
18
30
72
7e
00
00
ENDCHAR
STARTCHAR AccAcute2
ENCODING 189
SWIDTH 840 0
DWIDTH 7 0
BBX 7 13 0 -2
BITMAP
00
36
6c
48
00
00
00
00
00
00
00
00
00
ENDCHAR
STARTCHAR LtSmlZCaron
ENCODING 190
SWIDTH 840 0
DWIDTH 7 0
BBX 7 13 0 -2
BITMAP
24
3c
18
00
7e
4e
0c
18
30
72
7e
00
00
ENDCHAR
STARTCHAR LtSmlZDot
ENCODING 191
SWIDTH 840 0
DWIDTH 7 0
BBX 7 13 0 -2
BITMAP
00
18
18
00
7e
4e
0c
18
30
72
7e
00
00
ENDCHAR
STARTCHAR LtCapRAcute
ENCODING 192
SWIDTH 840 0
DWIDTH 7 0
BBX 7 13 0 -2
BITMAP
0e
18
00
7c
66
66
7c
68
6c
66
66
00
00
ENDCHAR
STARTCHAR LtCapAAcute
ENCODING 193
SWIDTH 840 0
DWIDTH 7 0
BBX 7 13 0 -2
BITMAP
0e
18
00
18
18
3c
2c
2c
7e
46
46
00
00
ENDCHAR
STARTCHAR LtCapACircum
ENCODING 194
SWIDTH 840 0
DWIDTH 7 0
BBX 7 13 0 -2
BITMAP
1c
36
00
18
18
3c
2c
2c
7e
46
46
00
00
ENDCHAR
STARTCHAR LtCapABreve
ENCODING 195
SWIDTH 840 0
DWIDTH 7 0
BBX 7 13 0 -2
BITMAP
36
1c
00
18
18
3c
2c
2c
7e
46
46
00
00
ENDCHAR
STARTCHAR LtCapADrss
ENCODING 196
SWIDTH 840 0
DWIDTH 7 0
BBX 7 13 0 -2
BITMAP
36
36
00
18
18
3c
2c
2c
7e
46
46
00
00
ENDCHAR
STARTCHAR LtCapLAcute
ENCODING 197
SWIDTH 840 0
DWIDTH 7 0
BBX 7 13 0 -2
BITMAP
0e
18
00
60
60
60
60
60
60
62
7e
00
00
ENDCHAR
STARTCHAR LtCapCAcute
ENCODING 198
SWIDTH 840 0
DWIDTH 7 0
BBX 7 13 0 -2
BITMAP
0e
18
00
1c
36
60
60
60
60
36
1c
00
00
ENDCHAR
STARTCHAR LtCapCCedilla
ENCODING 199
SWIDTH 840 0
DWIDTH 7 0
BBX 7 13 0 -2
BITMAP
00
00
1c
36
60
60
60
60
60
36
1c
18
30
ENDCHAR
STARTCHAR LtCapCCaron
ENCODING 200
SWIDTH 840 0
DWIDTH 7 0
BBX 7 13 0 -2
BITMAP
36
1c
00
1c
36
60
60
60
60
36
1c
00
00
ENDCHAR
STARTCHAR LtCapEAcute
ENCODING 201
SWIDTH 840 0
DWIDTH 7 0
BBX 7 13 0 -2
BITMAP
0e
18
00
7e
62
60
7c
64
60
62
7e
00
00
ENDCHAR
STARTCHAR LtCapEOgonek
ENCODING 202
SWIDTH 840 0
DWIDTH 7 0
BBX 7 13 0 -2
BITMAP
00
00
7e
62
60
64
7c
64
60
62
7e
0c
06
ENDCHAR
STARTCHAR LtCapEDrss
ENCODING 203
SWIDTH 840 0
DWIDTH 7 0
BBX 7 13 0 -2
BITMAP
36
36
00
7e
62
60
7c
64
60
62
7e
00
00
ENDCHAR
STARTCHAR LtCapECaron
ENCODING 204
SWIDTH 840 0
DWIDTH 7 0
BBX 7 13 0 -2
BITMAP
36
1c
00
7e
62
60
7c
64
60
62
7e
00
00
ENDCHAR
STARTCHAR LtCapIAcute
ENCODING 205
SWIDTH 840 0
DWIDTH 7 0
BBX 7 13 0 -2
BITMAP
0e
18
00
7e
18
18
18
18
18
18
7e
00
00
ENDCHAR
STARTCHAR LtCapICircum
ENCODING 206
SWIDTH 840 0
DWIDTH 7 0
BBX 7 13 0 -2
BITMAP
1c
36
00
7e
18
18
18
18
18
18
7e
00
00
ENDCHAR
STARTCHAR LtCapDCaron
ENCODING 207
SWIDTH 840 0
DWIDTH 7 0
BBX 7 13 0 -2
BITMAP
6c
38
00
78
64
66
66
66
66
64
78
00
00
ENDCHAR
STARTCHAR LtCapDStroke
ENCODING 208
SWIDTH 840 0
DWIDTH 7 0
BBX 7 13 0 -2
BITMAP
00
00
78
64
66
66
f6
66
66
64
78
00
00
ENDCHAR
STARTCHAR LtCapNAcute
ENCODING 209
SWIDTH 840 0
DWIDTH 7 0
BBX 7 13 0 -2
BITMAP
0e
18
00
62
72
72
5a
5a
4e
4e
46
00
00
ENDCHAR
STARTCHAR LtCapNCaron
ENCODING 210
SWIDTH 840 0
DWIDTH 7 0
BBX 7 13 0 -2
BITMAP
36
1c
00
62
72
72
5a
5a
4e
4e
46
00
00
ENDCHAR
STARTCHAR LtCapOAcute
ENCODING 211
SWIDTH 840 0
DWIDTH 7 0
BBX 7 13 0 -2
BITMAP
0e
18
00
3c
66
66
66
66
66
66
3c
00
00
ENDCHAR
STARTCHAR LtCapOCircum
ENCODING 212
SWIDTH 840 0
DWIDTH 7 0
BBX 7 13 0 -2
BITMAP
1c
36
00
3c
66
66
66
66
66
66
3c
00
00
ENDCHAR
STARTCHAR LtCapOAcute2
ENCODING 213
SWIDTH 840 0
DWIDTH 7 0
BBX 7 13 0 -2
BITMAP
1a
36
2c
3c
66
66
66
66
66
66
3c
00
00
ENDCHAR
STARTCHAR LtCapODrss
ENCODING 214
SWIDTH 840 0
DWIDTH 7 0
BBX 7 13 0 -2
BITMAP
36
36
00
3c
66
66
66
66
66
66
3c
00
00
ENDCHAR
STARTCHAR MMultiply
ENCODING 215
SWIDTH 840 0
DWIDTH 7 0
BBX 7 13 0 -2
BITMAP
00
00
00
00
66
3c
18
3c
66
00
00
00
00
ENDCHAR
STARTCHAR LtCapRCaron
ENCODING 216
SWIDTH 840 0
DWIDTH 7 0
BBX 7 13 0 -2
BITMAP
36
1c
00
7c
66
66
7c
68
6c
66
66
00
00
ENDCHAR
STARTCHAR LtCapURing
ENCODING 217
SWIDTH 840 0
DWIDTH 7 0
BBX 7 13 0 -2
BITMAP
18
34
18
66
66
66
66
66
66
66
3c
00
00
ENDCHAR
STARTCHAR LtCapUAcute
ENCODING 218
SWIDTH 840 0
DWIDTH 7 0
BBX 7 13 0 -2
BITMAP
0e
18
00
66
66
66
66
66
66
66
3c
00
00
ENDCHAR
STARTCHAR LtCapUAcute2
ENCODING 219
SWIDTH 840 0
DWIDTH 7 0
BBX 7 13 0 -2
BITMAP
36
6c
48
66
66
66
66
66
66
66
3c
00
00
ENDCHAR
STARTCHAR LtCapUDrss
ENCODING 220
SWIDTH 840 0
DWIDTH 7 0
BBX 7 13 0 -2
BITMAP
36
36
00
66
66
66
66
66
66
66
3c
00
00
ENDCHAR
STARTCHAR LtCapYAcute
ENCODING 221
SWIDTH 840 0
DWIDTH 7 0
BBX 7 13 0 -2
BITMAP
0e
18
00
66
66
34
38
18
18
18
18
00
00
ENDCHAR
STARTCHAR LtCapTComma
ENCODING 222
SWIDTH 840 0
DWIDTH 7 0
BBX 7 13 0 -2
BITMAP
00
00
7e
5a
18
18
18
18
18
18
18
0c
18
ENDCHAR
STARTCHAR LtSmlSz
ENCODING 223
SWIDTH 840 0
DWIDTH 7 0
BBX 7 13 0 -2
BITMAP
00
38
6c
6c
68
6c
66
66
66
66
6c
00
00
ENDCHAR
STARTCHAR LtSmlRAcute
ENCODING 224
SWIDTH 840 0
DWIDTH 7 0
BBX 7 13 0 -2
BITMAP
06
0c
08
00
76
3e
30
30
30
30
30
00
00
ENDCHAR
STARTCHAR LtSmlAAcute
ENCODING 225
SWIDTH 840 0
DWIDTH 7 0
BBX 7 13 0 -2
BITMAP
06
0c
08
00
3c
36
06
3e
66
66
3e
00
00
ENDCHAR
STARTCHAR LtSmlACircum
ENCODING 226
SWIDTH 840 0
DWIDTH 7 0
BBX 7 13 0 -2
BITMAP
18
3c
24
00
3c
36
06
3e
66
66
3e
00
00
ENDCHAR
STARTCHAR LtSmlABreve
ENCODING 227
SWIDTH 840 0
DWIDTH 7 0
BBX 7 13 0 -2
BITMAP
00
36
1c
00
3c
36
06
3e
66
66
3e
00
00
ENDCHAR
STARTCHAR LtSmlADrss
ENCODING 228
SWIDTH 840 0
DWIDTH 7 0
BBX 7 13 0 -2
BITMAP
00
36
36
00
3c
36
06
3e
66
66
3e
00
00
ENDCHAR
STARTCHAR LtSmlLAcute
ENCODING 229
SWIDTH 840 0
DWIDTH 7 0
BBX 7 13 0 -2
BITMAP
1c
30
38
18
18
18
18
18
18
18
7e
00
00
ENDCHAR
STARTCHAR LtSmlCAcute
ENCODING 230
SWIDTH 840 0
DWIDTH 7 0
BBX 7 13 0 -2
BITMAP
06
0c
08
00
3c
66
60
60
60
66
3c
00
00
ENDCHAR
STARTCHAR LtSmlCCedilla
ENCODING 231
SWIDTH 840 0
DWIDTH 7 0
BBX 7 13 0 -2
BITMAP
00
00
00
00
3c
66
60
60
60
66
3c
18
30
ENDCHAR
STARTCHAR LtSmlCCaron
ENCODING 232
SWIDTH 840 0
DWIDTH 7 0
BBX 7 13 0 -2
BITMAP
24
3c
18
00
3c
66
60
60
60
66
3c
00
00
ENDCHAR
STARTCHAR LtSmlEAcute
ENCODING 233
SWIDTH 840 0
DWIDTH 7 0
BBX 7 13 0 -2
BITMAP
06
0c
08
00
3c
66
66
7e
60
66
3c
00
00
ENDCHAR
STARTCHAR LtSmlEOgonek
ENCODING 234
SWIDTH 840 0
DWIDTH 7 0
BBX 7 13 0 -2
BITMAP
00
00
00
00
3c
66
66
7e
60
66
3c
0c
06
ENDCHAR
STARTCHAR LtSmlEDrss
ENCODING 235
SWIDTH 840 0
DWIDTH 7 0
BBX 7 13 0 -2
BITMAP
00
36
36
00
3c
66
66
7e
60
66
3c
00
00
ENDCHAR
STARTCHAR LtSmlECaron
ENCODING 236
SWIDTH 840 0
DWIDTH 7 0
BBX 7 13 0 -2
BITMAP
24
3c
18
00
3c
66
66
7e
60
66
3c
00
00
ENDCHAR
STARTCHAR LtSmlIAcute
ENCODING 237
SWIDTH 840 0
DWIDTH 7 0
BBX 7 13 0 -2
BITMAP
0c
18
10
00
38
18
18
18
18
18
7e
00
00
ENDCHAR
STARTCHAR LtSmlICircum
ENCODING 238
SWIDTH 840 0
DWIDTH 7 0
BBX 7 13 0 -2
BITMAP
18
3c
24
00
38
18
18
18
18
18
7e
00
00
ENDCHAR
STARTCHAR LtSmlDCaron
ENCODING 239
SWIDTH 840 0
DWIDTH 7 0
BBX 7 13 0 -2
BITMAP
06
1e
1a
1c
38
58
d8
d8
d8
58
38
00
00
ENDCHAR
STARTCHAR LtSmlDStroke
ENCODING 240
SWIDTH 840 0
DWIDTH 7 0
BBX 7 13 0 -2
BITMAP
00
06
1e
06
36
6e
66
66
66
6e
36
00
00
ENDCHAR
STARTCHAR LtSmlNAcute
ENCODING 241
SWIDTH 840 0
DWIDTH 7 0
BBX 7 13 0 -2
BITMAP
06
0c
08
00
6c
76
66
66
66
66
66
00
00
ENDCHAR
STARTCHAR LtSmlNCaron
ENCODING 242
SWIDTH 840 0
DWIDTH 7 0
BBX 7 13 0 -2
BITMAP
24
3c
18
00
6c
76
66
66
66
66
66
00
00
ENDCHAR
STARTCHAR LtSmlOAcute
ENCODING 243
SWIDTH 840 0
DWIDTH 7 0
BBX 7 13 0 -2
BITMAP
06
0c
08
00
3c
66
66
66
66
66
3c
00
00
ENDCHAR
STARTCHAR LtSmlOCircum
ENCODING 244
SWIDTH 840 0
DWIDTH 7 0
BBX 7 13 0 -2
BITMAP
18
3c
24
00
3c
66
66
66
66
66
3c
00
00
ENDCHAR
STARTCHAR LtSmlOAcute2
ENCODING 245
SWIDTH 840 0
DWIDTH 7 0
BBX 7 13 0 -2
BITMAP
1a
36
2c
00
3c
66
66
66
66
66
3c
00
00
ENDCHAR
STARTCHAR LtSmlODrss
ENCODING 246
SWIDTH 840 0
DWIDTH 7 0
BBX 7 13 0 -2
BITMAP
00
36
36
00
3c
66
66
66
66
66
3c
00
00
ENDCHAR
STARTCHAR MDivision
ENCODING 247
SWIDTH 840 0
DWIDTH 7 0
BBX 7 13 0 -2
BITMAP
00
00
00
18
18
00
7e
7e
00
18
18
00
00
ENDCHAR
STARTCHAR LtSmlRCaron
ENCODING 248
SWIDTH 840 0
DWIDTH 7 0
BBX 7 13 0 -2
BITMAP
24
3c
18
00
76
3e
30
30
30
30
30
00
00
ENDCHAR
STARTCHAR LtSmlURing
ENCODING 249
SWIDTH 840 0
DWIDTH 7 0
BBX 7 13 0 -2
BITMAP
18
34
18
00
66
66
66
66
66
6e
36
00
00
ENDCHAR
STARTCHAR LtSmlUAcute
ENCODING 250
SWIDTH 840 0
DWIDTH 7 0
BBX 7 13 0 -2
BITMAP
06
0c
08
00
66
66
66
66
66
6e
36
00
00
ENDCHAR
STARTCHAR LtSmlUAcute2
ENCODING 251
SWIDTH 840 0
DWIDTH 7 0
BBX 7 13 0 -2
BITMAP
1a
36
2c
00
66
66
66
66
66
6e
36
00
00
ENDCHAR
STARTCHAR LtSmlUDrss
ENCODING 252
SWIDTH 840 0
DWIDTH 7 0
BBX 7 13 0 -2
BITMAP
00
36
36
00
66
66
66
66
66
6e
36
00
00
ENDCHAR
STARTCHAR LtSmlYAcute
ENCODING 253
SWIDTH 840 0
DWIDTH 7 0
BBX 7 13 0 -2
BITMAP
06
0c
08
00
62
62
34
34
1c
18
08
58
70
ENDCHAR
STARTCHAR LtSmlTComma
ENCODING 254
SWIDTH 840 0
DWIDTH 7 0
BBX 7 13 0 -2
BITMAP
00
00
30
30
7c
30
30
30
30
36
1c
18
30
ENDCHAR
STARTCHAR AccDot
ENCODING 255
SWIDTH 840 0
DWIDTH 7 0
BBX 7 13 0 -2
BITMAP
00
18
18
00
00
00
00
00
00
00
00
00
00
ENDCHAR
ENDFONT
