STARTFONT 2.1
COMMENT 
COMMENT Copyright (C) 2012-2015 Uwe Waldmann
COMMENT 
COMMENT Permission is hereby granted, free of charge, to any person obtaining
COMMENT a copy of this font software and associated files (the "Software"),
COMMENT to deal in the Software without restriction, including without
COMMENT limitation the rights to use, copy, modify, merge, publish,
COMMENT distribute, embed, sublicense, and/or sell copies of the Software,
COMMENT and to permit persons to whom the Software is furnished to do so,
COMMENT subject to the following conditions:
COMMENT 
COMMENT (1) The above copyright notice, this permission notice, and the
COMMENT     disclaimer below shall be included in all copies or substantial
COMMENT     portions of the Software.
COMMENT 
COMMENT (2) If the design of any glyphs in the fonts that are contained in the
COMMENT     Software or generated during the installation process is modified
COMMENT     or if additional glyphs are added to the fonts, the fonts
COMMENT     must be renamed. The new names may not contain the word "UW",
COMMENT     irrespective of capitalisation; the new names may contain the word
COMMENT     "ttyp0", irrespective of capitalisation, only if preceded by a
COMMENT     foundry name different from "UW".
COMMENT 
COMMENT THE SOFTWARE IS PROVIDED "AS IS", WITHOUT WARRANTY OF ANY KIND, EXPRESS
COMMENT OR IMPLIED, INCLUDING BUT NOT LIMITED TO THE WARRANTIES OF
COMMENT MERCHANTABILITY, FITNESS FOR A PARTICULAR PURPOSE AND NONINFRINGEMENT.
COMMENT IN NO EVENT SHALL THE AUTHORS OR COPYRIGHT HOLDERS BE LIABLE FOR ANY
COMMENT CLAIM, DAMAGES OR OTHER LIABILITY, WHETHER IN AN ACTION OF CONTRACT,
COMMENT TORT OR OTHERWISE, ARISING FROM, OUT OF OR IN CONNECTION WITH THE
COMMENT SOFTWARE OR THE USE OR OTHER DEALINGS IN THE SOFTWARE.
COMMENT 
FONT -UW-Ttyp0-Medium-R-Normal--14-130-75-75-C-70-ISO8859-15
SIZE 14 75 75
FONTBOUNDINGBOX 7 14 0 -3
STARTPROPERTIES 19
FONTNAME_REGISTRY ""
FOUNDRY "UW"
FAMILY_NAME "Ttyp0"
WEIGHT_NAME "Medium"
SLANT "R"
SETWIDTH_NAME "Normal"
ADD_STYLE_NAME ""
PIXEL_SIZE 14
POINT_SIZE 130
RESOLUTION_X 75
RESOLUTION_Y 75
SPACING "C"
AVERAGE_WIDTH 70
CHARSET_REGISTRY "ISO8859"
CHARSET_ENCODING "15"
DEFAULT_CHAR 0
FONT_DESCENT 3
FONT_ASCENT 11
COPYRIGHT "Copyright (C) 2012-2015 Uwe Waldmann"
ENDPROPERTIES
CHARS 223
STARTCHAR DDefaultChar
ENCODING 0
SWIDTH 840 0
DWIDTH 7 0
BBX 7 14 0 -3
BITMAP
00
00
6c
00
44
44
00
44
44
00
6c
00
00
00
ENDCHAR
STARTCHAR DDiamondB
ENCODING 1
SWIDTH 840 0
DWIDTH 7 0
BBX 7 14 0 -3
BITMAP
00
00
00
10
38
7c
fe
7c
38
10
00
00
00
00
ENDCHAR
STARTCHAR GGrey
ENCODING 2
SWIDTH 840 0
DWIDTH 7 0
BBX 7 14 0 -3
BITMAP
54
aa
54
aa
54
aa
54
aa
54
aa
54
aa
54
aa
ENDCHAR
STARTCHAR CtlHT
ENCODING 3
SWIDTH 840 0
DWIDTH 7 0
BBX 7 14 0 -3
BITMAP
00
90
90
f0
90
90
00
7c
10
10
10
10
00
00
ENDCHAR
STARTCHAR CtlFF
ENCODING 4
SWIDTH 840 0
DWIDTH 7 0
BBX 7 14 0 -3
BITMAP
00
f0
80
e0
80
80
00
3c
20
38
20
20
00
00
ENDCHAR
STARTCHAR CtlCR
ENCODING 5
SWIDTH 840 0
DWIDTH 7 0
BBX 7 14 0 -3
BITMAP
00
60
90
80
90
60
00
38
24
38
24
24
00
00
ENDCHAR
STARTCHAR CtlLF
ENCODING 6
SWIDTH 840 0
DWIDTH 7 0
BBX 7 14 0 -3
BITMAP
00
80
80
80
80
f0
00
3c
20
38
20
20
00
00
ENDCHAR
STARTCHAR SDegree
ENCODING 7
SWIDTH 840 0
DWIDTH 7 0
BBX 7 14 0 -3
BITMAP
00
30
48
48
30
00
00
00
00
00
00
00
00
00
ENDCHAR
STARTCHAR MPlusMinus
ENCODING 8
SWIDTH 840 0
DWIDTH 7 0
BBX 7 14 0 -3
BITMAP
00
00
00
00
10
10
7c
10
10
00
7c
00
00
00
ENDCHAR
STARTCHAR CtlNL
ENCODING 9
SWIDTH 840 0
DWIDTH 7 0
BBX 7 14 0 -3
BITMAP
00
88
c8
a8
98
88
00
20
20
20
20
3c
00
00
ENDCHAR
STARTCHAR CtlVT
ENCODING 10
SWIDTH 840 0
DWIDTH 7 0
BBX 7 14 0 -3
BITMAP
00
88
88
50
50
20
00
7c
10
10
10
10
00
00
ENDCHAR
STARTCHAR GLineNW
ENCODING 11
SWIDTH 840 0
DWIDTH 7 0
BBX 7 14 0 -3
BITMAP
10
10
10
10
10
10
f0
00
00
00
00
00
00
00
ENDCHAR
STARTCHAR GLineSW
ENCODING 12
SWIDTH 840 0
DWIDTH 7 0
BBX 7 14 0 -3
BITMAP
00
00
00
00
00
00
f0
10
10
10
10
10
10
10
ENDCHAR
STARTCHAR GLineSE
ENCODING 13
SWIDTH 840 0
DWIDTH 7 0
BBX 7 14 0 -3
BITMAP
00
00
00
00
00
00
1e
10
10
10
10
10
10
10
ENDCHAR
STARTCHAR GLineNE
ENCODING 14
SWIDTH 840 0
DWIDTH 7 0
BBX 7 14 0 -3
BITMAP
10
10
10
10
10
10
1e
00
00
00
00
00
00
00
ENDCHAR
STARTCHAR GLineNSWE
ENCODING 15
SWIDTH 840 0
DWIDTH 7 0
BBX 7 14 0 -3
BITMAP
10
10
10
10
10
10
fe
10
10
10
10
10
10
10
ENDCHAR
STARTCHAR GLineWEHhigh
ENCODING 16
SWIDTH 840 0
DWIDTH 7 0
BBX 7 14 0 -3
BITMAP
00
fe
00
00
00
00
00
00
00
00
00
00
00
00
ENDCHAR
STARTCHAR GLineWEHigh
ENCODING 17
SWIDTH 840 0
DWIDTH 7 0
BBX 7 14 0 -3
BITMAP
00
00
00
00
fe
00
00
00
00
00
00
00
00
00
ENDCHAR
STARTCHAR GLineWE
ENCODING 18
SWIDTH 840 0
DWIDTH 7 0
BBX 7 14 0 -3
BITMAP
00
00
00
00
00
00
fe
00
00
00
00
00
00
00
ENDCHAR
STARTCHAR GLineWELow
ENCODING 19
SWIDTH 840 0
DWIDTH 7 0
BBX 7 14 0 -3
BITMAP
00
00
00
00
00
00
00
00
fe
00
00
00
00
00
ENDCHAR
STARTCHAR GLineWELlow
ENCODING 20
SWIDTH 840 0
DWIDTH 7 0
BBX 7 14 0 -3
BITMAP
00
00
00
00
00
00
00
00
00
00
00
fe
00
00
ENDCHAR
STARTCHAR GLineNSE
ENCODING 21
SWIDTH 840 0
DWIDTH 7 0
BBX 7 14 0 -3
BITMAP
10
10
10
10
10
10
1e
10
10
10
10
10
10
10
ENDCHAR
STARTCHAR GLineNSW
ENCODING 22
SWIDTH 840 0
DWIDTH 7 0
BBX 7 14 0 -3
BITMAP
10
10
10
10
10
10
f0
10
10
10
10
10
10
10
ENDCHAR
STARTCHAR GLineNWE
ENCODING 23
SWIDTH 840 0
DWIDTH 7 0
BBX 7 14 0 -3
BITMAP
10
10
10
10
10
10
fe
00
00
00
00
00
00
00
ENDCHAR
STARTCHAR GLineSWE
ENCODING 24
SWIDTH 840 0
DWIDTH 7 0
BBX 7 14 0 -3
BITMAP
00
00
00
00
00
00
fe
10
10
10
10
10
10
10
ENDCHAR
STARTCHAR GLineNS
ENCODING 25
SWIDTH 840 0
DWIDTH 7 0
BBX 7 14 0 -3
BITMAP
10
10
10
10
10
10
10
10
10
10
10
10
10
10
ENDCHAR
STARTCHAR MLessEq
ENCODING 26
SWIDTH 840 0
DWIDTH 7 0
BBX 7 14 0 -3
BITMAP
00
00
04
18
20
40
20
18
04
00
7c
00
00
00
ENDCHAR
STARTCHAR MGreaterEq
ENCODING 27
SWIDTH 840 0
DWIDTH 7 0
BBX 7 14 0 -3
BITMAP
00
00
40
30
08
04
08
30
40
00
7c
00
00
00
ENDCHAR
STARTCHAR GkSmlPi
ENCODING 28
SWIDTH 840 0
DWIDTH 7 0
BBX 7 14 0 -3
BITMAP
00
00
00
00
fc
48
48
48
48
48
48
00
00
00
ENDCHAR
STARTCHAR MEqualNot
ENCODING 29
SWIDTH 840 0
DWIDTH 7 0
BBX 7 14 0 -3
BITMAP
00
00
00
04
08
7c
10
10
7c
20
40
00
00
00
ENDCHAR
STARTCHAR CurrPound
ENCODING 30
SWIDTH 840 0
DWIDTH 7 0
BBX 7 14 0 -3
BITMAP
00
00
18
24
20
20
78
20
20
44
fc
00
00
00
ENDCHAR
STARTCHAR PMiddleDot
ENCODING 31
SWIDTH 840 0
DWIDTH 7 0
BBX 7 14 0 -3
BITMAP
00
00
00
00
00
00
30
30
00
00
00
00
00
00
ENDCHAR
STARTCHAR Space
ENCODING 32
SWIDTH 840 0
DWIDTH 7 0
BBX 7 14 0 -3
BITMAP
00
00
00
00
00
00
00
00
00
00
00
00
00
00
ENDCHAR
STARTCHAR PExclam
ENCODING 33
SWIDTH 840 0
DWIDTH 7 0
BBX 7 14 0 -3
BITMAP
00
10
10
10
10
10
10
10
00
10
10
00
00
00
ENDCHAR
STARTCHAR PQuote2Ascii
ENCODING 34
SWIDTH 840 0
DWIDTH 7 0
BBX 7 14 0 -3
BITMAP
00
48
48
48
00
00
00
00
00
00
00
00
00
00
ENDCHAR
STARTCHAR SNumberSign
ENCODING 35
SWIDTH 840 0
DWIDTH 7 0
BBX 7 14 0 -3
BITMAP
00
00
00
28
28
7c
28
28
7c
28
28
00
00
00
ENDCHAR
STARTCHAR CurrDollar
ENCODING 36
SWIDTH 840 0
DWIDTH 7 0
BBX 7 14 0 -3
BITMAP
00
00
10
38
54
50
30
18
14
54
38
10
00
00
ENDCHAR
STARTCHAR SPercent
ENCODING 37
SWIDTH 840 0
DWIDTH 7 0
BBX 7 14 0 -3
BITMAP
00
00
24
54
58
28
10
28
34
54
48
00
00
00
ENDCHAR
STARTCHAR SAmpersand
ENCODING 38
SWIDTH 840 0
DWIDTH 7 0
BBX 7 14 0 -3
BITMAP
00
00
20
50
50
20
60
94
94
88
74
00
00
00
ENDCHAR
STARTCHAR PApostropheAscii
ENCODING 39
SWIDTH 840 0
DWIDTH 7 0
BBX 7 14 0 -3
BITMAP
00
18
18
10
20
00
00
00
00
00
00
00
00
00
ENDCHAR
STARTCHAR PParenL
ENCODING 40
SWIDTH 840 0
DWIDTH 7 0
BBX 7 14 0 -3
BITMAP
08
10
10
20
20
20
20
20
20
10
10
08
00
00
ENDCHAR
STARTCHAR PParenR
ENCODING 41
SWIDTH 840 0
DWIDTH 7 0
BBX 7 14 0 -3
BITMAP
20
10
10
08
08
08
08
08
08
10
10
20
00
00
ENDCHAR
STARTCHAR SAsterisk
ENCODING 42
SWIDTH 840 0
DWIDTH 7 0
BBX 7 14 0 -3
BITMAP
00
00
00
00
28
10
7c
10
28
00
00
00
00
00
ENDCHAR
STARTCHAR MPlus
ENCODING 43
SWIDTH 840 0
DWIDTH 7 0
BBX 7 14 0 -3
BITMAP
00
00
00
00
10
10
7c
10
10
00
00
00
00
00
ENDCHAR
STARTCHAR PComma
ENCODING 44
SWIDTH 840 0
DWIDTH 7 0
BBX 7 14 0 -3
BITMAP
00
00
00
00
00
00
00
00
00
18
18
10
20
00
ENDCHAR
STARTCHAR PHyphenMinus
ENCODING 45
SWIDTH 840 0
DWIDTH 7 0
BBX 7 14 0 -3
BITMAP
00
00
00
00
00
00
7c
00
00
00
00
00
00
00
ENDCHAR
STARTCHAR PFullStop
ENCODING 46
SWIDTH 840 0
DWIDTH 7 0
BBX 7 14 0 -3
BITMAP
00
00
00
00
00
00
00
00
00
30
30
00
00
00
ENDCHAR
STARTCHAR PSolidus
ENCODING 47
SWIDTH 840 0
DWIDTH 7 0
BBX 7 14 0 -3
BITMAP
04
04
08
08
08
10
10
20
20
20
40
40
00
00
ENDCHAR
STARTCHAR Digit0
ENCODING 48
SWIDTH 840 0
DWIDTH 7 0
BBX 7 14 0 -3
BITMAP
00
00
10
28
44
44
44
44
44
28
10
00
00
00
ENDCHAR
STARTCHAR Digit1
ENCODING 49
SWIDTH 840 0
DWIDTH 7 0
BBX 7 14 0 -3
BITMAP
00
00
10
30
50
10
10
10
10
10
10
00
00
00
ENDCHAR
STARTCHAR Digit2
ENCODING 50
SWIDTH 840 0
DWIDTH 7 0
BBX 7 14 0 -3
BITMAP
00
00
38
44
44
04
08
10
20
40
7c
00
00
00
ENDCHAR
STARTCHAR Digit3
ENCODING 51
SWIDTH 840 0
DWIDTH 7 0
BBX 7 14 0 -3
BITMAP
00
00
38
44
04
08
18
04
04
44
38
00
00
00
ENDCHAR
STARTCHAR Digit4
ENCODING 52
SWIDTH 840 0
DWIDTH 7 0
BBX 7 14 0 -3
BITMAP
00
00
08
18
18
28
28
48
7c
08
08
00
00
00
ENDCHAR
STARTCHAR Digit5
ENCODING 53
SWIDTH 840 0
DWIDTH 7 0
BBX 7 14 0 -3
BITMAP
00
00
7c
40
40
78
44
04
04
44
38
00
00
00
ENDCHAR
STARTCHAR Digit6
ENCODING 54
SWIDTH 840 0
DWIDTH 7 0
BBX 7 14 0 -3
BITMAP
00
00
18
20
40
40
78
44
44
44
38
00
00
00
ENDCHAR
STARTCHAR Digit7
ENCODING 55
SWIDTH 840 0
DWIDTH 7 0
BBX 7 14 0 -3
BITMAP
00
00
7c
44
04
08
08
10
10
20
20
00
00
00
ENDCHAR
STARTCHAR Digit8
ENCODING 56
SWIDTH 840 0
DWIDTH 7 0
BBX 7 14 0 -3
BITMAP
00
00
38
44
44
44
38
44
44
44
38
00
00
00
ENDCHAR
STARTCHAR Digit9
ENCODING 57
SWIDTH 840 0
DWIDTH 7 0
BBX 7 14 0 -3
BITMAP
00
00
38
44
44
44
3c
04
04
08
30
00
00
00
ENDCHAR
STARTCHAR PColon
ENCODING 58
SWIDTH 840 0
DWIDTH 7 0
BBX 7 14 0 -3
BITMAP
00
00
00
00
00
30
30
00
00
30
30
00
00
00
ENDCHAR
STARTCHAR PSemicolon
ENCODING 59
SWIDTH 840 0
DWIDTH 7 0
BBX 7 14 0 -3
BITMAP
00
00
00
00
00
18
18
00
00
18
18
10
20
00
ENDCHAR
STARTCHAR MLess
ENCODING 60
SWIDTH 840 0
DWIDTH 7 0
BBX 7 14 0 -3
BITMAP
00
00
04
08
10
20
40
20
10
08
04
00
00
00
ENDCHAR
STARTCHAR MEqual
ENCODING 61
SWIDTH 840 0
DWIDTH 7 0
BBX 7 14 0 -3
BITMAP
00
00
00
00
00
7c
00
00
7c
00
00
00
00
00
ENDCHAR
STARTCHAR MGreater
ENCODING 62
SWIDTH 840 0
DWIDTH 7 0
BBX 7 14 0 -3
BITMAP
00
00
40
20
10
08
04
08
10
20
40
00
00
00
ENDCHAR
STARTCHAR PQuestion
ENCODING 63
SWIDTH 840 0
DWIDTH 7 0
BBX 7 14 0 -3
BITMAP
00
38
44
44
04
08
10
10
00
10
10
00
00
00
ENDCHAR
STARTCHAR SCommercialAt
ENCODING 64
SWIDTH 840 0
DWIDTH 7 0
BBX 7 14 0 -3
BITMAP
00
00
18
24
4c
54
54
54
4c
20
1c
00
00
00
ENDCHAR
STARTCHAR LtCapA
ENCODING 65
SWIDTH 840 0
DWIDTH 7 0
BBX 7 14 0 -3
BITMAP
00
00
30
30
30
48
48
78
84
84
84
00
00
00
ENDCHAR
STARTCHAR LtCapB
ENCODING 66
SWIDTH 840 0
DWIDTH 7 0
BBX 7 14 0 -3
BITMAP
00
00
78
44
44
44
78
44
44
44
78
00
00
00
ENDCHAR
STARTCHAR LtCapC
ENCODING 67
SWIDTH 840 0
DWIDTH 7 0
BBX 7 14 0 -3
BITMAP
00
00
18
24
40
40
40
40
40
24
18
00
00
00
ENDCHAR
STARTCHAR LtCapD
ENCODING 68
SWIDTH 840 0
DWIDTH 7 0
BBX 7 14 0 -3
BITMAP
00
00
70
48
44
44
44
44
44
48
70
00
00
00
ENDCHAR
STARTCHAR LtCapE
ENCODING 69
SWIDTH 840 0
DWIDTH 7 0
BBX 7 14 0 -3
BITMAP
00
00
7c
40
40
40
78
40
40
40
7c
00
00
00
ENDCHAR
STARTCHAR LtCapF
ENCODING 70
SWIDTH 840 0
DWIDTH 7 0
BBX 7 14 0 -3
BITMAP
00
00
7c
40
40
40
78
40
40
40
40
00
00
00
ENDCHAR
STARTCHAR LtCapG
ENCODING 71
SWIDTH 840 0
DWIDTH 7 0
BBX 7 14 0 -3
BITMAP
00
00
38
44
40
40
5c
44
44
44
3c
00
00
00
ENDCHAR
STARTCHAR LtCapH
ENCODING 72
SWIDTH 840 0
DWIDTH 7 0
BBX 7 14 0 -3
BITMAP
00
00
44
44
44
44
7c
44
44
44
44
00
00
00
ENDCHAR
STARTCHAR LtCapI
ENCODING 73
SWIDTH 840 0
DWIDTH 7 0
BBX 7 14 0 -3
BITMAP
00
00
7c
10
10
10
10
10
10
10
7c
00
00
00
ENDCHAR
STARTCHAR LtCapJ
ENCODING 74
SWIDTH 840 0
DWIDTH 7 0
BBX 7 14 0 -3
BITMAP
00
00
1e
04
04
04
04
04
44
44
38
00
00
00
ENDCHAR
STARTCHAR LtCapK
ENCODING 75
SWIDTH 840 0
DWIDTH 7 0
BBX 7 14 0 -3
BITMAP
00
00
44
44
48
50
70
48
48
44
44
00
00
00
ENDCHAR
STARTCHAR LtCapL
ENCODING 76
SWIDTH 840 0
DWIDTH 7 0
BBX 7 14 0 -3
BITMAP
00
00
40
40
40
40
40
40
40
40
7c
00
00
00
ENDCHAR
STARTCHAR LtCapM
ENCODING 77
SWIDTH 840 0
DWIDTH 7 0
BBX 7 14 0 -3
BITMAP
00
00
84
84
cc
cc
b4
b4
84
84
84
00
00
00
ENDCHAR
STARTCHAR LtCapN
ENCODING 78
SWIDTH 840 0
DWIDTH 7 0
BBX 7 14 0 -3
BITMAP
00
00
44
44
64
54
54
4c
44
44
44
00
00
00
ENDCHAR
STARTCHAR LtCapO
ENCODING 79
SWIDTH 840 0
DWIDTH 7 0
BBX 7 14 0 -3
BITMAP
00
00
38
44
44
44
44
44
44
44
38
00
00
00
ENDCHAR
STARTCHAR LtCapP
ENCODING 80
SWIDTH 840 0
DWIDTH 7 0
BBX 7 14 0 -3
BITMAP
00
00
78
44
44
44
78
40
40
40
40
00
00
00
ENDCHAR
STARTCHAR LtCapQ
ENCODING 81
SWIDTH 840 0
DWIDTH 7 0
BBX 7 14 0 -3
BITMAP
00
00
38
44
44
44
44
44
44
54
38
06
00
00
ENDCHAR
STARTCHAR LtCapR
ENCODING 82
SWIDTH 840 0
DWIDTH 7 0
BBX 7 14 0 -3
BITMAP
00
00
78
44
44
44
78
50
48
44
44
00
00
00
ENDCHAR
STARTCHAR LtCapS
ENCODING 83
SWIDTH 840 0
DWIDTH 7 0
BBX 7 14 0 -3
BITMAP
00
00
38
44
40
40
38
04
04
44
38
00
00
00
ENDCHAR
STARTCHAR LtCapT
ENCODING 84
SWIDTH 840 0
DWIDTH 7 0
BBX 7 14 0 -3
BITMAP
00
00
7c
10
10
10
10
10
10
10
10
00
00
00
ENDCHAR
STARTCHAR LtCapU
ENCODING 85
SWIDTH 840 0
DWIDTH 7 0
BBX 7 14 0 -3
BITMAP
00
00
44
44
44
44
44
44
44
44
38
00
00
00
ENDCHAR
STARTCHAR LtCapV
ENCODING 86
SWIDTH 840 0
DWIDTH 7 0
BBX 7 14 0 -3
BITMAP
00
00
44
44
44
44
44
28
28
10
10
00
00
00
ENDCHAR
STARTCHAR LtCapW
ENCODING 87
SWIDTH 840 0
DWIDTH 7 0
BBX 7 14 0 -3
BITMAP
00
00
82
82
92
92
92
54
6c
44
44
00
00
00
ENDCHAR
STARTCHAR LtCapX
ENCODING 88
SWIDTH 840 0
DWIDTH 7 0
BBX 7 14 0 -3
BITMAP
00
00
44
44
28
28
10
28
28
44
44
00
00
00
ENDCHAR
STARTCHAR LtCapY
ENCODING 89
SWIDTH 840 0
DWIDTH 7 0
BBX 7 14 0 -3
BITMAP
00
00
44
44
44
28
28
10
10
10
10
00
00
00
ENDCHAR
STARTCHAR LtCapZ
ENCODING 90
SWIDTH 840 0
DWIDTH 7 0
BBX 7 14 0 -3
BITMAP
00
00
7c
04
08
08
10
20
20
40
7c
00
00
00
ENDCHAR
STARTCHAR PSquareBrackL
ENCODING 91
SWIDTH 840 0
DWIDTH 7 0
BBX 7 14 0 -3
BITMAP
3c
20
20
20
20
20
20
20
20
20
20
3c
00
00
ENDCHAR
STARTCHAR PRevSolidus
ENCODING 92
SWIDTH 840 0
DWIDTH 7 0
BBX 7 14 0 -3
BITMAP
40
40
20
20
20
10
10
08
08
08
04
04
00
00
ENDCHAR
STARTCHAR PSquareBrackR
ENCODING 93
SWIDTH 840 0
DWIDTH 7 0
BBX 7 14 0 -3
BITMAP
78
08
08
08
08
08
08
08
08
08
08
78
00
00
ENDCHAR
STARTCHAR AccCircumAscii
ENCODING 94
SWIDTH 840 0
DWIDTH 7 0
BBX 7 14 0 -3
BITMAP
00
00
30
48
84
00
00
00
00
00
00
00
00
00
ENDCHAR
STARTCHAR OLowline
ENCODING 95
SWIDTH 840 0
DWIDTH 7 0
BBX 7 14 0 -3
BITMAP
00
00
00
00
00
00
00
00
00
00
7c
00
00
00
ENDCHAR
STARTCHAR AccGraveAscii
ENCODING 96
SWIDTH 840 0
DWIDTH 7 0
BBX 7 14 0 -3
BITMAP
00
30
30
10
08
00
00
00
00
00
00
00
00
00
ENDCHAR
STARTCHAR LtSmlA
ENCODING 97
SWIDTH 840 0
DWIDTH 7 0
BBX 7 14 0 -3
BITMAP
00
00
00
00
38
04
04
3c
44
44
3c
00
00
00
ENDCHAR
STARTCHAR LtSmlB
ENCODING 98
SWIDTH 840 0
DWIDTH 7 0
BBX 7 14 0 -3
BITMAP
00
40
40
40
58
64
44
44
44
64
58
00
00
00
ENDCHAR
STARTCHAR LtSmlC
ENCODING 99
SWIDTH 840 0
DWIDTH 7 0
BBX 7 14 0 -3
BITMAP
00
00
00
00
38
44
40
40
40
44
38
00
00
00
ENDCHAR
STARTCHAR LtSmlD
ENCODING 100
SWIDTH 840 0
DWIDTH 7 0
BBX 7 14 0 -3
BITMAP
00
04
04
04
34
4c
44
44
44
4c
34
00
00
00
ENDCHAR
STARTCHAR LtSmlE
ENCODING 101
SWIDTH 840 0
DWIDTH 7 0
BBX 7 14 0 -3
BITMAP
00
00
00
00
38
44
44
7c
40
40
38
00
00
00
ENDCHAR
STARTCHAR LtSmlF
ENCODING 102
SWIDTH 840 0
DWIDTH 7 0
BBX 7 14 0 -3
BITMAP
00
0c
10
10
10
7c
10
10
10
10
10
00
00
00
ENDCHAR
STARTCHAR LtSmlG
ENCODING 103
SWIDTH 840 0
DWIDTH 7 0
BBX 7 14 0 -3
BITMAP
00
00
00
00
3c
44
44
44
4c
34
04
44
38
00
ENDCHAR
STARTCHAR LtSmlH
ENCODING 104
SWIDTH 840 0
DWIDTH 7 0
BBX 7 14 0 -3
BITMAP
00
40
40
40
58
64
44
44
44
44
44
00
00
00
ENDCHAR
STARTCHAR LtSmlI
ENCODING 105
SWIDTH 840 0
DWIDTH 7 0
BBX 7 14 0 -3
BITMAP
00
10
10
00
30
10
10
10
10
10
7c
00
00
00
ENDCHAR
STARTCHAR LtSmlJ
ENCODING 106
SWIDTH 840 0
DWIDTH 7 0
BBX 7 14 0 -3
BITMAP
00
08
08
00
38
08
08
08
08
08
08
48
30
00
ENDCHAR
STARTCHAR LtSmlK
ENCODING 107
SWIDTH 840 0
DWIDTH 7 0
BBX 7 14 0 -3
BITMAP
00
40
40
40
44
48
50
60
50
48
44
00
00
00
ENDCHAR
STARTCHAR LtSmlL
ENCODING 108
SWIDTH 840 0
DWIDTH 7 0
BBX 7 14 0 -3
BITMAP
00
30
10
10
10
10
10
10
10
10
7c
00
00
00
ENDCHAR
STARTCHAR LtSmlM
ENCODING 109
SWIDTH 840 0
DWIDTH 7 0
BBX 7 14 0 -3
BITMAP
00
00
00
00
ec
92
92
92
92
92
92
00
00
00
ENDCHAR
STARTCHAR LtSmlN
ENCODING 110
SWIDTH 840 0
DWIDTH 7 0
BBX 7 14 0 -3
BITMAP
00
00
00
00
58
64
44
44
44
44
44
00
00
00
ENDCHAR
STARTCHAR LtSmlO
ENCODING 111
SWIDTH 840 0
DWIDTH 7 0
BBX 7 14 0 -3
BITMAP
00
00
00
00
38
44
44
44
44
44
38
00
00
00
ENDCHAR
STARTCHAR LtSmlP
ENCODING 112
SWIDTH 840 0
DWIDTH 7 0
BBX 7 14 0 -3
BITMAP
00
00
00
00
58
64
44
44
44
64
58
40
40
00
ENDCHAR
STARTCHAR LtSmlQ
ENCODING 113
SWIDTH 840 0
DWIDTH 7 0
BBX 7 14 0 -3
BITMAP
00
00
00
00
34
4c
44
44
44
4c
34
04
04
00
ENDCHAR
STARTCHAR LtSmlR
ENCODING 114
SWIDTH 840 0
DWIDTH 7 0
BBX 7 14 0 -3
BITMAP
00
00
00
00
6c
34
20
20
20
20
20
00
00
00
ENDCHAR
STARTCHAR LtSmlS
ENCODING 115
SWIDTH 840 0
DWIDTH 7 0
BBX 7 14 0 -3
BITMAP
00
00
00
00
38
44
40
38
04
44
38
00
00
00
ENDCHAR
STARTCHAR LtSmlT
ENCODING 116
SWIDTH 840 0
DWIDTH 7 0
BBX 7 14 0 -3
BITMAP
00
00
20
20
78
20
20
20
20
24
18
00
00
00
ENDCHAR
STARTCHAR LtSmlU
ENCODING 117
SWIDTH 840 0
DWIDTH 7 0
BBX 7 14 0 -3
BITMAP
00
00
00
00
44
44
44
44
44
4c
34
00
00
00
ENDCHAR
STARTCHAR LtSmlV
ENCODING 118
SWIDTH 840 0
DWIDTH 7 0
BBX 7 14 0 -3
BITMAP
00
00
00
00
44
44
44
28
28
10
10
00
00
00
ENDCHAR
STARTCHAR LtSmlW
ENCODING 119
SWIDTH 840 0
DWIDTH 7 0
BBX 7 14 0 -3
BITMAP
00
00
00
00
82
92
92
92
6c
44
44
00
00
00
ENDCHAR
STARTCHAR LtSmlX
ENCODING 120
SWIDTH 840 0
DWIDTH 7 0
BBX 7 14 0 -3
BITMAP
00
00
00
00
44
44
28
10
28
44
44
00
00
00
ENDCHAR
STARTCHAR LtSmlY
ENCODING 121
SWIDTH 840 0
DWIDTH 7 0
BBX 7 14 0 -3
BITMAP
00
00
00
00
44
44
44
28
28
18
10
10
60
00
ENDCHAR
STARTCHAR LtSmlZ
ENCODING 122
SWIDTH 840 0
DWIDTH 7 0
BBX 7 14 0 -3
BITMAP
00
00
00
00
7c
04
08
10
20
40
7c
00
00
00
ENDCHAR
STARTCHAR PCurlyBrackL
ENCODING 123
SWIDTH 840 0
DWIDTH 7 0
BBX 7 14 0 -3
BITMAP
0c
10
10
10
10
60
60
10
10
10
10
0c
00
00
ENDCHAR
STARTCHAR OVertBar
ENCODING 124
SWIDTH 840 0
DWIDTH 7 0
BBX 7 14 0 -3
BITMAP
10
10
10
10
10
10
10
10
10
10
10
10
00
00
ENDCHAR
STARTCHAR PCurlyBrackR
ENCODING 125
SWIDTH 840 0
DWIDTH 7 0
BBX 7 14 0 -3
BITMAP
60
10
10
10
10
0c
0c
10
10
10
10
60
00
00
ENDCHAR
STARTCHAR AccTildeAscii
ENCODING 126
SWIDTH 840 0
DWIDTH 7 0
BBX 7 14 0 -3
BITMAP
00
64
b4
98
00
00
00
00
00
00
00
00
00
00
ENDCHAR
STARTCHAR SpaceNoBreak
ENCODING 160
SWIDTH 840 0
DWIDTH 7 0
BBX 7 14 0 -3
BITMAP
00
00
00
00
00
00
00
00
44
44
7c
00
00
00
ENDCHAR
STARTCHAR PExclamInv
ENCODING 161
SWIDTH 840 0
DWIDTH 7 0
BBX 7 14 0 -3
BITMAP
00
00
00
10
10
00
10
10
10
10
10
10
10
00
ENDCHAR
STARTCHAR CurrCent
ENCODING 162
SWIDTH 840 0
DWIDTH 7 0
BBX 7 14 0 -3
BITMAP
00
00
00
04
38
4c
48
50
50
64
38
40
00
00
ENDCHAR
STARTCHAR CurrPound
ENCODING 163
SWIDTH 840 0
DWIDTH 7 0
BBX 7 14 0 -3
BITMAP
00
00
18
24
20
20
78
20
20
44
fc
00
00
00
ENDCHAR
STARTCHAR CurrEuro
ENCODING 164
SWIDTH 840 0
DWIDTH 7 0
BBX 7 14 0 -3
BITMAP
00
00
18
24
40
f8
40
f0
40
24
18
00
00
00
ENDCHAR
STARTCHAR CurrYen
ENCODING 165
SWIDTH 840 0
DWIDTH 7 0
BBX 7 14 0 -3
BITMAP
00
00
44
44
44
28
7c
10
7c
10
10
00
00
00
ENDCHAR
STARTCHAR LtCapSCaron
ENCODING 166
SWIDTH 840 0
DWIDTH 7 0
BBX 7 14 0 -3
BITMAP
24
18
00
38
44
40
38
04
04
44
38
00
00
00
ENDCHAR
STARTCHAR SParagraph
ENCODING 167
SWIDTH 840 0
DWIDTH 7 0
BBX 7 14 0 -3
BITMAP
00
00
30
48
40
20
50
48
28
10
08
48
30
00
ENDCHAR
STARTCHAR LtSmlSCaron
ENCODING 168
SWIDTH 840 0
DWIDTH 7 0
BBX 7 14 0 -3
BITMAP
00
24
18
00
38
44
40
38
04
44
38
00
00
00
ENDCHAR
STARTCHAR SCopyright
ENCODING 169
SWIDTH 840 0
DWIDTH 7 0
BBX 7 14 0 -3
BITMAP
00
00
38
44
9a
a2
a2
a2
a2
9a
44
38
00
00
ENDCHAR
STARTCHAR OrdFem
ENCODING 170
SWIDTH 840 0
DWIDTH 7 0
BBX 7 14 0 -3
BITMAP
00
30
08
38
48
38
00
78
00
00
00
00
00
00
ENDCHAR
STARTCHAR PQuoteAngle2L
ENCODING 171
SWIDTH 840 0
DWIDTH 7 0
BBX 7 14 0 -3
BITMAP
00
00
00
00
00
24
48
48
24
00
00
00
00
00
ENDCHAR
STARTCHAR MNot
ENCODING 172
SWIDTH 840 0
DWIDTH 7 0
BBX 7 14 0 -3
BITMAP
00
00
00
00
00
00
7c
04
04
00
00
00
00
00
ENDCHAR
STARTCHAR PHyphenSoft
ENCODING 173
SWIDTH 840 0
DWIDTH 7 0
BBX 7 14 0 -3
BITMAP
00
00
00
00
00
00
38
00
00
00
00
00
00
00
ENDCHAR
STARTCHAR SRegistered
ENCODING 174
SWIDTH 840 0
DWIDTH 7 0
BBX 7 14 0 -3
BITMAP
00
00
38
44
b2
aa
aa
b2
aa
aa
44
38
00
00
ENDCHAR
STARTCHAR AccMacronLong
ENCODING 175
SWIDTH 840 0
DWIDTH 7 0
BBX 7 14 0 -3
BITMAP
00
7c
00
00
00
00
00
00
00
00
00
00
00
00
ENDCHAR
STARTCHAR SDegree
ENCODING 176
SWIDTH 840 0
DWIDTH 7 0
BBX 7 14 0 -3
BITMAP
00
30
48
48
30
00
00
00
00
00
00
00
00
00
ENDCHAR
STARTCHAR MPlusMinus
ENCODING 177
SWIDTH 840 0
DWIDTH 7 0
BBX 7 14 0 -3
BITMAP
00
00
00
00
10
10
7c
10
10
00
7c
00
00
00
ENDCHAR
STARTCHAR Sup2
ENCODING 178
SWIDTH 840 0
DWIDTH 7 0
BBX 7 14 0 -3
BITMAP
30
48
08
10
20
40
78
00
00
00
00
00
00
00
ENDCHAR
STARTCHAR Sup3
ENCODING 179
SWIDTH 840 0
DWIDTH 7 0
BBX 7 14 0 -3
BITMAP
30
48
08
10
08
48
30
00
00
00
00
00
00
00
ENDCHAR
STARTCHAR LtCapZCaron
ENCODING 180
SWIDTH 840 0
DWIDTH 7 0
BBX 7 14 0 -3
BITMAP
24
18
00
7c
04
08
10
10
20
40
7c
00
00
00
ENDCHAR
STARTCHAR SMicro
ENCODING 181
SWIDTH 840 0
DWIDTH 7 0
BBX 7 14 0 -3
BITMAP
00
00
00
00
44
44
44
44
44
6c
54
40
40
00
ENDCHAR
STARTCHAR SPilcrow
ENCODING 182
SWIDTH 840 0
DWIDTH 7 0
BBX 7 14 0 -3
BITMAP
00
00
3c
54
54
54
34
14
14
14
14
00
00
00
ENDCHAR
STARTCHAR PMiddleDot
ENCODING 183
SWIDTH 840 0
DWIDTH 7 0
BBX 7 14 0 -3
BITMAP
00
00
00
00
00
00
30
30
00
00
00
00
00
00
ENDCHAR
STARTCHAR LtSmlZCaron
ENCODING 184
SWIDTH 840 0
DWIDTH 7 0
BBX 7 14 0 -3
BITMAP
00
24
18
00
7c
04
08
10
20
40
7c
00
00
00
ENDCHAR
STARTCHAR Sup1
ENCODING 185
SWIDTH 840 0
DWIDTH 7 0
BBX 7 14 0 -3
BITMAP
10
30
50
10
10
10
10
00
00
00
00
00
00
00
ENDCHAR
STARTCHAR OrdMasc
ENCODING 186
SWIDTH 840 0
DWIDTH 7 0
BBX 7 14 0 -3
BITMAP
00
30
48
48
48
30
00
78
00
00
00
00
00
00
ENDCHAR
STARTCHAR PQuoteAngle2R
ENCODING 187
SWIDTH 840 0
DWIDTH 7 0
BBX 7 14 0 -3
BITMAP
00
00
00
00
00
48
24
24
48
00
00
00
00
00
ENDCHAR
STARTCHAR LtCapOE
ENCODING 188
SWIDTH 840 0
DWIDTH 7 0
BBX 7 14 0 -3
BITMAP
00
00
7c
90
90
90
9c
90
90
90
7c
00
00
00
ENDCHAR
STARTCHAR LtSmlOE
ENCODING 189
SWIDTH 840 0
DWIDTH 7 0
BBX 7 14 0 -3
BITMAP
00
00
00
00
6c
92
92
9e
90
90
6e
00
00
00
ENDCHAR
STARTCHAR LtCapYDrss
ENCODING 190
SWIDTH 840 0
DWIDTH 7 0
BBX 7 14 0 -3
BITMAP
24
24
00
44
44
28
28
10
10
10
10
00
00
00
ENDCHAR
STARTCHAR PQuestionInv
ENCODING 191
SWIDTH 840 0
DWIDTH 7 0
BBX 7 14 0 -3
BITMAP
00
00
00
10
10
00
10
10
20
40
44
44
38
00
ENDCHAR
STARTCHAR LtCapAGrave
ENCODING 192
SWIDTH 840 0
DWIDTH 7 0
BBX 7 14 0 -3
BITMAP
40
30
00
30
30
48
48
78
84
84
84
00
00
00
ENDCHAR
STARTCHAR LtCapAAcute
ENCODING 193
SWIDTH 840 0
DWIDTH 7 0
BBX 7 14 0 -3
BITMAP
08
30
00
30
30
48
48
78
84
84
84
00
00
00
ENDCHAR
STARTCHAR LtCapACircum
ENCODING 194
SWIDTH 840 0
DWIDTH 7 0
BBX 7 14 0 -3
BITMAP
30
48
00
30
30
48
48
78
84
84
84
00
00
00
ENDCHAR
STARTCHAR LtCapATilde
ENCODING 195
SWIDTH 840 0
DWIDTH 7 0
BBX 7 14 0 -3
BITMAP
24
58
00
30
30
48
48
78
84
84
84
00
00
00
ENDCHAR
STARTCHAR LtCapADrss
ENCODING 196
SWIDTH 840 0
DWIDTH 7 0
BBX 7 14 0 -3
BITMAP
48
48
00
30
30
48
48
78
84
84
84
00
00
00
ENDCHAR
STARTCHAR LtCapARing
ENCODING 197
SWIDTH 840 0
DWIDTH 7 0
BBX 7 14 0 -3
BITMAP
30
48
48
30
30
48
48
78
84
84
84
00
00
00
ENDCHAR
STARTCHAR LtCapAE
ENCODING 198
SWIDTH 840 0
DWIDTH 7 0
BBX 7 14 0 -3
BITMAP
00
00
1c
30
30
50
5c
70
90
90
9c
00
00
00
ENDCHAR
STARTCHAR LtCapCCedilla
ENCODING 199
SWIDTH 840 0
DWIDTH 7 0
BBX 7 14 0 -3
BITMAP
00
00
18
24
40
40
40
40
40
24
18
08
10
00
ENDCHAR
STARTCHAR LtCapEGrave
ENCODING 200
SWIDTH 840 0
DWIDTH 7 0
BBX 7 14 0 -3
BITMAP
20
18
00
7c
40
40
78
40
40
40
7c
00
00
00
ENDCHAR
STARTCHAR LtCapEAcute
ENCODING 201
SWIDTH 840 0
DWIDTH 7 0
BBX 7 14 0 -3
BITMAP
08
30
00
7c
40
40
78
40
40
40
7c
00
00
00
ENDCHAR
STARTCHAR LtCapECircum
ENCODING 202
SWIDTH 840 0
DWIDTH 7 0
BBX 7 14 0 -3
BITMAP
18
24
00
7c
40
40
78
40
40
40
7c
00
00
00
ENDCHAR
STARTCHAR LtCapEDrss
ENCODING 203
SWIDTH 840 0
DWIDTH 7 0
BBX 7 14 0 -3
BITMAP
24
24
00
7c
40
40
78
40
40
40
7c
00
00
00
ENDCHAR
STARTCHAR LtCapIGrave
ENCODING 204
SWIDTH 840 0
DWIDTH 7 0
BBX 7 14 0 -3
BITMAP
20
18
00
7c
10
10
10
10
10
10
7c
00
00
00
ENDCHAR
STARTCHAR LtCapIAcute
ENCODING 205
SWIDTH 840 0
DWIDTH 7 0
BBX 7 14 0 -3
BITMAP
08
30
00
7c
10
10
10
10
10
10
7c
00
00
00
ENDCHAR
STARTCHAR LtCapICircum
ENCODING 206
SWIDTH 840 0
DWIDTH 7 0
BBX 7 14 0 -3
BITMAP
18
24
00
7c
10
10
10
10
10
10
7c
00
00
00
ENDCHAR
STARTCHAR LtCapIDrss
ENCODING 207
SWIDTH 840 0
DWIDTH 7 0
BBX 7 14 0 -3
BITMAP
24
24
00
7c
10
10
10
10
10
10
7c
00
00
00
ENDCHAR
STARTCHAR LtCapEth
ENCODING 208
SWIDTH 840 0
DWIDTH 7 0
BBX 7 14 0 -3
BITMAP
00
00
70
48
44
44
e4
44
44
48
70
00
00
00
ENDCHAR
STARTCHAR LtCapNTilde
ENCODING 209
SWIDTH 840 0
DWIDTH 7 0
BBX 7 14 0 -3
BITMAP
24
58
00
44
44
64
54
54
4c
44
44
00
00
00
ENDCHAR
STARTCHAR LtCapOGrave
ENCODING 210
SWIDTH 840 0
DWIDTH 7 0
BBX 7 14 0 -3
BITMAP
20
18
00
38
44
44
44
44
44
44
38
00
00
00
ENDCHAR
STARTCHAR LtCapOAcute
ENCODING 211
SWIDTH 840 0
DWIDTH 7 0
BBX 7 14 0 -3
BITMAP
08
30
00
38
44
44
44
44
44
44
38
00
00
00
ENDCHAR
STARTCHAR LtCapOCircum
ENCODING 212
SWIDTH 840 0
DWIDTH 7 0
BBX 7 14 0 -3
BITMAP
18
24
00
38
44
44
44
44
44
44
38
00
00
00
ENDCHAR
STARTCHAR LtCapOTilde
ENCODING 213
SWIDTH 840 0
DWIDTH 7 0
BBX 7 14 0 -3
BITMAP
24
58
00
38
44
44
44
44
44
44
38
00
00
00
ENDCHAR
STARTCHAR LtCapODrss
ENCODING 214
SWIDTH 840 0
DWIDTH 7 0
BBX 7 14 0 -3
BITMAP
24
24
00
38
44
44
44
44
44
44
38
00
00
00
ENDCHAR
STARTCHAR MMultiply
ENCODING 215
SWIDTH 840 0
DWIDTH 7 0
BBX 7 14 0 -3
BITMAP
00
00
00
00
44
28
10
28
44
00
00
00
00
00
ENDCHAR
STARTCHAR LtCapOStroke
ENCODING 216
SWIDTH 840 0
DWIDTH 7 0
BBX 7 14 0 -3
BITMAP
00
00
3a
44
4c
4c
54
64
64
44
b8
00
00
00
ENDCHAR
STARTCHAR LtCapUGrave
ENCODING 217
SWIDTH 840 0
DWIDTH 7 0
BBX 7 14 0 -3
BITMAP
20
18
00
44
44
44
44
44
44
44
38
00
00
00
ENDCHAR
STARTCHAR LtCapUAcute
ENCODING 218
SWIDTH 840 0
DWIDTH 7 0
BBX 7 14 0 -3
BITMAP
08
30
00
44
44
44
44
44
44
44
38
00
00
00
ENDCHAR
STARTCHAR LtCapUCircum
ENCODING 219
SWIDTH 840 0
DWIDTH 7 0
BBX 7 14 0 -3
BITMAP
18
24
00
44
44
44
44
44
44
44
38
00
00
00
ENDCHAR
STARTCHAR LtCapUDrss
ENCODING 220
SWIDTH 840 0
DWIDTH 7 0
BBX 7 14 0 -3
BITMAP
24
24
00
44
44
44
44
44
44
44
38
00
00
00
ENDCHAR
STARTCHAR LtCapYAcute
ENCODING 221
SWIDTH 840 0
DWIDTH 7 0
BBX 7 14 0 -3
BITMAP
08
30
00
44
44
28
28
10
10
10
10
00
00
00
ENDCHAR
STARTCHAR LtCapThorn
ENCODING 222
SWIDTH 840 0
DWIDTH 7 0
BBX 7 14 0 -3
BITMAP
00
00
40
40
78
44
44
44
78
40
40
00
00
00
ENDCHAR
STARTCHAR LtSmlSz
ENCODING 223
SWIDTH 840 0
DWIDTH 7 0
BBX 7 14 0 -3
BITMAP
00
30
48
48
50
58
44
44
44
44
58
00
00
00
ENDCHAR
STARTCHAR LtSmlAGrave
ENCODING 224
SWIDTH 840 0
DWIDTH 7 0
BBX 7 14 0 -3
BITMAP
10
10
08
00
38
04
04
3c
44
44
3c
00
00
00
ENDCHAR
STARTCHAR LtSmlAAcute
ENCODING 225
SWIDTH 840 0
DWIDTH 7 0
BBX 7 14 0 -3
BITMAP
08
08
10
00
38
04
04
3c
44
44
3c
00
00
00
ENDCHAR
STARTCHAR LtSmlACircum
ENCODING 226
SWIDTH 840 0
DWIDTH 7 0
BBX 7 14 0 -3
BITMAP
00
18
24
00
38
04
04
3c
44
44
3c
00
00
00
ENDCHAR
STARTCHAR LtSmlATilde
ENCODING 227
SWIDTH 840 0
DWIDTH 7 0
BBX 7 14 0 -3
BITMAP
00
24
58
00
38
04
04
3c
44
44
3c
00
00
00
ENDCHAR
STARTCHAR LtSmlADrss
ENCODING 228
SWIDTH 840 0
DWIDTH 7 0
BBX 7 14 0 -3
BITMAP
00
24
24
00
38
04
04
3c
44
44
3c
00
00
00
ENDCHAR
STARTCHAR LtSmlARing
ENCODING 229
SWIDTH 840 0
DWIDTH 7 0
BBX 7 14 0 -3
BITMAP
10
28
10
00
38
04
04
3c
44
44
3c
00
00
00
ENDCHAR
STARTCHAR LtSmlAE
ENCODING 230
SWIDTH 840 0
DWIDTH 7 0
BBX 7 14 0 -3
BITMAP
00
00
00
00
6c
12
12
7e
90
90
6e
00
00
00
ENDCHAR
STARTCHAR LtSmlCCedilla
ENCODING 231
SWIDTH 840 0
DWIDTH 7 0
BBX 7 14 0 -3
BITMAP
00
00
00
00
38
44
40
40
40
44
38
10
20
00
ENDCHAR
STARTCHAR LtSmlEGrave
ENCODING 232
SWIDTH 840 0
DWIDTH 7 0
BBX 7 14 0 -3
BITMAP
20
20
10
00
38
44
44
7c
40
40
38
00
00
00
ENDCHAR
STARTCHAR LtSmlEAcute
ENCODING 233
SWIDTH 840 0
DWIDTH 7 0
BBX 7 14 0 -3
BITMAP
08
08
10
00
38
44
44
7c
40
40
38
00
00
00
ENDCHAR
STARTCHAR LtSmlECircum
ENCODING 234
SWIDTH 840 0
DWIDTH 7 0
BBX 7 14 0 -3
BITMAP
00
18
24
00
38
44
44
7c
40
40
38
00
00
00
ENDCHAR
STARTCHAR LtSmlEDrss
ENCODING 235
SWIDTH 840 0
DWIDTH 7 0
BBX 7 14 0 -3
BITMAP
00
24
24
00
38
44
44
7c
40
40
38
00
00
00
ENDCHAR
STARTCHAR LtSmlIGrave
ENCODING 236
SWIDTH 840 0
DWIDTH 7 0
BBX 7 14 0 -3
BITMAP
20
20
10
00
30
10
10
10
10
10
7c
00
00
00
ENDCHAR
STARTCHAR LtSmlIAcute
ENCODING 237
SWIDTH 840 0
DWIDTH 7 0
BBX 7 14 0 -3
BITMAP
08
08
10
00
30
10
10
10
10
10
7c
00
00
00
ENDCHAR
STARTCHAR LtSmlICircum
ENCODING 238
SWIDTH 840 0
DWIDTH 7 0
BBX 7 14 0 -3
BITMAP
00
30
48
00
30
10
10
10
10
10
7c
00
00
00
ENDCHAR
STARTCHAR LtSmlIDrss
ENCODING 239
SWIDTH 840 0
DWIDTH 7 0
BBX 7 14 0 -3
BITMAP
00
48
48
00
30
10
10
10
10
10
7c
00
00
00
ENDCHAR
STARTCHAR LtSmlEth
ENCODING 240
SWIDTH 840 0
DWIDTH 7 0
BBX 7 14 0 -3
BITMAP
00
48
30
50
18
28
44
44
44
44
38
00
00
00
ENDCHAR
STARTCHAR LtSmlNTilde
ENCODING 241
SWIDTH 840 0
DWIDTH 7 0
BBX 7 14 0 -3
BITMAP
00
24
58
00
58
64
44
44
44
44
44
00
00
00
ENDCHAR
STARTCHAR LtSmlOGrave
ENCODING 242
SWIDTH 840 0
DWIDTH 7 0
BBX 7 14 0 -3
BITMAP
20
20
10
00
38
44
44
44
44
44
38
00
00
00
ENDCHAR
STARTCHAR LtSmlOAcute
ENCODING 243
SWIDTH 840 0
DWIDTH 7 0
BBX 7 14 0 -3
BITMAP
08
08
10
00
38
44
44
44
44
44
38
00
00
00
ENDCHAR
STARTCHAR LtSmlOCircum
ENCODING 244
SWIDTH 840 0
DWIDTH 7 0
BBX 7 14 0 -3
BITMAP
00
18
24
00
38
44
44
44
44
44
38
00
00
00
ENDCHAR
STARTCHAR LtSmlOTilde
ENCODING 245
SWIDTH 840 0
DWIDTH 7 0
BBX 7 14 0 -3
BITMAP
00
24
58
00
38
44
44
44
44
44
38
00
00
00
ENDCHAR
STARTCHAR LtSmlODrss
ENCODING 246
SWIDTH 840 0
DWIDTH 7 0
BBX 7 14 0 -3
BITMAP
00
24
24
00
38
44
44
44
44
44
38
00
00
00
ENDCHAR
STARTCHAR MDivision
ENCODING 247
SWIDTH 840 0
DWIDTH 7 0
BBX 7 14 0 -3
BITMAP
00
00
00
30
30
00
fc
00
30
30
00
00
00
00
ENDCHAR
STARTCHAR LtSmlOStroke
ENCODING 248
SWIDTH 840 0
DWIDTH 7 0
BBX 7 14 0 -3
BITMAP
00
00
00
00
3a
44
4c
54
64
44
b8
00
00
00
ENDCHAR
STARTCHAR LtSmlUGrave
ENCODING 249
SWIDTH 840 0
DWIDTH 7 0
BBX 7 14 0 -3
BITMAP
20
20
10
00
44
44
44
44
44
4c
34
00
00
00
ENDCHAR
STARTCHAR LtSmlUAcute
ENCODING 250
SWIDTH 840 0
DWIDTH 7 0
BBX 7 14 0 -3
BITMAP
08
08
10
00
44
44
44
44
44
4c
34
00
00
00
ENDCHAR
STARTCHAR LtSmlUCircum
ENCODING 251
SWIDTH 840 0
DWIDTH 7 0
BBX 7 14 0 -3
BITMAP
00
18
24
00
44
44
44
44
44
4c
34
00
00
00
ENDCHAR
STARTCHAR LtSmlUDrss
ENCODING 252
SWIDTH 840 0
DWIDTH 7 0
BBX 7 14 0 -3
BITMAP
00
24
24
00
44
44
44
44
44
4c
34
00
00
00
ENDCHAR
STARTCHAR LtSmlYAcute
ENCODING 253
SWIDTH 840 0
DWIDTH 7 0
BBX 7 14 0 -3
BITMAP
08
08
10
00
44
44
44
28
28
18
10
10
60
00
ENDCHAR
STARTCHAR LtSmlThorn
ENCODING 254
SWIDTH 840 0
DWIDTH 7 0
BBX 7 14 0 -3
BITMAP
00
40
40
40
58
64
44
44
44
64
58
40
40
00
ENDCHAR
STARTCHAR LtSmlYDrss
ENCODING 255
SWIDTH 840 0
DWIDTH 7 0
BBX 7 14 0 -3
BITMAP
00
24
24
00
44
44
44
28
28
18
10
10
60
00
ENDCHAR
ENDFONT
