STARTFONT 2.1
COMMENT 
COMMENT Copyright (C) 2012-2015 Uwe Waldmann
COMMENT 
COMMENT Permission is hereby granted, free of charge, to any person obtaining
COMMENT a copy of this font software and associated files (the "Software"),
COMMENT to deal in the Software without restriction, including without
COMMENT limitation the rights to use, copy, modify, merge, publish,
COMMENT distribute, embed, sublicense, and/or sell copies of the Software,
COMMENT and to permit persons to whom the Software is furnished to do so,
COMMENT subject to the following conditions:
COMMENT 
COMMENT (1) The above copyright notice, this permission notice, and the
COMMENT     disclaimer below shall be included in all copies or substantial
COMMENT     portions of the Software.
COMMENT 
COMMENT (2) If the design of any glyphs in the fonts that are contained in the
COMMENT     Software or generated during the installation process is modified
COMMENT     or if additional glyphs are added to the fonts, the fonts
COMMENT     must be renamed. The new names may not contain the word "UW",
COMMENT     irrespective of capitalisation; the new names may contain the word
COMMENT     "ttyp0", irrespective of capitalisation, only if preceded by a
COMMENT     foundry name different from "UW".
COMMENT 
COMMENT THE SOFTWARE IS PROVIDED "AS IS", WITHOUT WARRANTY OF ANY KIND, EXPRESS
COMMENT OR IMPLIED, INCLUDING BUT NOT LIMITED TO THE WARRANTIES OF
COMMENT MERCHANTABILITY, FITNESS FOR A PARTICULAR PURPOSE AND NONINFRINGEMENT.
COMMENT IN NO EVENT SHALL THE AUTHORS OR COPYRIGHT HOLDERS BE LIABLE FOR ANY
COMMENT CLAIM, DAMAGES OR OTHER LIABILITY, WHETHER IN AN ACTION OF CONTRACT,
COMMENT TORT OR OTHERWISE, ARISING FROM, OUT OF OR IN CONNECTION WITH THE
COMMENT SOFTWARE OR THE USE OR OTHER DEALINGS IN THE SOFTWARE.
COMMENT 
FONT -UW-Ttyp0-Bold-R-Normal--11-100-75-75-C-60-ISO8859-2
SIZE 11 75 75
FONTBOUNDINGBOX 6 11 0 -2
STARTPROPERTIES 19
FONTNAME_REGISTRY ""
FOUNDRY "UW"
FAMILY_NAME "Ttyp0"
WEIGHT_NAME "Bold"
SLANT "R"
SETWIDTH_NAME "Normal"
ADD_STYLE_NAME ""
PIXEL_SIZE 11
POINT_SIZE 100
RESOLUTION_X 75
RESOLUTION_Y 75
SPACING "C"
AVERAGE_WIDTH 60
CHARSET_REGISTRY "ISO8859"
CHARSET_ENCODING "2"
DEFAULT_CHAR 0
FONT_DESCENT 2
FONT_ASCENT 9
COPYRIGHT "Copyright (C) 2012-2015 Uwe Waldmann"
ENDPROPERTIES
CHARS 223
STARTCHAR DDefaultChar
ENCODING 0
SWIDTH 840 0
DWIDTH 6 0
BBX 6 11 0 -2
BITMAP
00
a8
a8
00
88
88
00
a8
a8
00
00
ENDCHAR
STARTCHAR DDiamondB
ENCODING 1
SWIDTH 840 0
DWIDTH 6 0
BBX 6 11 0 -2
BITMAP
00
00
00
20
70
f8
f8
70
20
00
00
ENDCHAR
STARTCHAR GGrey
ENCODING 2
SWIDTH 840 0
DWIDTH 6 0
BBX 6 11 0 -2
BITMAP
54
a8
54
a8
54
a8
54
a8
54
a8
54
ENDCHAR
STARTCHAR CtlHT
ENCODING 3
SWIDTH 840 0
DWIDTH 6 0
BBX 6 11 0 -2
BITMAP
00
d0
d0
f0
d0
00
78
30
30
30
00
ENDCHAR
STARTCHAR CtlFF
ENCODING 4
SWIDTH 840 0
DWIDTH 6 0
BBX 6 11 0 -2
BITMAP
00
f0
c0
e0
c0
00
78
60
70
60
00
ENDCHAR
STARTCHAR CtlCR
ENCODING 5
SWIDTH 840 0
DWIDTH 6 0
BBX 6 11 0 -2
BITMAP
00
70
c0
c0
70
00
70
68
70
68
00
ENDCHAR
STARTCHAR CtlLF
ENCODING 6
SWIDTH 840 0
DWIDTH 6 0
BBX 6 11 0 -2
BITMAP
00
c0
c0
c0
f0
00
78
60
70
60
00
ENDCHAR
STARTCHAR SDegree
ENCODING 7
SWIDTH 840 0
DWIDTH 6 0
BBX 6 11 0 -2
BITMAP
00
70
d8
d8
70
00
00
00
00
00
00
ENDCHAR
STARTCHAR MPlusMinus
ENCODING 8
SWIDTH 840 0
DWIDTH 6 0
BBX 6 11 0 -2
BITMAP
00
00
20
20
f8
f8
20
20
f8
f8
00
ENDCHAR
STARTCHAR CtlNL
ENCODING 9
SWIDTH 840 0
DWIDTH 6 0
BBX 6 11 0 -2
BITMAP
00
d0
f0
f0
b0
00
60
60
60
78
00
ENDCHAR
STARTCHAR CtlVT
ENCODING 10
SWIDTH 840 0
DWIDTH 6 0
BBX 6 11 0 -2
BITMAP
00
d0
d0
60
60
00
78
30
30
30
00
ENDCHAR
STARTCHAR GLineNW
ENCODING 11
SWIDTH 840 0
DWIDTH 6 0
BBX 6 11 0 -2
BITMAP
30
30
30
30
30
f0
f0
00
00
00
00
ENDCHAR
STARTCHAR GLineSW
ENCODING 12
SWIDTH 840 0
DWIDTH 6 0
BBX 6 11 0 -2
BITMAP
00
00
00
00
00
f0
f0
30
30
30
30
ENDCHAR
STARTCHAR GLineSE
ENCODING 13
SWIDTH 840 0
DWIDTH 6 0
BBX 6 11 0 -2
BITMAP
00
00
00
00
00
3c
3c
30
30
30
30
ENDCHAR
STARTCHAR GLineNE
ENCODING 14
SWIDTH 840 0
DWIDTH 6 0
BBX 6 11 0 -2
BITMAP
30
30
30
30
30
3c
3c
00
00
00
00
ENDCHAR
STARTCHAR GLineNSWE
ENCODING 15
SWIDTH 840 0
DWIDTH 6 0
BBX 6 11 0 -2
BITMAP
30
30
30
30
30
fc
fc
30
30
30
30
ENDCHAR
STARTCHAR GLineWEHhigh
ENCODING 16
SWIDTH 840 0
DWIDTH 6 0
BBX 6 11 0 -2
BITMAP
00
fc
fc
00
00
00
00
00
00
00
00
ENDCHAR
STARTCHAR GLineWEHigh
ENCODING 17
SWIDTH 840 0
DWIDTH 6 0
BBX 6 11 0 -2
BITMAP
00
00
00
fc
fc
00
00
00
00
00
00
ENDCHAR
STARTCHAR GLineWE
ENCODING 18
SWIDTH 840 0
DWIDTH 6 0
BBX 6 11 0 -2
BITMAP
00
00
00
00
00
fc
fc
00
00
00
00
ENDCHAR
STARTCHAR GLineWELow
ENCODING 19
SWIDTH 840 0
DWIDTH 6 0
BBX 6 11 0 -2
BITMAP
00
00
00
00
00
00
00
fc
fc
00
00
ENDCHAR
STARTCHAR GLineWELlow
ENCODING 20
SWIDTH 840 0
DWIDTH 6 0
BBX 6 11 0 -2
BITMAP
00
00
00
00
00
00
00
00
00
fc
fc
ENDCHAR
STARTCHAR GLineNSE
ENCODING 21
SWIDTH 840 0
DWIDTH 6 0
BBX 6 11 0 -2
BITMAP
30
30
30
30
30
3c
3c
30
30
30
30
ENDCHAR
STARTCHAR GLineNSW
ENCODING 22
SWIDTH 840 0
DWIDTH 6 0
BBX 6 11 0 -2
BITMAP
30
30
30
30
30
f0
f0
30
30
30
30
ENDCHAR
STARTCHAR GLineNWE
ENCODING 23
SWIDTH 840 0
DWIDTH 6 0
BBX 6 11 0 -2
BITMAP
30
30
30
30
30
fc
fc
00
00
00
00
ENDCHAR
STARTCHAR GLineSWE
ENCODING 24
SWIDTH 840 0
DWIDTH 6 0
BBX 6 11 0 -2
BITMAP
00
00
00
00
00
fc
fc
30
30
30
30
ENDCHAR
STARTCHAR GLineNS
ENCODING 25
SWIDTH 840 0
DWIDTH 6 0
BBX 6 11 0 -2
BITMAP
30
30
30
30
30
30
30
30
30
30
30
ENDCHAR
STARTCHAR MLessEq
ENCODING 26
SWIDTH 840 0
DWIDTH 6 0
BBX 6 11 0 -2
BITMAP
00
00
18
70
c0
70
18
00
f8
f8
00
ENDCHAR
STARTCHAR MGreaterEq
ENCODING 27
SWIDTH 840 0
DWIDTH 6 0
BBX 6 11 0 -2
BITMAP
00
00
c0
70
18
70
c0
00
f8
f8
00
ENDCHAR
STARTCHAR GkSmlPi
ENCODING 28
SWIDTH 840 0
DWIDTH 6 0
BBX 6 11 0 -2
BITMAP
00
00
00
f8
f8
50
50
d8
98
00
00
ENDCHAR
STARTCHAR MEqualNot
ENCODING 29
SWIDTH 840 0
DWIDTH 6 0
BBX 6 11 0 -2
BITMAP
00
00
08
f8
f8
20
f8
f8
80
00
00
ENDCHAR
STARTCHAR CurrPound
ENCODING 30
SWIDTH 840 0
DWIDTH 6 0
BBX 6 11 0 -2
BITMAP
00
38
68
60
f0
60
48
f8
f8
00
00
ENDCHAR
STARTCHAR PMiddleDot
ENCODING 31
SWIDTH 840 0
DWIDTH 6 0
BBX 6 11 0 -2
BITMAP
00
00
00
00
00
30
30
00
00
00
00
ENDCHAR
STARTCHAR Space
ENCODING 32
SWIDTH 840 0
DWIDTH 6 0
BBX 6 11 0 -2
BITMAP
00
00
00
00
00
00
00
00
00
00
00
ENDCHAR
STARTCHAR PExclam
ENCODING 33
SWIDTH 840 0
DWIDTH 6 0
BBX 6 11 0 -2
BITMAP
00
30
30
30
30
30
00
30
30
00
00
ENDCHAR
STARTCHAR PQuote2Ascii
ENCODING 34
SWIDTH 840 0
DWIDTH 6 0
BBX 6 11 0 -2
BITMAP
00
d8
d8
d8
00
00
00
00
00
00
00
ENDCHAR
STARTCHAR SNumberSign
ENCODING 35
SWIDTH 840 0
DWIDTH 6 0
BBX 6 11 0 -2
BITMAP
00
00
50
f8
f8
50
f8
f8
50
00
00
ENDCHAR
STARTCHAR CurrDollar
ENCODING 36
SWIDTH 840 0
DWIDTH 6 0
BBX 6 11 0 -2
BITMAP
20
20
78
a8
e0
70
38
a8
f0
20
20
ENDCHAR
STARTCHAR SPercent
ENCODING 37
SWIDTH 840 0
DWIDTH 6 0
BBX 6 11 0 -2
BITMAP
00
c8
d8
d0
30
60
58
d8
98
00
00
ENDCHAR
STARTCHAR SAmpersand
ENCODING 38
SWIDTH 840 0
DWIDTH 6 0
BBX 6 11 0 -2
BITMAP
00
60
d0
d0
60
e8
d0
d8
68
00
00
ENDCHAR
STARTCHAR PApostropheAscii
ENCODING 39
SWIDTH 840 0
DWIDTH 6 0
BBX 6 11 0 -2
BITMAP
30
30
60
40
00
00
00
00
00
00
00
ENDCHAR
STARTCHAR PParenL
ENCODING 40
SWIDTH 840 0
DWIDTH 6 0
BBX 6 11 0 -2
BITMAP
18
30
20
60
60
60
60
20
30
18
00
ENDCHAR
STARTCHAR PParenR
ENCODING 41
SWIDTH 840 0
DWIDTH 6 0
BBX 6 11 0 -2
BITMAP
60
30
10
18
18
18
18
10
30
60
00
ENDCHAR
STARTCHAR SAsterisk
ENCODING 42
SWIDTH 840 0
DWIDTH 6 0
BBX 6 11 0 -2
BITMAP
00
00
20
a8
f8
70
f8
a8
20
00
00
ENDCHAR
STARTCHAR MPlus
ENCODING 43
SWIDTH 840 0
DWIDTH 6 0
BBX 6 11 0 -2
BITMAP
00
00
00
30
30
fc
fc
30
30
00
00
ENDCHAR
STARTCHAR PComma
ENCODING 44
SWIDTH 840 0
DWIDTH 6 0
BBX 6 11 0 -2
BITMAP
00
00
00
00
00
00
00
30
30
60
40
ENDCHAR
STARTCHAR PHyphenMinus
ENCODING 45
SWIDTH 840 0
DWIDTH 6 0
BBX 6 11 0 -2
BITMAP
00
00
00
00
00
f8
f8
00
00
00
00
ENDCHAR
STARTCHAR PFullStop
ENCODING 46
SWIDTH 840 0
DWIDTH 6 0
BBX 6 11 0 -2
BITMAP
00
00
00
00
00
00
00
30
30
00
00
ENDCHAR
STARTCHAR PSolidus
ENCODING 47
SWIDTH 840 0
DWIDTH 6 0
BBX 6 11 0 -2
BITMAP
08
18
18
30
30
60
60
c0
c0
80
00
ENDCHAR
STARTCHAR Digit0
ENCODING 48
SWIDTH 840 0
DWIDTH 6 0
BBX 6 11 0 -2
BITMAP
00
60
d8
d8
d8
d8
d8
d8
70
00
00
ENDCHAR
STARTCHAR Digit1
ENCODING 49
SWIDTH 840 0
DWIDTH 6 0
BBX 6 11 0 -2
BITMAP
00
30
70
f0
30
30
30
30
30
00
00
ENDCHAR
STARTCHAR Digit2
ENCODING 50
SWIDTH 840 0
DWIDTH 6 0
BBX 6 11 0 -2
BITMAP
00
f0
d8
18
10
20
40
f8
f8
00
00
ENDCHAR
STARTCHAR Digit3
ENCODING 51
SWIDTH 840 0
DWIDTH 6 0
BBX 6 11 0 -2
BITMAP
00
f0
d8
18
70
18
18
d8
f0
00
00
ENDCHAR
STARTCHAR Digit4
ENCODING 52
SWIDTH 840 0
DWIDTH 6 0
BBX 6 11 0 -2
BITMAP
00
30
30
70
50
d0
f8
30
30
00
00
ENDCHAR
STARTCHAR Digit5
ENCODING 53
SWIDTH 840 0
DWIDTH 6 0
BBX 6 11 0 -2
BITMAP
00
f0
f0
80
f0
18
18
d8
f0
00
00
ENDCHAR
STARTCHAR Digit6
ENCODING 54
SWIDTH 840 0
DWIDTH 6 0
BBX 6 11 0 -2
BITMAP
00
30
60
c0
f0
d8
d8
d8
70
00
00
ENDCHAR
STARTCHAR Digit7
ENCODING 55
SWIDTH 840 0
DWIDTH 6 0
BBX 6 11 0 -2
BITMAP
00
f8
f8
10
20
20
60
60
60
00
00
ENDCHAR
STARTCHAR Digit8
ENCODING 56
SWIDTH 840 0
DWIDTH 6 0
BBX 6 11 0 -2
BITMAP
00
70
d8
d8
70
d8
d8
d8
70
00
00
ENDCHAR
STARTCHAR Digit9
ENCODING 57
SWIDTH 840 0
DWIDTH 6 0
BBX 6 11 0 -2
BITMAP
00
70
d8
d8
d8
78
18
30
60
00
00
ENDCHAR
STARTCHAR PColon
ENCODING 58
SWIDTH 840 0
DWIDTH 6 0
BBX 6 11 0 -2
BITMAP
00
00
00
00
30
30
00
30
30
00
00
ENDCHAR
STARTCHAR PSemicolon
ENCODING 59
SWIDTH 840 0
DWIDTH 6 0
BBX 6 11 0 -2
BITMAP
00
00
00
00
30
30
00
30
30
60
40
ENDCHAR
STARTCHAR MLess
ENCODING 60
SWIDTH 840 0
DWIDTH 6 0
BBX 6 11 0 -2
BITMAP
00
00
18
30
60
c0
60
30
18
00
00
ENDCHAR
STARTCHAR MEqual
ENCODING 61
SWIDTH 840 0
DWIDTH 6 0
BBX 6 11 0 -2
BITMAP
00
00
00
f8
f8
00
f8
f8
00
00
00
ENDCHAR
STARTCHAR MGreater
ENCODING 62
SWIDTH 840 0
DWIDTH 6 0
BBX 6 11 0 -2
BITMAP
00
00
c0
60
30
18
30
60
c0
00
00
ENDCHAR
STARTCHAR PQuestion
ENCODING 63
SWIDTH 840 0
DWIDTH 6 0
BBX 6 11 0 -2
BITMAP
00
f0
98
18
30
30
00
30
30
00
00
ENDCHAR
STARTCHAR SCommercialAt
ENCODING 64
SWIDTH 840 0
DWIDTH 6 0
BBX 6 11 0 -2
BITMAP
00
70
c8
98
b8
a8
b8
c0
78
00
00
ENDCHAR
STARTCHAR LtCapA
ENCODING 65
SWIDTH 840 0
DWIDTH 6 0
BBX 6 11 0 -2
BITMAP
00
20
60
70
50
f8
d8
98
98
00
00
ENDCHAR
STARTCHAR LtCapB
ENCODING 66
SWIDTH 840 0
DWIDTH 6 0
BBX 6 11 0 -2
BITMAP
00
f0
d8
d8
f0
d8
d8
d8
f0
00
00
ENDCHAR
STARTCHAR LtCapC
ENCODING 67
SWIDTH 840 0
DWIDTH 6 0
BBX 6 11 0 -2
BITMAP
00
78
c8
c0
c0
c0
c0
c8
78
00
00
ENDCHAR
STARTCHAR LtCapD
ENCODING 68
SWIDTH 840 0
DWIDTH 6 0
BBX 6 11 0 -2
BITMAP
00
e0
d0
d8
d8
d8
d8
d0
e0
00
00
ENDCHAR
STARTCHAR LtCapE
ENCODING 69
SWIDTH 840 0
DWIDTH 6 0
BBX 6 11 0 -2
BITMAP
00
f8
c8
c0
f0
c0
c0
c8
f8
00
00
ENDCHAR
STARTCHAR LtCapF
ENCODING 70
SWIDTH 840 0
DWIDTH 6 0
BBX 6 11 0 -2
BITMAP
00
f8
c8
c0
f0
c0
c0
c0
c0
00
00
ENDCHAR
STARTCHAR LtCapG
ENCODING 71
SWIDTH 840 0
DWIDTH 6 0
BBX 6 11 0 -2
BITMAP
00
78
c8
c0
c0
d8
d8
d8
78
00
00
ENDCHAR
STARTCHAR LtCapH
ENCODING 72
SWIDTH 840 0
DWIDTH 6 0
BBX 6 11 0 -2
BITMAP
00
d8
d8
d8
f8
d8
d8
d8
d8
00
00
ENDCHAR
STARTCHAR LtCapI
ENCODING 73
SWIDTH 840 0
DWIDTH 6 0
BBX 6 11 0 -2
BITMAP
00
78
30
30
30
30
30
30
78
00
00
ENDCHAR
STARTCHAR LtCapJ
ENCODING 74
SWIDTH 840 0
DWIDTH 6 0
BBX 6 11 0 -2
BITMAP
00
38
18
18
18
18
d8
d8
70
00
00
ENDCHAR
STARTCHAR LtCapK
ENCODING 75
SWIDTH 840 0
DWIDTH 6 0
BBX 6 11 0 -2
BITMAP
00
c8
d8
d0
e0
f0
d8
d8
d8
00
00
ENDCHAR
STARTCHAR LtCapL
ENCODING 76
SWIDTH 840 0
DWIDTH 6 0
BBX 6 11 0 -2
BITMAP
00
c0
c0
c0
c0
c0
c0
c8
f8
00
00
ENDCHAR
STARTCHAR LtCapM
ENCODING 77
SWIDTH 840 0
DWIDTH 6 0
BBX 6 11 0 -2
BITMAP
00
88
d8
f8
f8
a8
a8
88
88
00
00
ENDCHAR
STARTCHAR LtCapN
ENCODING 78
SWIDTH 840 0
DWIDTH 6 0
BBX 6 11 0 -2
BITMAP
00
c8
c8
e8
e8
b8
b8
98
98
00
00
ENDCHAR
STARTCHAR LtCapO
ENCODING 79
SWIDTH 840 0
DWIDTH 6 0
BBX 6 11 0 -2
BITMAP
00
70
d8
d8
d8
d8
d8
d8
70
00
00
ENDCHAR
STARTCHAR LtCapP
ENCODING 80
SWIDTH 840 0
DWIDTH 6 0
BBX 6 11 0 -2
BITMAP
00
f0
d8
d8
d8
f0
c0
c0
c0
00
00
ENDCHAR
STARTCHAR LtCapQ
ENCODING 81
SWIDTH 840 0
DWIDTH 6 0
BBX 6 11 0 -2
BITMAP
00
70
d8
d8
d8
d8
d8
d8
70
18
08
ENDCHAR
STARTCHAR LtCapR
ENCODING 82
SWIDTH 840 0
DWIDTH 6 0
BBX 6 11 0 -2
BITMAP
00
f0
d8
d8
f0
d0
d8
d8
d8
00
00
ENDCHAR
STARTCHAR LtCapS
ENCODING 83
SWIDTH 840 0
DWIDTH 6 0
BBX 6 11 0 -2
BITMAP
00
78
c8
c0
f0
78
18
98
f0
00
00
ENDCHAR
STARTCHAR LtCapT
ENCODING 84
SWIDTH 840 0
DWIDTH 6 0
BBX 6 11 0 -2
BITMAP
00
fc
b0
30
30
30
30
30
30
00
00
ENDCHAR
STARTCHAR LtCapU
ENCODING 85
SWIDTH 840 0
DWIDTH 6 0
BBX 6 11 0 -2
BITMAP
00
d8
d8
d8
d8
d8
d8
d8
70
00
00
ENDCHAR
STARTCHAR LtCapV
ENCODING 86
SWIDTH 840 0
DWIDTH 6 0
BBX 6 11 0 -2
BITMAP
00
c8
c8
c8
d8
58
70
30
20
00
00
ENDCHAR
STARTCHAR LtCapW
ENCODING 87
SWIDTH 840 0
DWIDTH 6 0
BBX 6 11 0 -2
BITMAP
00
88
88
a8
a8
f8
f8
50
50
00
00
ENDCHAR
STARTCHAR LtCapX
ENCODING 88
SWIDTH 840 0
DWIDTH 6 0
BBX 6 11 0 -2
BITMAP
00
c8
d0
70
60
30
70
58
98
00
00
ENDCHAR
STARTCHAR LtCapY
ENCODING 89
SWIDTH 840 0
DWIDTH 6 0
BBX 6 11 0 -2
BITMAP
00
c4
c8
68
70
30
30
30
30
00
00
ENDCHAR
STARTCHAR LtCapZ
ENCODING 90
SWIDTH 840 0
DWIDTH 6 0
BBX 6 11 0 -2
BITMAP
00
f8
98
30
30
60
60
c8
f8
00
00
ENDCHAR
STARTCHAR PSquareBrackL
ENCODING 91
SWIDTH 840 0
DWIDTH 6 0
BBX 6 11 0 -2
BITMAP
78
60
60
60
60
60
60
60
60
78
00
ENDCHAR
STARTCHAR PRevSolidus
ENCODING 92
SWIDTH 840 0
DWIDTH 6 0
BBX 6 11 0 -2
BITMAP
80
c0
c0
60
60
30
30
18
18
08
00
ENDCHAR
STARTCHAR PSquareBrackR
ENCODING 93
SWIDTH 840 0
DWIDTH 6 0
BBX 6 11 0 -2
BITMAP
78
18
18
18
18
18
18
18
18
78
00
ENDCHAR
STARTCHAR AccCircumAscii
ENCODING 94
SWIDTH 840 0
DWIDTH 6 0
BBX 6 11 0 -2
BITMAP
00
20
70
d8
00
00
00
00
00
00
00
ENDCHAR
STARTCHAR OLowline
ENCODING 95
SWIDTH 840 0
DWIDTH 6 0
BBX 6 11 0 -2
BITMAP
00
00
00
00
00
00
00
00
f8
f8
00
ENDCHAR
STARTCHAR AccGraveAscii
ENCODING 96
SWIDTH 840 0
DWIDTH 6 0
BBX 6 11 0 -2
BITMAP
60
60
30
10
00
00
00
00
00
00
00
ENDCHAR
STARTCHAR LtSmlA
ENCODING 97
SWIDTH 840 0
DWIDTH 6 0
BBX 6 11 0 -2
BITMAP
00
00
00
70
18
78
d8
d8
78
00
00
ENDCHAR
STARTCHAR LtSmlB
ENCODING 98
SWIDTH 840 0
DWIDTH 6 0
BBX 6 11 0 -2
BITMAP
00
c0
c0
f0
d8
d8
d8
d8
f0
00
00
ENDCHAR
STARTCHAR LtSmlC
ENCODING 99
SWIDTH 840 0
DWIDTH 6 0
BBX 6 11 0 -2
BITMAP
00
00
00
78
c8
c0
c0
c8
78
00
00
ENDCHAR
STARTCHAR LtSmlD
ENCODING 100
SWIDTH 840 0
DWIDTH 6 0
BBX 6 11 0 -2
BITMAP
00
18
18
78
d8
d8
d8
d8
78
00
00
ENDCHAR
STARTCHAR LtSmlE
ENCODING 101
SWIDTH 840 0
DWIDTH 6 0
BBX 6 11 0 -2
BITMAP
00
00
00
70
d8
f8
c0
c8
78
00
00
ENDCHAR
STARTCHAR LtSmlF
ENCODING 102
SWIDTH 840 0
DWIDTH 6 0
BBX 6 11 0 -2
BITMAP
00
38
68
60
f8
60
60
60
60
00
00
ENDCHAR
STARTCHAR LtSmlG
ENCODING 103
SWIDTH 840 0
DWIDTH 6 0
BBX 6 11 0 -2
BITMAP
00
00
00
78
d8
d8
d8
f8
18
98
f0
ENDCHAR
STARTCHAR LtSmlH
ENCODING 104
SWIDTH 840 0
DWIDTH 6 0
BBX 6 11 0 -2
BITMAP
00
c0
c0
f0
d8
d8
d8
d8
d8
00
00
ENDCHAR
STARTCHAR LtSmlI
ENCODING 105
SWIDTH 840 0
DWIDTH 6 0
BBX 6 11 0 -2
BITMAP
30
30
00
70
30
30
30
30
78
00
00
ENDCHAR
STARTCHAR LtSmlJ
ENCODING 106
SWIDTH 840 0
DWIDTH 6 0
BBX 6 11 0 -2
BITMAP
30
30
00
70
30
30
30
30
30
b0
e0
ENDCHAR
STARTCHAR LtSmlK
ENCODING 107
SWIDTH 840 0
DWIDTH 6 0
BBX 6 11 0 -2
BITMAP
00
c0
c0
d8
d0
e0
f0
d8
d8
00
00
ENDCHAR
STARTCHAR LtSmlL
ENCODING 108
SWIDTH 840 0
DWIDTH 6 0
BBX 6 11 0 -2
BITMAP
00
70
30
30
30
30
30
30
78
00
00
ENDCHAR
STARTCHAR LtSmlM
ENCODING 109
SWIDTH 840 0
DWIDTH 6 0
BBX 6 11 0 -2
BITMAP
00
00
00
f0
f8
a8
a8
a8
a8
00
00
ENDCHAR
STARTCHAR LtSmlN
ENCODING 110
SWIDTH 840 0
DWIDTH 6 0
BBX 6 11 0 -2
BITMAP
00
00
00
f0
d8
d8
d8
d8
d8
00
00
ENDCHAR
STARTCHAR LtSmlO
ENCODING 111
SWIDTH 840 0
DWIDTH 6 0
BBX 6 11 0 -2
BITMAP
00
00
00
70
d8
d8
d8
d8
70
00
00
ENDCHAR
STARTCHAR LtSmlP
ENCODING 112
SWIDTH 840 0
DWIDTH 6 0
BBX 6 11 0 -2
BITMAP
00
00
00
f0
d8
d8
d8
d8
f0
c0
c0
ENDCHAR
STARTCHAR LtSmlQ
ENCODING 113
SWIDTH 840 0
DWIDTH 6 0
BBX 6 11 0 -2
BITMAP
00
00
00
78
d8
d8
d8
d8
78
18
18
ENDCHAR
STARTCHAR LtSmlR
ENCODING 114
SWIDTH 840 0
DWIDTH 6 0
BBX 6 11 0 -2
BITMAP
00
00
00
f8
68
60
60
60
60
00
00
ENDCHAR
STARTCHAR LtSmlS
ENCODING 115
SWIDTH 840 0
DWIDTH 6 0
BBX 6 11 0 -2
BITMAP
00
00
00
78
c0
f0
78
18
f0
00
00
ENDCHAR
STARTCHAR LtSmlT
ENCODING 116
SWIDTH 840 0
DWIDTH 6 0
BBX 6 11 0 -2
BITMAP
00
20
60
f8
60
60
60
68
38
00
00
ENDCHAR
STARTCHAR LtSmlU
ENCODING 117
SWIDTH 840 0
DWIDTH 6 0
BBX 6 11 0 -2
BITMAP
00
00
00
d8
d8
d8
d8
d8
78
00
00
ENDCHAR
STARTCHAR LtSmlV
ENCODING 118
SWIDTH 840 0
DWIDTH 6 0
BBX 6 11 0 -2
BITMAP
00
00
00
c8
c8
70
70
30
20
00
00
ENDCHAR
STARTCHAR LtSmlW
ENCODING 119
SWIDTH 840 0
DWIDTH 6 0
BBX 6 11 0 -2
BITMAP
00
00
00
88
a8
a8
f8
70
50
00
00
ENDCHAR
STARTCHAR LtSmlX
ENCODING 120
SWIDTH 840 0
DWIDTH 6 0
BBX 6 11 0 -2
BITMAP
00
00
00
d8
d8
60
30
d8
d8
00
00
ENDCHAR
STARTCHAR LtSmlY
ENCODING 121
SWIDTH 840 0
DWIDTH 6 0
BBX 6 11 0 -2
BITMAP
00
00
00
c8
c8
68
70
30
10
a0
e0
ENDCHAR
STARTCHAR LtSmlZ
ENCODING 122
SWIDTH 840 0
DWIDTH 6 0
BBX 6 11 0 -2
BITMAP
00
00
00
f8
b8
30
60
e8
f8
00
00
ENDCHAR
STARTCHAR PCurlyBrackL
ENCODING 123
SWIDTH 840 0
DWIDTH 6 0
BBX 6 11 0 -2
BITMAP
38
60
60
60
c0
c0
60
60
60
38
00
ENDCHAR
STARTCHAR OVertBar
ENCODING 124
SWIDTH 840 0
DWIDTH 6 0
BBX 6 11 0 -2
BITMAP
30
30
30
30
30
30
30
30
30
30
00
ENDCHAR
STARTCHAR PCurlyBrackR
ENCODING 125
SWIDTH 840 0
DWIDTH 6 0
BBX 6 11 0 -2
BITMAP
c0
60
60
60
38
38
60
60
60
c0
00
ENDCHAR
STARTCHAR AccTildeAscii
ENCODING 126
SWIDTH 840 0
DWIDTH 6 0
BBX 6 11 0 -2
BITMAP
00
48
f8
90
00
00
00
00
00
00
00
ENDCHAR
STARTCHAR SpaceNoBreak
ENCODING 160
SWIDTH 840 0
DWIDTH 6 0
BBX 6 11 0 -2
BITMAP
00
00
00
00
00
00
88
88
f8
f8
00
ENDCHAR
STARTCHAR LtCapAOgonek
ENCODING 161
SWIDTH 840 0
DWIDTH 6 0
BBX 6 11 0 -2
BITMAP
00
20
60
70
50
f8
d8
98
98
30
18
ENDCHAR
STARTCHAR AccBreve
ENCODING 162
SWIDTH 840 0
DWIDTH 6 0
BBX 6 11 0 -2
BITMAP
00
d8
d8
70
00
00
00
00
00
00
00
ENDCHAR
STARTCHAR LtCapLStroke
ENCODING 163
SWIDTH 840 0
DWIDTH 6 0
BBX 6 11 0 -2
BITMAP
00
60
60
60
70
e0
60
68
78
00
00
ENDCHAR
STARTCHAR CurrGeneral
ENCODING 164
SWIDTH 840 0
DWIDTH 6 0
BBX 6 11 0 -2
BITMAP
00
00
00
d8
f8
50
f8
d8
00
00
00
ENDCHAR
STARTCHAR LtCapLCaron
ENCODING 165
SWIDTH 840 0
DWIDTH 6 0
BBX 6 11 0 -2
BITMAP
18
d8
c8
d0
c0
c0
c0
c8
f8
00
00
ENDCHAR
STARTCHAR LtCapSAcute
ENCODING 166
SWIDTH 840 0
DWIDTH 6 0
BBX 6 11 0 -2
BITMAP
18
30
78
c8
e0
70
38
98
f0
00
00
ENDCHAR
STARTCHAR SParagraph
ENCODING 167
SWIDTH 840 0
DWIDTH 6 0
BBX 6 11 0 -2
BITMAP
00
78
c8
40
f0
98
c8
78
10
98
f0
ENDCHAR
STARTCHAR AccDrss
ENCODING 168
SWIDTH 840 0
DWIDTH 6 0
BBX 6 11 0 -2
BITMAP
00
d8
d8
00
00
00
00
00
00
00
00
ENDCHAR
STARTCHAR LtCapSCaron
ENCODING 169
SWIDTH 840 0
DWIDTH 6 0
BBX 6 11 0 -2
BITMAP
68
30
78
c8
e0
70
38
98
f0
00
00
ENDCHAR
STARTCHAR LtCapSComma
ENCODING 170
SWIDTH 840 0
DWIDTH 6 0
BBX 6 11 0 -2
BITMAP
00
78
c8
c0
f0
78
18
98
f0
30
60
ENDCHAR
STARTCHAR LtCapTCaron
ENCODING 171
SWIDTH 840 0
DWIDTH 6 0
BBX 6 11 0 -2
BITMAP
68
30
fc
b0
30
30
30
30
30
00
00
ENDCHAR
STARTCHAR LtCapZAcute
ENCODING 172
SWIDTH 840 0
DWIDTH 6 0
BBX 6 11 0 -2
BITMAP
30
60
f8
98
30
60
60
c8
f8
00
00
ENDCHAR
STARTCHAR PHyphenSoft
ENCODING 173
SWIDTH 840 0
DWIDTH 6 0
BBX 6 11 0 -2
BITMAP
00
00
00
00
00
78
78
00
00
00
00
ENDCHAR
STARTCHAR LtCapZCaron
ENCODING 174
SWIDTH 840 0
DWIDTH 6 0
BBX 6 11 0 -2
BITMAP
68
30
f8
98
30
60
60
c8
f8
00
00
ENDCHAR
STARTCHAR LtCapZDot
ENCODING 175
SWIDTH 840 0
DWIDTH 6 0
BBX 6 11 0 -2
BITMAP
30
00
f8
98
30
60
60
c8
f8
00
00
ENDCHAR
STARTCHAR SDegree
ENCODING 176
SWIDTH 840 0
DWIDTH 6 0
BBX 6 11 0 -2
BITMAP
00
70
d8
d8
70
00
00
00
00
00
00
ENDCHAR
STARTCHAR LtSmlAOgonek
ENCODING 177
SWIDTH 840 0
DWIDTH 6 0
BBX 6 11 0 -2
BITMAP
00
00
00
70
18
78
d8
d8
78
30
18
ENDCHAR
STARTCHAR AccOgonek
ENCODING 178
SWIDTH 840 0
DWIDTH 6 0
BBX 6 11 0 -2
BITMAP
00
00
00
00
00
00
00
20
60
48
30
ENDCHAR
STARTCHAR LtSmlLStroke
ENCODING 179
SWIDTH 840 0
DWIDTH 6 0
BBX 6 11 0 -2
BITMAP
00
70
30
38
30
70
30
30
78
00
00
ENDCHAR
STARTCHAR AccAcute
ENCODING 180
SWIDTH 840 0
DWIDTH 6 0
BBX 6 11 0 -2
BITMAP
00
18
30
60
00
00
00
00
00
00
00
ENDCHAR
STARTCHAR LtSmlLCaron
ENCODING 181
SWIDTH 840 0
DWIDTH 6 0
BBX 6 11 0 -2
BITMAP
18
f8
68
70
60
60
60
60
f0
00
00
ENDCHAR
STARTCHAR LtSmlSAcute
ENCODING 182
SWIDTH 840 0
DWIDTH 6 0
BBX 6 11 0 -2
BITMAP
18
30
00
78
c0
f0
78
18
f0
00
00
ENDCHAR
STARTCHAR AccCaron
ENCODING 183
SWIDTH 840 0
DWIDTH 6 0
BBX 6 11 0 -2
BITMAP
00
d8
70
20
00
00
00
00
00
00
00
ENDCHAR
STARTCHAR AccCedilla
ENCODING 184
SWIDTH 840 0
DWIDTH 6 0
BBX 6 11 0 -2
BITMAP
00
00
00
00
00
00
00
20
30
10
60
ENDCHAR
STARTCHAR LtSmlSCaron
ENCODING 185
SWIDTH 840 0
DWIDTH 6 0
BBX 6 11 0 -2
BITMAP
68
30
00
78
c0
f0
78
18
f0
00
00
ENDCHAR
STARTCHAR LtSmlSComma
ENCODING 186
SWIDTH 840 0
DWIDTH 6 0
BBX 6 11 0 -2
BITMAP
00
00
00
78
c0
f0
78
18
f0
30
60
ENDCHAR
STARTCHAR LtSmlTCaron
ENCODING 187
SWIDTH 840 0
DWIDTH 6 0
BBX 6 11 0 -2
BITMAP
18
28
68
f0
60
60
60
68
38
00
00
ENDCHAR
STARTCHAR LtSmlZAcute
ENCODING 188
SWIDTH 840 0
DWIDTH 6 0
BBX 6 11 0 -2
BITMAP
18
30
00
f8
b8
30
60
e8
f8
00
00
ENDCHAR
STARTCHAR AccAcute2
ENCODING 189
SWIDTH 840 0
DWIDTH 6 0
BBX 6 11 0 -2
BITMAP
00
48
d8
90
00
00
00
00
00
00
00
ENDCHAR
STARTCHAR LtSmlZCaron
ENCODING 190
SWIDTH 840 0
DWIDTH 6 0
BBX 6 11 0 -2
BITMAP
68
30
00
f8
b8
30
60
e8
f8
00
00
ENDCHAR
STARTCHAR LtSmlZDot
ENCODING 191
SWIDTH 840 0
DWIDTH 6 0
BBX 6 11 0 -2
BITMAP
30
30
00
f8
b8
30
60
e8
f8
00
00
ENDCHAR
STARTCHAR LtCapRAcute
ENCODING 192
SWIDTH 840 0
DWIDTH 6 0
BBX 6 11 0 -2
BITMAP
30
60
f0
d8
d8
f0
d0
d8
d8
00
00
ENDCHAR
STARTCHAR LtCapAAcute
ENCODING 193
SWIDTH 840 0
DWIDTH 6 0
BBX 6 11 0 -2
BITMAP
18
30
20
70
50
f8
d8
98
98
00
00
ENDCHAR
STARTCHAR LtCapACircum
ENCODING 194
SWIDTH 840 0
DWIDTH 6 0
BBX 6 11 0 -2
BITMAP
30
58
20
70
50
f8
d8
98
98
00
00
ENDCHAR
STARTCHAR LtCapABreve
ENCODING 195
SWIDTH 840 0
DWIDTH 6 0
BBX 6 11 0 -2
BITMAP
d0
60
20
70
50
f8
d8
98
98
00
00
ENDCHAR
STARTCHAR LtCapADrss
ENCODING 196
SWIDTH 840 0
DWIDTH 6 0
BBX 6 11 0 -2
BITMAP
50
50
20
70
50
f8
d8
98
98
00
00
ENDCHAR
STARTCHAR LtCapLAcute
ENCODING 197
SWIDTH 840 0
DWIDTH 6 0
BBX 6 11 0 -2
BITMAP
18
30
c0
c0
c0
c0
c0
c8
f8
00
00
ENDCHAR
STARTCHAR LtCapCAcute
ENCODING 198
SWIDTH 840 0
DWIDTH 6 0
BBX 6 11 0 -2
BITMAP
18
30
78
c8
c0
c0
c0
c8
78
00
00
ENDCHAR
STARTCHAR LtCapCCedilla
ENCODING 199
SWIDTH 840 0
DWIDTH 6 0
BBX 6 11 0 -2
BITMAP
00
78
c8
c0
c0
c0
c0
c8
78
30
60
ENDCHAR
STARTCHAR LtCapCCaron
ENCODING 200
SWIDTH 840 0
DWIDTH 6 0
BBX 6 11 0 -2
BITMAP
68
30
78
c8
c0
c0
c0
c8
78
00
00
ENDCHAR
STARTCHAR LtCapEAcute
ENCODING 201
SWIDTH 840 0
DWIDTH 6 0
BBX 6 11 0 -2
BITMAP
30
60
f8
c8
c0
f0
c0
c8
f8
00
00
ENDCHAR
STARTCHAR LtCapEOgonek
ENCODING 202
SWIDTH 840 0
DWIDTH 6 0
BBX 6 11 0 -2
BITMAP
00
f8
c8
c0
f0
c0
c0
c8
f8
30
18
ENDCHAR
STARTCHAR LtCapEDrss
ENCODING 203
SWIDTH 840 0
DWIDTH 6 0
BBX 6 11 0 -2
BITMAP
50
50
f8
c8
c0
f0
c0
c8
f8
00
00
ENDCHAR
STARTCHAR LtCapECaron
ENCODING 204
SWIDTH 840 0
DWIDTH 6 0
BBX 6 11 0 -2
BITMAP
d0
60
f8
c8
c0
f0
c0
c8
f8
00
00
ENDCHAR
STARTCHAR LtCapIAcute
ENCODING 205
SWIDTH 840 0
DWIDTH 6 0
BBX 6 11 0 -2
BITMAP
18
30
78
30
30
30
30
30
78
00
00
ENDCHAR
STARTCHAR LtCapICircum
ENCODING 206
SWIDTH 840 0
DWIDTH 6 0
BBX 6 11 0 -2
BITMAP
30
58
78
30
30
30
30
30
78
00
00
ENDCHAR
STARTCHAR LtCapDCaron
ENCODING 207
SWIDTH 840 0
DWIDTH 6 0
BBX 6 11 0 -2
BITMAP
d0
60
e0
d0
d8
d8
d8
d0
e0
00
00
ENDCHAR
STARTCHAR LtCapDStroke
ENCODING 208
SWIDTH 840 0
DWIDTH 6 0
BBX 6 11 0 -2
BITMAP
00
e0
d0
d8
f8
d8
d8
d0
e0
00
00
ENDCHAR
STARTCHAR LtCapNAcute
ENCODING 209
SWIDTH 840 0
DWIDTH 6 0
BBX 6 11 0 -2
BITMAP
30
60
88
c8
e8
f8
b8
98
88
00
00
ENDCHAR
STARTCHAR LtCapNCaron
ENCODING 210
SWIDTH 840 0
DWIDTH 6 0
BBX 6 11 0 -2
BITMAP
d0
60
88
c8
e8
f8
b8
98
88
00
00
ENDCHAR
STARTCHAR LtCapOAcute
ENCODING 211
SWIDTH 840 0
DWIDTH 6 0
BBX 6 11 0 -2
BITMAP
18
30
70
d8
d8
d8
d8
d8
70
00
00
ENDCHAR
STARTCHAR LtCapOCircum
ENCODING 212
SWIDTH 840 0
DWIDTH 6 0
BBX 6 11 0 -2
BITMAP
30
58
70
d8
d8
d8
d8
d8
70
00
00
ENDCHAR
STARTCHAR LtCapOAcute2
ENCODING 213
SWIDTH 840 0
DWIDTH 6 0
BBX 6 11 0 -2
BITMAP
d8
90
70
d8
d8
d8
d8
d8
70
00
00
ENDCHAR
STARTCHAR LtCapODrss
ENCODING 214
SWIDTH 840 0
DWIDTH 6 0
BBX 6 11 0 -2
BITMAP
50
50
70
d8
d8
d8
d8
d8
70
00
00
ENDCHAR
STARTCHAR MMultiply
ENCODING 215
SWIDTH 840 0
DWIDTH 6 0
BBX 6 11 0 -2
BITMAP
00
00
00
88
d8
70
70
d8
88
00
00
ENDCHAR
STARTCHAR LtCapRCaron
ENCODING 216
SWIDTH 840 0
DWIDTH 6 0
BBX 6 11 0 -2
BITMAP
d0
60
f0
d8
d8
f0
d0
d8
d8
00
00
ENDCHAR
STARTCHAR LtCapURing
ENCODING 217
SWIDTH 840 0
DWIDTH 6 0
BBX 6 11 0 -2
BITMAP
30
68
30
d8
d8
d8
d8
d8
70
00
00
ENDCHAR
STARTCHAR LtCapUAcute
ENCODING 218
SWIDTH 840 0
DWIDTH 6 0
BBX 6 11 0 -2
BITMAP
30
60
c8
d8
d8
d8
d8
d8
70
00
00
ENDCHAR
STARTCHAR LtCapUAcute2
ENCODING 219
SWIDTH 840 0
DWIDTH 6 0
BBX 6 11 0 -2
BITMAP
d8
90
d8
d8
d8
d8
d8
d8
70
00
00
ENDCHAR
STARTCHAR LtCapUDrss
ENCODING 220
SWIDTH 840 0
DWIDTH 6 0
BBX 6 11 0 -2
BITMAP
50
50
88
d8
d8
d8
d8
d8
70
00
00
ENDCHAR
STARTCHAR LtCapYAcute
ENCODING 221
SWIDTH 840 0
DWIDTH 6 0
BBX 6 11 0 -2
BITMAP
18
30
c4
c8
68
70
30
30
30
00
00
ENDCHAR
STARTCHAR LtCapTComma
ENCODING 222
SWIDTH 840 0
DWIDTH 6 0
BBX 6 11 0 -2
BITMAP
00
fc
b0
30
30
30
30
30
30
18
30
ENDCHAR
STARTCHAR LtSmlSz
ENCODING 223
SWIDTH 840 0
DWIDTH 6 0
BBX 6 11 0 -2
BITMAP
00
70
d8
d0
f0
d8
d8
d8
d0
00
00
ENDCHAR
STARTCHAR LtSmlRAcute
ENCODING 224
SWIDTH 840 0
DWIDTH 6 0
BBX 6 11 0 -2
BITMAP
18
30
00
f8
68
60
60
60
60
00
00
ENDCHAR
STARTCHAR LtSmlAAcute
ENCODING 225
SWIDTH 840 0
DWIDTH 6 0
BBX 6 11 0 -2
BITMAP
18
30
00
70
18
78
d8
d8
78
00
00
ENDCHAR
STARTCHAR LtSmlACircum
ENCODING 226
SWIDTH 840 0
DWIDTH 6 0
BBX 6 11 0 -2
BITMAP
30
58
00
70
18
78
d8
d8
78
00
00
ENDCHAR
STARTCHAR LtSmlABreve
ENCODING 227
SWIDTH 840 0
DWIDTH 6 0
BBX 6 11 0 -2
BITMAP
68
30
00
70
18
78
d8
d8
78
00
00
ENDCHAR
STARTCHAR LtSmlADrss
ENCODING 228
SWIDTH 840 0
DWIDTH 6 0
BBX 6 11 0 -2
BITMAP
50
50
00
70
18
78
d8
d8
78
00
00
ENDCHAR
STARTCHAR LtSmlLAcute
ENCODING 229
SWIDTH 840 0
DWIDTH 6 0
BBX 6 11 0 -2
BITMAP
18
30
70
30
30
30
30
30
78
00
00
ENDCHAR
STARTCHAR LtSmlCAcute
ENCODING 230
SWIDTH 840 0
DWIDTH 6 0
BBX 6 11 0 -2
BITMAP
18
30
00
78
c8
c0
c0
c8
78
00
00
ENDCHAR
STARTCHAR LtSmlCCedilla
ENCODING 231
SWIDTH 840 0
DWIDTH 6 0
BBX 6 11 0 -2
BITMAP
00
00
00
78
c8
c0
c0
c8
78
30
60
ENDCHAR
STARTCHAR LtSmlCCaron
ENCODING 232
SWIDTH 840 0
DWIDTH 6 0
BBX 6 11 0 -2
BITMAP
68
30
00
78
c8
c0
c0
c8
78
00
00
ENDCHAR
STARTCHAR LtSmlEAcute
ENCODING 233
SWIDTH 840 0
DWIDTH 6 0
BBX 6 11 0 -2
BITMAP
18
30
00
70
d8
f8
c0
c8
78
00
00
ENDCHAR
STARTCHAR LtSmlEOgonek
ENCODING 234
SWIDTH 840 0
DWIDTH 6 0
BBX 6 11 0 -2
BITMAP
00
00
00
70
d8
f8
c0
c8
78
30
18
ENDCHAR
STARTCHAR LtSmlEDrss
ENCODING 235
SWIDTH 840 0
DWIDTH 6 0
BBX 6 11 0 -2
BITMAP
50
50
00
70
d8
f8
c0
c8
78
00
00
ENDCHAR
STARTCHAR LtSmlECaron
ENCODING 236
SWIDTH 840 0
DWIDTH 6 0
BBX 6 11 0 -2
BITMAP
68
30
00
70
d8
f8
c0
c8
78
00
00
ENDCHAR
STARTCHAR LtSmlIAcute
ENCODING 237
SWIDTH 840 0
DWIDTH 6 0
BBX 6 11 0 -2
BITMAP
18
30
00
70
30
30
30
30
78
00
00
ENDCHAR
STARTCHAR LtSmlICircum
ENCODING 238
SWIDTH 840 0
DWIDTH 6 0
BBX 6 11 0 -2
BITMAP
30
58
00
70
30
30
30
30
78
00
00
ENDCHAR
STARTCHAR LtSmlDCaron
ENCODING 239
SWIDTH 840 0
DWIDTH 6 0
BBX 6 11 0 -2
BITMAP
0c
3c
34
78
f0
b0
b0
f0
70
00
00
ENDCHAR
STARTCHAR LtSmlDStroke
ENCODING 240
SWIDTH 840 0
DWIDTH 6 0
BBX 6 11 0 -2
BITMAP
00
18
78
18
78
d8
d8
d8
78
00
00
ENDCHAR
STARTCHAR LtSmlNAcute
ENCODING 241
SWIDTH 840 0
DWIDTH 6 0
BBX 6 11 0 -2
BITMAP
30
60
00
f0
d8
d8
d8
d8
d8
00
00
ENDCHAR
STARTCHAR LtSmlNCaron
ENCODING 242
SWIDTH 840 0
DWIDTH 6 0
BBX 6 11 0 -2
BITMAP
d0
60
00
f0
d8
d8
d8
d8
d8
00
00
ENDCHAR
STARTCHAR LtSmlOAcute
ENCODING 243
SWIDTH 840 0
DWIDTH 6 0
BBX 6 11 0 -2
BITMAP
18
30
00
70
d8
d8
d8
d8
70
00
00
ENDCHAR
STARTCHAR LtSmlOCircum
ENCODING 244
SWIDTH 840 0
DWIDTH 6 0
BBX 6 11 0 -2
BITMAP
30
58
00
70
d8
d8
d8
d8
70
00
00
ENDCHAR
STARTCHAR LtSmlOAcute2
ENCODING 245
SWIDTH 840 0
DWIDTH 6 0
BBX 6 11 0 -2
BITMAP
d8
90
00
70
d8
d8
d8
d8
70
00
00
ENDCHAR
STARTCHAR LtSmlODrss
ENCODING 246
SWIDTH 840 0
DWIDTH 6 0
BBX 6 11 0 -2
BITMAP
50
50
00
70
d8
d8
d8
d8
70
00
00
ENDCHAR
STARTCHAR MDivision
ENCODING 247
SWIDTH 840 0
DWIDTH 6 0
BBX 6 11 0 -2
BITMAP
00
00
20
20
00
f8
f8
00
20
20
00
ENDCHAR
STARTCHAR LtSmlRCaron
ENCODING 248
SWIDTH 840 0
DWIDTH 6 0
BBX 6 11 0 -2
BITMAP
68
30
00
f8
68
60
60
60
60
00
00
ENDCHAR
STARTCHAR LtSmlURing
ENCODING 249
SWIDTH 840 0
DWIDTH 6 0
BBX 6 11 0 -2
BITMAP
30
68
30
d8
d8
d8
d8
d8
78
00
00
ENDCHAR
STARTCHAR LtSmlUAcute
ENCODING 250
SWIDTH 840 0
DWIDTH 6 0
BBX 6 11 0 -2
BITMAP
18
30
00
d8
d8
d8
d8
d8
78
00
00
ENDCHAR
STARTCHAR LtSmlUAcute2
ENCODING 251
SWIDTH 840 0
DWIDTH 6 0
BBX 6 11 0 -2
BITMAP
d8
90
00
d8
d8
d8
d8
d8
78
00
00
ENDCHAR
STARTCHAR LtSmlUDrss
ENCODING 252
SWIDTH 840 0
DWIDTH 6 0
BBX 6 11 0 -2
BITMAP
50
50
00
d8
d8
d8
d8
d8
78
00
00
ENDCHAR
STARTCHAR LtSmlYAcute
ENCODING 253
SWIDTH 840 0
DWIDTH 6 0
BBX 6 11 0 -2
BITMAP
18
30
00
c8
c8
68
70
30
10
a0
e0
ENDCHAR
STARTCHAR LtSmlTComma
ENCODING 254
SWIDTH 840 0
DWIDTH 6 0
BBX 6 11 0 -2
BITMAP
00
20
60
f8
60
60
60
68
38
30
60
ENDCHAR
STARTCHAR AccDot
ENCODING 255
SWIDTH 840 0
DWIDTH 6 0
BBX 6 11 0 -2
BITMAP
00
60
60
00
00
00
00
00
00
00
00
ENDCHAR
ENDFONT
