STARTFONT 2.1
COMMENT 
COMMENT Copyright (C) 2012-2015 Uwe Waldmann
COMMENT 
COMMENT Permission is hereby granted, free of charge, to any person obtaining
COMMENT a copy of this font software and associated files (the "Software"),
COMMENT to deal in the Software without restriction, including without
COMMENT limitation the rights to use, copy, modify, merge, publish,
COMMENT distribute, embed, sublicense, and/or sell copies of the Software,
COMMENT and to permit persons to whom the Software is furnished to do so,
COMMENT subject to the following conditions:
COMMENT 
COMMENT (1) The above copyright notice, this permission notice, and the
COMMENT     disclaimer below shall be included in all copies or substantial
COMMENT     portions of the Software.
COMMENT 
COMMENT (2) If the design of any glyphs in the fonts that are contained in the
COMMENT     Software or generated during the installation process is modified
COMMENT     or if additional glyphs are added to the fonts, the fonts
COMMENT     must be renamed. The new names may not contain the word "UW",
COMMENT     irrespective of capitalisation; the new names may contain the word
COMMENT     "ttyp0", irrespective of capitalisation, only if preceded by a
COMMENT     foundry name different from "UW".
COMMENT 
COMMENT THE SOFTWARE IS PROVIDED "AS IS", WITHOUT WARRANTY OF ANY KIND, EXPRESS
COMMENT OR IMPLIED, INCLUDING BUT NOT LIMITED TO THE WARRANTIES OF
COMMENT MERCHANTABILITY, FITNESS FOR A PARTICULAR PURPOSE AND NONINFRINGEMENT.
COMMENT IN NO EVENT SHALL THE AUTHORS OR COPYRIGHT HOLDERS BE LIABLE FOR ANY
COMMENT CLAIM, DAMAGES OR OTHER LIABILITY, WHETHER IN AN ACTION OF CONTRACT,
COMMENT TORT OR OTHERWISE, ARISING FROM, OUT OF OR IN CONNECTION WITH THE
COMMENT SOFTWARE OR THE USE OR OTHER DEALINGS IN THE SOFTWARE.
COMMENT 
FONT -UW-Ttyp0-Medium-I-Normal--15-140-75-75-C-80-ISO8859-2
SIZE 15 75 75
FONTBOUNDINGBOX 8 15 0 -3
STARTPROPERTIES 19
FONTNAME_REGISTRY ""
FOUNDRY "UW"
FAMILY_NAME "Ttyp0"
WEIGHT_NAME "Medium"
SLANT "I"
SETWIDTH_NAME "Normal"
ADD_STYLE_NAME ""
PIXEL_SIZE 15
POINT_SIZE 140
RESOLUTION_X 75
RESOLUTION_Y 75
SPACING "C"
AVERAGE_WIDTH 80
CHARSET_REGISTRY "ISO8859"
CHARSET_ENCODING "2"
DEFAULT_CHAR 0
FONT_DESCENT 3
FONT_ASCENT 12
COPYRIGHT "Copyright (C) 2012-2015 Uwe Waldmann"
ENDPROPERTIES
CHARS 223
STARTCHAR DDefaultChar
ENCODING 0
SWIDTH 960 0
DWIDTH 8 0
BBX 8 15 0 -3
BITMAP
00
00
5a
42
42
00
42
42
00
42
42
5a
00
00
00
ENDCHAR
STARTCHAR DDiamondB
ENCODING 1
SWIDTH 960 0
DWIDTH 8 0
BBX 8 15 0 -3
BITMAP
00
00
00
00
08
1c
3e
7f
7f
3e
1c
08
00
00
00
ENDCHAR
STARTCHAR GGrey
ENCODING 2
SWIDTH 960 0
DWIDTH 8 0
BBX 8 15 0 -3
BITMAP
aa
55
aa
55
aa
55
aa
55
aa
55
aa
55
aa
55
aa
ENDCHAR
STARTCHAR CtlHT
ENCODING 3
SWIDTH 960 0
DWIDTH 8 0
BBX 8 15 0 -3
BITMAP
00
00
24
24
78
48
48
00
3e
08
08
10
10
00
00
ENDCHAR
STARTCHAR CtlFF
ENCODING 4
SWIDTH 960 0
DWIDTH 8 0
BBX 8 15 0 -3
BITMAP
00
00
3c
20
38
40
40
00
1e
10
1c
20
20
00
00
ENDCHAR
STARTCHAR CtlCR
ENCODING 5
SWIDTH 960 0
DWIDTH 8 0
BBX 8 15 0 -3
BITMAP
00
00
18
24
40
48
30
00
1c
12
1c
24
24
00
00
ENDCHAR
STARTCHAR CtlLF
ENCODING 6
SWIDTH 960 0
DWIDTH 8 0
BBX 8 15 0 -3
BITMAP
00
00
20
20
20
40
78
00
1e
10
18
20
20
00
00
ENDCHAR
STARTCHAR SDegree
ENCODING 7
SWIDTH 960 0
DWIDTH 8 0
BBX 8 15 0 -3
BITMAP
00
00
0c
12
12
0c
00
00
00
00
00
00
00
00
00
ENDCHAR
STARTCHAR MPlusMinus
ENCODING 8
SWIDTH 960 0
DWIDTH 8 0
BBX 8 15 0 -3
BITMAP
00
00
00
08
08
08
7f
08
08
08
00
7f
00
00
00
ENDCHAR
STARTCHAR CtlNL
ENCODING 9
SWIDTH 960 0
DWIDTH 8 0
BBX 8 15 0 -3
BITMAP
00
00
24
24
54
48
48
00
10
10
10
20
3c
00
00
ENDCHAR
STARTCHAR CtlVT
ENCODING 10
SWIDTH 960 0
DWIDTH 8 0
BBX 8 15 0 -3
BITMAP
00
00
22
24
14
18
10
00
3e
08
08
10
10
00
00
ENDCHAR
STARTCHAR GLineNW
ENCODING 11
SWIDTH 960 0
DWIDTH 8 0
BBX 8 15 0 -3
BITMAP
08
08
08
08
08
08
08
f8
00
00
00
00
00
00
00
ENDCHAR
STARTCHAR GLineSW
ENCODING 12
SWIDTH 960 0
DWIDTH 8 0
BBX 8 15 0 -3
BITMAP
00
00
00
00
00
00
00
f8
08
08
08
08
08
08
08
ENDCHAR
STARTCHAR GLineSE
ENCODING 13
SWIDTH 960 0
DWIDTH 8 0
BBX 8 15 0 -3
BITMAP
00
00
00
00
00
00
00
0f
08
08
08
08
08
08
08
ENDCHAR
STARTCHAR GLineNE
ENCODING 14
SWIDTH 960 0
DWIDTH 8 0
BBX 8 15 0 -3
BITMAP
08
08
08
08
08
08
08
0f
00
00
00
00
00
00
00
ENDCHAR
STARTCHAR GLineNSWE
ENCODING 15
SWIDTH 960 0
DWIDTH 8 0
BBX 8 15 0 -3
BITMAP
08
08
08
08
08
08
08
ff
08
08
08
08
08
08
08
ENDCHAR
STARTCHAR GLineWEHhigh
ENCODING 16
SWIDTH 960 0
DWIDTH 8 0
BBX 8 15 0 -3
BITMAP
00
ff
00
00
00
00
00
00
00
00
00
00
00
00
00
ENDCHAR
STARTCHAR GLineWEHigh
ENCODING 17
SWIDTH 960 0
DWIDTH 8 0
BBX 8 15 0 -3
BITMAP
00
00
00
00
ff
00
00
00
00
00
00
00
00
00
00
ENDCHAR
STARTCHAR GLineWE
ENCODING 18
SWIDTH 960 0
DWIDTH 8 0
BBX 8 15 0 -3
BITMAP
00
00
00
00
00
00
00
ff
00
00
00
00
00
00
00
ENDCHAR
STARTCHAR GLineWELow
ENCODING 19
SWIDTH 960 0
DWIDTH 8 0
BBX 8 15 0 -3
BITMAP
00
00
00
00
00
00
00
00
00
00
ff
00
00
00
00
ENDCHAR
STARTCHAR GLineWELlow
ENCODING 20
SWIDTH 960 0
DWIDTH 8 0
BBX 8 15 0 -3
BITMAP
00
00
00
00
00
00
00
00
00
00
00
00
00
ff
00
ENDCHAR
STARTCHAR GLineNSE
ENCODING 21
SWIDTH 960 0
DWIDTH 8 0
BBX 8 15 0 -3
BITMAP
08
08
08
08
08
08
08
0f
08
08
08
08
08
08
08
ENDCHAR
STARTCHAR GLineNSW
ENCODING 22
SWIDTH 960 0
DWIDTH 8 0
BBX 8 15 0 -3
BITMAP
08
08
08
08
08
08
08
f8
08
08
08
08
08
08
08
ENDCHAR
STARTCHAR GLineNWE
ENCODING 23
SWIDTH 960 0
DWIDTH 8 0
BBX 8 15 0 -3
BITMAP
08
08
08
08
08
08
08
ff
00
00
00
00
00
00
00
ENDCHAR
STARTCHAR GLineSWE
ENCODING 24
SWIDTH 960 0
DWIDTH 8 0
BBX 8 15 0 -3
BITMAP
00
00
00
00
00
00
00
ff
08
08
08
08
08
08
08
ENDCHAR
STARTCHAR GLineNS
ENCODING 25
SWIDTH 960 0
DWIDTH 8 0
BBX 8 15 0 -3
BITMAP
08
08
08
08
08
08
08
08
08
08
08
08
08
08
08
ENDCHAR
STARTCHAR MLessEq
ENCODING 26
SWIDTH 960 0
DWIDTH 8 0
BBX 8 15 0 -3
BITMAP
00
00
00
02
0c
30
40
40
30
0c
02
00
7e
00
00
ENDCHAR
STARTCHAR MGreaterEq
ENCODING 27
SWIDTH 960 0
DWIDTH 8 0
BBX 8 15 0 -3
BITMAP
00
00
00
40
30
0c
02
02
0c
30
40
00
7e
00
00
ENDCHAR
STARTCHAR GkSmlPi
ENCODING 28
SWIDTH 960 0
DWIDTH 8 0
BBX 8 15 0 -3
BITMAP
00
00
00
00
00
7f
24
24
24
48
48
46
00
00
00
ENDCHAR
STARTCHAR MEqualNot
ENCODING 29
SWIDTH 960 0
DWIDTH 8 0
BBX 8 15 0 -3
BITMAP
00
00
00
00
02
04
7e
08
10
7e
20
40
00
00
00
ENDCHAR
STARTCHAR CurrPound
ENCODING 30
SWIDTH 960 0
DWIDTH 8 0
BBX 8 15 0 -3
BITMAP
00
00
0e
09
11
10
10
78
20
20
44
fc
00
00
00
ENDCHAR
STARTCHAR PMiddleDot
ENCODING 31
SWIDTH 960 0
DWIDTH 8 0
BBX 8 15 0 -3
BITMAP
00
00
00
00
00
00
18
18
00
00
00
00
00
00
00
ENDCHAR
STARTCHAR Space
ENCODING 32
SWIDTH 960 0
DWIDTH 8 0
BBX 8 15 0 -3
BITMAP
00
00
00
00
00
00
00
00
00
00
00
00
00
00
00
ENDCHAR
STARTCHAR PExclam
ENCODING 33
SWIDTH 960 0
DWIDTH 8 0
BBX 8 15 0 -3
BITMAP
00
00
08
08
08
10
10
10
10
00
20
20
00
00
00
ENDCHAR
STARTCHAR PQuote2Ascii
ENCODING 34
SWIDTH 960 0
DWIDTH 8 0
BBX 8 15 0 -3
BITMAP
00
00
09
09
12
00
00
00
00
00
00
00
00
00
00
ENDCHAR
STARTCHAR SNumberSign
ENCODING 35
SWIDTH 960 0
DWIDTH 8 0
BBX 8 15 0 -3
BITMAP
00
00
00
12
12
7e
24
24
7e
48
48
00
00
00
00
ENDCHAR
STARTCHAR CurrDollar
ENCODING 36
SWIDTH 960 0
DWIDTH 8 0
BBX 8 15 0 -3
BITMAP
00
00
04
1e
25
28
28
18
14
14
a4
78
20
00
00
ENDCHAR
STARTCHAR SPercent
ENCODING 37
SWIDTH 960 0
DWIDTH 8 0
BBX 8 15 0 -3
BITMAP
00
00
11
29
2a
34
08
10
2c
54
94
88
00
00
00
ENDCHAR
STARTCHAR SAmpersand
ENCODING 38
SWIDTH 960 0
DWIDTH 8 0
BBX 8 15 0 -3
BITMAP
00
00
18
24
24
28
30
52
94
88
88
76
00
00
00
ENDCHAR
STARTCHAR PApostropheAscii
ENCODING 39
SWIDTH 960 0
DWIDTH 8 0
BBX 8 15 0 -3
BITMAP
00
06
06
04
08
00
00
00
00
00
00
00
00
00
00
ENDCHAR
STARTCHAR PParenL
ENCODING 40
SWIDTH 960 0
DWIDTH 8 0
BBX 8 15 0 -3
BITMAP
00
02
04
04
08
08
10
10
10
10
10
08
08
00
00
ENDCHAR
STARTCHAR PParenR
ENCODING 41
SWIDTH 960 0
DWIDTH 8 0
BBX 8 15 0 -3
BITMAP
00
10
10
08
08
08
08
08
10
10
20
20
40
00
00
ENDCHAR
STARTCHAR SAsterisk
ENCODING 42
SWIDTH 960 0
DWIDTH 8 0
BBX 8 15 0 -3
BITMAP
00
00
00
00
00
14
18
7e
18
28
00
00
00
00
00
ENDCHAR
STARTCHAR MPlus
ENCODING 43
SWIDTH 960 0
DWIDTH 8 0
BBX 8 15 0 -3
BITMAP
00
00
00
00
08
08
08
7f
08
08
08
00
00
00
00
ENDCHAR
STARTCHAR PComma
ENCODING 44
SWIDTH 960 0
DWIDTH 8 0
BBX 8 15 0 -3
BITMAP
00
00
00
00
00
00
00
00
00
00
30
30
20
40
00
ENDCHAR
STARTCHAR PHyphenMinus
ENCODING 45
SWIDTH 960 0
DWIDTH 8 0
BBX 8 15 0 -3
BITMAP
00
00
00
00
00
00
00
7e
00
00
00
00
00
00
00
ENDCHAR
STARTCHAR PFullStop
ENCODING 46
SWIDTH 960 0
DWIDTH 8 0
BBX 8 15 0 -3
BITMAP
00
00
00
00
00
00
00
00
00
00
30
30
00
00
00
ENDCHAR
STARTCHAR PSolidus
ENCODING 47
SWIDTH 960 0
DWIDTH 8 0
BBX 8 15 0 -3
BITMAP
00
01
01
02
04
04
08
10
20
20
40
80
80
00
00
ENDCHAR
STARTCHAR Digit0
ENCODING 48
SWIDTH 960 0
DWIDTH 8 0
BBX 8 15 0 -3
BITMAP
00
00
0c
12
22
22
42
42
44
44
48
30
00
00
00
ENDCHAR
STARTCHAR Digit1
ENCODING 49
SWIDTH 960 0
DWIDTH 8 0
BBX 8 15 0 -3
BITMAP
00
00
04
0c
14
08
08
08
08
10
10
38
00
00
00
ENDCHAR
STARTCHAR Digit2
ENCODING 50
SWIDTH 960 0
DWIDTH 8 0
BBX 8 15 0 -3
BITMAP
00
00
0e
11
01
02
04
08
10
20
40
7c
00
00
00
ENDCHAR
STARTCHAR Digit3
ENCODING 51
SWIDTH 960 0
DWIDTH 8 0
BBX 8 15 0 -3
BITMAP
00
00
0e
11
01
02
0c
02
02
02
44
38
00
00
00
ENDCHAR
STARTCHAR Digit4
ENCODING 52
SWIDTH 960 0
DWIDTH 8 0
BBX 8 15 0 -3
BITMAP
00
00
02
04
04
08
14
24
7e
08
08
08
00
00
00
ENDCHAR
STARTCHAR Digit5
ENCODING 53
SWIDTH 960 0
DWIDTH 8 0
BBX 8 15 0 -3
BITMAP
00
00
1f
10
10
3c
22
02
02
02
44
38
00
00
00
ENDCHAR
STARTCHAR Digit6
ENCODING 54
SWIDTH 960 0
DWIDTH 8 0
BBX 8 15 0 -3
BITMAP
00
00
06
08
10
20
2c
72
42
42
44
38
00
00
00
ENDCHAR
STARTCHAR Digit7
ENCODING 55
SWIDTH 960 0
DWIDTH 8 0
BBX 8 15 0 -3
BITMAP
00
00
1f
01
02
04
08
08
10
10
20
20
00
00
00
ENDCHAR
STARTCHAR Digit8
ENCODING 56
SWIDTH 960 0
DWIDTH 8 0
BBX 8 15 0 -3
BITMAP
00
00
0e
11
21
22
1c
22
42
42
44
38
00
00
00
ENDCHAR
STARTCHAR Digit9
ENCODING 57
SWIDTH 960 0
DWIDTH 8 0
BBX 8 15 0 -3
BITMAP
00
00
0e
11
21
21
23
1e
02
04
08
30
00
00
00
ENDCHAR
STARTCHAR PColon
ENCODING 58
SWIDTH 960 0
DWIDTH 8 0
BBX 8 15 0 -3
BITMAP
00
00
00
00
00
00
18
18
00
00
30
30
00
00
00
ENDCHAR
STARTCHAR PSemicolon
ENCODING 59
SWIDTH 960 0
DWIDTH 8 0
BBX 8 15 0 -3
BITMAP
00
00
00
00
00
00
18
18
00
00
30
30
20
40
00
ENDCHAR
STARTCHAR MLess
ENCODING 60
SWIDTH 960 0
DWIDTH 8 0
BBX 8 15 0 -3
BITMAP
00
00
02
04
08
10
20
20
10
08
04
02
00
00
00
ENDCHAR
STARTCHAR MEqual
ENCODING 61
SWIDTH 960 0
DWIDTH 8 0
BBX 8 15 0 -3
BITMAP
00
00
00
00
00
00
7e
00
00
7e
00
00
00
00
00
ENDCHAR
STARTCHAR MGreater
ENCODING 62
SWIDTH 960 0
DWIDTH 8 0
BBX 8 15 0 -3
BITMAP
00
00
20
10
08
04
02
02
04
08
10
20
00
00
00
ENDCHAR
STARTCHAR PQuestion
ENCODING 63
SWIDTH 960 0
DWIDTH 8 0
BBX 8 15 0 -3
BITMAP
00
00
1e
21
21
02
04
08
10
00
20
20
00
00
00
ENDCHAR
STARTCHAR SCommercialAt
ENCODING 64
SWIDTH 960 0
DWIDTH 8 0
BBX 8 15 0 -3
BITMAP
00
00
0e
11
25
2b
52
52
52
5c
40
3c
00
00
00
ENDCHAR
STARTCHAR LtCapA
ENCODING 65
SWIDTH 960 0
DWIDTH 8 0
BBX 8 15 0 -3
BITMAP
00
00
0c
0c
14
14
24
24
7c
44
84
84
00
00
00
ENDCHAR
STARTCHAR LtCapB
ENCODING 66
SWIDTH 960 0
DWIDTH 8 0
BBX 8 15 0 -3
BITMAP
00
00
1e
11
11
22
3c
22
22
42
44
78
00
00
00
ENDCHAR
STARTCHAR LtCapC
ENCODING 67
SWIDTH 960 0
DWIDTH 8 0
BBX 8 15 0 -3
BITMAP
00
00
0e
11
20
20
40
40
40
40
44
38
00
00
00
ENDCHAR
STARTCHAR LtCapD
ENCODING 68
SWIDTH 960 0
DWIDTH 8 0
BBX 8 15 0 -3
BITMAP
00
00
3c
22
22
42
42
42
44
84
88
f0
00
00
00
ENDCHAR
STARTCHAR LtCapE
ENCODING 69
SWIDTH 960 0
DWIDTH 8 0
BBX 8 15 0 -3
BITMAP
00
00
1f
10
10
20
3c
20
20
40
40
7c
00
00
00
ENDCHAR
STARTCHAR LtCapF
ENCODING 70
SWIDTH 960 0
DWIDTH 8 0
BBX 8 15 0 -3
BITMAP
00
00
1f
10
10
20
3c
20
20
40
40
40
00
00
00
ENDCHAR
STARTCHAR LtCapG
ENCODING 71
SWIDTH 960 0
DWIDTH 8 0
BBX 8 15 0 -3
BITMAP
00
00
0e
11
20
20
40
4e
42
44
44
3c
00
00
00
ENDCHAR
STARTCHAR LtCapH
ENCODING 72
SWIDTH 960 0
DWIDTH 8 0
BBX 8 15 0 -3
BITMAP
00
00
21
21
21
42
7e
42
42
84
84
84
00
00
00
ENDCHAR
STARTCHAR LtCapI
ENCODING 73
SWIDTH 960 0
DWIDTH 8 0
BBX 8 15 0 -3
BITMAP
00
00
1f
04
04
08
08
08
08
10
10
7c
00
00
00
ENDCHAR
STARTCHAR LtCapJ
ENCODING 74
SWIDTH 960 0
DWIDTH 8 0
BBX 8 15 0 -3
BITMAP
00
00
07
02
02
04
04
04
04
88
88
70
00
00
00
ENDCHAR
STARTCHAR LtCapK
ENCODING 75
SWIDTH 960 0
DWIDTH 8 0
BBX 8 15 0 -3
BITMAP
00
00
21
22
24
48
70
50
48
88
84
84
00
00
00
ENDCHAR
STARTCHAR LtCapL
ENCODING 76
SWIDTH 960 0
DWIDTH 8 0
BBX 8 15 0 -3
BITMAP
00
00
10
10
10
20
20
20
20
40
40
7c
00
00
00
ENDCHAR
STARTCHAR LtCapM
ENCODING 77
SWIDTH 960 0
DWIDTH 8 0
BBX 8 15 0 -3
BITMAP
00
00
21
21
33
56
5a
5a
42
84
84
84
00
00
00
ENDCHAR
STARTCHAR LtCapN
ENCODING 78
SWIDTH 960 0
DWIDTH 8 0
BBX 8 15 0 -3
BITMAP
00
00
21
21
31
52
52
4a
4a
8c
84
84
00
00
00
ENDCHAR
STARTCHAR LtCapO
ENCODING 79
SWIDTH 960 0
DWIDTH 8 0
BBX 8 15 0 -3
BITMAP
00
00
0e
11
21
21
41
41
42
42
44
38
00
00
00
ENDCHAR
STARTCHAR LtCapP
ENCODING 80
SWIDTH 960 0
DWIDTH 8 0
BBX 8 15 0 -3
BITMAP
00
00
1e
11
11
21
22
3c
20
40
40
40
00
00
00
ENDCHAR
STARTCHAR LtCapQ
ENCODING 81
SWIDTH 960 0
DWIDTH 8 0
BBX 8 15 0 -3
BITMAP
00
00
0e
11
21
21
41
41
42
52
54
38
06
00
00
ENDCHAR
STARTCHAR LtCapR
ENCODING 82
SWIDTH 960 0
DWIDTH 8 0
BBX 8 15 0 -3
BITMAP
00
00
1e
11
11
22
3c
30
28
48
44
44
00
00
00
ENDCHAR
STARTCHAR LtCapS
ENCODING 83
SWIDTH 960 0
DWIDTH 8 0
BBX 8 15 0 -3
BITMAP
00
00
1e
21
20
20
10
08
04
04
84
78
00
00
00
ENDCHAR
STARTCHAR LtCapT
ENCODING 84
SWIDTH 960 0
DWIDTH 8 0
BBX 8 15 0 -3
BITMAP
00
00
7f
08
08
10
10
10
10
20
20
20
00
00
00
ENDCHAR
STARTCHAR LtCapU
ENCODING 85
SWIDTH 960 0
DWIDTH 8 0
BBX 8 15 0 -3
BITMAP
00
00
21
21
41
42
42
42
82
84
84
78
00
00
00
ENDCHAR
STARTCHAR LtCapV
ENCODING 86
SWIDTH 960 0
DWIDTH 8 0
BBX 8 15 0 -3
BITMAP
00
00
21
21
22
22
24
24
28
28
30
30
00
00
00
ENDCHAR
STARTCHAR LtCapW
ENCODING 87
SWIDTH 960 0
DWIDTH 8 0
BBX 8 15 0 -3
BITMAP
00
00
21
21
21
22
2a
5a
6a
6c
44
44
00
00
00
ENDCHAR
STARTCHAR LtCapX
ENCODING 88
SWIDTH 960 0
DWIDTH 8 0
BBX 8 15 0 -3
BITMAP
00
00
21
21
12
14
18
18
28
48
84
84
00
00
00
ENDCHAR
STARTCHAR LtCapY
ENCODING 89
SWIDTH 960 0
DWIDTH 8 0
BBX 8 15 0 -3
BITMAP
00
00
21
21
12
12
14
08
08
10
10
10
00
00
00
ENDCHAR
STARTCHAR LtCapZ
ENCODING 90
SWIDTH 960 0
DWIDTH 8 0
BBX 8 15 0 -3
BITMAP
00
00
3f
01
02
04
08
10
20
40
80
fc
00
00
00
ENDCHAR
STARTCHAR PSquareBrackL
ENCODING 91
SWIDTH 960 0
DWIDTH 8 0
BBX 8 15 0 -3
BITMAP
00
0f
08
08
08
10
10
10
10
20
20
20
3c
00
00
ENDCHAR
STARTCHAR PRevSolidus
ENCODING 92
SWIDTH 960 0
DWIDTH 8 0
BBX 8 15 0 -3
BITMAP
00
20
20
20
10
10
10
08
08
08
04
04
04
00
00
ENDCHAR
STARTCHAR PSquareBrackR
ENCODING 93
SWIDTH 960 0
DWIDTH 8 0
BBX 8 15 0 -3
BITMAP
00
3c
04
04
04
08
08
08
08
10
10
10
f0
00
00
ENDCHAR
STARTCHAR AccCircumAscii
ENCODING 94
SWIDTH 960 0
DWIDTH 8 0
BBX 8 15 0 -3
BITMAP
00
00
08
14
22
41
00
00
00
00
00
00
00
00
00
ENDCHAR
STARTCHAR OLowline
ENCODING 95
SWIDTH 960 0
DWIDTH 8 0
BBX 8 15 0 -3
BITMAP
00
00
00
00
00
00
00
00
00
00
00
fc
00
00
00
ENDCHAR
STARTCHAR AccGraveAscii
ENCODING 96
SWIDTH 960 0
DWIDTH 8 0
BBX 8 15 0 -3
BITMAP
00
0c
0c
04
02
00
00
00
00
00
00
00
00
00
00
ENDCHAR
STARTCHAR LtSmlA
ENCODING 97
SWIDTH 960 0
DWIDTH 8 0
BBX 8 15 0 -3
BITMAP
00
00
00
00
00
1e
22
22
44
44
4c
32
00
00
00
ENDCHAR
STARTCHAR LtSmlB
ENCODING 98
SWIDTH 960 0
DWIDTH 8 0
BBX 8 15 0 -3
BITMAP
00
00
30
10
10
2c
32
22
22
44
44
38
00
00
00
ENDCHAR
STARTCHAR LtSmlC
ENCODING 99
SWIDTH 960 0
DWIDTH 8 0
BBX 8 15 0 -3
BITMAP
00
00
00
00
00
1c
22
20
40
40
44
38
00
00
00
ENDCHAR
STARTCHAR LtSmlD
ENCODING 100
SWIDTH 960 0
DWIDTH 8 0
BBX 8 15 0 -3
BITMAP
00
00
01
01
01
1e
22
22
42
44
4c
32
00
00
00
ENDCHAR
STARTCHAR LtSmlE
ENCODING 101
SWIDTH 960 0
DWIDTH 8 0
BBX 8 15 0 -3
BITMAP
00
00
00
00
00
1c
22
24
78
40
44
38
00
00
00
ENDCHAR
STARTCHAR LtSmlF
ENCODING 102
SWIDTH 960 0
DWIDTH 8 0
BBX 8 15 0 -3
BITMAP
00
00
03
04
08
08
3e
08
10
10
10
10
20
20
40
ENDCHAR
STARTCHAR LtSmlG
ENCODING 103
SWIDTH 960 0
DWIDTH 8 0
BBX 8 15 0 -3
BITMAP
00
00
00
00
00
1e
22
22
44
44
4c
34
08
48
70
ENDCHAR
STARTCHAR LtSmlH
ENCODING 104
SWIDTH 960 0
DWIDTH 8 0
BBX 8 15 0 -3
BITMAP
00
00
30
10
10
2e
32
22
22
44
44
46
00
00
00
ENDCHAR
STARTCHAR LtSmlI
ENCODING 105
SWIDTH 960 0
DWIDTH 8 0
BBX 8 15 0 -3
BITMAP
00
00
04
04
00
0c
18
08
08
10
12
1c
00
00
00
ENDCHAR
STARTCHAR LtSmlJ
ENCODING 106
SWIDTH 960 0
DWIDTH 8 0
BBX 8 15 0 -3
BITMAP
00
00
04
04
00
0c
18
08
08
08
10
10
10
20
c0
ENDCHAR
STARTCHAR LtSmlK
ENCODING 107
SWIDTH 960 0
DWIDTH 8 0
BBX 8 15 0 -3
BITMAP
00
00
10
10
10
2e
32
22
3c
48
44
42
00
00
00
ENDCHAR
STARTCHAR LtSmlL
ENCODING 108
SWIDTH 960 0
DWIDTH 8 0
BBX 8 15 0 -3
BITMAP
00
00
0c
04
04
08
08
08
08
10
14
18
00
00
00
ENDCHAR
STARTCHAR LtSmlM
ENCODING 109
SWIDTH 960 0
DWIDTH 8 0
BBX 8 15 0 -3
BITMAP
00
00
00
00
00
b7
49
49
49
92
92
93
00
00
00
ENDCHAR
STARTCHAR LtSmlN
ENCODING 110
SWIDTH 960 0
DWIDTH 8 0
BBX 8 15 0 -3
BITMAP
00
00
00
00
00
6e
32
22
22
44
44
46
00
00
00
ENDCHAR
STARTCHAR LtSmlO
ENCODING 111
SWIDTH 960 0
DWIDTH 8 0
BBX 8 15 0 -3
BITMAP
00
00
00
00
00
1c
22
22
42
44
44
38
00
00
00
ENDCHAR
STARTCHAR LtSmlP
ENCODING 112
SWIDTH 960 0
DWIDTH 8 0
BBX 8 15 0 -3
BITMAP
00
00
00
00
00
2c
72
22
22
44
44
78
40
80
80
ENDCHAR
STARTCHAR LtSmlQ
ENCODING 113
SWIDTH 960 0
DWIDTH 8 0
BBX 8 15 0 -3
BITMAP
00
00
00
00
00
1a
26
22
42
44
4c
34
08
08
08
ENDCHAR
STARTCHAR LtSmlR
ENCODING 114
SWIDTH 960 0
DWIDTH 8 0
BBX 8 15 0 -3
BITMAP
00
00
00
00
00
16
3a
10
10
20
20
20
00
00
00
ENDCHAR
STARTCHAR LtSmlS
ENCODING 115
SWIDTH 960 0
DWIDTH 8 0
BBX 8 15 0 -3
BITMAP
00
00
00
00
00
1c
22
20
18
04
44
38
00
00
00
ENDCHAR
STARTCHAR LtSmlT
ENCODING 116
SWIDTH 960 0
DWIDTH 8 0
BBX 8 15 0 -3
BITMAP
00
00
00
08
08
3e
08
10
10
10
24
18
00
00
00
ENDCHAR
STARTCHAR LtSmlU
ENCODING 117
SWIDTH 960 0
DWIDTH 8 0
BBX 8 15 0 -3
BITMAP
00
00
00
00
00
62
22
22
42
44
4c
32
00
00
00
ENDCHAR
STARTCHAR LtSmlV
ENCODING 118
SWIDTH 960 0
DWIDTH 8 0
BBX 8 15 0 -3
BITMAP
00
00
00
00
00
62
22
22
22
24
28
30
00
00
00
ENDCHAR
STARTCHAR LtSmlW
ENCODING 119
SWIDTH 960 0
DWIDTH 8 0
BBX 8 15 0 -3
BITMAP
00
00
00
00
00
61
21
41
49
5a
66
44
00
00
00
ENDCHAR
STARTCHAR LtSmlX
ENCODING 120
SWIDTH 960 0
DWIDTH 8 0
BBX 8 15 0 -3
BITMAP
00
00
00
00
00
31
12
0c
08
18
24
46
00
00
00
ENDCHAR
STARTCHAR LtSmlY
ENCODING 121
SWIDTH 960 0
DWIDTH 8 0
BBX 8 15 0 -3
BITMAP
00
00
00
00
00
62
22
22
44
44
4c
34
08
48
70
ENDCHAR
STARTCHAR LtSmlZ
ENCODING 122
SWIDTH 960 0
DWIDTH 8 0
BBX 8 15 0 -3
BITMAP
00
00
00
00
00
1d
22
04
08
10
20
52
0c
00
00
ENDCHAR
STARTCHAR PCurlyBrackL
ENCODING 123
SWIDTH 960 0
DWIDTH 8 0
BBX 8 15 0 -3
BITMAP
00
03
04
04
04
08
30
08
08
10
10
10
0c
00
00
ENDCHAR
STARTCHAR OVertBar
ENCODING 124
SWIDTH 960 0
DWIDTH 8 0
BBX 8 15 0 -3
BITMAP
00
04
04
04
04
08
08
08
08
10
10
10
10
00
00
ENDCHAR
STARTCHAR PCurlyBrackR
ENCODING 125
SWIDTH 960 0
DWIDTH 8 0
BBX 8 15 0 -3
BITMAP
00
30
08
08
08
10
10
0c
10
20
20
20
c0
00
00
ENDCHAR
STARTCHAR AccTildeAscii
ENCODING 126
SWIDTH 960 0
DWIDTH 8 0
BBX 8 15 0 -3
BITMAP
00
00
19
2d
26
00
00
00
00
00
00
00
00
00
00
ENDCHAR
STARTCHAR SpaceNoBreak
ENCODING 160
SWIDTH 960 0
DWIDTH 8 0
BBX 8 15 0 -3
BITMAP
00
00
00
00
00
00
00
00
00
84
84
fc
00
00
00
ENDCHAR
STARTCHAR LtCapAOgonek
ENCODING 161
SWIDTH 960 0
DWIDTH 8 0
BBX 8 15 0 -3
BITMAP
00
00
0c
0c
14
14
24
24
7c
44
84
84
08
10
0c
ENDCHAR
STARTCHAR AccBreve
ENCODING 162
SWIDTH 960 0
DWIDTH 8 0
BBX 8 15 0 -3
BITMAP
00
12
12
0c
00
00
00
00
00
00
00
00
00
00
00
ENDCHAR
STARTCHAR LtCapLStroke
ENCODING 163
SWIDTH 960 0
DWIDTH 8 0
BBX 8 15 0 -3
BITMAP
00
00
08
08
08
10
1c
70
10
20
20
3e
00
00
00
ENDCHAR
STARTCHAR CurrGeneral
ENCODING 164
SWIDTH 960 0
DWIDTH 8 0
BBX 8 15 0 -3
BITMAP
00
00
00
00
22
3c
24
24
3c
44
00
00
00
00
00
ENDCHAR
STARTCHAR LtCapLCaron
ENCODING 165
SWIDTH 960 0
DWIDTH 8 0
BBX 8 15 0 -3
BITMAP
00
01
11
11
12
20
20
20
20
40
40
7c
00
00
00
ENDCHAR
STARTCHAR LtCapSAcute
ENCODING 166
SWIDTH 960 0
DWIDTH 8 0
BBX 8 15 0 -3
BITMAP
01
06
00
1e
21
20
20
18
04
04
84
78
00
00
00
ENDCHAR
STARTCHAR SParagraph
ENCODING 167
SWIDTH 960 0
DWIDTH 8 0
BBX 8 15 0 -3
BITMAP
00
00
0e
11
10
08
18
24
24
24
18
10
08
88
70
ENDCHAR
STARTCHAR AccDrss
ENCODING 168
SWIDTH 960 0
DWIDTH 8 0
BBX 8 15 0 -3
BITMAP
00
12
12
00
00
00
00
00
00
00
00
00
00
00
00
ENDCHAR
STARTCHAR LtCapSCaron
ENCODING 169
SWIDTH 960 0
DWIDTH 8 0
BBX 8 15 0 -3
BITMAP
09
06
00
1e
21
20
20
18
04
04
84
78
00
00
00
ENDCHAR
STARTCHAR LtCapSComma
ENCODING 170
SWIDTH 960 0
DWIDTH 8 0
BBX 8 15 0 -3
BITMAP
00
00
1e
21
20
20
10
08
04
04
84
78
40
20
40
ENDCHAR
STARTCHAR LtCapTCaron
ENCODING 171
SWIDTH 960 0
DWIDTH 8 0
BBX 8 15 0 -3
BITMAP
12
0c
00
7f
08
08
10
10
10
20
20
20
00
00
00
ENDCHAR
STARTCHAR LtCapZAcute
ENCODING 172
SWIDTH 960 0
DWIDTH 8 0
BBX 8 15 0 -3
BITMAP
02
0c
00
3f
02
04
08
10
20
40
80
fc
00
00
00
ENDCHAR
STARTCHAR PHyphenSoft
ENCODING 173
SWIDTH 960 0
DWIDTH 8 0
BBX 8 15 0 -3
BITMAP
00
00
00
00
00
00
00
3c
00
00
00
00
00
00
00
ENDCHAR
STARTCHAR LtCapZCaron
ENCODING 174
SWIDTH 960 0
DWIDTH 8 0
BBX 8 15 0 -3
BITMAP
12
0c
00
3f
02
04
08
10
20
40
80
fc
00
00
00
ENDCHAR
STARTCHAR LtCapZDot
ENCODING 175
SWIDTH 960 0
DWIDTH 8 0
BBX 8 15 0 -3
BITMAP
04
04
00
3f
02
04
08
10
20
40
80
fc
00
00
00
ENDCHAR
STARTCHAR SDegree
ENCODING 176
SWIDTH 960 0
DWIDTH 8 0
BBX 8 15 0 -3
BITMAP
00
00
0c
12
12
0c
00
00
00
00
00
00
00
00
00
ENDCHAR
STARTCHAR LtSmlAOgonek
ENCODING 177
SWIDTH 960 0
DWIDTH 8 0
BBX 8 15 0 -3
BITMAP
00
00
00
00
00
1e
22
22
44
44
4c
36
08
10
0c
ENDCHAR
STARTCHAR AccOgonek
ENCODING 178
SWIDTH 960 0
DWIDTH 8 0
BBX 8 15 0 -3
BITMAP
00
00
00
00
00
00
00
00
00
00
00
08
18
10
0c
ENDCHAR
STARTCHAR LtSmlLStroke
ENCODING 179
SWIDTH 960 0
DWIDTH 8 0
BBX 8 15 0 -3
BITMAP
00
00
0c
04
04
08
0e
38
08
10
14
18
00
00
00
ENDCHAR
STARTCHAR AccAcute
ENCODING 180
SWIDTH 960 0
DWIDTH 8 0
BBX 8 15 0 -3
BITMAP
00
04
04
08
10
00
00
00
00
00
00
00
00
00
00
ENDCHAR
STARTCHAR LtSmlLCaron
ENCODING 181
SWIDTH 960 0
DWIDTH 8 0
BBX 8 15 0 -3
BITMAP
00
01
19
09
0a
10
10
10
10
20
28
30
00
00
00
ENDCHAR
STARTCHAR LtSmlSAcute
ENCODING 182
SWIDTH 960 0
DWIDTH 8 0
BBX 8 15 0 -3
BITMAP
00
02
02
04
00
1c
22
20
18
04
44
38
00
00
00
ENDCHAR
STARTCHAR AccCaron
ENCODING 183
SWIDTH 960 0
DWIDTH 8 0
BBX 8 15 0 -3
BITMAP
00
11
0a
04
00
00
00
00
00
00
00
00
00
00
00
ENDCHAR
STARTCHAR AccCedilla
ENCODING 184
SWIDTH 960 0
DWIDTH 8 0
BBX 8 15 0 -3
BITMAP
00
00
00
00
00
00
00
00
00
00
00
20
30
10
60
ENDCHAR
STARTCHAR LtSmlSCaron
ENCODING 185
SWIDTH 960 0
DWIDTH 8 0
BBX 8 15 0 -3
BITMAP
00
00
12
0c
00
1c
22
20
18
04
44
38
00
00
00
ENDCHAR
STARTCHAR LtSmlSComma
ENCODING 186
SWIDTH 960 0
DWIDTH 8 0
BBX 8 15 0 -3
BITMAP
00
00
00
00
00
1c
22
20
18
04
44
38
20
10
20
ENDCHAR
STARTCHAR LtSmlTCaron
ENCODING 187
SWIDTH 960 0
DWIDTH 8 0
BBX 8 15 0 -3
BITMAP
00
01
01
09
0a
3c
08
10
10
10
24
18
00
00
00
ENDCHAR
STARTCHAR LtSmlZAcute
ENCODING 188
SWIDTH 960 0
DWIDTH 8 0
BBX 8 15 0 -3
BITMAP
00
02
02
04
00
1d
22
04
08
10
20
52
0c
00
00
ENDCHAR
STARTCHAR AccAcute2
ENCODING 189
SWIDTH 960 0
DWIDTH 8 0
BBX 8 15 0 -3
BITMAP
00
12
12
24
00
00
00
00
00
00
00
00
00
00
00
ENDCHAR
STARTCHAR LtSmlZCaron
ENCODING 190
SWIDTH 960 0
DWIDTH 8 0
BBX 8 15 0 -3
BITMAP
00
00
09
06
00
1d
22
04
08
10
20
52
0c
00
00
ENDCHAR
STARTCHAR LtSmlZDot
ENCODING 191
SWIDTH 960 0
DWIDTH 8 0
BBX 8 15 0 -3
BITMAP
00
00
04
04
00
1d
22
04
08
10
20
52
0c
00
00
ENDCHAR
STARTCHAR LtCapRAcute
ENCODING 192
SWIDTH 960 0
DWIDTH 8 0
BBX 8 15 0 -3
BITMAP
01
06
00
1e
11
11
22
3c
28
48
44
44
00
00
00
ENDCHAR
STARTCHAR LtCapAAcute
ENCODING 193
SWIDTH 960 0
DWIDTH 8 0
BBX 8 15 0 -3
BITMAP
01
06
00
0c
0c
14
14
24
7c
44
84
84
00
00
00
ENDCHAR
STARTCHAR LtCapACircum
ENCODING 194
SWIDTH 960 0
DWIDTH 8 0
BBX 8 15 0 -3
BITMAP
0c
12
00
0c
0c
14
14
24
7c
44
84
84
00
00
00
ENDCHAR
STARTCHAR LtCapABreve
ENCODING 195
SWIDTH 960 0
DWIDTH 8 0
BBX 8 15 0 -3
BITMAP
11
0e
00
0c
0c
14
14
24
7c
44
84
84
00
00
00
ENDCHAR
STARTCHAR LtCapADrss
ENCODING 196
SWIDTH 960 0
DWIDTH 8 0
BBX 8 15 0 -3
BITMAP
12
12
00
0c
0c
14
14
24
7c
44
84
84
00
00
00
ENDCHAR
STARTCHAR LtCapLAcute
ENCODING 197
SWIDTH 960 0
DWIDTH 8 0
BBX 8 15 0 -3
BITMAP
01
06
00
10
10
10
20
20
20
40
40
7c
00
00
00
ENDCHAR
STARTCHAR LtCapCAcute
ENCODING 198
SWIDTH 960 0
DWIDTH 8 0
BBX 8 15 0 -3
BITMAP
01
06
00
0e
11
20
20
40
40
40
44
38
00
00
00
ENDCHAR
STARTCHAR LtCapCCedilla
ENCODING 199
SWIDTH 960 0
DWIDTH 8 0
BBX 8 15 0 -3
BITMAP
00
00
0e
11
20
20
40
40
40
40
44
38
20
10
60
ENDCHAR
STARTCHAR LtCapCCaron
ENCODING 200
SWIDTH 960 0
DWIDTH 8 0
BBX 8 15 0 -3
BITMAP
09
06
00
0e
11
20
20
40
40
40
44
38
00
00
00
ENDCHAR
STARTCHAR LtCapEAcute
ENCODING 201
SWIDTH 960 0
DWIDTH 8 0
BBX 8 15 0 -3
BITMAP
01
06
00
1f
10
10
20
3c
20
40
40
7c
00
00
00
ENDCHAR
STARTCHAR LtCapEOgonek
ENCODING 202
SWIDTH 960 0
DWIDTH 8 0
BBX 8 15 0 -3
BITMAP
00
00
1f
10
10
20
3c
20
20
40
40
7c
08
10
0c
ENDCHAR
STARTCHAR LtCapEDrss
ENCODING 203
SWIDTH 960 0
DWIDTH 8 0
BBX 8 15 0 -3
BITMAP
09
09
00
1f
10
10
20
3c
20
40
40
7c
00
00
00
ENDCHAR
STARTCHAR LtCapECaron
ENCODING 204
SWIDTH 960 0
DWIDTH 8 0
BBX 8 15 0 -3
BITMAP
09
06
00
1f
10
10
20
3c
20
40
40
7c
00
00
00
ENDCHAR
STARTCHAR LtCapIAcute
ENCODING 205
SWIDTH 960 0
DWIDTH 8 0
BBX 8 15 0 -3
BITMAP
01
06
00
1f
04
04
08
08
08
10
10
7c
00
00
00
ENDCHAR
STARTCHAR LtCapICircum
ENCODING 206
SWIDTH 960 0
DWIDTH 8 0
BBX 8 15 0 -3
BITMAP
06
09
00
1f
04
04
08
08
08
10
10
7c
00
00
00
ENDCHAR
STARTCHAR LtCapDCaron
ENCODING 207
SWIDTH 960 0
DWIDTH 8 0
BBX 8 15 0 -3
BITMAP
12
0c
00
3c
22
22
42
42
44
84
88
f0
00
00
00
ENDCHAR
STARTCHAR LtCapDStroke
ENCODING 208
SWIDTH 960 0
DWIDTH 8 0
BBX 8 15 0 -3
BITMAP
00
00
1e
11
11
21
79
21
22
42
44
78
00
00
00
ENDCHAR
STARTCHAR LtCapNAcute
ENCODING 209
SWIDTH 960 0
DWIDTH 8 0
BBX 8 15 0 -3
BITMAP
02
0c
00
21
21
31
52
4a
4a
8c
84
84
00
00
00
ENDCHAR
STARTCHAR LtCapNCaron
ENCODING 210
SWIDTH 960 0
DWIDTH 8 0
BBX 8 15 0 -3
BITMAP
09
06
00
21
21
31
52
4a
4a
8c
84
84
00
00
00
ENDCHAR
STARTCHAR LtCapOAcute
ENCODING 211
SWIDTH 960 0
DWIDTH 8 0
BBX 8 15 0 -3
BITMAP
01
06
00
0e
11
21
21
41
42
42
44
38
00
00
00
ENDCHAR
STARTCHAR LtCapOCircum
ENCODING 212
SWIDTH 960 0
DWIDTH 8 0
BBX 8 15 0 -3
BITMAP
06
09
00
0e
11
21
21
41
42
42
44
38
00
00
00
ENDCHAR
STARTCHAR LtCapOAcute2
ENCODING 213
SWIDTH 960 0
DWIDTH 8 0
BBX 8 15 0 -3
BITMAP
09
12
00
0e
11
21
21
41
42
42
44
38
00
00
00
ENDCHAR
STARTCHAR LtCapODrss
ENCODING 214
SWIDTH 960 0
DWIDTH 8 0
BBX 8 15 0 -3
BITMAP
09
09
00
0e
11
21
21
41
42
42
44
38
00
00
00
ENDCHAR
STARTCHAR MMultiply
ENCODING 215
SWIDTH 960 0
DWIDTH 8 0
BBX 8 15 0 -3
BITMAP
00
00
00
00
00
42
24
18
18
24
42
00
00
00
00
ENDCHAR
STARTCHAR LtCapRCaron
ENCODING 216
SWIDTH 960 0
DWIDTH 8 0
BBX 8 15 0 -3
BITMAP
09
06
00
1e
11
11
22
3c
28
48
44
44
00
00
00
ENDCHAR
STARTCHAR LtCapURing
ENCODING 217
SWIDTH 960 0
DWIDTH 8 0
BBX 8 15 0 -3
BITMAP
0c
12
0c
21
21
41
42
42
82
84
84
78
00
00
00
ENDCHAR
STARTCHAR LtCapUAcute
ENCODING 218
SWIDTH 960 0
DWIDTH 8 0
BBX 8 15 0 -3
BITMAP
02
0c
00
21
21
41
42
42
82
84
84
78
00
00
00
ENDCHAR
STARTCHAR LtCapUAcute2
ENCODING 219
SWIDTH 960 0
DWIDTH 8 0
BBX 8 15 0 -3
BITMAP
09
12
00
21
21
41
42
42
82
84
84
78
00
00
00
ENDCHAR
STARTCHAR LtCapUDrss
ENCODING 220
SWIDTH 960 0
DWIDTH 8 0
BBX 8 15 0 -3
BITMAP
12
12
00
21
21
41
42
42
82
84
84
78
00
00
00
ENDCHAR
STARTCHAR LtCapYAcute
ENCODING 221
SWIDTH 960 0
DWIDTH 8 0
BBX 8 15 0 -3
BITMAP
02
0c
00
21
21
12
12
0c
08
08
10
10
00
00
00
ENDCHAR
STARTCHAR LtCapTComma
ENCODING 222
SWIDTH 960 0
DWIDTH 8 0
BBX 8 15 0 -3
BITMAP
00
00
7f
08
08
10
10
10
10
20
20
20
10
10
20
ENDCHAR
STARTCHAR LtSmlSz
ENCODING 223
SWIDTH 960 0
DWIDTH 8 0
BBX 8 15 0 -3
BITMAP
00
00
0c
12
12
24
6c
22
22
44
44
58
80
80
80
ENDCHAR
STARTCHAR LtSmlRAcute
ENCODING 224
SWIDTH 960 0
DWIDTH 8 0
BBX 8 15 0 -3
BITMAP
00
02
02
04
00
16
3a
10
10
20
20
20
00
00
00
ENDCHAR
STARTCHAR LtSmlAAcute
ENCODING 225
SWIDTH 960 0
DWIDTH 8 0
BBX 8 15 0 -3
BITMAP
00
02
02
04
00
1e
22
22
44
44
4c
32
00
00
00
ENDCHAR
STARTCHAR LtSmlACircum
ENCODING 226
SWIDTH 960 0
DWIDTH 8 0
BBX 8 15 0 -3
BITMAP
00
00
0c
12
00
1e
22
22
44
44
4c
32
00
00
00
ENDCHAR
STARTCHAR LtSmlABreve
ENCODING 227
SWIDTH 960 0
DWIDTH 8 0
BBX 8 15 0 -3
BITMAP
00
00
12
0c
00
1e
22
22
44
44
4c
32
00
00
00
ENDCHAR
STARTCHAR LtSmlADrss
ENCODING 228
SWIDTH 960 0
DWIDTH 8 0
BBX 8 15 0 -3
BITMAP
00
00
12
12
00
1e
22
22
44
44
4c
32
00
00
00
ENDCHAR
STARTCHAR LtSmlLAcute
ENCODING 229
SWIDTH 960 0
DWIDTH 8 0
BBX 8 15 0 -3
BITMAP
01
06
00
0c
04
04
08
08
08
10
14
18
00
00
00
ENDCHAR
STARTCHAR LtSmlCAcute
ENCODING 230
SWIDTH 960 0
DWIDTH 8 0
BBX 8 15 0 -3
BITMAP
00
04
04
08
00
1c
22
20
40
40
44
38
00
00
00
ENDCHAR
STARTCHAR LtSmlCCedilla
ENCODING 231
SWIDTH 960 0
DWIDTH 8 0
BBX 8 15 0 -3
BITMAP
00
00
00
00
00
1c
22
20
40
40
44
38
20
10
60
ENDCHAR
STARTCHAR LtSmlCCaron
ENCODING 232
SWIDTH 960 0
DWIDTH 8 0
BBX 8 15 0 -3
BITMAP
00
00
12
0c
00
1c
22
20
40
40
44
38
00
00
00
ENDCHAR
STARTCHAR LtSmlEAcute
ENCODING 233
SWIDTH 960 0
DWIDTH 8 0
BBX 8 15 0 -3
BITMAP
00
04
04
08
00
1c
22
24
78
40
44
38
00
00
00
ENDCHAR
STARTCHAR LtSmlEOgonek
ENCODING 234
SWIDTH 960 0
DWIDTH 8 0
BBX 8 15 0 -3
BITMAP
00
00
00
00
00
1c
22
24
78
40
44
38
10
20
18
ENDCHAR
STARTCHAR LtSmlEDrss
ENCODING 235
SWIDTH 960 0
DWIDTH 8 0
BBX 8 15 0 -3
BITMAP
00
00
12
12
00
1c
22
24
78
40
44
38
00
00
00
ENDCHAR
STARTCHAR LtSmlECaron
ENCODING 236
SWIDTH 960 0
DWIDTH 8 0
BBX 8 15 0 -3
BITMAP
00
00
12
0c
00
1c
22
24
78
40
44
38
00
00
00
ENDCHAR
STARTCHAR LtSmlIAcute
ENCODING 237
SWIDTH 960 0
DWIDTH 8 0
BBX 8 15 0 -3
BITMAP
00
04
04
08
00
0c
18
08
08
10
12
1c
00
00
00
ENDCHAR
STARTCHAR LtSmlICircum
ENCODING 238
SWIDTH 960 0
DWIDTH 8 0
BBX 8 15 0 -3
BITMAP
00
00
0c
12
00
0c
18
08
08
10
12
1c
00
00
00
ENDCHAR
STARTCHAR LtSmlDCaron
ENCODING 239
SWIDTH 960 0
DWIDTH 8 0
BBX 8 15 0 -3
BITMAP
00
01
05
05
0a
38
48
48
90
90
90
68
00
00
00
ENDCHAR
STARTCHAR LtSmlDStroke
ENCODING 240
SWIDTH 960 0
DWIDTH 8 0
BBX 8 15 0 -3
BITMAP
00
00
02
0f
02
3c
44
44
84
88
98
64
00
00
00
ENDCHAR
STARTCHAR LtSmlNAcute
ENCODING 241
SWIDTH 960 0
DWIDTH 8 0
BBX 8 15 0 -3
BITMAP
00
04
04
08
00
6e
32
22
22
44
44
46
00
00
00
ENDCHAR
STARTCHAR LtSmlNCaron
ENCODING 242
SWIDTH 960 0
DWIDTH 8 0
BBX 8 15 0 -3
BITMAP
00
00
12
0c
00
6e
32
22
22
44
44
46
00
00
00
ENDCHAR
STARTCHAR LtSmlOAcute
ENCODING 243
SWIDTH 960 0
DWIDTH 8 0
BBX 8 15 0 -3
BITMAP
00
02
02
04
00
1c
22
22
42
44
44
38
00
00
00
ENDCHAR
STARTCHAR LtSmlOCircum
ENCODING 244
SWIDTH 960 0
DWIDTH 8 0
BBX 8 15 0 -3
BITMAP
00
00
0c
12
00
1c
22
22
42
44
44
38
00
00
00
ENDCHAR
STARTCHAR LtSmlOAcute2
ENCODING 245
SWIDTH 960 0
DWIDTH 8 0
BBX 8 15 0 -3
BITMAP
00
0a
0a
14
00
1c
22
22
42
44
44
38
00
00
00
ENDCHAR
STARTCHAR LtSmlODrss
ENCODING 246
SWIDTH 960 0
DWIDTH 8 0
BBX 8 15 0 -3
BITMAP
00
00
12
12
00
1c
22
22
42
44
44
38
00
00
00
ENDCHAR
STARTCHAR MDivision
ENCODING 247
SWIDTH 960 0
DWIDTH 8 0
BBX 8 15 0 -3
BITMAP
00
00
00
08
1c
08
00
7f
00
08
1c
08
00
00
00
ENDCHAR
STARTCHAR LtSmlRCaron
ENCODING 248
SWIDTH 960 0
DWIDTH 8 0
BBX 8 15 0 -3
BITMAP
00
00
12
0c
00
16
3a
10
10
20
20
20
00
00
00
ENDCHAR
STARTCHAR LtSmlURing
ENCODING 249
SWIDTH 960 0
DWIDTH 8 0
BBX 8 15 0 -3
BITMAP
00
0c
12
0c
00
62
22
22
42
44
4c
32
00
00
00
ENDCHAR
STARTCHAR LtSmlUAcute
ENCODING 250
SWIDTH 960 0
DWIDTH 8 0
BBX 8 15 0 -3
BITMAP
00
04
04
08
00
62
22
22
42
44
4c
32
00
00
00
ENDCHAR
STARTCHAR LtSmlUAcute2
ENCODING 251
SWIDTH 960 0
DWIDTH 8 0
BBX 8 15 0 -3
BITMAP
00
0a
0a
14
00
62
22
22
42
44
4c
32
00
00
00
ENDCHAR
STARTCHAR LtSmlUDrss
ENCODING 252
SWIDTH 960 0
DWIDTH 8 0
BBX 8 15 0 -3
BITMAP
00
00
12
12
00
62
22
22
42
44
4c
32
00
00
00
ENDCHAR
STARTCHAR LtSmlYAcute
ENCODING 253
SWIDTH 960 0
DWIDTH 8 0
BBX 8 15 0 -3
BITMAP
00
04
04
08
00
62
22
22
44
44
4c
34
08
48
70
ENDCHAR
STARTCHAR LtSmlTComma
ENCODING 254
SWIDTH 960 0
DWIDTH 8 0
BBX 8 15 0 -3
BITMAP
00
00
00
08
08
3e
08
10
10
10
24
18
10
08
10
ENDCHAR
STARTCHAR AccDot
ENCODING 255
SWIDTH 960 0
DWIDTH 8 0
BBX 8 15 0 -3
BITMAP
00
0c
0c
00
00
00
00
00
00
00
00
00
00
00
00
ENDCHAR
ENDFONT
