STARTFONT 2.1
COMMENT 
COMMENT Copyright (C) 2012-2015 Uwe Waldmann
COMMENT 
COMMENT Permission is hereby granted, free of charge, to any person obtaining
COMMENT a copy of this font software and associated files (the "Software"),
COMMENT to deal in the Software without restriction, including without
COMMENT limitation the rights to use, copy, modify, merge, publish,
COMMENT distribute, embed, sublicense, and/or sell copies of the Software,
COMMENT and to permit persons to whom the Software is furnished to do so,
COMMENT subject to the following conditions:
COMMENT 
COMMENT (1) The above copyright notice, this permission notice, and the
COMMENT     disclaimer below shall be included in all copies or substantial
COMMENT     portions of the Software.
COMMENT 
COMMENT (2) If the design of any glyphs in the fonts that are contained in the
COMMENT     Software or generated during the installation process is modified
COMMENT     or if additional glyphs are added to the fonts, the fonts
COMMENT     must be renamed. The new names may not contain the word "UW",
COMMENT     irrespective of capitalisation; the new names may contain the word
COMMENT     "ttyp0", irrespective of capitalisation, only if preceded by a
COMMENT     foundry name different from "UW".
COMMENT 
COMMENT THE SOFTWARE IS PROVIDED "AS IS", WITHOUT WARRANTY OF ANY KIND, EXPRESS
COMMENT OR IMPLIED, INCLUDING BUT NOT LIMITED TO THE WARRANTIES OF
COMMENT MERCHANTABILITY, FITNESS FOR A PARTICULAR PURPOSE AND NONINFRINGEMENT.
COMMENT IN NO EVENT SHALL THE AUTHORS OR COPYRIGHT HOLDERS BE LIABLE FOR ANY
COMMENT CLAIM, DAMAGES OR OTHER LIABILITY, WHETHER IN AN ACTION OF CONTRACT,
COMMENT TORT OR OTHERWISE, ARISING FROM, OUT OF OR IN CONNECTION WITH THE
COMMENT SOFTWARE OR THE USE OR OTHER DEALINGS IN THE SOFTWARE.
COMMENT 
FONT -UW-Ttyp0-Bold-R-Normal--22-200-75-75-C-110-ISO8859-2
SIZE 22 75 75
FONTBOUNDINGBOX 11 22 0 -5
STARTPROPERTIES 20
FONTNAME_REGISTRY ""
FOUNDRY "UW"
FAMILY_NAME "Ttyp0"
WEIGHT_NAME "Bold"
SLANT "R"
SETWIDTH_NAME "Normal"
ADD_STYLE_NAME ""
PIXEL_SIZE 22
POINT_SIZE 200
RESOLUTION_X 75
RESOLUTION_Y 75
SPACING "C"
AVERAGE_WIDTH 110
CHARSET_REGISTRY "ISO8859"
CHARSET_ENCODING "2"
DEFAULT_CHAR 0
FONT_DESCENT 5
FONT_ASCENT 17
UNDERLINE_THICKNESS 2
COPYRIGHT "Copyright (C) 2012-2015 Uwe Waldmann"
ENDPROPERTIES
CHARS 223
STARTCHAR DDefaultChar
ENCODING 0
SWIDTH 1320 0
DWIDTH 11 0
BBX 11 22 0 -5
BITMAP
0000
0000
0000
6ec0
6ec0
6ec0
0000
71c0
71c0
0000
71c0
71c0
71c0
0000
6ec0
6ec0
6ec0
0000
0000
0000
0000
0000
ENDCHAR
STARTCHAR DDiamondB
ENCODING 1
SWIDTH 1320 0
DWIDTH 11 0
BBX 11 22 0 -5
BITMAP
0000
0000
0000
0000
0000
0000
0c00
1e00
3f00
7f80
ffc0
ffc0
7f80
3f00
1e00
0c00
0000
0000
0000
0000
0000
0000
ENDCHAR
STARTCHAR GGrey
ENCODING 2
SWIDTH 1320 0
DWIDTH 11 0
BBX 11 22 0 -5
BITMAP
5540
aaa0
5540
aaa0
5540
aaa0
5540
aaa0
5540
aaa0
5540
aaa0
5540
aaa0
5540
aaa0
5540
aaa0
5540
aaa0
5540
aaa0
ENDCHAR
STARTCHAR CtlHT
ENCODING 3
SWIDTH 1320 0
DWIDTH 11 0
BBX 11 22 0 -5
BITMAP
0000
0000
0000
7700
7700
7f00
7700
7700
7700
0000
0000
1fc0
1740
0700
0700
0700
0700
0000
0000
0000
0000
0000
ENDCHAR
STARTCHAR CtlFF
ENCODING 4
SWIDTH 1320 0
DWIDTH 11 0
BBX 11 22 0 -5
BITMAP
0000
0000
0000
7e00
7000
7c00
7000
7000
7000
0000
0000
0fc0
0e00
0f80
0e00
0e00
0e00
0000
0000
0000
0000
0000
ENDCHAR
STARTCHAR CtlCR
ENCODING 5
SWIDTH 1320 0
DWIDTH 11 0
BBX 11 22 0 -5
BITMAP
0000
0000
0000
3c00
7600
7000
7000
7600
3c00
0000
0000
0f80
0ec0
0ec0
0f80
0ec0
0ec0
0000
0000
0000
0000
0000
ENDCHAR
STARTCHAR CtlLF
ENCODING 6
SWIDTH 1320 0
DWIDTH 11 0
BBX 11 22 0 -5
BITMAP
0000
0000
0000
7000
7000
7000
7000
7600
7e00
0000
0000
0fc0
0e00
0f80
0e00
0e00
0e00
0000
0000
0000
0000
0000
ENDCHAR
STARTCHAR SDegree
ENCODING 7
SWIDTH 1320 0
DWIDTH 11 0
BBX 11 22 0 -5
BITMAP
0000
0000
1e00
3f00
3300
3300
3f00
1e00
0000
0000
0000
0000
0000
0000
0000
0000
0000
0000
0000
0000
0000
0000
ENDCHAR
STARTCHAR MPlusMinus
ENCODING 8
SWIDTH 1320 0
DWIDTH 11 0
BBX 11 22 0 -5
BITMAP
0000
0000
0000
0000
0000
0e00
0e00
0e00
7fc0
7fc0
7fc0
0e00
0e00
0e00
0000
7fc0
7fc0
7fc0
0000
0000
0000
0000
ENDCHAR
STARTCHAR CtlNL
ENCODING 9
SWIDTH 1320 0
DWIDTH 11 0
BBX 11 22 0 -5
BITMAP
0000
0000
0000
6600
7600
7e00
7e00
6e00
6600
0000
0000
0e00
0e00
0e00
0e00
0ec0
0fc0
0000
0000
0000
0000
0000
ENDCHAR
STARTCHAR CtlVT
ENCODING 10
SWIDTH 1320 0
DWIDTH 11 0
BBX 11 22 0 -5
BITMAP
0000
0000
0000
7300
7300
3600
3e00
1c00
1c00
0000
0000
1fc0
1740
0700
0700
0700
0700
0000
0000
0000
0000
0000
ENDCHAR
STARTCHAR GLineNW
ENCODING 11
SWIDTH 1320 0
DWIDTH 11 0
BBX 11 22 0 -5
BITMAP
0e00
0e00
0e00
0e00
0e00
0e00
0e00
0e00
0e00
0e00
fe00
fe00
fe00
0000
0000
0000
0000
0000
0000
0000
0000
0000
ENDCHAR
STARTCHAR GLineSW
ENCODING 12
SWIDTH 1320 0
DWIDTH 11 0
BBX 11 22 0 -5
BITMAP
0000
0000
0000
0000
0000
0000
0000
0000
0000
0000
fe00
fe00
fe00
0e00
0e00
0e00
0e00
0e00
0e00
0e00
0e00
0e00
ENDCHAR
STARTCHAR GLineSE
ENCODING 13
SWIDTH 1320 0
DWIDTH 11 0
BBX 11 22 0 -5
BITMAP
0000
0000
0000
0000
0000
0000
0000
0000
0000
0000
0fe0
0fe0
0fe0
0e00
0e00
0e00
0e00
0e00
0e00
0e00
0e00
0e00
ENDCHAR
STARTCHAR GLineNE
ENCODING 14
SWIDTH 1320 0
DWIDTH 11 0
BBX 11 22 0 -5
BITMAP
0e00
0e00
0e00
0e00
0e00
0e00
0e00
0e00
0e00
0e00
0fe0
0fe0
0fe0
0000
0000
0000
0000
0000
0000
0000
0000
0000
ENDCHAR
STARTCHAR GLineNSWE
ENCODING 15
SWIDTH 1320 0
DWIDTH 11 0
BBX 11 22 0 -5
BITMAP
0e00
0e00
0e00
0e00
0e00
0e00
0e00
0e00
0e00
0e00
ffe0
ffe0
ffe0
0e00
0e00
0e00
0e00
0e00
0e00
0e00
0e00
0e00
ENDCHAR
STARTCHAR GLineWEHhigh
ENCODING 16
SWIDTH 1320 0
DWIDTH 11 0
BBX 11 22 0 -5
BITMAP
0000
0000
ffe0
ffe0
ffe0
0000
0000
0000
0000
0000
0000
0000
0000
0000
0000
0000
0000
0000
0000
0000
0000
0000
ENDCHAR
STARTCHAR GLineWEHigh
ENCODING 17
SWIDTH 1320 0
DWIDTH 11 0
BBX 11 22 0 -5
BITMAP
0000
0000
0000
0000
0000
0000
ffe0
ffe0
ffe0
0000
0000
0000
0000
0000
0000
0000
0000
0000
0000
0000
0000
0000
ENDCHAR
STARTCHAR GLineWE
ENCODING 18
SWIDTH 1320 0
DWIDTH 11 0
BBX 11 22 0 -5
BITMAP
0000
0000
0000
0000
0000
0000
0000
0000
0000
0000
ffe0
ffe0
ffe0
0000
0000
0000
0000
0000
0000
0000
0000
0000
ENDCHAR
STARTCHAR GLineWELow
ENCODING 19
SWIDTH 1320 0
DWIDTH 11 0
BBX 11 22 0 -5
BITMAP
0000
0000
0000
0000
0000
0000
0000
0000
0000
0000
0000
0000
0000
0000
ffe0
ffe0
ffe0
0000
0000
0000
0000
0000
ENDCHAR
STARTCHAR GLineWELlow
ENCODING 20
SWIDTH 1320 0
DWIDTH 11 0
BBX 11 22 0 -5
BITMAP
0000
0000
0000
0000
0000
0000
0000
0000
0000
0000
0000
0000
0000
0000
0000
0000
0000
0000
ffe0
ffe0
ffe0
0000
ENDCHAR
STARTCHAR GLineNSE
ENCODING 21
SWIDTH 1320 0
DWIDTH 11 0
BBX 11 22 0 -5
BITMAP
0e00
0e00
0e00
0e00
0e00
0e00
0e00
0e00
0e00
0e00
0fe0
0fe0
0fe0
0e00
0e00
0e00
0e00
0e00
0e00
0e00
0e00
0e00
ENDCHAR
STARTCHAR GLineNSW
ENCODING 22
SWIDTH 1320 0
DWIDTH 11 0
BBX 11 22 0 -5
BITMAP
0e00
0e00
0e00
0e00
0e00
0e00
0e00
0e00
0e00
0e00
fe00
fe00
fe00
0e00
0e00
0e00
0e00
0e00
0e00
0e00
0e00
0e00
ENDCHAR
STARTCHAR GLineNWE
ENCODING 23
SWIDTH 1320 0
DWIDTH 11 0
BBX 11 22 0 -5
BITMAP
0e00
0e00
0e00
0e00
0e00
0e00
0e00
0e00
0e00
0e00
ffe0
ffe0
ffe0
0000
0000
0000
0000
0000
0000
0000
0000
0000
ENDCHAR
STARTCHAR GLineSWE
ENCODING 24
SWIDTH 1320 0
DWIDTH 11 0
BBX 11 22 0 -5
BITMAP
0000
0000
0000
0000
0000
0000
0000
0000
0000
0000
ffe0
ffe0
ffe0
0e00
0e00
0e00
0e00
0e00
0e00
0e00
0e00
0e00
ENDCHAR
STARTCHAR GLineNS
ENCODING 25
SWIDTH 1320 0
DWIDTH 11 0
BBX 11 22 0 -5
BITMAP
0e00
0e00
0e00
0e00
0e00
0e00
0e00
0e00
0e00
0e00
0e00
0e00
0e00
0e00
0e00
0e00
0e00
0e00
0e00
0e00
0e00
0e00
ENDCHAR
STARTCHAR MLessEq
ENCODING 26
SWIDTH 1320 0
DWIDTH 11 0
BBX 11 22 0 -5
BITMAP
0000
0000
0000
0000
00c0
03c0
0f80
3e00
7800
7800
3e00
0f80
03c0
00c0
0000
7fc0
7fc0
7fc0
0000
0000
0000
0000
ENDCHAR
STARTCHAR MGreaterEq
ENCODING 27
SWIDTH 1320 0
DWIDTH 11 0
BBX 11 22 0 -5
BITMAP
0000
0000
0000
0000
6000
7800
3e00
0f80
03c0
03c0
0f80
3e00
7800
6000
0000
7fc0
7fc0
7fc0
0000
0000
0000
0000
ENDCHAR
STARTCHAR GkSmlPi
ENCODING 28
SWIDTH 1320 0
DWIDTH 11 0
BBX 11 22 0 -5
BITMAP
0000
0000
0000
0000
0000
0000
0000
7fc0
ffc0
ffc0
3300
3300
3300
3300
3380
73c0
61c0
0000
0000
0000
0000
0000
ENDCHAR
STARTCHAR MEqualNot
ENCODING 29
SWIDTH 1320 0
DWIDTH 11 0
BBX 11 22 0 -5
BITMAP
0000
0000
0000
0000
0000
0000
0300
0300
7fc0
7fc0
7fc0
0e00
7fc0
7fc0
7fc0
1800
1800
0000
0000
0000
0000
0000
ENDCHAR
STARTCHAR CurrPound
ENCODING 30
SWIDTH 1320 0
DWIDTH 11 0
BBX 11 22 0 -5
BITMAP
0000
0000
0000
0000
0f80
1cc0
38c0
3800
3800
7e00
7e00
3800
3800
3040
7fc0
ffc0
ffc0
0000
0000
0000
0000
0000
ENDCHAR
STARTCHAR PMiddleDot
ENCODING 31
SWIDTH 1320 0
DWIDTH 11 0
BBX 11 22 0 -5
BITMAP
0000
0000
0000
0000
0000
0000
0000
0000
0000
0000
0e00
0e00
0e00
0000
0000
0000
0000
0000
0000
0000
0000
0000
ENDCHAR
STARTCHAR Space
ENCODING 32
SWIDTH 1320 0
DWIDTH 11 0
BBX 11 22 0 -5
BITMAP
0000
0000
0000
0000
0000
0000
0000
0000
0000
0000
0000
0000
0000
0000
0000
0000
0000
0000
0000
0000
0000
0000
ENDCHAR
STARTCHAR PExclam
ENCODING 33
SWIDTH 1320 0
DWIDTH 11 0
BBX 11 22 0 -5
BITMAP
0000
0000
0000
0e00
0e00
0e00
0e00
0e00
0e00
0e00
0e00
0e00
0000
0000
0e00
0e00
0e00
0000
0000
0000
0000
0000
ENDCHAR
STARTCHAR PQuote2Ascii
ENCODING 34
SWIDTH 1320 0
DWIDTH 11 0
BBX 11 22 0 -5
BITMAP
0000
0000
3b80
3b80
3b80
3b80
3b80
1100
0000
0000
0000
0000
0000
0000
0000
0000
0000
0000
0000
0000
0000
0000
ENDCHAR
STARTCHAR SNumberSign
ENCODING 35
SWIDTH 1320 0
DWIDTH 11 0
BBX 11 22 0 -5
BITMAP
0000
0000
0000
0000
0000
0000
3b80
3b80
7fc0
7fc0
3b80
3b80
7fc0
7fc0
3b80
3b80
0000
0000
0000
0000
0000
0000
ENDCHAR
STARTCHAR CurrDollar
ENCODING 36
SWIDTH 1320 0
DWIDTH 11 0
BBX 11 22 0 -5
BITMAP
0000
0000
0000
0600
0600
3fc0
76c0
66c0
7600
7e00
3f00
1f80
0fc0
0dc0
6cc0
6dc0
7f80
0c00
0c00
0000
0000
0000
ENDCHAR
STARTCHAR SPercent
ENCODING 37
SWIDTH 1320 0
DWIDTH 11 0
BBX 11 22 0 -5
BITMAP
0000
0000
0000
7800
ec00
ec40
ecc0
ed80
7b00
0e00
1c00
3780
6ec0
cec0
8ec0
0ec0
0780
0000
0000
0000
0000
0000
ENDCHAR
STARTCHAR SAmpersand
ENCODING 38
SWIDTH 1320 0
DWIDTH 11 0
BBX 11 22 0 -5
BITMAP
0000
0000
0000
0000
3c00
7600
7600
7600
7c00
3800
3cc0
6dc0
ef80
e700
e700
ff80
79c0
0000
0000
0000
0000
0000
ENDCHAR
STARTCHAR PApostropheAscii
ENCODING 39
SWIDTH 1320 0
DWIDTH 11 0
BBX 11 22 0 -5
BITMAP
0000
0000
0700
0700
0700
0e00
0c00
0000
0000
0000
0000
0000
0000
0000
0000
0000
0000
0000
0000
0000
0000
0000
ENDCHAR
STARTCHAR PParenL
ENCODING 40
SWIDTH 1320 0
DWIDTH 11 0
BBX 11 22 0 -5
BITMAP
0000
0000
0300
0e00
0c00
1c00
1800
3800
3800
3800
3800
3800
3800
1800
1c00
0c00
0e00
0300
0000
0000
0000
0000
ENDCHAR
STARTCHAR PParenR
ENCODING 41
SWIDTH 1320 0
DWIDTH 11 0
BBX 11 22 0 -5
BITMAP
0000
0000
3000
1c00
0c00
0e00
0600
0700
0700
0700
0700
0700
0700
0600
0e00
0c00
1c00
3000
0000
0000
0000
0000
ENDCHAR
STARTCHAR SAsterisk
ENCODING 42
SWIDTH 1320 0
DWIDTH 11 0
BBX 11 22 0 -5
BITMAP
0000
0000
0000
0000
0000
0000
0000
3b80
1b00
0e00
7fc0
7fc0
0e00
1b00
3b80
0000
0000
0000
0000
0000
0000
0000
ENDCHAR
STARTCHAR MPlus
ENCODING 43
SWIDTH 1320 0
DWIDTH 11 0
BBX 11 22 0 -5
BITMAP
0000
0000
0000
0000
0000
0000
0000
0e00
0e00
0e00
7fc0
7fc0
7fc0
0e00
0e00
0e00
0000
0000
0000
0000
0000
0000
ENDCHAR
STARTCHAR PComma
ENCODING 44
SWIDTH 1320 0
DWIDTH 11 0
BBX 11 22 0 -5
BITMAP
0000
0000
0000
0000
0000
0000
0000
0000
0000
0000
0000
0000
0000
0000
0e00
0e00
0e00
1c00
1800
0000
0000
0000
ENDCHAR
STARTCHAR PHyphenMinus
ENCODING 45
SWIDTH 1320 0
DWIDTH 11 0
BBX 11 22 0 -5
BITMAP
0000
0000
0000
0000
0000
0000
0000
0000
0000
0000
7f80
7f80
7f80
0000
0000
0000
0000
0000
0000
0000
0000
0000
ENDCHAR
STARTCHAR PFullStop
ENCODING 46
SWIDTH 1320 0
DWIDTH 11 0
BBX 11 22 0 -5
BITMAP
0000
0000
0000
0000
0000
0000
0000
0000
0000
0000
0000
0000
0000
0000
0e00
0e00
0e00
0000
0000
0000
0000
0000
ENDCHAR
STARTCHAR PSolidus
ENCODING 47
SWIDTH 1320 0
DWIDTH 11 0
BBX 11 22 0 -5
BITMAP
0000
0000
01c0
01c0
0380
0380
0300
0700
0700
0e00
0e00
1c00
1c00
1800
3800
3800
7000
7000
0000
0000
0000
0000
ENDCHAR
STARTCHAR Digit0
ENCODING 48
SWIDTH 1320 0
DWIDTH 11 0
BBX 11 22 0 -5
BITMAP
0000
0000
0000
0000
0e00
3b80
3180
71c0
71c0
71c0
71c0
71c0
71c0
71c0
3180
3b80
0e00
0000
0000
0000
0000
0000
ENDCHAR
STARTCHAR Digit1
ENCODING 49
SWIDTH 1320 0
DWIDTH 11 0
BBX 11 22 0 -5
BITMAP
0000
0000
0000
0000
0700
0f00
0f00
1f00
3700
2700
0700
0700
0700
0700
0700
0700
0700
0000
0000
0000
0000
0000
ENDCHAR
STARTCHAR Digit2
ENCODING 50
SWIDTH 1320 0
DWIDTH 11 0
BBX 11 22 0 -5
BITMAP
0000
0000
0000
0000
3f80
73c0
71c0
01c0
01c0
0380
0700
0e00
1800
3040
7fc0
7fc0
7fc0
0000
0000
0000
0000
0000
ENDCHAR
STARTCHAR Digit3
ENCODING 51
SWIDTH 1320 0
DWIDTH 11 0
BBX 11 22 0 -5
BITMAP
0000
0000
0000
0000
3f00
7380
71c0
01c0
01c0
0380
0f00
0380
01c0
01c0
71c0
7380
3f00
0000
0000
0000
0000
0000
ENDCHAR
STARTCHAR Digit4
ENCODING 52
SWIDTH 1320 0
DWIDTH 11 0
BBX 11 22 0 -5
BITMAP
0000
0000
0000
0000
0780
0780
0f80
0b80
1b80
1380
3380
2380
7fc0
7fc0
0380
0380
0380
0000
0000
0000
0000
0000
ENDCHAR
STARTCHAR Digit5
ENCODING 53
SWIDTH 1320 0
DWIDTH 11 0
BBX 11 22 0 -5
BITMAP
0000
0000
0000
0000
3f80
3f80
3f80
3000
3000
3f00
3380
01c0
01c0
01c0
71c0
7380
3f00
0000
0000
0000
0000
0000
ENDCHAR
STARTCHAR Digit6
ENCODING 54
SWIDTH 1320 0
DWIDTH 11 0
BBX 11 22 0 -5
BITMAP
0000
0000
0000
0000
0700
1c00
3800
3800
7000
7700
7b80
71c0
71c0
71c0
71c0
3b80
1f00
0000
0000
0000
0000
0000
ENDCHAR
STARTCHAR Digit7
ENCODING 55
SWIDTH 1320 0
DWIDTH 11 0
BBX 11 22 0 -5
BITMAP
0000
0000
0000
0000
7fc0
7fc0
7fc0
40c0
0180
0300
0600
0e00
0e00
1c00
1c00
1c00
1c00
0000
0000
0000
0000
0000
ENDCHAR
STARTCHAR Digit8
ENCODING 56
SWIDTH 1320 0
DWIDTH 11 0
BBX 11 22 0 -5
BITMAP
0000
0000
0000
0000
1f00
3b80
71c0
71c0
7980
3f00
1f00
1f80
33c0
71c0
71c0
3b80
1f00
0000
0000
0000
0000
0000
ENDCHAR
STARTCHAR Digit9
ENCODING 57
SWIDTH 1320 0
DWIDTH 11 0
BBX 11 22 0 -5
BITMAP
0000
0000
0000
0000
1f00
3b80
71c0
71c0
71c0
71c0
3bc0
1dc0
01c0
0380
0380
0f00
3c00
0000
0000
0000
0000
0000
ENDCHAR
STARTCHAR PColon
ENCODING 58
SWIDTH 1320 0
DWIDTH 11 0
BBX 11 22 0 -5
BITMAP
0000
0000
0000
0000
0000
0000
0000
0000
0000
0e00
0e00
0e00
0000
0000
0e00
0e00
0e00
0000
0000
0000
0000
0000
ENDCHAR
STARTCHAR PSemicolon
ENCODING 59
SWIDTH 1320 0
DWIDTH 11 0
BBX 11 22 0 -5
BITMAP
0000
0000
0000
0000
0000
0000
0000
0000
0000
0e00
0e00
0e00
0000
0000
0e00
0e00
0e00
1c00
1800
0000
0000
0000
ENDCHAR
STARTCHAR MLess
ENCODING 60
SWIDTH 1320 0
DWIDTH 11 0
BBX 11 22 0 -5
BITMAP
0000
0000
0000
0000
0000
0180
0380
0700
0e00
1c00
3800
3800
1c00
0e00
0700
0380
0180
0000
0000
0000
0000
0000
ENDCHAR
STARTCHAR MEqual
ENCODING 61
SWIDTH 1320 0
DWIDTH 11 0
BBX 11 22 0 -5
BITMAP
0000
0000
0000
0000
0000
0000
0000
0000
7fc0
7fc0
7fc0
0000
7fc0
7fc0
7fc0
0000
0000
0000
0000
0000
0000
0000
ENDCHAR
STARTCHAR MGreater
ENCODING 62
SWIDTH 1320 0
DWIDTH 11 0
BBX 11 22 0 -5
BITMAP
0000
0000
0000
0000
0000
3000
3800
1c00
0e00
0700
0380
0380
0700
0e00
1c00
3800
3000
0000
0000
0000
0000
0000
ENDCHAR
STARTCHAR PQuestion
ENCODING 63
SWIDTH 1320 0
DWIDTH 11 0
BBX 11 22 0 -5
BITMAP
0000
0000
0000
3f00
7b80
71c0
71c0
0180
0380
0700
0e00
0e00
0000
0000
0e00
0e00
0e00
0000
0000
0000
0000
0000
ENDCHAR
STARTCHAR SCommercialAt
ENCODING 64
SWIDTH 1320 0
DWIDTH 11 0
BBX 11 22 0 -5
BITMAP
0000
0000
0000
0000
0000
1e00
3f00
6180
cec0
dec0
dac0
dac0
dfc0
cf80
6000
3f00
1e00
0000
0000
0000
0000
0000
ENDCHAR
STARTCHAR LtCapA
ENCODING 65
SWIDTH 1320 0
DWIDTH 11 0
BBX 11 22 0 -5
BITMAP
0000
0000
0000
0000
0c00
0e00
1e00
1e00
1f00
3700
3700
2380
7f80
6380
61c0
c1c0
c1c0
0000
0000
0000
0000
0000
ENDCHAR
STARTCHAR LtCapB
ENCODING 66
SWIDTH 1320 0
DWIDTH 11 0
BBX 11 22 0 -5
BITMAP
0000
0000
0000
0000
7f00
7380
71c0
71c0
71c0
7380
7f00
7380
71c0
71c0
71c0
7380
7f00
0000
0000
0000
0000
0000
ENDCHAR
STARTCHAR LtCapC
ENCODING 67
SWIDTH 1320 0
DWIDTH 11 0
BBX 11 22 0 -5
BITMAP
0000
0000
0000
0000
0fc0
38c0
30c0
7000
7000
7000
7000
7000
7000
7000
30c0
39c0
0f80
0000
0000
0000
0000
0000
ENDCHAR
STARTCHAR LtCapD
ENCODING 68
SWIDTH 1320 0
DWIDTH 11 0
BBX 11 22 0 -5
BITMAP
0000
0000
0000
0000
7e00
7380
7180
71c0
71c0
71c0
71c0
71c0
71c0
71c0
7180
7380
7e00
0000
0000
0000
0000
0000
ENDCHAR
STARTCHAR LtCapE
ENCODING 69
SWIDTH 1320 0
DWIDTH 11 0
BBX 11 22 0 -5
BITMAP
0000
0000
0000
0000
7fc0
70c0
70c0
7000
7000
7200
7e00
7200
7000
7000
70c0
70c0
7fc0
0000
0000
0000
0000
0000
ENDCHAR
STARTCHAR LtCapF
ENCODING 70
SWIDTH 1320 0
DWIDTH 11 0
BBX 11 22 0 -5
BITMAP
0000
0000
0000
0000
3fe0
3860
3860
3800
3800
3900
3f00
3900
3800
3800
3800
3800
3800
0000
0000
0000
0000
0000
ENDCHAR
STARTCHAR LtCapG
ENCODING 71
SWIDTH 1320 0
DWIDTH 11 0
BBX 11 22 0 -5
BITMAP
0000
0000
0000
0000
0fc0
38c0
30c0
7000
7000
7000
73c0
71c0
71c0
71c0
31c0
39c0
0fc0
0000
0000
0000
0000
0000
ENDCHAR
STARTCHAR LtCapH
ENCODING 72
SWIDTH 1320 0
DWIDTH 11 0
BBX 11 22 0 -5
BITMAP
0000
0000
0000
0000
71c0
71c0
71c0
71c0
71c0
71c0
7fc0
71c0
71c0
71c0
71c0
71c0
71c0
0000
0000
0000
0000
0000
ENDCHAR
STARTCHAR LtCapI
ENCODING 73
SWIDTH 1320 0
DWIDTH 11 0
BBX 11 22 0 -5
BITMAP
0000
0000
0000
0000
3f80
0e00
0e00
0e00
0e00
0e00
0e00
0e00
0e00
0e00
0e00
0e00
3f80
0000
0000
0000
0000
0000
ENDCHAR
STARTCHAR LtCapJ
ENCODING 74
SWIDTH 1320 0
DWIDTH 11 0
BBX 11 22 0 -5
BITMAP
0000
0000
0000
0000
07c0
0380
0380
0380
0380
0380
0380
0380
0380
6380
6380
7700
3f00
0000
0000
0000
0000
0000
ENDCHAR
STARTCHAR LtCapK
ENCODING 75
SWIDTH 1320 0
DWIDTH 11 0
BBX 11 22 0 -5
BITMAP
0000
0000
0000
0000
70c0
70c0
7180
7300
7300
7600
7e00
7f00
7700
7380
7380
71c0
71c0
0000
0000
0000
0000
0000
ENDCHAR
STARTCHAR LtCapL
ENCODING 76
SWIDTH 1320 0
DWIDTH 11 0
BBX 11 22 0 -5
BITMAP
0000
0000
0000
0000
7000
7000
7000
7000
7000
7000
7000
7000
7000
7000
70c0
70c0
7fc0
0000
0000
0000
0000
0000
ENDCHAR
STARTCHAR LtCapM
ENCODING 77
SWIDTH 1320 0
DWIDTH 11 0
BBX 11 22 0 -5
BITMAP
0000
0000
0000
0000
c0c0
c1c0
e1c0
e3c0
f3c0
f7c0
ddc0
ddc0
c9c0
c9c0
c1c0
c1c0
c1c0
0000
0000
0000
0000
0000
ENDCHAR
STARTCHAR LtCapN
ENCODING 78
SWIDTH 1320 0
DWIDTH 11 0
BBX 11 22 0 -5
BITMAP
0000
0000
0000
0000
70c0
78c0
78c0
7cc0
7cc0
6ec0
6ec0
67c0
67c0
63c0
63c0
61c0
61c0
0000
0000
0000
0000
0000
ENDCHAR
STARTCHAR LtCapO
ENCODING 79
SWIDTH 1320 0
DWIDTH 11 0
BBX 11 22 0 -5
BITMAP
0000
0000
0000
0000
1e00
7380
6180
e1c0
e1c0
e1c0
e1c0
e1c0
e1c0
e1c0
6180
7380
1e00
0000
0000
0000
0000
0000
ENDCHAR
STARTCHAR LtCapP
ENCODING 80
SWIDTH 1320 0
DWIDTH 11 0
BBX 11 22 0 -5
BITMAP
0000
0000
0000
0000
7f00
7380
71c0
71c0
71c0
71c0
7380
7f00
7000
7000
7000
7000
7000
0000
0000
0000
0000
0000
ENDCHAR
STARTCHAR LtCapQ
ENCODING 81
SWIDTH 1320 0
DWIDTH 11 0
BBX 11 22 0 -5
BITMAP
0000
0000
0000
0000
1e00
7380
6180
e1c0
e1c0
e1c0
e1c0
e1c0
e1c0
e1c0
7d80
7780
1f00
0300
01e0
00c0
0000
0000
ENDCHAR
STARTCHAR LtCapR
ENCODING 82
SWIDTH 1320 0
DWIDTH 11 0
BBX 11 22 0 -5
BITMAP
0000
0000
0000
0000
7f00
7380
71c0
71c0
71c0
7380
7f00
7600
7700
7300
7380
71c0
71c0
0000
0000
0000
0000
0000
ENDCHAR
STARTCHAR LtCapS
ENCODING 83
SWIDTH 1320 0
DWIDTH 11 0
BBX 11 22 0 -5
BITMAP
0000
0000
0000
0000
1fc0
38c0
70c0
7000
7800
3c00
1f00
0780
03c0
01c0
61c0
6380
7f00
0000
0000
0000
0000
0000
ENDCHAR
STARTCHAR LtCapT
ENCODING 84
SWIDTH 1320 0
DWIDTH 11 0
BBX 11 22 0 -5
BITMAP
0000
0000
0000
0000
ffe0
ce60
ce60
0e00
0e00
0e00
0e00
0e00
0e00
0e00
0e00
0e00
0e00
0000
0000
0000
0000
0000
ENDCHAR
STARTCHAR LtCapU
ENCODING 85
SWIDTH 1320 0
DWIDTH 11 0
BBX 11 22 0 -5
BITMAP
0000
0000
0000
0000
70c0
70c0
70c0
70c0
70c0
70c0
70c0
70c0
70c0
70c0
70c0
3980
1f00
0000
0000
0000
0000
0000
ENDCHAR
STARTCHAR LtCapV
ENCODING 86
SWIDTH 1320 0
DWIDTH 11 0
BBX 11 22 0 -5
BITMAP
0000
0000
0000
0000
e0c0
e0c0
e180
7180
7180
7300
3b00
3b00
3e00
1e00
1e00
1c00
0c00
0000
0000
0000
0000
0000
ENDCHAR
STARTCHAR LtCapW
ENCODING 87
SWIDTH 1320 0
DWIDTH 11 0
BBX 11 22 0 -5
BITMAP
0000
0000
0000
0000
e0c0
e0c0
e0c0
e4c0
e4c0
eec0
eec0
7f80
7f80
7380
7380
7380
7380
0000
0000
0000
0000
0000
ENDCHAR
STARTCHAR LtCapX
ENCODING 88
SWIDTH 1320 0
DWIDTH 11 0
BBX 11 22 0 -5
BITMAP
0000
0000
0000
0000
70c0
70c0
7980
3900
1f00
1e00
0e00
0f00
1f00
1380
33c0
61c0
61c0
0000
0000
0000
0000
0000
ENDCHAR
STARTCHAR LtCapY
ENCODING 89
SWIDTH 1320 0
DWIDTH 11 0
BBX 11 22 0 -5
BITMAP
0000
0000
0000
0000
e0c0
70c0
7180
3980
3b00
1f00
1e00
0e00
0e00
0e00
0e00
0e00
0e00
0000
0000
0000
0000
0000
ENDCHAR
STARTCHAR LtCapZ
ENCODING 90
SWIDTH 1320 0
DWIDTH 11 0
BBX 11 22 0 -5
BITMAP
0000
0000
0000
0000
7fc0
61c0
6380
0380
0700
0700
0e00
1c00
1c00
3800
38c0
70c0
7fc0
0000
0000
0000
0000
0000
ENDCHAR
STARTCHAR PSquareBrackL
ENCODING 91
SWIDTH 1320 0
DWIDTH 11 0
BBX 11 22 0 -5
BITMAP
0000
0000
1f00
1f00
1c00
1c00
1c00
1c00
1c00
1c00
1c00
1c00
1c00
1c00
1c00
1c00
1f00
1f00
0000
0000
0000
0000
ENDCHAR
STARTCHAR PRevSolidus
ENCODING 92
SWIDTH 1320 0
DWIDTH 11 0
BBX 11 22 0 -5
BITMAP
0000
0000
7000
7000
3800
3800
1800
1c00
1c00
0e00
0e00
0700
0700
0300
0380
0380
01c0
01c0
0000
0000
0000
0000
ENDCHAR
STARTCHAR PSquareBrackR
ENCODING 93
SWIDTH 1320 0
DWIDTH 11 0
BBX 11 22 0 -5
BITMAP
0000
0000
1f00
1f00
0700
0700
0700
0700
0700
0700
0700
0700
0700
0700
0700
0700
1f00
1f00
0000
0000
0000
0000
ENDCHAR
STARTCHAR AccCircumAscii
ENCODING 94
SWIDTH 1320 0
DWIDTH 11 0
BBX 11 22 0 -5
BITMAP
0000
0000
0400
0e00
1f00
3b80
71c0
60c0
0000
0000
0000
0000
0000
0000
0000
0000
0000
0000
0000
0000
0000
0000
ENDCHAR
STARTCHAR OLowline
ENCODING 95
SWIDTH 1320 0
DWIDTH 11 0
BBX 11 22 0 -5
BITMAP
0000
0000
0000
0000
0000
0000
0000
0000
0000
0000
0000
0000
0000
0000
0000
7fc0
7fc0
7fc0
0000
0000
0000
0000
ENDCHAR
STARTCHAR AccGraveAscii
ENCODING 96
SWIDTH 1320 0
DWIDTH 11 0
BBX 11 22 0 -5
BITMAP
0000
0000
1c00
1c00
1c00
0e00
0600
0000
0000
0000
0000
0000
0000
0000
0000
0000
0000
0000
0000
0000
0000
0000
ENDCHAR
STARTCHAR LtSmlA
ENCODING 97
SWIDTH 1320 0
DWIDTH 11 0
BBX 11 22 0 -5
BITMAP
0000
0000
0000
0000
0000
0000
0000
1f80
39c0
31c0
01c0
1fc0
39c0
71c0
71c0
73c0
3dc0
0000
0000
0000
0000
0000
ENDCHAR
STARTCHAR LtSmlB
ENCODING 98
SWIDTH 1320 0
DWIDTH 11 0
BBX 11 22 0 -5
BITMAP
0000
0000
0000
7000
7000
7000
7000
7700
7b80
71c0
71c0
71c0
71c0
71c0
71c0
7b80
7700
0000
0000
0000
0000
0000
ENDCHAR
STARTCHAR LtSmlC
ENCODING 99
SWIDTH 1320 0
DWIDTH 11 0
BBX 11 22 0 -5
BITMAP
0000
0000
0000
0000
0000
0000
0000
1f80
39c0
70c0
7000
7000
7000
7000
70c0
39c0
1f80
0000
0000
0000
0000
0000
ENDCHAR
STARTCHAR LtSmlD
ENCODING 100
SWIDTH 1320 0
DWIDTH 11 0
BBX 11 22 0 -5
BITMAP
0000
0000
0000
01c0
01c0
01c0
01c0
1dc0
3bc0
71c0
71c0
71c0
71c0
71c0
71c0
3bc0
1dc0
0000
0000
0000
0000
0000
ENDCHAR
STARTCHAR LtSmlE
ENCODING 101
SWIDTH 1320 0
DWIDTH 11 0
BBX 11 22 0 -5
BITMAP
0000
0000
0000
0000
0000
0000
0000
1f80
39c0
71c0
71c0
7fc0
7000
7000
70c0
39c0
1f80
0000
0000
0000
0000
0000
ENDCHAR
STARTCHAR LtSmlF
ENCODING 102
SWIDTH 1320 0
DWIDTH 11 0
BBX 11 22 0 -5
BITMAP
0000
0000
0000
0fc0
1cc0
1c00
1c00
1c00
7fc0
1c00
1c00
1c00
1c00
1c00
1c00
1c00
1c00
0000
0000
0000
0000
0000
ENDCHAR
STARTCHAR LtSmlG
ENCODING 103
SWIDTH 1320 0
DWIDTH 11 0
BBX 11 22 0 -5
BITMAP
0000
0000
0000
0000
0000
0000
0000
3ec0
7380
7380
7380
7380
3f00
3000
7000
7f80
3fc0
71c0
60c0
71c0
3f80
0000
ENDCHAR
STARTCHAR LtSmlH
ENCODING 104
SWIDTH 1320 0
DWIDTH 11 0
BBX 11 22 0 -5
BITMAP
0000
0000
0000
7000
7000
7000
7000
7780
79c0
71c0
71c0
71c0
71c0
71c0
71c0
71c0
71c0
0000
0000
0000
0000
0000
ENDCHAR
STARTCHAR LtSmlI
ENCODING 105
SWIDTH 1320 0
DWIDTH 11 0
BBX 11 22 0 -5
BITMAP
0000
0000
0400
0e00
0e00
0400
0000
3e00
0e00
0e00
0e00
0e00
0e00
0e00
0e00
0e00
3f80
0000
0000
0000
0000
0000
ENDCHAR
STARTCHAR LtSmlJ
ENCODING 106
SWIDTH 1320 0
DWIDTH 11 0
BBX 11 22 0 -5
BITMAP
0000
0000
0200
0700
0700
0200
0000
3f00
0700
0700
0700
0700
0700
0700
0700
0700
0700
0700
e700
e700
7e00
0000
ENDCHAR
STARTCHAR LtSmlK
ENCODING 107
SWIDTH 1320 0
DWIDTH 11 0
BBX 11 22 0 -5
BITMAP
0000
0000
0000
7000
7000
7000
7000
70c0
7180
7300
7600
7e00
7f00
7380
7380
71c0
71c0
0000
0000
0000
0000
0000
ENDCHAR
STARTCHAR LtSmlL
ENCODING 108
SWIDTH 1320 0
DWIDTH 11 0
BBX 11 22 0 -5
BITMAP
0000
0000
0000
3e00
0e00
0e00
0e00
0e00
0e00
0e00
0e00
0e00
0e00
0e00
0e00
0e00
3f80
0000
0000
0000
0000
0000
ENDCHAR
STARTCHAR LtSmlM
ENCODING 109
SWIDTH 1320 0
DWIDTH 11 0
BBX 11 22 0 -5
BITMAP
0000
0000
0000
0000
0000
0000
0000
db80
ffc0
edc0
edc0
edc0
edc0
edc0
edc0
edc0
edc0
0000
0000
0000
0000
0000
ENDCHAR
STARTCHAR LtSmlN
ENCODING 110
SWIDTH 1320 0
DWIDTH 11 0
BBX 11 22 0 -5
BITMAP
0000
0000
0000
0000
0000
0000
0000
7780
79c0
71c0
71c0
71c0
71c0
71c0
71c0
71c0
71c0
0000
0000
0000
0000
0000
ENDCHAR
STARTCHAR LtSmlO
ENCODING 111
SWIDTH 1320 0
DWIDTH 11 0
BBX 11 22 0 -5
BITMAP
0000
0000
0000
0000
0000
0000
0000
1f00
3b80
71c0
71c0
71c0
71c0
71c0
71c0
3b80
1f00
0000
0000
0000
0000
0000
ENDCHAR
STARTCHAR LtSmlP
ENCODING 112
SWIDTH 1320 0
DWIDTH 11 0
BBX 11 22 0 -5
BITMAP
0000
0000
0000
0000
0000
0000
0000
7700
7b80
71c0
71c0
71c0
71c0
71c0
71c0
7b80
7700
7000
7000
7000
7000
0000
ENDCHAR
STARTCHAR LtSmlQ
ENCODING 113
SWIDTH 1320 0
DWIDTH 11 0
BBX 11 22 0 -5
BITMAP
0000
0000
0000
0000
0000
0000
0000
1dc0
3bc0
71c0
71c0
71c0
71c0
71c0
71c0
3bc0
1dc0
01c0
01c0
01c0
01c0
0000
ENDCHAR
STARTCHAR LtSmlR
ENCODING 114
SWIDTH 1320 0
DWIDTH 11 0
BBX 11 22 0 -5
BITMAP
0000
0000
0000
0000
0000
0000
0000
79c0
3bc0
3cc0
3800
3800
3800
3800
3800
3800
3800
0000
0000
0000
0000
0000
ENDCHAR
STARTCHAR LtSmlS
ENCODING 115
SWIDTH 1320 0
DWIDTH 11 0
BBX 11 22 0 -5
BITMAP
0000
0000
0000
0000
0000
0000
0000
3f80
70c0
70c0
7800
3e00
0f80
03c0
61c0
61c0
3f80
0000
0000
0000
0000
0000
ENDCHAR
STARTCHAR LtSmlT
ENCODING 116
SWIDTH 1320 0
DWIDTH 11 0
BBX 11 22 0 -5
BITMAP
0000
0000
0000
0000
0c00
0c00
1c00
7f00
1c00
1c00
1c00
1c00
1c00
1c00
1cc0
1cc0
0f80
0000
0000
0000
0000
0000
ENDCHAR
STARTCHAR LtSmlU
ENCODING 117
SWIDTH 1320 0
DWIDTH 11 0
BBX 11 22 0 -5
BITMAP
0000
0000
0000
0000
0000
0000
0000
71c0
71c0
71c0
71c0
71c0
71c0
71c0
71c0
73c0
3dc0
0000
0000
0000
0000
0000
ENDCHAR
STARTCHAR LtSmlV
ENCODING 118
SWIDTH 1320 0
DWIDTH 11 0
BBX 11 22 0 -5
BITMAP
0000
0000
0000
0000
0000
0000
0000
6040
70c0
70c0
3980
3980
1d00
1f00
0e00
0e00
0400
0000
0000
0000
0000
0000
ENDCHAR
STARTCHAR LtSmlW
ENCODING 119
SWIDTH 1320 0
DWIDTH 11 0
BBX 11 22 0 -5
BITMAP
0000
0000
0000
0000
0000
0000
0000
e0c0
e0c0
e4c0
eec0
eec0
eec0
7f80
7380
7380
7380
0000
0000
0000
0000
0000
ENDCHAR
STARTCHAR LtSmlX
ENCODING 120
SWIDTH 1320 0
DWIDTH 11 0
BBX 11 22 0 -5
BITMAP
0000
0000
0000
0000
0000
0000
0000
70c0
7180
3980
1f00
1e00
0f00
1f00
3380
31c0
61c0
0000
0000
0000
0000
0000
ENDCHAR
STARTCHAR LtSmlY
ENCODING 121
SWIDTH 1320 0
DWIDTH 11 0
BBX 11 22 0 -5
BITMAP
0000
0000
0000
0000
0000
0000
0000
60c0
70c0
7080
3980
3980
1d00
1f00
0f00
0e00
0600
0600
6400
6c00
3800
0000
ENDCHAR
STARTCHAR LtSmlZ
ENCODING 122
SWIDTH 1320 0
DWIDTH 11 0
BBX 11 22 0 -5
BITMAP
0000
0000
0000
0000
0000
0000
0000
7fc0
63c0
6380
0700
0f00
1e00
1c00
38c0
78c0
7fc0
0000
0000
0000
0000
0000
ENDCHAR
STARTCHAR PCurlyBrackL
ENCODING 123
SWIDTH 1320 0
DWIDTH 11 0
BBX 11 22 0 -5
BITMAP
0000
0000
0380
0600
0e00
0e00
0e00
0e00
0c00
3800
3800
0c00
0e00
0e00
0e00
0e00
0600
0380
0000
0000
0000
0000
ENDCHAR
STARTCHAR OVertBar
ENCODING 124
SWIDTH 1320 0
DWIDTH 11 0
BBX 11 22 0 -5
BITMAP
0000
0000
0e00
0e00
0e00
0e00
0e00
0e00
0e00
0e00
0e00
0e00
0e00
0e00
0e00
0e00
0e00
0e00
0000
0000
0000
0000
ENDCHAR
STARTCHAR PCurlyBrackR
ENCODING 125
SWIDTH 1320 0
DWIDTH 11 0
BBX 11 22 0 -5
BITMAP
0000
0000
3800
0c00
0e00
0e00
0e00
0e00
0600
0380
0380
0600
0e00
0e00
0e00
0e00
0c00
3800
0000
0000
0000
0000
ENDCHAR
STARTCHAR AccTildeAscii
ENCODING 126
SWIDTH 1320 0
DWIDTH 11 0
BBX 11 22 0 -5
BITMAP
0000
0000
38c0
7dc0
77c0
6380
0000
0000
0000
0000
0000
0000
0000
0000
0000
0000
0000
0000
0000
0000
0000
0000
ENDCHAR
STARTCHAR SpaceNoBreak
ENCODING 160
SWIDTH 1320 0
DWIDTH 11 0
BBX 11 22 0 -5
BITMAP
0000
0000
0000
0000
0000
0000
0000
0000
0000
0000
0000
0000
60c0
60c0
60c0
7fc0
7fc0
7fc0
0000
0000
0000
0000
ENDCHAR
STARTCHAR LtCapAOgonek
ENCODING 161
SWIDTH 1320 0
DWIDTH 11 0
BBX 11 22 0 -5
BITMAP
0000
0000
0000
0000
0c00
0e00
1e00
1e00
1f00
3700
3700
2380
7f80
6380
61c0
c1c0
c1c0
0380
0300
0300
01c0
0000
ENDCHAR
STARTCHAR AccBreve
ENCODING 162
SWIDTH 1320 0
DWIDTH 11 0
BBX 11 22 0 -5
BITMAP
0000
0000
6180
6180
3f00
1e00
0000
0000
0000
0000
0000
0000
0000
0000
0000
0000
0000
0000
0000
0000
0000
0000
ENDCHAR
STARTCHAR LtCapLStroke
ENCODING 163
SWIDTH 1320 0
DWIDTH 11 0
BBX 11 22 0 -5
BITMAP
0000
0000
0000
0000
7000
7000
7000
7000
7600
7e00
7800
f000
f000
7000
70c0
70c0
7fc0
0000
0000
0000
0000
0000
ENDCHAR
STARTCHAR CurrGeneral
ENCODING 164
SWIDTH 1320 0
DWIDTH 11 0
BBX 11 22 0 -5
BITMAP
0000
0000
0000
0000
0000
2080
71c0
7fc0
3f80
3b80
3180
3b80
3f80
7fc0
71c0
2080
0000
0000
0000
0000
0000
0000
ENDCHAR
STARTCHAR LtCapLCaron
ENCODING 165
SWIDTH 1320 0
DWIDTH 11 0
BBX 11 22 0 -5
BITMAP
0000
0000
01c0
01c0
70c0
7180
7000
7000
7000
7000
7000
7000
7000
7000
70c0
70c0
7fc0
0000
0000
0000
0000
0000
ENDCHAR
STARTCHAR LtCapSAcute
ENCODING 166
SWIDTH 1320 0
DWIDTH 11 0
BBX 11 22 0 -5
BITMAP
0380
0300
0600
0000
1fc0
38c0
70c0
7000
7800
3c00
1f00
0780
03c0
01c0
61c0
6380
7f00
0000
0000
0000
0000
0000
ENDCHAR
STARTCHAR SParagraph
ENCODING 167
SWIDTH 1320 0
DWIDTH 11 0
BBX 11 22 0 -5
BITMAP
0000
0000
0000
1f00
3b80
3b80
3800
1c00
0e00
1f00
3b80
3b80
3b80
3b80
1f00
0e00
0700
0380
3b80
3b80
1f00
0000
ENDCHAR
STARTCHAR AccDrss
ENCODING 168
SWIDTH 1320 0
DWIDTH 11 0
BBX 11 22 0 -5
BITMAP
0000
0000
7380
7380
7380
0000
0000
0000
0000
0000
0000
0000
0000
0000
0000
0000
0000
0000
0000
0000
0000
0000
ENDCHAR
STARTCHAR LtCapSCaron
ENCODING 169
SWIDTH 1320 0
DWIDTH 11 0
BBX 11 22 0 -5
BITMAP
1980
0f00
0600
0000
1fc0
38c0
70c0
7000
7800
3c00
1f00
0780
03c0
01c0
61c0
6380
7f00
0000
0000
0000
0000
0000
ENDCHAR
STARTCHAR LtCapSComma
ENCODING 170
SWIDTH 1320 0
DWIDTH 11 0
BBX 11 22 0 -5
BITMAP
0000
0000
0000
0000
1fc0
38c0
70c0
7000
7800
3c00
1f00
0780
03c0
01c0
61c0
6380
7f00
0000
0c00
0e00
1c00
0000
ENDCHAR
STARTCHAR LtCapTCaron
ENCODING 171
SWIDTH 1320 0
DWIDTH 11 0
BBX 11 22 0 -5
BITMAP
1980
0f00
0600
0000
ffe0
ce60
ce60
0e00
0e00
0e00
0e00
0e00
0e00
0e00
0e00
0e00
0e00
0000
0000
0000
0000
0000
ENDCHAR
STARTCHAR LtCapZAcute
ENCODING 172
SWIDTH 1320 0
DWIDTH 11 0
BBX 11 22 0 -5
BITMAP
0700
0600
0c00
0000
7fc0
61c0
6380
0380
0700
0700
0e00
1c00
1c00
3800
38c0
70c0
7fc0
0000
0000
0000
0000
0000
ENDCHAR
STARTCHAR PHyphenSoft
ENCODING 173
SWIDTH 1320 0
DWIDTH 11 0
BBX 11 22 0 -5
BITMAP
0000
0000
0000
0000
0000
0000
0000
0000
0000
0000
3f00
3f00
3f00
0000
0000
0000
0000
0000
0000
0000
0000
0000
ENDCHAR
STARTCHAR LtCapZCaron
ENCODING 174
SWIDTH 1320 0
DWIDTH 11 0
BBX 11 22 0 -5
BITMAP
1980
0f00
0600
0000
7fc0
61c0
6380
0380
0700
0700
0e00
1c00
1c00
3800
38c0
70c0
7fc0
0000
0000
0000
0000
0000
ENDCHAR
STARTCHAR LtCapZDot
ENCODING 175
SWIDTH 1320 0
DWIDTH 11 0
BBX 11 22 0 -5
BITMAP
0c00
1e00
0c00
0000
7fc0
61c0
6380
0380
0700
0700
0e00
1c00
1c00
3800
38c0
70c0
7fc0
0000
0000
0000
0000
0000
ENDCHAR
STARTCHAR SDegree
ENCODING 176
SWIDTH 1320 0
DWIDTH 11 0
BBX 11 22 0 -5
BITMAP
0000
0000
1e00
3f00
3300
3300
3f00
1e00
0000
0000
0000
0000
0000
0000
0000
0000
0000
0000
0000
0000
0000
0000
ENDCHAR
STARTCHAR LtSmlAOgonek
ENCODING 177
SWIDTH 1320 0
DWIDTH 11 0
BBX 11 22 0 -5
BITMAP
0000
0000
0000
0000
0000
0000
0000
1f80
39c0
31c0
01c0
1fc0
39c0
71c0
71c0
73c0
3dc0
0380
0300
0300
01c0
0000
ENDCHAR
STARTCHAR AccOgonek
ENCODING 178
SWIDTH 1320 0
DWIDTH 11 0
BBX 11 22 0 -5
BITMAP
0000
0000
0000
0000
0000
0000
0000
0000
0000
0000
0000
0000
0000
0000
0000
0000
0600
0e00
1c00
1c00
0f80
0000
ENDCHAR
STARTCHAR LtSmlLStroke
ENCODING 179
SWIDTH 1320 0
DWIDTH 11 0
BBX 11 22 0 -5
BITMAP
0000
0000
0000
3e00
0e00
0e00
0e00
0e00
0f80
0f00
1e00
3e00
0e00
0e00
0e00
0e00
3f80
0000
0000
0000
0000
0000
ENDCHAR
STARTCHAR AccAcute
ENCODING 180
SWIDTH 1320 0
DWIDTH 11 0
BBX 11 22 0 -5
BITMAP
0000
0000
0300
0700
0e00
1c00
1800
0000
0000
0000
0000
0000
0000
0000
0000
0000
0000
0000
0000
0000
0000
0000
ENDCHAR
STARTCHAR LtSmlLCaron
ENCODING 181
SWIDTH 1320 0
DWIDTH 11 0
BBX 11 22 0 -5
BITMAP
0000
0000
00e0
7ce0
1c60
1cc0
1c00
1c00
1c00
1c00
1c00
1c00
1c00
1c00
1c00
1c00
7f00
0000
0000
0000
0000
0000
ENDCHAR
STARTCHAR LtSmlSAcute
ENCODING 182
SWIDTH 1320 0
DWIDTH 11 0
BBX 11 22 0 -5
BITMAP
0000
0000
0380
0300
0600
0400
0000
3f80
70c0
70c0
7800
3e00
0f80
03c0
61c0
61c0
3f80
0000
0000
0000
0000
0000
ENDCHAR
STARTCHAR AccCaron
ENCODING 183
SWIDTH 1320 0
DWIDTH 11 0
BBX 11 22 0 -5
BITMAP
0000
0000
71c0
3b80
1f00
0e00
0400
0000
0000
0000
0000
0000
0000
0000
0000
0000
0000
0000
0000
0000
0000
0000
ENDCHAR
STARTCHAR AccCedilla
ENCODING 184
SWIDTH 1320 0
DWIDTH 11 0
BBX 11 22 0 -5
BITMAP
0000
0000
0000
0000
0000
0000
0000
0000
0000
0000
0000
0000
0000
0000
0000
0000
0e00
0e00
0700
3f00
3e00
0000
ENDCHAR
STARTCHAR LtSmlSCaron
ENCODING 185
SWIDTH 1320 0
DWIDTH 11 0
BBX 11 22 0 -5
BITMAP
0000
0000
0000
1980
0f00
0600
0000
3f80
70c0
70c0
7800
3e00
0f80
03c0
61c0
61c0
3f80
0000
0000
0000
0000
0000
ENDCHAR
STARTCHAR LtSmlSComma
ENCODING 186
SWIDTH 1320 0
DWIDTH 11 0
BBX 11 22 0 -5
BITMAP
0000
0000
0000
0000
0000
0000
0000
3f80
70c0
70c0
7800
3e00
0f80
03c0
61c0
61c0
3f80
0000
0c00
0e00
1c00
0000
ENDCHAR
STARTCHAR LtSmlTCaron
ENCODING 187
SWIDTH 1320 0
DWIDTH 11 0
BBX 11 22 0 -5
BITMAP
0000
0000
00e0
00e0
0c60
0cc0
1c00
7f00
1c00
1c00
1c00
1c00
1c00
1c00
1cc0
1cc0
0f80
0000
0000
0000
0000
0000
ENDCHAR
STARTCHAR LtSmlZAcute
ENCODING 188
SWIDTH 1320 0
DWIDTH 11 0
BBX 11 22 0 -5
BITMAP
0000
0000
0380
0300
0600
0400
0000
7fc0
63c0
6380
0700
0f00
1e00
1c00
38c0
78c0
7fc0
0000
0000
0000
0000
0000
ENDCHAR
STARTCHAR AccAcute2
ENCODING 189
SWIDTH 1320 0
DWIDTH 11 0
BBX 11 22 0 -5
BITMAP
0000
0000
1dc0
3b80
7700
6600
0000
0000
0000
0000
0000
0000
0000
0000
0000
0000
0000
0000
0000
0000
0000
0000
ENDCHAR
STARTCHAR LtSmlZCaron
ENCODING 190
SWIDTH 1320 0
DWIDTH 11 0
BBX 11 22 0 -5
BITMAP
0000
0000
0000
1980
0f00
0600
0000
7fc0
63c0
6380
0700
0f00
1e00
1c00
38c0
78c0
7fc0
0000
0000
0000
0000
0000
ENDCHAR
STARTCHAR LtSmlZDot
ENCODING 191
SWIDTH 1320 0
DWIDTH 11 0
BBX 11 22 0 -5
BITMAP
0000
0000
0400
0e00
0e00
0400
0000
7fc0
63c0
6380
0700
0f00
1e00
1c00
38c0
78c0
7fc0
0000
0000
0000
0000
0000
ENDCHAR
STARTCHAR LtCapRAcute
ENCODING 192
SWIDTH 1320 0
DWIDTH 11 0
BBX 11 22 0 -5
BITMAP
0700
0600
0c00
0000
7f00
7380
71c0
71c0
71c0
7380
7f00
7600
7700
7300
7380
71c0
71c0
0000
0000
0000
0000
0000
ENDCHAR
STARTCHAR LtCapAAcute
ENCODING 193
SWIDTH 1320 0
DWIDTH 11 0
BBX 11 22 0 -5
BITMAP
0700
0600
0c00
0000
0c00
0e00
1e00
1e00
1f00
3700
3700
2380
7f80
6380
61c0
c1c0
c1c0
0000
0000
0000
0000
0000
ENDCHAR
STARTCHAR LtCapACircum
ENCODING 194
SWIDTH 1320 0
DWIDTH 11 0
BBX 11 22 0 -5
BITMAP
0c00
1e00
3300
0000
0c00
0e00
1e00
1e00
1f00
3700
3700
2380
7f80
6380
61c0
c1c0
c1c0
0000
0000
0000
0000
0000
ENDCHAR
STARTCHAR LtCapABreve
ENCODING 195
SWIDTH 1320 0
DWIDTH 11 0
BBX 11 22 0 -5
BITMAP
1100
1b00
0e00
0000
0c00
0e00
1e00
1e00
1f00
3700
3700
2380
7f80
6380
61c0
c1c0
c1c0
0000
0000
0000
0000
0000
ENDCHAR
STARTCHAR LtCapADrss
ENCODING 196
SWIDTH 1320 0
DWIDTH 11 0
BBX 11 22 0 -5
BITMAP
3300
3300
3300
0000
0c00
0e00
1e00
1e00
1f00
3700
3700
2380
7f80
6380
61c0
c1c0
c1c0
0000
0000
0000
0000
0000
ENDCHAR
STARTCHAR LtCapLAcute
ENCODING 197
SWIDTH 1320 0
DWIDTH 11 0
BBX 11 22 0 -5
BITMAP
0e00
0c00
1800
0000
7000
7000
7000
7000
7000
7000
7000
7000
7000
7000
70c0
70c0
7fc0
0000
0000
0000
0000
0000
ENDCHAR
STARTCHAR LtCapCAcute
ENCODING 198
SWIDTH 1320 0
DWIDTH 11 0
BBX 11 22 0 -5
BITMAP
0380
0300
0600
0000
0fc0
38c0
30c0
7000
7000
7000
7000
7000
7000
7000
30c0
39c0
0f80
0000
0000
0000
0000
0000
ENDCHAR
STARTCHAR LtCapCCedilla
ENCODING 199
SWIDTH 1320 0
DWIDTH 11 0
BBX 11 22 0 -5
BITMAP
0000
0000
0000
0000
0fc0
38c0
30c0
7000
7000
7000
7000
7000
7000
7000
30c0
39c0
0f80
0400
0600
0700
1e00
0000
ENDCHAR
STARTCHAR LtCapCCaron
ENCODING 200
SWIDTH 1320 0
DWIDTH 11 0
BBX 11 22 0 -5
BITMAP
1980
0f00
0600
0000
0fc0
38c0
30c0
7000
7000
7000
7000
7000
7000
7000
30c0
39c0
0f80
0000
0000
0000
0000
0000
ENDCHAR
STARTCHAR LtCapEAcute
ENCODING 201
SWIDTH 1320 0
DWIDTH 11 0
BBX 11 22 0 -5
BITMAP
0700
0600
0c00
0000
7fc0
70c0
70c0
7000
7000
7200
7e00
7200
7000
7000
70c0
70c0
7fc0
0000
0000
0000
0000
0000
ENDCHAR
STARTCHAR LtCapEOgonek
ENCODING 202
SWIDTH 1320 0
DWIDTH 11 0
BBX 11 22 0 -5
BITMAP
0000
0000
0000
0000
7fc0
70c0
70c0
7000
7000
7200
7e00
7200
7000
7000
70c0
70c0
7fc0
0380
0300
0300
01c0
0000
ENDCHAR
STARTCHAR LtCapEDrss
ENCODING 203
SWIDTH 1320 0
DWIDTH 11 0
BBX 11 22 0 -5
BITMAP
1980
1980
1980
0000
7fc0
70c0
70c0
7000
7000
7200
7e00
7200
7000
7000
70c0
70c0
7fc0
0000
0000
0000
0000
0000
ENDCHAR
STARTCHAR LtCapECaron
ENCODING 204
SWIDTH 1320 0
DWIDTH 11 0
BBX 11 22 0 -5
BITMAP
1980
0f00
0600
0000
7fc0
70c0
70c0
7000
7000
7200
7e00
7200
7000
7000
70c0
70c0
7fc0
0000
0000
0000
0000
0000
ENDCHAR
STARTCHAR LtCapIAcute
ENCODING 205
SWIDTH 1320 0
DWIDTH 11 0
BBX 11 22 0 -5
BITMAP
0700
0600
0c00
0000
3f80
0e00
0e00
0e00
0e00
0e00
0e00
0e00
0e00
0e00
0e00
0e00
3f80
0000
0000
0000
0000
0000
ENDCHAR
STARTCHAR LtCapICircum
ENCODING 206
SWIDTH 1320 0
DWIDTH 11 0
BBX 11 22 0 -5
BITMAP
0600
0f00
1980
0000
3f80
0e00
0e00
0e00
0e00
0e00
0e00
0e00
0e00
0e00
0e00
0e00
3f80
0000
0000
0000
0000
0000
ENDCHAR
STARTCHAR LtCapDCaron
ENCODING 207
SWIDTH 1320 0
DWIDTH 11 0
BBX 11 22 0 -5
BITMAP
3300
1e00
0c00
0000
7e00
7380
7180
71c0
71c0
71c0
71c0
71c0
71c0
71c0
7180
7380
7e00
0000
0000
0000
0000
0000
ENDCHAR
STARTCHAR LtCapDStroke
ENCODING 208
SWIDTH 1320 0
DWIDTH 11 0
BBX 11 22 0 -5
BITMAP
0000
0000
0000
0000
7e00
7380
7180
71c0
71c0
fdc0
fdc0
71c0
71c0
71c0
7180
7380
7e00
0000
0000
0000
0000
0000
ENDCHAR
STARTCHAR LtCapNAcute
ENCODING 209
SWIDTH 1320 0
DWIDTH 11 0
BBX 11 22 0 -5
BITMAP
0700
0600
0c00
0000
70c0
78c0
78c0
7cc0
7cc0
6ec0
6ec0
67c0
67c0
63c0
63c0
61c0
61c0
0000
0000
0000
0000
0000
ENDCHAR
STARTCHAR LtCapNCaron
ENCODING 210
SWIDTH 1320 0
DWIDTH 11 0
BBX 11 22 0 -5
BITMAP
1980
0f00
0600
0000
70c0
78c0
78c0
7cc0
7cc0
6ec0
6ec0
67c0
67c0
63c0
63c0
61c0
61c0
0000
0000
0000
0000
0000
ENDCHAR
STARTCHAR LtCapOAcute
ENCODING 211
SWIDTH 1320 0
DWIDTH 11 0
BBX 11 22 0 -5
BITMAP
0700
0600
0c00
0000
1e00
7380
6180
e1c0
e1c0
e1c0
e1c0
e1c0
e1c0
e1c0
6180
7380
1e00
0000
0000
0000
0000
0000
ENDCHAR
STARTCHAR LtCapOCircum
ENCODING 212
SWIDTH 1320 0
DWIDTH 11 0
BBX 11 22 0 -5
BITMAP
0c00
1e00
3300
0000
1e00
7380
6180
e1c0
e1c0
e1c0
e1c0
e1c0
e1c0
e1c0
6180
7380
1e00
0000
0000
0000
0000
0000
ENDCHAR
STARTCHAR LtCapOAcute2
ENCODING 213
SWIDTH 1320 0
DWIDTH 11 0
BBX 11 22 0 -5
BITMAP
06c0
0d80
1b00
0000
1e00
7380
6180
e1c0
e1c0
e1c0
e1c0
e1c0
e1c0
e1c0
6180
7380
1e00
0000
0000
0000
0000
0000
ENDCHAR
STARTCHAR LtCapODrss
ENCODING 214
SWIDTH 1320 0
DWIDTH 11 0
BBX 11 22 0 -5
BITMAP
3300
3300
3300
0000
1e00
7380
6180
e1c0
e1c0
e1c0
e1c0
e1c0
e1c0
e1c0
6180
7380
1e00
0000
0000
0000
0000
0000
ENDCHAR
STARTCHAR MMultiply
ENCODING 215
SWIDTH 1320 0
DWIDTH 11 0
BBX 11 22 0 -5
BITMAP
0000
0000
0000
0000
0000
0000
0000
60c0
71c0
3b80
1f00
0e00
1f00
3b80
71c0
60c0
0000
0000
0000
0000
0000
0000
ENDCHAR
STARTCHAR LtCapRCaron
ENCODING 216
SWIDTH 1320 0
DWIDTH 11 0
BBX 11 22 0 -5
BITMAP
3300
1e00
0c00
0000
7f00
7380
71c0
71c0
71c0
7380
7f00
7600
7700
7300
7380
71c0
71c0
0000
0000
0000
0000
0000
ENDCHAR
STARTCHAR LtCapURing
ENCODING 217
SWIDTH 1320 0
DWIDTH 11 0
BBX 11 22 0 -5
BITMAP
0e00
1b00
1b00
0e00
70c0
70c0
70c0
70c0
70c0
70c0
70c0
70c0
70c0
70c0
70c0
3980
1f00
0000
0000
0000
0000
0000
ENDCHAR
STARTCHAR LtCapUAcute
ENCODING 218
SWIDTH 1320 0
DWIDTH 11 0
BBX 11 22 0 -5
BITMAP
0380
0300
0600
0000
70c0
70c0
70c0
70c0
70c0
70c0
70c0
70c0
70c0
70c0
70c0
3980
1f00
0000
0000
0000
0000
0000
ENDCHAR
STARTCHAR LtCapUAcute2
ENCODING 219
SWIDTH 1320 0
DWIDTH 11 0
BBX 11 22 0 -5
BITMAP
06c0
0d80
1b00
0000
70c0
70c0
70c0
70c0
70c0
70c0
70c0
70c0
70c0
70c0
70c0
3980
1f00
0000
0000
0000
0000
0000
ENDCHAR
STARTCHAR LtCapUDrss
ENCODING 220
SWIDTH 1320 0
DWIDTH 11 0
BBX 11 22 0 -5
BITMAP
1980
1980
1980
0000
70c0
70c0
70c0
70c0
70c0
70c0
70c0
70c0
70c0
70c0
70c0
3980
1f00
0000
0000
0000
0000
0000
ENDCHAR
STARTCHAR LtCapYAcute
ENCODING 221
SWIDTH 1320 0
DWIDTH 11 0
BBX 11 22 0 -5
BITMAP
0700
0600
0c00
0000
e0c0
70c0
7180
3980
3b00
1f00
1e00
0e00
0e00
0e00
0e00
0e00
0e00
0000
0000
0000
0000
0000
ENDCHAR
STARTCHAR LtCapTComma
ENCODING 222
SWIDTH 1320 0
DWIDTH 11 0
BBX 11 22 0 -5
BITMAP
0000
0000
0000
0000
ffe0
ce60
ce60
0e00
0e00
0e00
0e00
0e00
0e00
0e00
0e00
0e00
0e00
0000
0600
0700
0e00
0000
ENDCHAR
STARTCHAR LtSmlSz
ENCODING 223
SWIDTH 1320 0
DWIDTH 11 0
BBX 11 22 0 -5
BITMAP
0000
0000
0000
3f00
7380
7380
7380
7300
7600
7700
7380
71c0
71c0
71c0
71c0
75c0
7780
0000
0000
0000
0000
0000
ENDCHAR
STARTCHAR LtSmlRAcute
ENCODING 224
SWIDTH 1320 0
DWIDTH 11 0
BBX 11 22 0 -5
BITMAP
0000
0000
0380
0300
0600
0400
0000
79c0
3bc0
3cc0
3800
3800
3800
3800
3800
3800
3800
0000
0000
0000
0000
0000
ENDCHAR
STARTCHAR LtSmlAAcute
ENCODING 225
SWIDTH 1320 0
DWIDTH 11 0
BBX 11 22 0 -5
BITMAP
0000
0000
0380
0300
0600
0400
0000
1f80
39c0
31c0
01c0
1fc0
39c0
71c0
71c0
73c0
3dc0
0000
0000
0000
0000
0000
ENDCHAR
STARTCHAR LtSmlACircum
ENCODING 226
SWIDTH 1320 0
DWIDTH 11 0
BBX 11 22 0 -5
BITMAP
0000
0000
0600
0f00
1980
0000
0000
1f80
39c0
31c0
01c0
1fc0
39c0
71c0
71c0
73c0
3dc0
0000
0000
0000
0000
0000
ENDCHAR
STARTCHAR LtSmlABreve
ENCODING 227
SWIDTH 1320 0
DWIDTH 11 0
BBX 11 22 0 -5
BITMAP
0000
0000
0000
1100
1b00
0e00
0000
1f80
39c0
31c0
01c0
1fc0
39c0
71c0
71c0
73c0
3dc0
0000
0000
0000
0000
0000
ENDCHAR
STARTCHAR LtSmlADrss
ENCODING 228
SWIDTH 1320 0
DWIDTH 11 0
BBX 11 22 0 -5
BITMAP
0000
0000
1980
1980
1980
0000
0000
1f80
39c0
31c0
01c0
1fc0
39c0
71c0
71c0
73c0
3dc0
0000
0000
0000
0000
0000
ENDCHAR
STARTCHAR LtSmlLAcute
ENCODING 229
SWIDTH 1320 0
DWIDTH 11 0
BBX 11 22 0 -5
BITMAP
0700
0c00
0000
3e00
0e00
0e00
0e00
0e00
0e00
0e00
0e00
0e00
0e00
0e00
0e00
0e00
3f80
0000
0000
0000
0000
0000
ENDCHAR
STARTCHAR LtSmlCAcute
ENCODING 230
SWIDTH 1320 0
DWIDTH 11 0
BBX 11 22 0 -5
BITMAP
0000
0000
0380
0300
0600
0400
0000
1f80
39c0
70c0
7000
7000
7000
7000
70c0
39c0
1f80
0000
0000
0000
0000
0000
ENDCHAR
STARTCHAR LtSmlCCedilla
ENCODING 231
SWIDTH 1320 0
DWIDTH 11 0
BBX 11 22 0 -5
BITMAP
0000
0000
0000
0000
0000
0000
0000
1f80
39c0
70c0
7000
7000
7000
7000
70c0
39c0
1f80
0400
0600
0700
1e00
0000
ENDCHAR
STARTCHAR LtSmlCCaron
ENCODING 232
SWIDTH 1320 0
DWIDTH 11 0
BBX 11 22 0 -5
BITMAP
0000
0000
0000
1980
0f00
0600
0000
1f80
39c0
70c0
7000
7000
7000
7000
70c0
39c0
1f80
0000
0000
0000
0000
0000
ENDCHAR
STARTCHAR LtSmlEAcute
ENCODING 233
SWIDTH 1320 0
DWIDTH 11 0
BBX 11 22 0 -5
BITMAP
0000
0000
0700
0600
0c00
0800
0000
1f80
39c0
71c0
71c0
7fc0
7000
7000
70c0
39c0
1f80
0000
0000
0000
0000
0000
ENDCHAR
STARTCHAR LtSmlEOgonek
ENCODING 234
SWIDTH 1320 0
DWIDTH 11 0
BBX 11 22 0 -5
BITMAP
0000
0000
0000
0000
0000
0000
0000
1f80
39c0
71c0
71c0
7fc0
7000
7000
70c0
39c0
1f80
0700
0600
0600
0380
0000
ENDCHAR
STARTCHAR LtSmlEDrss
ENCODING 235
SWIDTH 1320 0
DWIDTH 11 0
BBX 11 22 0 -5
BITMAP
0000
0000
1980
1980
1980
0000
0000
1f80
39c0
71c0
71c0
7fc0
7000
7000
70c0
39c0
1f80
0000
0000
0000
0000
0000
ENDCHAR
STARTCHAR LtSmlECaron
ENCODING 236
SWIDTH 1320 0
DWIDTH 11 0
BBX 11 22 0 -5
BITMAP
0000
0000
0000
1980
0f00
0600
0000
1f80
39c0
71c0
71c0
7fc0
7000
7000
70c0
39c0
1f80
0000
0000
0000
0000
0000
ENDCHAR
STARTCHAR LtSmlIAcute
ENCODING 237
SWIDTH 1320 0
DWIDTH 11 0
BBX 11 22 0 -5
BITMAP
0000
0000
0700
0600
0c00
0800
0000
3e00
0e00
0e00
0e00
0e00
0e00
0e00
0e00
0e00
3f80
0000
0000
0000
0000
0000
ENDCHAR
STARTCHAR LtSmlICircum
ENCODING 238
SWIDTH 1320 0
DWIDTH 11 0
BBX 11 22 0 -5
BITMAP
0000
0000
0c00
1e00
3300
0000
0000
3e00
0e00
0e00
0e00
0e00
0e00
0e00
0e00
0e00
3f80
0000
0000
0000
0000
0000
ENDCHAR
STARTCHAR LtSmlDCaron
ENCODING 239
SWIDTH 1320 0
DWIDTH 11 0
BBX 11 22 0 -5
BITMAP
0000
0000
00e0
0760
0760
07c0
0700
3700
6f00
e700
e700
e700
e700
e700
e700
6f00
3700
0000
0000
0000
0000
0000
ENDCHAR
STARTCHAR LtSmlDStroke
ENCODING 240
SWIDTH 1320 0
DWIDTH 11 0
BBX 11 22 0 -5
BITMAP
0000
0000
0000
01c0
0fe0
0fe0
01c0
1dc0
3bc0
71c0
71c0
71c0
71c0
71c0
71c0
3bc0
1dc0
0000
0000
0000
0000
0000
ENDCHAR
STARTCHAR LtSmlNAcute
ENCODING 241
SWIDTH 1320 0
DWIDTH 11 0
BBX 11 22 0 -5
BITMAP
0000
0000
0700
0600
0c00
0800
0000
7780
79c0
71c0
71c0
71c0
71c0
71c0
71c0
71c0
71c0
0000
0000
0000
0000
0000
ENDCHAR
STARTCHAR LtSmlNCaron
ENCODING 242
SWIDTH 1320 0
DWIDTH 11 0
BBX 11 22 0 -5
BITMAP
0000
0000
0000
1980
0f00
0600
0000
7780
79c0
71c0
71c0
71c0
71c0
71c0
71c0
71c0
71c0
0000
0000
0000
0000
0000
ENDCHAR
STARTCHAR LtSmlOAcute
ENCODING 243
SWIDTH 1320 0
DWIDTH 11 0
BBX 11 22 0 -5
BITMAP
0000
0000
0380
0300
0600
0400
0000
1f00
3b80
71c0
71c0
71c0
71c0
71c0
71c0
3b80
1f00
0000
0000
0000
0000
0000
ENDCHAR
STARTCHAR LtSmlOCircum
ENCODING 244
SWIDTH 1320 0
DWIDTH 11 0
BBX 11 22 0 -5
BITMAP
0000
0000
0600
0f00
1980
0000
0000
1f00
3b80
71c0
71c0
71c0
71c0
71c0
71c0
3b80
1f00
0000
0000
0000
0000
0000
ENDCHAR
STARTCHAR LtSmlOAcute2
ENCODING 245
SWIDTH 1320 0
DWIDTH 11 0
BBX 11 22 0 -5
BITMAP
0000
0000
06c0
0d80
1b00
1200
0000
1f00
3b80
71c0
71c0
71c0
71c0
71c0
71c0
3b80
1f00
0000
0000
0000
0000
0000
ENDCHAR
STARTCHAR LtSmlODrss
ENCODING 246
SWIDTH 1320 0
DWIDTH 11 0
BBX 11 22 0 -5
BITMAP
0000
0000
1980
1980
1980
0000
0000
1f00
3b80
71c0
71c0
71c0
71c0
71c0
71c0
3b80
1f00
0000
0000
0000
0000
0000
ENDCHAR
STARTCHAR MDivision
ENCODING 247
SWIDTH 1320 0
DWIDTH 11 0
BBX 11 22 0 -5
BITMAP
0000
0000
0000
0000
0000
0000
0e00
0e00
0e00
0000
7fc0
7fc0
0000
0e00
0e00
0e00
0000
0000
0000
0000
0000
0000
ENDCHAR
STARTCHAR LtSmlRCaron
ENCODING 248
SWIDTH 1320 0
DWIDTH 11 0
BBX 11 22 0 -5
BITMAP
0000
0000
0000
1980
0f00
0600
0000
79c0
3bc0
3cc0
3800
3800
3800
3800
3800
3800
3800
0000
0000
0000
0000
0000
ENDCHAR
STARTCHAR LtSmlURing
ENCODING 249
SWIDTH 1320 0
DWIDTH 11 0
BBX 11 22 0 -5
BITMAP
0000
0e00
1b00
1100
1b00
0e00
0000
71c0
71c0
71c0
71c0
71c0
71c0
71c0
71c0
73c0
3dc0
0000
0000
0000
0000
0000
ENDCHAR
STARTCHAR LtSmlUAcute
ENCODING 250
SWIDTH 1320 0
DWIDTH 11 0
BBX 11 22 0 -5
BITMAP
0000
0000
0380
0300
0600
0400
0000
71c0
71c0
71c0
71c0
71c0
71c0
71c0
71c0
73c0
3dc0
0000
0000
0000
0000
0000
ENDCHAR
STARTCHAR LtSmlUAcute2
ENCODING 251
SWIDTH 1320 0
DWIDTH 11 0
BBX 11 22 0 -5
BITMAP
0000
0000
06c0
0d80
1b00
1200
0000
71c0
71c0
71c0
71c0
71c0
71c0
71c0
71c0
73c0
3dc0
0000
0000
0000
0000
0000
ENDCHAR
STARTCHAR LtSmlUDrss
ENCODING 252
SWIDTH 1320 0
DWIDTH 11 0
BBX 11 22 0 -5
BITMAP
0000
0000
1980
1980
1980
0000
0000
71c0
71c0
71c0
71c0
71c0
71c0
71c0
71c0
73c0
3dc0
0000
0000
0000
0000
0000
ENDCHAR
STARTCHAR LtSmlYAcute
ENCODING 253
SWIDTH 1320 0
DWIDTH 11 0
BBX 11 22 0 -5
BITMAP
0000
0000
0380
0300
0600
0400
0000
60c0
70c0
7080
3980
3980
1d00
1f00
0f00
0e00
0600
0600
6400
6c00
3800
0000
ENDCHAR
STARTCHAR LtSmlTComma
ENCODING 254
SWIDTH 1320 0
DWIDTH 11 0
BBX 11 22 0 -5
BITMAP
0000
0000
0000
0000
0c00
0c00
1c00
7f00
1c00
1c00
1c00
1c00
1c00
1c00
1cc0
1cc0
0f80
0000
0600
0700
0e00
0000
ENDCHAR
STARTCHAR AccDot
ENCODING 255
SWIDTH 1320 0
DWIDTH 11 0
BBX 11 22 0 -5
BITMAP
0000
0000
0e00
0e00
0e00
0000
0000
0000
0000
0000
0000
0000
0000
0000
0000
0000
0000
0000
0000
0000
0000
0000
ENDCHAR
ENDFONT
